<?xml version="1.0" encoding="utf-8"?>
<!-- Generator: Adobe Illustrator 24.1.2, SVG Export Plug-In . SVG Version: 6.00 Build 0)  -->
<svg version="1.1" id="Ebene_1" xmlns="http://www.w3.org/2000/svg" xmlns:xlink="http://www.w3.org/1999/xlink" x="0px" y="0px"
	 viewBox="0 0 250 250" style="enable-background:new 0 0 250 250;" xml:space="preserve">
<style type="text/css">
	.st0{fill:#00ABFA;stroke:#000000;stroke-width:3;stroke-linecap:square;stroke-linejoin:round;}
	.st1{fill:none;stroke:#000000;stroke-width:3;stroke-linecap:square;stroke-linejoin:round;}
</style>
<g id="Group_1189" transform="translate(1.5 1.5)">
	<path id="Path_524" class="st0" d="M54.1,134.4c-2.9,0-3.4-1.5-1.2-3.3L119.5,77c2.4-1.8,5.7-1.8,8.1,0l66.6,54.1
		c2.2,1.8,1.7,3.3-1.2,3.3H54.1z"/>
	<line id="Line_240" class="st1" x1="179.9" y1="135.2" x2="179.9" y2="197.7"/>
	<line id="Line_241" class="st1" x1="160.8" y1="135.2" x2="160.8" y2="197.7"/>
	<line id="Line_242" class="st1" x1="133" y1="135.2" x2="133" y2="197.7"/>
	<line id="Line_243" class="st1" x1="114" y1="135.2" x2="114" y2="197.7"/>
	<line id="Line_244" class="st1" x1="86.2" y1="135.2" x2="86.2" y2="197.7"/>
	<line id="Line_245" class="st1" x1="48.9" y1="199.4" x2="198.1" y2="199.4"/>
	<line id="Line_246" class="st1" x1="48.9" y1="209.8" x2="198.1" y2="209.8"/>
	<line id="Line_247" class="st1" x1="48.9" y1="220.2" x2="198.1" y2="220.2"/>
	<rect id="Rectangle_108" x="122.6" y="26.8" class="st0" width="34.7" height="20.8"/>
	<line id="Line_248" class="st1" x1="122.6" y1="74.5" x2="122.6" y2="27.6"/>
	<line id="Line_249" class="st1" x1="67.1" y1="135.2" x2="67.1" y2="197.7"/>
</g>
</svg>
