<?xml version="1.0" encoding="utf-8"?>
<!-- Generator: Adobe Illustrator 24.0.1, SVG Export Plug-In . SVG Version: 6.00 Build 0)  -->
<svg version="1.1" id="Layer_1" xmlns="http://www.w3.org/2000/svg" xmlns:xlink="http://www.w3.org/1999/xlink" x="0px" y="0px"
	 viewBox="0 0 226 199" style="enable-background:new 0 0 226 199;" xml:space="preserve">
<style type="text/css">
	.st0{fill:#00ABFA;stroke:#000000;stroke-width:3;stroke-linecap:square;stroke-linejoin:round;}
	.st1{fill:none;stroke:#000000;stroke-width:3;stroke-linecap:square;stroke-linejoin:round;}
	.st2{fill:none;stroke:#000000;stroke-width:3;stroke-linecap:round;stroke-linejoin:round;}
	.st3{fill:none;}
	.st4{fill:none;stroke:#000000;stroke-width:3;}
	.st5{fill:none;stroke:#000000;stroke-width:3;stroke-linecap:round;}
	.st6{fill:#17B6FF;}
</style>
<g id="Group_1254" transform="translate(-1408 -3733)">
	<g>
		<path d="M1577.5,3733h-113l-56.5,99.5l56.5,99.5h113l56.5-99.5L1577.5,3733z M1575.8,3929h-109.5l-54.8-96.5l54.8-96.5h109.5
			l54.8,96.5L1575.8,3929z"/>
	</g>
	<g id="Group_1206" transform="translate(1473.297 3761.873)">
		<g id="Group_211" transform="translate(0 0)">
			<path id="Path_585" class="st0" d="M4.2,9.1c-3.1,6.6,0.9,15,0.9,15S14,21.6,17,15S16.2,0,16.2,0S7.3,2.4,4.2,9.1z"/>
			<path id="Path_586" class="st1" d="M0,28.8c3.1,0,4.4-2.4,5.4-5.3l5.4-12"/>
		</g>
	</g>
	<g id="Group_1205" transform="translate(1447.075 3775.964)">
		<path id="Path_531" class="st2" d="M48.8,47.3L32.2,60.2l16.6,14.2"/>
		<path id="Path_532" class="st2" d="M116.4,74.4l16.6-12.9l-16.6-14.2"/>
		<line id="Line_254" class="st2" x1="98.6" y1="82.2" x2="106.8" y2="38.8"/>
		<g id="Ellipse_48" transform="translate(54.925 32.036)">
			<ellipse class="st3" cx="4.5" cy="5" rx="4.5" ry="5"/>
			<ellipse class="st4" cx="4.5" cy="5" rx="3" ry="3.5"/>
		</g>
		<path id="Path_810" class="st5" d="M113.2,28.2c-1.4,0-2.8,0.1-4.2,0.3C107.1,12.4,94,0,78.6,0C61.7,0,48,14.5,48,32.4
			c0,0.3,0,0.7,0,1c-2.8-1.6-6.1-2.5-9.3-2.5c-11,0-20,9.5-20,21.1c0,1.4,0.1,2.9,0.4,4.3c-0.6-0.1-1.2-0.1-1.8-0.1
			C7.8,56.4,0,64.6,0,74.7S7.8,93,17.3,93h95.9c18.4,0,33.3-14.5,33.3-32.4S131.6,28.2,113.2,28.2z"/>
	</g>
	<g id="c" transform="translate(1510.07 3814.587)">
		<g id="Group_1076" transform="translate(0 0)">
			<g id="Path_896" transform="translate(986.934 -279.861)">
				<path class="st6" d="M-972.4,319.6c-2.8,0-5.2-0.6-7.3-1.7c-2-1.1-3.7-2.6-5.1-4.5c-1.3-1.8-2.2-4.1-2.9-6.6
					c-0.6-2.4-0.9-5.1-0.9-7.9c0-2.6,0.3-5.2,1-7.7c0.7-2.5,1.7-4.7,3-6.6c1.3-2,3-3.5,5-4.7c2-1.2,4.4-1.8,7-1.8
					c4,0,7.4,1.1,9.9,3.4c2.5,2.2,4.1,5.7,4.7,10.3l0.2,1.7h-1.7h-3.7h-1.2l-0.3-1.1c-0.6-2.4-1.6-4.3-2.9-5.6c-1.3-1.3-3-1.9-5-1.9
					c-1.6,0-2.9,0.4-4,1.1c-1.2,0.8-2.1,1.8-2.8,3c-0.8,1.3-1.4,2.9-1.7,4.5c-0.4,1.7-0.6,3.5-0.6,5.3c0,1.8,0.2,3.6,0.5,5.3
					c0.4,1.7,0.9,3.2,1.7,4.5c0.7,1.2,1.7,2.2,2.8,3c1.1,0.7,2.4,1.1,4.1,1.1c2.3,0,4.1-0.7,5.5-2.1c1.4-1.5,2.4-3.6,2.8-6.3
					l0.2-1.3h1.3h3.9h1.8l-0.3,1.7c-0.3,2.1-0.9,4.1-1.7,5.9c-0.8,1.8-1.8,3.4-3,4.7c-1.3,1.3-2.8,2.4-4.5,3.1
					C-968.2,319.3-970.2,319.6-972.4,319.6z"/>
				<path d="M-972.4,279.9c-2.4,0-4.5,0.5-6.3,1.6c-1.8,1.1-3.3,2.5-4.6,4.2c-1.2,1.8-2.2,3.8-2.8,6.1c-0.6,2.3-0.9,4.7-0.9,7.3
					c0,2.7,0.3,5.2,0.9,7.5c0.6,2.3,1.4,4.4,2.6,6.1c1.2,1.7,2.7,3.1,4.5,4c1.8,1,4,1.5,6.5,1.5c2,0,3.8-0.3,5.3-1
					c1.5-0.7,2.9-1.6,4-2.8c1.1-1.2,2-2.6,2.8-4.3c0.7-1.7,1.2-3.5,1.6-5.5h-3.9c-0.4,3-1.5,5.4-3.2,7.2c-1.7,1.7-3.8,2.6-6.6,2.6
					c-1.9,0-3.5-0.4-4.9-1.3c-1.3-0.9-2.4-2-3.3-3.5c-0.9-1.4-1.5-3.1-1.9-4.9c-0.4-1.8-0.6-3.7-0.6-5.6c0-1.9,0.2-3.7,0.6-5.6
					c0.4-1.8,1-3.5,1.9-5c0.9-1.5,2-2.7,3.3-3.5c1.3-0.9,3-1.3,4.8-1.3c2.4,0,4.5,0.8,6.1,2.3c1.6,1.5,2.7,3.6,3.4,6.3h3.7
					c-0.6-4.3-2-7.4-4.3-9.4C-965.7,280.9-968.7,279.9-972.4,279.9 M-972.4,276.9c4.4,0,8.1,1.3,10.9,3.8c2.8,2.5,4.6,6.3,5.2,11.2
					c0.1,0.9-0.1,1.7-0.7,2.4c-0.6,0.7-1.4,1-2.3,1h-3.7c-1.4,0-2.6-0.9-2.9-2.3c-0.5-2.1-1.4-3.8-2.5-4.9c-1-1-2.3-1.4-4-1.4
					c-1.3,0-2.3,0.3-3.2,0.8c-1,0.6-1.7,1.5-2.4,2.5c-0.7,1.2-1.2,2.6-1.6,4.1c-0.4,1.6-0.5,3.3-0.5,4.9c0,1.7,0.2,3.4,0.5,5
					c0.3,1.5,0.8,2.8,1.5,4c0.6,1.1,1.4,1.9,2.3,2.5c0.9,0.6,1.9,0.8,3.3,0.8c1.9,0,3.3-0.5,4.4-1.7c1.2-1.3,2-3.1,2.4-5.5
					c0.2-1.5,1.5-2.6,3-2.6h3.9c0.9,0,1.7,0.4,2.3,1.1c0.6,0.7,0.8,1.6,0.7,2.4c-0.4,2.2-1,4.3-1.8,6.2c-0.8,2-2,3.7-3.3,5.1
					c-1.4,1.5-3.1,2.7-5,3.5c-1.9,0.8-4.1,1.2-6.5,1.2c-3,0-5.7-0.6-8-1.8c-2.2-1.2-4.1-2.9-5.6-5c-1.4-2-2.4-4.4-3.1-7.1
					c-0.6-2.6-0.9-5.3-0.9-8.2c0-2.8,0.4-5.5,1.1-8c0.7-2.6,1.8-5,3.2-7c1.5-2.1,3.3-3.9,5.5-5.1
					C-977.9,277.5-975.3,276.9-972.4,276.9z"/>
			</g>
		</g>
	</g>
</g>
</svg>
