<?xml version="1.0" encoding="utf-8"?>
<!-- Generator: Adobe Illustrator 24.0.1, SVG Export Plug-In . SVG Version: 6.00 Build 0)  -->
<svg version="1.1" id="Layer_1" xmlns="http://www.w3.org/2000/svg" xmlns:xlink="http://www.w3.org/1999/xlink" x="0px" y="0px"
	 viewBox="0 0 226 199" style="enable-background:new 0 0 226 199;" xml:space="preserve">
<style type="text/css">
	.st0{fill:#17B6FF;stroke:#000000;stroke-width:3;stroke-linecap:square;stroke-linejoin:round;}
	.st1{fill:#FFFFFF;stroke:#000000;stroke-width:3;stroke-linecap:square;stroke-linejoin:round;}
	.st2{fill:none;stroke:#000000;stroke-width:3;stroke-linecap:square;stroke-linejoin:round;}
	.st3{fill:none;stroke:#000000;stroke-width:3;stroke-linejoin:round;}
</style>
<g id="Group_1253" transform="translate(-1126 -3733)">
	<g id="Group_1196" transform="translate(5 -5)">
		<path id="Path_582" class="st0" d="M1209.5,3797.7v-7.1h60.2v85.4h-7.1"/>
		<g id="Group_206" transform="translate(1201.819 3798.198)">
			<path id="Path_580" class="st1" d="M60.2,23v62.4H0V0h36.9L60.2,23z"/>
			<path id="Path_581" class="st1" d="M36.1,0.5v23.5h23.5"/>
		</g>
		<g id="Group_207" transform="translate(1215.502 3839.794)">
			<line id="Line_296" class="st2" x1="0" y1="0" x2="32.8" y2="0"/>
			<line id="Line_297" class="st2" x1="0" y1="9.9" x2="32.8" y2="9.9"/>
			<line id="Line_298" class="st2" x1="0" y1="18.6" x2="32.8" y2="18.6"/>
			<line id="Line_299" class="st2" x1="0" y1="28.5" x2="32.8" y2="28.5"/>
		</g>
		<g id="Group_208" transform="translate(1213.259 3808.084)">
			<path id="Path_583" class="st3" d="M6.4,0H4.9c-1,0-1.4,0.1-1.7,0.4C2.9,0.7,2.8,1.2,2.8,2.3v5.5c0,1.7-1.7,2.4-2.8,2.9
				c1.1,0.5,2.8,1.3,2.8,2.9v5.5c0,1.1,0.1,1.6,0.4,1.9c0.3,0.3,0.7,0.4,1.7,0.4h1.5"/>
		</g>
		<g id="Group_209" transform="translate(1223.377 3808.083)">
			<path id="Path_584" class="st3" d="M0,21.4h1.3c1,0,1.4-0.1,1.7-0.4c0.3-0.3,0.4-0.8,0.4-1.9v-5.5c0-1.7,1.7-2.4,2.8-2.9
				c-1.1-0.5-2.8-1.3-2.8-2.9V2.3c0-1.1-0.1-1.6-0.4-1.9C2.7,0.1,2.3,0,1.3,0H0"/>
		</g>
	</g>
	<g>
		<path d="M1295.5,3733h-113l-56.5,99.5l56.5,99.5h113l56.5-99.5L1295.5,3733z M1293.8,3929h-109.5l-54.8-96.5l54.8-96.5h109.5
			l54.8,96.5L1293.8,3929z"/>
	</g>
</g>
</svg>
