<?xml version="1.0" encoding="utf-8"?>
<!-- Generator: Adobe Illustrator 24.0.1, SVG Export Plug-In . SVG Version: 6.00 Build 0)  -->
<svg version="1.1" id="Layer_1" xmlns="http://www.w3.org/2000/svg" xmlns:xlink="http://www.w3.org/1999/xlink" x="0px" y="0px"
	 viewBox="0 0 226 199" style="enable-background:new 0 0 226 199;" xml:space="preserve">
<style type="text/css">
	.st0{fill:none;stroke:#000000;stroke-width:3;stroke-linecap:round;stroke-linejoin:round;}
	.st1{fill:#00A9FA;stroke:#000000;stroke-width:3;stroke-linecap:round;stroke-miterlimit:10;}
	.st2{fill:none;stroke:#000000;stroke-width:3;stroke-linecap:round;stroke-miterlimit:10;}
</style>
<g id="Group_1263" transform="translate(-580 -3733)">
	<circle id="Ellipse_67" class="st0" cx="662.9" cy="3804.5" r="6.4"/>
	<g id="Group_1251">
		<g>
			<path d="M749.5,3733h-113l-56.5,99.5l56.5,99.5h113l56.5-99.5L749.5,3733z M747.8,3929H638.2l-54.8-96.5l54.8-96.5h109.5
				l54.8,96.5L747.8,3929z"/>
		</g>
		<path id="Path_921" class="st1" d="M719.1,3869.9l-19.4-33.5v-20.2h-16v20.2l-19.4,33.5c-1.3,2.3-0.5,5.2,1.7,6.5
			c0.7,0.4,1.5,0.6,2.4,0.6H715c2.6,0,4.7-2.1,4.7-4.7C719.8,3871.5,719.5,3870.6,719.1,3869.9z"/>
		<line id="Line_448" class="st2" x1="684.4" y1="3826.1" x2="690.2" y2="3826.1"/>
		<line id="Line_449" class="st2" x1="684.4" y1="3821" x2="690.2" y2="3821"/>
		<line id="Line_450" class="st2" x1="684.4" y1="3831.1" x2="690.2" y2="3831.1"/>
		<line id="Line_451" class="st2" x1="674.8" y1="3852.5" x2="708.9" y2="3852.5"/>
		<circle id="Ellipse_68" class="st0" cx="673.4" cy="3782" r="11.4"/>
		<path id="Path_922" class="st0" d="M725.4,3829.6c-8.4,0-15.1-6.8-15.1-15.1s6.8-15.1,15.1-15.1s15.1,6.8,15.1,15.1l0,0"/>
		<g id="Group_567" transform="translate(738.306 3818.092)">
			<path id="Path_674" class="st0" d="M9.3,6.2L0,13.5l9.3,8"/>
			<path id="Path_675" class="st0" d="M23.5,21.5l9.3-7.3l-9.3-8"/>
			<line id="Line_338" class="st0" x1="13" y1="28" x2="20.3" y2="0"/>
		</g>
	</g>
</g>
</svg>
