<?xml version="1.0" encoding="utf-8"?>
<!-- Generator: Adobe Illustrator 24.1.2, SVG Export Plug-In . SVG Version: 6.00 Build 0)  -->
<svg version="1.1" id="Ebene_1" xmlns="http://www.w3.org/2000/svg" xmlns:xlink="http://www.w3.org/1999/xlink" x="0px" y="0px"
	 viewBox="0 0 250 250" style="enable-background:new 0 0 250 250;" xml:space="preserve">
<style type="text/css">
	.st0{fill:none;stroke:#000000;stroke-width:3;stroke-miterlimit:10;}
	.st1{fill:#00ABFA;stroke:#000000;stroke-width:3;stroke-miterlimit:10;}
</style>
<g id="Group_1180" transform="translate(-3734.112 -1563.264)">
	<path id="Path_797" class="st0" d="M3945.9,1691.8c0-43.4-35.2-78.6-78.6-78.6s-78.6,35.2-78.6,78.6c0,30.5,17.7,58.3,45.4,71.2
		l25.6-55.4c-8.7-4.2-12.4-14.7-8.3-23.4c4.2-8.7,14.7-12.4,23.4-8.3c8.7,4.2,12.4,14.7,8.3,23.4c-1.8,3.7-4.8,6.7-8.6,8.4
		l25.9,55.3C3928.1,1750.2,3945.9,1722.4,3945.9,1691.8z"/>
	<path id="Path_798" class="st1" d="M3929.5,1691.6c0-43.4-35.2-78.6-78.6-78.6s-78.6,35.2-78.6,78.6c0,30.5,17.7,58.3,45.4,71.2
		l25.6-55.4c-8.7-4.2-12.4-14.7-8.3-23.4c4.2-8.7,14.7-12.4,23.4-8.3s12.4,14.7,8.3,23.4c-1.8,3.7-4.8,6.7-8.6,8.4l25.9,55.3
		C3911.8,1749.9,3929.5,1722.1,3929.5,1691.6z"/>
</g>
</svg>
