<?xml version="1.0" encoding="utf-8"?>
<!-- Generator: Adobe Illustrator 24.1.2, SVG Export Plug-In . SVG Version: 6.00 Build 0)  -->
<svg version="1.1" id="Ebene_1" xmlns="http://www.w3.org/2000/svg" xmlns:xlink="http://www.w3.org/1999/xlink" x="0px" y="0px"
	 viewBox="0 0 250 250" style="enable-background:new 0 0 250 250;" xml:space="preserve">
<style type="text/css">
	.st0{fill:none;stroke:#000000;stroke-width:3;stroke-linecap:square;stroke-linejoin:round;stroke-dasharray:8;}
	.st1{fill:#FFFFFF;stroke:#000000;stroke-width:3;stroke-linejoin:round;}
	.st2{fill:none;stroke:#000000;stroke-width:3;stroke-linejoin:round;}
	.st3{fill:#00ABFA;stroke:#000000;stroke-width:3;stroke-linejoin:round;}
</style>
<g id="Group_1188" transform="translate(858 -234)">
	<circle id="Ellipse_55" class="st0" cx="-733" cy="360.5" r="68"/>
	<g id="Group_1067">
		<circle id="Ellipse_56" class="st1" cx="-655.5" cy="356" r="32.5"/>
		<g id="Group_1066">
			<circle id="Ellipse_57" class="st2" cx="-656" cy="347.5" r="11"/>
			<path id="Path_892" class="st2" d="M-673,383.3v-12.7c0-2.8,2.3-5.2,5.2-5.2h24.7c2.8,0,5.2,2.3,5.2,5.2v12.7"/>
		</g>
	</g>
	<g id="Group_1069">
		<circle id="Ellipse_58" class="st1" cx="-810.5" cy="356" r="32.5"/>
		<g id="Group_1068">
			<circle id="Ellipse_59" class="st2" cx="-811" cy="347.5" r="11"/>
			<path id="Path_893" class="st2" d="M-828,383.3v-12.7c0-2.8,2.3-5.2,5.2-5.2h24.7c2.8,0,5.2,2.3,5.2,5.2v12.7"/>
		</g>
	</g>
	<g id="Group_1071">
		<circle id="Ellipse_60" class="st1" cx="-732.5" cy="284" r="32.5"/>
		<g id="Group_1070">
			<circle id="Ellipse_61" class="st2" cx="-733" cy="275.5" r="11"/>
			<path id="Path_894" class="st2" d="M-750,311.3v-12.7c0-2.8,2.3-5.2,5.2-5.2h24.7c2.8,0,5.2,2.3,5.2,5.2v12.7"/>
		</g>
	</g>
	<g id="Group_1073">
		<circle id="Ellipse_62" class="st1" cx="-732.5" cy="434" r="32.5"/>
		<g id="Group_1072">
			<circle id="Ellipse_63" class="st2" cx="-733" cy="425.5" r="11"/>
			<path id="Path_895" class="st2" d="M-750,461.3v-12.7c0-2.8,2.3-5.2,5.2-5.2h24.7c2.8,0,5.2,2.3,5.2,5.2v12.7"/>
		</g>
	</g>
	<circle id="Ellipse_64" class="st3" cx="-732.5" cy="360" r="18.5"/>
</g>
</svg>
