<?xml version="1.0" encoding="utf-8"?>
<!-- Generator: Adobe Illustrator 24.0.1, SVG Export Plug-In . SVG Version: 6.00 Build 0)  -->
<svg version="1.1" id="Layer_1" xmlns="http://www.w3.org/2000/svg" xmlns:xlink="http://www.w3.org/1999/xlink" x="0px" y="0px"
	 viewBox="0 0 226 199" style="enable-background:new 0 0 226 199;" xml:space="preserve">
<style type="text/css">
	.st0{fill:#FFFFFF;stroke:#000000;stroke-width:3;stroke-linecap:square;stroke-linejoin:round;stroke-dasharray:8;}
	.st1{fill:#FFFFFF;stroke:#000000;stroke-width:3;stroke-linejoin:round;}
	.st2{fill:#17B6FF;stroke:#000000;stroke-width:3;stroke-linejoin:round;}
</style>
<g id="Group_1252" transform="translate(-856 -3733)">
	<g>
		<path d="M1025.5,3733h-113l-56.5,99.5l56.5,99.5h113l56.5-99.5L1025.5,3733z M1023.8,3929H914.2l-54.8-96.5l54.8-96.5h109.5
			l54.8,96.5L1023.8,3929z"/>
	</g>
	<g id="Group_1192" transform="translate(903.595 3766.272)">
		<ellipse id="Ellipse_55" class="st0" cx="65.4" cy="66.2" rx="41" ry="40.5"/>
		<g id="Group_1067" transform="translate(92.812 42.904)">
			<circle id="Ellipse_56" class="st1" cx="19.6" cy="19.8" r="20"/>
			<g id="Group_1066" transform="translate(8.916 7.88)">
				<circle id="Ellipse_57" class="st2" cx="10.2" cy="6.4" r="6.5"/>
				<path id="Path_892" class="st1" d="M0,28.3v-7.6c0-1.7,1.4-3.1,3.1-3.1h14.7c1.7,0,3.1,1.4,3.1,3.1v7.6"/>
			</g>
		</g>
		<g id="Group_1069" transform="translate(0 42.904)">
			<ellipse id="Ellipse_58" class="st1" cx="19.4" cy="19.8" rx="19" ry="20"/>
			<g id="Group_1068" transform="translate(9.087 7.88)">
				<circle id="Ellipse_59" class="st2" cx="10.8" cy="6.4" r="6.5"/>
				<path id="Path_893" class="st1" d="M0,28.3v-7.6c0-1.7,1.4-3.1,3.1-3.1h14.7c1.7,0,3.1,1.4,3.1,3.1v7.6"/>
			</g>
		</g>
		<g id="Group_1071" transform="translate(46.406 0)">
			<ellipse id="Ellipse_60" class="st1" cx="19.5" cy="19.7" rx="19.5" ry="20"/>
			<g id="Group_1070" transform="translate(9.3 7.88)">
				<circle id="Ellipse_61" class="st2" cx="10.2" cy="6.3" r="6.5"/>
				<path id="Path_894" class="st1" d="M0,28.2v-7.6c0-1.7,1.4-3.1,3.1-3.1h14.7c1.7,0,3.1,1.4,3.1,3.1v7.6"/>
			</g>
		</g>
		<g id="Group_1073" transform="translate(46.406 89.31)">
			<ellipse id="Ellipse_62" class="st1" cx="19.5" cy="20.4" rx="19.5" ry="20"/>
			<g id="Group_1072" transform="translate(9.3 7.88)">
				<ellipse id="Ellipse_63" class="st2" cx="10.2" cy="6.5" rx="6.5" ry="7"/>
				<path id="Path_895" class="st1" d="M0,28.5v-7.6c0-1.7,1.4-3.1,3.1-3.1h14.7c1.7,0,3.1,1.4,3.1,3.1v7.6"/>
			</g>
		</g>
		<circle id="Ellipse_64" class="st2" cx="66.4" cy="65.7" r="12"/>
	</g>
</g>
</svg>
