<?xml version="1.0" encoding="utf-8"?>
<!-- Generator: Adobe Illustrator 24.1.2, SVG Export Plug-In . SVG Version: 6.00 Build 0)  -->
<svg version="1.1" id="Ebene_1" xmlns="http://www.w3.org/2000/svg" xmlns:xlink="http://www.w3.org/1999/xlink" x="0px" y="0px"
	 viewBox="0 0 250 250" style="enable-background:new 0 0 250 250;" xml:space="preserve">
<style type="text/css">
	.st0{fill:none;stroke:#000000;stroke-width:3;stroke-miterlimit:10;}
	.st1{fill:#00ABFA;stroke:#000000;stroke-width:3;stroke-miterlimit:10;}
	.st2{fill:none;}
	.st3{fill:none;stroke:#000000;stroke-width:3;}
	.st4{fill:#00ABFA;}
</style>
<g id="Group_1177" transform="translate(-404 -5779)">
	<path id="Path_880" class="st0" d="M502.5,5907.6v54.3h-18.1"/>
	<path id="Path_881" class="st0" d="M529.7,5908.4v53.6h15.1"/>
	<line id="Line_439" class="st0" x1="515.5" y1="5908.2" x2="515.5" y2="5978.6"/>
	<ellipse id="Ellipse_52" class="st1" cx="480.9" cy="5961.6" rx="4.7" ry="4.7"/>
	<ellipse id="Ellipse_53" class="st1" cx="550.4" cy="5961.6" rx="4.7" ry="4.7"/>
	<ellipse id="Ellipse_54" class="st1" cx="515.5" cy="5982.8" rx="4.7" ry="4.7"/>
	<line id="Line_440" class="st0" x1="461.2" y1="5908" x2="568.5" y2="5908"/>
	<g id="Rectangle_523" transform="translate(404 5871)">
		<path class="st2" d="M57.1,22h110l0,0v64c0,27.6-22.4,50-50,50h-10c-27.6,0-50-22.4-50-50L57.1,22L57.1,22z"/>
		<path class="st3" d="M60.1,23.5h104c0.8,0,1.5,0.7,1.5,1.5v61c0,26.8-21.7,48.5-48.5,48.5h-10c-26.8,0-48.5-21.7-48.5-48.5V25
			C58.6,24.2,59.3,23.5,60.1,23.5z"/>
	</g>
	<path id="Path_885" class="st0" d="M541.5,5893.6v-64.2c0-14.9,12.1-26.9,27-27l0,0c14.9,0,26.9,12.1,27,27v64.2"/>
	<g id="Rectangle_524" transform="translate(451 5900)">
		<path class="st4" d="M65.1,22L65.1,22c4.4,0,8,3.6,8,8v16c0,4.4-3.6,8-8,8l0,0c-4.4,0-8-3.6-8-8V30C57.1,25.6,60.7,22,65.1,22z"/>
		<path class="st3" d="M65.1,23.5L65.1,23.5c3.6,0,6.5,2.9,6.5,6.5v16c0,3.6-2.9,6.5-6.5,6.5l0,0c-3.6,0-6.5-2.9-6.5-6.5V30
			C58.6,26.4,61.5,23.5,65.1,23.5z"/>
	</g>
</g>
</svg>
