<?xml version="1.0" encoding="utf-8"?>
<!-- Generator: Adobe Illustrator 24.1.2, SVG Export Plug-In . SVG Version: 6.00 Build 0)  -->
<svg version="1.1" id="Ebene_1" xmlns="http://www.w3.org/2000/svg" xmlns:xlink="http://www.w3.org/1999/xlink" x="0px" y="0px"
	 viewBox="0 0 250 250" style="enable-background:new 0 0 250 250;" xml:space="preserve">
<style type="text/css">
	.st0{fill:none;stroke:#000000;stroke-width:3;stroke-linecap:round;stroke-linejoin:round;}
	.st1{fill:none;stroke:#000000;stroke-width:3;stroke-linecap:square;stroke-linejoin:round;}
	.st2{fill:#00ABFA;stroke:#000000;stroke-width:3;stroke-linecap:round;stroke-miterlimit:10;}
	.st3{fill:#00ABFA;stroke:#000000;stroke-width:3;stroke-linecap:round;stroke-linejoin:round;}
	.st4{fill:#00ABFA;stroke:#000000;stroke-width:3;stroke-linecap:square;stroke-linejoin:round;}
</style>
<g id="Group_1199" transform="translate(-1353.816 -5791.99)">
	<path id="Path_674" class="st0" d="M1382.1,5958.4l-16.2,12.6l16.2,13.9"/>
	<g id="Group_1064" transform="translate(-25)">
		<path id="Path_675" class="st0" d="M1532.7,5984.8l16.2-12.6l-16.2-13.9"/>
		<line id="Line_338" class="st0" x1="1514.6" y1="5996.1" x2="1527.3" y2="5947.6"/>
	</g>
	<path id="Path_780" class="st1" d="M1411.4,5924.5v-68.7h37v-17.9h102.7v17.9h40.6v120.7"/>
	<rect id="Rectangle_356" x="1422.2" y="5867.7" class="st2" width="14.3" height="14.3"/>
	<rect id="Rectangle_358" x="1559.6" y="5900" class="st2" width="14.3" height="14.3"/>
	<rect id="Rectangle_359" x="1458" y="5848.7" class="st2" width="14.3" height="14.3"/>
	<rect id="Rectangle_360" x="1480.7" y="5858.2" class="st2" width="14.3" height="14.3"/>
	<rect id="Rectangle_361" x="1480.7" y="5882.1" class="st2" width="14.3" height="14.3"/>
	<rect id="Rectangle_362" x="1504.6" y="5874.9" class="st2" width="14.3" height="14.3"/>
	<rect id="Rectangle_363" x="1499.9" y="5900" class="st2" width="14.3" height="14.3"/>
	<rect id="Rectangle_364" x="1527.2" y="5848.7" class="st2" width="14.3" height="14.3"/>
	<line id="Line_400" class="st1" x1="1551.1" y1="5856.4" x2="1551.1" y2="5950.4"/>
	<line id="Line_401" class="st1" x1="1448.4" y1="5856.4" x2="1448.4" y2="5891.3"/>
	<rect id="Rectangle_525" x="1564.2" y="5874.9" class="st2" width="14.3" height="14.3"/>
	<g id="Group_1063" transform="translate(353.037 5288.301)">
		<path id="Path_887" class="st3" d="M1077.8,663.1c-2.3,1-4.9,1.5-7.4,1.5c-10.5,0-18-8.5-18-19c0-9.2,6.6-17.1,15.7-18.7
			c0.4-8.1,7.3-14.3,15.4-13.8c8.1,0.4,14.3,7.3,13.8,15.4c0,0.6-0.1,1.3-0.2,1.9c9,1.5,15.1,10,13.6,19c-1.3,8-8.2,13.8-16.3,13.8
			c-3.4-0.2-6.7-1.2-9.6-3"/>
		<path id="Path_888" class="st4" d="M1078,658.8v27.4c0,1.6,2,2.8,3.6,2.8h0.1c1.5,0.1,2.7-1.1,2.8-2.6c0-0.1,0-0.1,0-0.2v-44.1"/>
		<path id="Path_889" class="st0" d="M1069.4,672.7c-14.2,2.1-24.4,7.9-24.4,14.7c0,8.6,16.4,15.6,36.7,15.6s36.7-7,36.7-15.6
			c0-6.8-10.3-12.6-24.7-14.7"/>
		<path id="Path_890" class="st0" d="M1122.7,685.3c3.7,10-13.1,20.6-25.4,20.6"/>
		<path id="Path_891" class="st0" d="M1061.8,670.4c-14.2,2.1-21.4,9.6-21.4,16.4"/>
	</g>
</g>
</svg>
