<?xml version="1.0" encoding="utf-8"?>
<!-- Generator: Adobe Illustrator 24.0.1, SVG Export Plug-In . SVG Version: 6.00 Build 0)  -->
<svg version="1.1" id="Layer_1" xmlns="http://www.w3.org/2000/svg" xmlns:xlink="http://www.w3.org/1999/xlink" x="0px" y="0px"
	 viewBox="0 0 226 199" style="enable-background:new 0 0 226 199;" xml:space="preserve">
<style type="text/css">
	.st0{fill:none;stroke:#000000;stroke-width:3;stroke-miterlimit:10;}
	.st1{fill:#17B6FF;stroke:#000000;stroke-width:3;stroke-miterlimit:10;}
</style>
<g id="Group_1250" transform="translate(-304 -3733)">
	<g>
		<path d="M473.5,3733h-113l-56.5,99.5l56.5,99.5h113l56.5-99.5L473.5,3733z M471.8,3929H362.2l-54.8-96.5l54.8-96.5h109.5
			l54.8,96.5L471.8,3929z"/>
	</g>
	<g id="Group_1176" transform="translate(364.415 3785.892)">
		<line id="Line_412" class="st0" x1="57.2" y1="43.1" x2="71.2" y2="95.1"/>
		<line id="Line_413" class="st0" x1="57.1" y1="42.8" x2="98.1" y2="62.6"/>
		<line id="Line_414" class="st0" x1="57.1" y1="42.8" x2="92.7" y2="9.6"/>
		<line id="Line_415" class="st0" x1="23.2" y1="12.5" x2="57.1" y2="42.8"/>
		<line id="Line_416" class="st0" x1="7.4" y1="92.4" x2="57.1" y2="42.8"/>
		<circle id="Ellipse_35" class="st1" cx="57.2" cy="41" r="14.1"/>
		<circle id="Ellipse_36" class="st1" cx="92.7" cy="9.6" r="9.6"/>
		<circle id="Ellipse_37" class="st1" cx="98.1" cy="62.6" r="7"/>
		<circle id="Ellipse_38" class="st1" cx="23.2" cy="12.5" r="10.3"/>
		<circle id="Ellipse_39" class="st1" cx="7.4" cy="92.4" r="7.4"/>
		<circle id="Ellipse_40" class="st1" cx="71.2" cy="95.1" r="4.8"/>
	</g>
</g>
</svg>
