<?xml version="1.0" encoding="utf-8"?>
<!-- Generator: Adobe Illustrator 24.1.2, SVG Export Plug-In . SVG Version: 6.00 Build 0)  -->
<svg version="1.1" id="Ebene_1" xmlns="http://www.w3.org/2000/svg" xmlns:xlink="http://www.w3.org/1999/xlink" x="0px" y="0px"
	 viewBox="0 0 250 250" style="enable-background:new 0 0 250 250;" xml:space="preserve">
<style type="text/css">
	.st0{fill:none;stroke:#000000;stroke-width:3;stroke-linecap:round;stroke-linejoin:round;}
	.st1{fill:#00ABFA;stroke:#000000;stroke-width:3;stroke-linecap:round;stroke-linejoin:round;}
</style>
<g id="Group_1255" transform="translate(-1322.57 -6035.203)">
	<g id="Group_1201" transform="translate(1406.194 6036.703)">
		<path id="Path_587" class="st0" d="M51.1,62.4C37.2,92.5,55,130.3,55,130.3s40.3-11,54.2-41.1s-3.9-67.9-3.9-67.9
			S64.9,32.3,51.1,62.4z"/>
		<path id="Path_588" class="st0" d="M31.9,151.6c13.8,0,19.9-10.7,24.3-23.9l24.6-54.2"/>
	</g>
	<g id="Group_1203" transform="translate(1444.882 6129.999)">
		<path id="Path_585" class="st1" d="M50.2,61.3c-11.1,24,3.1,54.1,3.1,54.1s32.1-8.7,43.2-32.7s-3.1-54.1-3.1-54.1
			S61.2,37.3,50.2,61.3z"/>
		<path id="Path_586" class="st0" d="M34.9,132.4c11,0,15.9-8.5,19.4-19l19.6-43.2"/>
	</g>
	<g id="Group_1200" transform="translate(1324.07 6121.852)">
		<path id="Path_589" class="st1" d="M40.8,60.7c-11.1,24,3.1,54.1,3.1,54.1S76,106,87,82s-3-54.1-3-54.1S51.9,36.7,40.8,60.7z"/>
		<path id="Path_590" class="st0" d="M25.5,131.7c11,0,15.9-8.5,19.4-19l19.6-43.2"/>
	</g>
</g>
</svg>
