<svg id="Ebene_1" data-name="Ebene 1" xmlns="http://www.w3.org/2000/svg" xmlns:xlink="http://www.w3.org/1999/xlink" viewBox="0 0 118.37 136.36"><defs><style>.cls-1,.cls-5,.cls-7,.cls-8,.cls-9{fill:none;}.cls-2{fill:#37a5de;}.cls-3{clip-path:url(#clip-path);}.cls-4{fill:#fff;}.cls-5,.cls-7,.cls-8,.cls-9{stroke:#fff;stroke-miterlimit:10;}.cls-5,.cls-7{stroke-width:1.91px;}.cls-6{clip-path:url(#clip-path-2);}.cls-7{stroke-linecap:round;}.cls-8{stroke-width:1.8px;}.cls-9{stroke-width:0.99px;}</style><clipPath id="clip-path" transform="translate(-8.99 -9.49)"><rect class="cls-1" width="136.35" height="155.34"/></clipPath><clipPath id="clip-path-2" transform="translate(-8.99 -9.49)"><rect class="cls-1" width="136.35" height="155.34"/></clipPath></defs><title>CodeforBonnrheinsieg_logo</title><polygon class="cls-2" points="0 102.27 0 34.09 59.19 0 118.38 34.09 118.38 102.27 59.19 136.36 0 102.27"/><g class="cls-3"><path class="cls-4" d="M66,33.26a.82.82,0,0,0-.48-.16c-.28,0-.44.18-.44.56v.19h1.16v.45H65.12v2.53h-.5V34.3h-.84v-.45h.84v-.18c0-.72.35-1,.92-1a1.11,1.11,0,0,1,.62.17Z" transform="translate(-8.99 -9.49)"/><path class="cls-4" d="M68.42,33.8A1.54,1.54,0,1,1,67,35.34a1.46,1.46,0,0,1,1.47-1.54m0,2.63a1.1,1.1,0,1,0-1-1.09,1,1,0,0,0,1,1.09" transform="translate(-8.99 -9.49)"/><path class="cls-4" d="M72.77,34.8a.53.53,0,0,0-.57-.54c-.52,0-1,.49-1,1.5v1.08h-.49v-3h.49v.55a1.26,1.26,0,0,1,1.1-.6.93.93,0,0,1,1,1Z" transform="translate(-8.99 -9.49)"/><polygon class="cls-4" points="55.54 14.33 55.54 14.43 55.54 20.72 56.07 20.72 56.22 20.72 56.34 20.72 56.34 14.33 55.54 14.33"/><path class="cls-4" d="M67.7,30.8c.06,0,.13,0,.13-.1V23.22c0-.05-.07-.1-.13-.1H65.2c-.05,0-.07,0-.07.05v.65c0,.05,0,.1.07.1H66.9c.06,0,.13,0,.13.1V29.9c0,.06-.07.1-.13.1H65.2c-.05,0-.07,0-.07,0v.65c0,.05,0,.1.07.1Z" transform="translate(-8.99 -9.49)"/><polygon class="cls-4" points="59.84 14.33 59.84 14.43 59.84 20.72 60.51 20.72 60.63 20.72 60.63 14.33 59.84 14.33"/><path class="cls-4" d="M69.52,30.8V30c1.1,0,1.86-1.36,1.86-3s-.76-3-1.86-3v-.8c1.5,0,2.66,1.72,2.66,3.84S71,30.8,69.52,30.8" transform="translate(-8.99 -9.49)"/><path class="cls-4" d="M61.24,28.35V29.8a.94.94,0,0,0,1,1h1.24s.07,0,.07-.1v-.6c0-.05-.07-.1-.12-.1h-1c-.26,0-.33-.11-.33-.4V27.88c0-.6-.24-.82-.54-.93.3-.11.54-.33.54-.93V24.3c0-.29.06-.38.33-.38h1.1a.1.1,0,0,0,.07-.1v-.6c0-.05-.07-.1-.12-.1H62.22a.92.92,0,0,0-1,1v1.62s0,.3,0,.4a.67.67,0,0,1-.57.5h-.31c-.06,0-.08,0-.08.1v.6c0,.06,0,.1.08.1h.28a.63.63,0,0,1,.62.54c0,.1,0,.39,0,.39" transform="translate(-8.99 -9.49)"/><path class="cls-4" d="M65.2,23.12h-.6c-.06,0-.08,0-.08.1v.7h.8v-.8Z" transform="translate(-8.99 -9.49)"/><path class="cls-4" d="M64.53,30.1v.6c0,.05,0,.1.07.1h.72V30h-.8Z" transform="translate(-8.99 -9.49)"/><path class="cls-4" d="M69.49,23.12h-.6c-.06,0-.07,0-.07.1v.7h.8v-.8Z" transform="translate(-8.99 -9.49)"/><path class="cls-4" d="M68.82,30.1v.6c0,.05,0,.1.07.1h.73V30h-.8Z" transform="translate(-8.99 -9.49)"/><path class="cls-4" d="M73.81,28.35V29.8a.93.93,0,0,0,1,1H76a.12.12,0,0,0,.08-.1v-.6c0-.05-.07-.1-.13-.1h-1c-.26,0-.32-.11-.32-.4V27.88a1.17,1.17,0,0,0-.1-.47H73.17c.37.1.53.23.6.55a2.33,2.33,0,0,1,0,.38" transform="translate(-8.99 -9.49)"/><path class="cls-4" d="M73.76,26.12a.73.73,0,0,1-.56.5h1.26a1.41,1.41,0,0,0,.15-.6V24.3c0-.29.05-.38.32-.38H76a.11.11,0,0,0,.08-.1v-.6c0-.05-.08-.1-.13-.1H74.79a.92.92,0,0,0-1,1v1.62a2.77,2.77,0,0,1-.06.4" transform="translate(-8.99 -9.49)"/><path class="cls-4" d="M74,27a1.11,1.11,0,0,1,.56.39H76c.06,0,.13,0,.13-.1v-.6c0-.05-.08-.1-.13-.1H74.46A1,1,0,0,1,74,27" transform="translate(-8.99 -9.49)"/><path class="cls-4" d="M72.88,26.61c-.06,0-.07,0-.07.1v.6c0,.05,0,.1.07.1h1.63A.87.87,0,0,0,74,27a.79.79,0,0,0,.42-.4H72.88Z" transform="translate(-8.99 -9.49)"/><polygon class="cls-5" points="112.46 98.98 59.19 129.79 5.92 98.98 5.92 37.38 59.19 6.57 112.46 37.38 112.46 98.98"/></g><g class="cls-6"><path class="cls-5" d="M66.62,98.31c.46,1.15-.51-3.85-2.79-4.28h-6a3.45,3.45,0,0,1-2.19-.81L41.88,80.68a3.23,3.23,0,0,0-4.61.24c-.16.24-.32.4-.48.65L18.31,110.09" transform="translate(-8.99 -9.49)"/><path class="cls-5" d="M86.84,69.38,72.68,43.12a3.24,3.24,0,0,0-4.37-1.46,3.17,3.17,0,0,0-1.46,1.46L54.39,67.34a3.2,3.2,0,0,1-2.91,1.94l-22.63-.86a3.28,3.28,0,0,0-3.16,2.43L14.91,91.43" transform="translate(-8.99 -9.49)"/><path class="cls-7" d="M41.8,62.63l9.63-19.18A3.24,3.24,0,0,1,55.8,42a1.7,1.7,0,0,1,.48.32l3.32,2.51" transform="translate(-8.99 -9.49)"/><path class="cls-5" d="M62.11,53.14l2.72,2.72a1.56,1.56,0,0,0,2.26,0l2.59-2.59a1.56,1.56,0,0,1,2.26,0l2.59,2.59a1.57,1.57,0,0,0,2.27,0l1.72-1.72" transform="translate(-8.99 -9.49)"/><line class="cls-5" x1="35.8" y1="94.12" x2="35.8" y2="94.12"/><path class="cls-8" d="M106.47,44.7h1.44a3.73,3.73,0,0,1,0,7.44H93.25a1.77,1.77,0,0,1-1.78-1.83,1.8,1.8,0,0,1,1.78-1.83h.33a3.65,3.65,0,0,1,3.56-3.72h.72A3.65,3.65,0,0,1,101.41,41h1.45A3.58,3.58,0,0,1,106.47,44.7Z" transform="translate(-8.99 -9.49)"/><path class="cls-4" d="M72.84,93.43h-3a1,1,0,0,1,0-2h3a1,1,0,1,1,0,2" transform="translate(-8.99 -9.49)"/><path class="cls-4" d="M83.36,73.84a.93.93,0,0,1,0-1.86h0a.93.93,0,1,1,0,1.86" transform="translate(-8.99 -9.49)"/><path class="cls-4" d="M68.48,68.26a.93.93,0,0,1-.91-.75c-.84-4.21-6.06-7.74-6.11-7.78a.93.93,0,0,1,1-1.55c.24.16,5.91,4,6.9,9a.93.93,0,0,1-.73,1.09l-.18,0" transform="translate(-8.99 -9.49)"/><path class="cls-4" d="M94.48,123.73l-.22,0a.93.93,0,0,1-.69-1.12c4.48-18.76-9.82-37.74-9.95-37.87a.93.93,0,0,1,1.32-1.31c.13.13,15.17,19.81,10.44,39.61a.93.93,0,0,1-.9.71" transform="translate(-8.99 -9.49)"/><path class="cls-4" d="M68.48,87.78H64.76a.93.93,0,1,1,0-1.86h3.72a.93.93,0,1,1,0,1.86" transform="translate(-8.99 -9.49)"/><path class="cls-4" d="M97.3,85l-.17,0L82.25,82.19a.93.93,0,0,1,.34-1.83L97,83.06l1.33-1.33,1.39-5.54-1.18.39a.93.93,0,0,1-.73-.06l-15.6-8.26H79.63a.94.94,0,0,1-.4-.09L61.57,59.81a.93.93,0,0,1,.8-1.68L79.84,66.4h2.58a.93.93,0,0,1,.43.11l15.45,8.18,2.41-.8A.93.93,0,0,1,101.92,75l-1.86,7.44a.93.93,0,0,1-.24.43L98,84.72a.94.94,0,0,1-.66.27" transform="translate(-8.99 -9.49)"/><path class="cls-4" d="M70.34,68.26H61a.93.93,0,1,1,0-1.86h9.3a.93.93,0,1,1,0,1.86" transform="translate(-8.99 -9.49)"/><path class="cls-4" d="M65.69,75.7H58.25a.93.93,0,0,1,0-1.86h7.44a.93.93,0,1,1,0,1.86" transform="translate(-8.99 -9.49)"/><path class="cls-4" d="M67.55,82.21H61a.93.93,0,1,1,0-1.86h6.51a.93.93,0,1,1,0,1.86" transform="translate(-8.99 -9.49)"/><path class="cls-4" d="M64.76,87.78l-.23,0a.93.93,0,0,1-.68-1.13c.07-.29.57-3-3.16-4.49a.93.93,0,1,1,.69-1.73c4.27,1.71,4.67,5.11,4.28,6.67a.93.93,0,0,1-.9.7" transform="translate(-8.99 -9.49)"/><path class="cls-4" d="M61,82.21l-.23,0a.93.93,0,0,1-.68-1.13,5.58,5.58,0,0,0-2.44-5.54A.93.93,0,0,1,58.81,74a7.39,7.39,0,0,1,3.13,7.48.93.93,0,0,1-.9.71" transform="translate(-8.99 -9.49)"/><path class="cls-4" d="M58.25,75.7a.93.93,0,0,1-.37-1.78c.78-.34,2.9-1.57,3.31-3.2a3.21,3.21,0,0,0-.87-2.8.93.93,0,0,1,1.45-1.16A5,5,0,0,1,63,71.17c-.72,2.85-4.22,4.39-4.37,4.45a.93.93,0,0,1-.36.07" transform="translate(-8.99 -9.49)"/><path class="cls-4" d="M84.28,85a.93.93,0,0,1-.93-.93V81.61a.93.93,0,0,1,1.86,0v2.46a.93.93,0,0,1-.93.93" transform="translate(-8.99 -9.49)"/><path class="cls-4" d="M53.37,130.64a1.35,1.35,0,0,1-.84-.3.93.93,0,0,1,0-1.31c4.21-4,22.26-26.53,17.86-36.21A.93.93,0,0,1,72.11,92c4.83,10.63-13.7,34-18.27,38.32-.18.17-.24.27-.47.27" transform="translate(-8.99 -9.49)"/><path class="cls-4" d="M69.41,93.36a.93.93,0,0,1-.93-.93c0-2.56-1.67-4.65-3.72-4.65a.93.93,0,1,1,0-1.86c3.08,0,5.58,2.92,5.58,6.51a.93.93,0,0,1-.93.93" transform="translate(-8.99 -9.49)"/><path class="cls-4" d="M93.63,110.09H89.92a.93.93,0,1,1,0-1.86h3.71a.93.93,0,1,1,0,1.86" transform="translate(-8.99 -9.49)"/><path class="cls-4" d="M93.35,104.52H89.58a.93.93,0,0,1,0-1.86h3.77a.93.93,0,1,1,0,1.86" transform="translate(-8.99 -9.49)"/><path class="cls-4" d="M112.64,84.07a.93.93,0,1,1,0-1.86,1.39,1.39,0,1,0,0-2.79.93.93,0,0,1,0-1.86,3.25,3.25,0,1,1,0,6.51" transform="translate(-8.99 -9.49)"/><path class="cls-4" d="M112.64,84.07l-.18,0-9.76-1.86a.93.93,0,1,1,.35-1.83l9.76,1.86a.93.93,0,0,1-.17,1.84" transform="translate(-8.99 -9.49)"/><path class="cls-4" d="M107.53,86.85l-.18,0-4.65-.93a.93.93,0,1,1,.36-1.82l4.65.93a.93.93,0,0,1-.18,1.84" transform="translate(-8.99 -9.49)"/><line class="cls-5" x1="81.45" y1="73.37" x2="95.43" y2="108.83"/><rect class="cls-4" x="18.34" y="88.06" width="81.36" height="15.06"/><rect class="cls-9" x="18.34" y="88.06" width="81.36" height="15.06"/><path class="cls-2" d="M32.65,101.29a1.74,1.74,0,0,1,2,1.83,1.61,1.61,0,0,1-.71,1.35A1.84,1.84,0,0,1,35,106.23a2,2,0,0,1-2.2,2.06h-2.6v-7Zm-1.38,1v1.72h1.28c.62,0,1-.29,1-.86s-.34-.86-1-.86Zm0,2.76v2.16h1.35c.81,0,1.23-.38,1.23-1.08s-.42-1.08-1.23-1.08Z" transform="translate(-8.99 -9.49)"/><path class="cls-2" d="M38.32,103.17a2.6,2.6,0,1,1-2.48,2.6,2.43,2.43,0,0,1,2.48-2.6m0,4.28a1.71,1.71,0,1,0-1.38-1.68,1.5,1.5,0,0,0,1.38,1.68" transform="translate(-8.99 -9.49)"/><path class="cls-2" d="M42.94,103.25v.86a1.88,1.88,0,0,1,1.63-.94,1.38,1.38,0,0,1,1.48,1.51v3.61H45V105c0-.68-.31-.92-.78-.92-.65,0-1.29.77-1.29,2.16v2h-1v-5Z" transform="translate(-8.99 -9.49)"/><path class="cls-2" d="M48.4,103.25v.86a1.88,1.88,0,0,1,1.63-.94,1.38,1.38,0,0,1,1.48,1.51v3.61h-1V105c0-.68-.31-.92-.78-.92-.65,0-1.29.77-1.29,2.16v2h-1v-5Z" transform="translate(-8.99 -9.49)"/><rect class="cls-2" x="43.95" y="95.17" width="3.53" height="0.92"/><path class="cls-2" d="M61.19,105.07l2,3.22h-1.3l-2-3.14h-.81v3.14H58v-7h2.45a1.84,1.84,0,0,1,2.07,1.93,1.76,1.76,0,0,1-1.36,1.85m.24-1.85a.82.82,0,0,0-.92-.89H59.13v1.78h1.38a.82.82,0,0,0,.92-.89" transform="translate(-8.99 -9.49)"/><path class="cls-2" d="M65,101.21v2.9a2.06,2.06,0,0,1,1.7-.94,1.37,1.37,0,0,1,1.49,1.57v3.55h-1V105c0-.77-.32-.92-.79-.92s-1.36.73-1.36,2.07v2.13h-1v-7.08Z" transform="translate(-8.99 -9.49)"/><path class="cls-2" d="M73.86,106.06H70.29a1.26,1.26,0,0,0,1.25,1.39,1.45,1.45,0,0,0,1.32-.85l.89.35a2.21,2.21,0,0,1-2.21,1.42,2.61,2.61,0,0,1,0-5.2,2.3,2.3,0,0,1,2.32,2.44Zm-3.55-.87h2.45a1.21,1.21,0,0,0-1.22-1.1,1.22,1.22,0,0,0-1.23,1.1" transform="translate(-8.99 -9.49)"/><path class="cls-2" d="M75.5,101.1a.72.72,0,0,1,.72.73.72.72,0,0,1-1.44,0,.72.72,0,0,1,.72-.73m.52,7.19H75v-5h1Z" transform="translate(-8.99 -9.49)"/><path class="cls-2" d="M78.36,103.25v.86a1.87,1.87,0,0,1,1.63-.94,1.38,1.38,0,0,1,1.48,1.51v3.61h-1V105c0-.68-.31-.92-.78-.92-.65,0-1.29.77-1.29,2.16v2h-1v-5Z" transform="translate(-8.99 -9.49)"/><rect class="cls-2" x="73.91" y="95.17" width="3.53" height="0.92"/><path class="cls-2" d="M90.7,103a1.19,1.19,0,0,0-1-.77.72.72,0,0,0-.73.76c0,1.38,3,1.11,3,3.27a2.07,2.07,0,0,1-2.19,2.13,2.33,2.33,0,0,1-2.31-1.95l.9-.57c.2.78.61,1.48,1.41,1.48a1,1,0,0,0,1.07-1.05c0-1.37-3-1.07-3-3.23a1.8,1.8,0,0,1,1.83-1.84,2.11,2.11,0,0,1,1.93,1.18Z" transform="translate(-8.99 -9.49)"/><path class="cls-2" d="M93.53,101.1a.72.72,0,0,1,.72.73.72.72,0,0,1-1.44,0,.72.72,0,0,1,.72-.73m.52,7.19H93v-5h1Z" transform="translate(-8.99 -9.49)"/><path class="cls-2" d="M99.79,106.06H96.22a1.26,1.26,0,0,0,1.25,1.39,1.45,1.45,0,0,0,1.32-.85l.89.35a2.21,2.21,0,0,1-2.21,1.42,2.61,2.61,0,0,1,0-5.2,2.3,2.3,0,0,1,2.32,2.44Zm-3.55-.87h2.45a1.21,1.21,0,0,0-1.22-1.1,1.22,1.22,0,0,0-1.23,1.1" transform="translate(-8.99 -9.49)"/><path class="cls-2" d="M102.81,103.17a2,2,0,0,1,.92.22l.93-.5.42.75-.68.38a1.64,1.64,0,0,1,.22.84,1.66,1.66,0,0,1-1.81,1.69,2.25,2.25,0,0,1-.81-.15.48.48,0,0,0-.27.44c0,.27.17.39.52.39h1.11c1,0,1.67.49,1.67,1.44,0,1.25-1.08,1.74-2.21,1.74s-2.22-.56-2.22-1.66a1.36,1.36,0,0,1,.43-1,1.07,1.07,0,0,1-.29-.79,1.15,1.15,0,0,1,.61-1,1.64,1.64,0,0,1-.34-1.06,1.66,1.66,0,0,1,1.8-1.69m-.48,4.94a3.93,3.93,0,0,1-.51,0,.83.83,0,0,0-.22.61c0,.5.45.82,1.22.82s1.15-.27,1.15-.76-.34-.64-.83-.64Zm.48-2.43a.82.82,0,1,0-.79-.82.77.77,0,0,0,.79.82" transform="translate(-8.99 -9.49)"/></g></svg>