<svg width="126" height="145" viewBox="0 0 126 145" fill="none" xmlns="http://www.w3.org/2000/svg">
<path d="M3.21301 106.768V37.658L63.213 3.09802L123.213 37.658V106.768L63.213 141.328L3.21301 106.768Z" fill="white"/>
<path d="M63.213 5.98197L120.713 39.102V105.323L63.213 138.442L5.71301 105.323V39.102L63.213 5.98197ZM63.213 0.211975L0.713013 36.212V108.213L63.213 144.213L125.713 108.213V36.212L63.213 0.211975Z" fill="#669ED6"/>
<path d="M61.041 22.516C60.855 22.396 60.717 22.354 60.555 22.354C60.268 22.354 60.111 22.534 60.111 22.924V23.121H61.287V23.578H60.111V26.144H59.607V23.578H58.756V23.121H59.607V22.936C59.607 22.204 59.961 21.898 60.537 21.898C60.812 21.898 60.998 21.97 61.166 22.072L61.041 22.516Z" fill="#659DD5"/>
<path d="M63.465 23.073C64.389 23.073 64.953 23.799 64.953 24.632C64.953 25.466 64.389 26.192 63.465 26.192C62.541 26.192 61.979 25.466 61.979 24.632C61.979 23.799 62.541 23.073 63.465 23.073ZM63.465 25.736C64.082 25.736 64.438 25.214 64.438 24.632C64.438 24.051 64.083 23.529 63.465 23.529C62.847 23.529 62.494 24.051 62.494 24.632C62.494 25.214 62.848 25.736 63.465 25.736Z" fill="#659DD5"/>
<path d="M67.875 24.081C67.832 23.733 67.652 23.529 67.293 23.529C66.766 23.529 66.268 24.027 66.268 25.053V26.144H65.764V23.122H66.268V23.679C66.5 23.313 66.879 23.074 67.383 23.074C67.983 23.074 68.342 23.434 68.377 24.081H67.875Z" fill="#659DD5"/>
<path d="M59.521 12.951V13.051V19.426H60.053H60.204H60.331V12.951H59.521Z" fill="#659DD5"/>
<path d="M62.73 20.032C62.785 20.032 62.859 19.982 62.859 19.927V12.343C62.859 12.287 62.785 12.242 62.73 12.242H60.203C60.146 12.242 60.126 12.265 60.126 12.293V12.444V12.949C60.126 13.005 60.146 13.052 60.203 13.052H61.921C61.976 13.052 62.05 13.096 62.05 13.152V19.117C62.05 19.173 61.976 19.222 61.921 19.222H60.203C60.146 19.222 60.126 19.241 60.126 19.269V19.421V19.927C60.126 19.982 60.146 20.032 60.203 20.032H62.73Z" fill="#659DD5"/>
<path d="M63.871 12.951V13.051V19.426H64.551H64.68V12.951H63.871Z" fill="#659DD5"/>
<path d="M64.578 20.028V19.219C65.691 19.219 66.469 17.836 66.469 16.135C66.469 14.435 65.692 13.051 64.578 13.051V12.242C66.098 12.242 67.277 13.988 67.277 16.135C67.277 18.281 66.098 20.028 64.578 20.028Z" fill="#659DD5"/>
<path d="M56.182 17.541V18.656V19.015C56.182 19.62 56.571 20.033 57.182 20.033H57.354H57.85H58.434C58.461 20.033 58.508 19.982 58.508 19.927V19.32C58.508 19.265 58.438 19.223 58.383 19.223H57.801H57.504H57.321C57.061 19.223 56.993 19.112 56.993 18.813V18.635V17.662V17.068C56.993 16.458 56.744 16.233 56.442 16.123C56.744 16.013 56.993 15.788 56.993 15.179V14.757V13.688V13.434C56.993 13.14 57.051 13.052 57.321 13.052H57.549H57.84H58.434C58.461 13.052 58.508 13.006 58.508 12.951V12.344C58.508 12.288 58.438 12.243 58.383 12.243H57.897H57.438H57.182C56.571 12.243 56.182 12.639 56.182 13.231V13.549V14.872C56.182 14.872 56.162 15.175 56.147 15.279C56.11 15.552 55.774 15.787 55.567 15.784H55.248C55.192 15.784 55.17 15.827 55.17 15.883V16.49C55.17 16.545 55.192 16.593 55.248 16.593H55.539C55.803 16.589 56.139 16.812 56.164 17.145C56.171 17.242 56.182 17.541 56.182 17.541Z" fill="#659DD5"/>
<path d="M60.203 12.242H59.916H59.596C59.539 12.242 59.519 12.288 59.519 12.343V12.53V12.95V13.052H59.596H60.203H60.33V12.95V12.343V12.242H60.203Z" fill="#659DD5"/>
<path d="M59.521 19.32V19.607V19.927C59.521 19.982 59.539 20.032 59.595 20.032H59.783H60.203H60.33V19.927V19.32V19.223H60.203H59.595H59.521V19.32Z" fill="#659DD5"/>
<path d="M64.551 12.242H64.264H63.944C63.887 12.242 63.872 12.288 63.872 12.343V12.53V12.95V13.052H63.944H64.551H64.68V12.95V12.343V12.242H64.551Z" fill="#659DD5"/>
<path d="M63.871 19.32V19.607V19.927C63.871 19.982 63.887 20.032 63.943 20.032H64.131H64.551H64.68V19.927V19.32V19.223H64.551H63.944H63.872L63.871 19.32Z" fill="#659DD5"/>
<path d="M68.93 17.541V18.656V19.015C68.93 19.62 69.309 20.033 69.922 20.033H70.094H70.588H71.172C71.201 20.033 71.256 19.982 71.256 19.927V19.32C71.256 19.265 71.178 19.223 71.123 19.223H70.541H70.244H70.06C69.798 19.223 69.738 19.112 69.738 18.813V18.635V17.662V17.068C69.738 16.872 69.681 16.694 69.636 16.593H68.277C68.65 16.694 68.81 16.828 68.886 17.152C68.926 17.313 68.93 17.541 68.93 17.541Z" fill="#659DD5"/>
<path d="M68.871 15.278C68.793 15.543 68.617 15.682 68.307 15.783H69.58C69.658 15.581 69.738 15.446 69.738 15.178V14.757V13.688V13.434C69.738 13.139 69.789 13.052 70.06 13.052H70.289H70.578H71.172C71.201 13.052 71.256 13.006 71.256 12.95V12.343C71.256 12.288 71.178 12.242 71.123 12.242H70.637H70.178H69.922C69.308 12.242 68.93 12.639 68.93 13.231V13.549V14.871C68.93 14.871 68.91 15.146 68.871 15.278Z" fill="#659DD5"/>
<path d="M69.068 16.194C69.273 16.269 69.498 16.39 69.636 16.592H71.122C71.177 16.592 71.256 16.545 71.256 16.489V15.882C71.256 15.826 71.177 15.783 71.122 15.783H69.579C69.479 15.986 69.238 16.132 69.068 16.194Z" fill="#659DD5"/>
<path d="M67.988 15.783C67.931 15.783 67.918 15.826 67.918 15.882V16.489C67.918 16.544 67.932 16.593 67.988 16.593H68.277H69.636C69.544 16.39 69.318 16.251 69.156 16.188C69.326 16.126 69.478 15.985 69.58 15.783H68.307H67.988Z" fill="#659DD5"/>
<path d="M58.006 66.256C54.378 66.256 53.857 70.338 49.281 70.338C44.23 70.338 45.25 66.256 40.556 66.256C36.067 66.256 35.759 70.338 31.83 70.338C27.27 70.338 27.27 66.256 23.106 66.256C18.106 66.256 18.309 70.338 14.381 70.338C10.145 70.338 10.35 66.256 5.655 66.256" stroke="#659DD5" stroke-width="2" stroke-miterlimit="10" stroke-linecap="square" stroke-linejoin="round"/>
<path d="M120.006 66.256C116.378 66.256 115.857 70.338 111.281 70.338C106.229 70.338 107.25 66.256 102.555 66.256C98.066 66.256 97.758 70.338 93.829 70.338C89.268 70.338 89.268 66.256 85.104 66.256C80.104 66.256 80.307 70.338 76.379 70.338C72.143 70.338 72.348 66.256 67.653 66.256" stroke="#659DD5" stroke-width="2" stroke-miterlimit="10" stroke-linecap="square" stroke-linejoin="round"/>
<path d="M58.006 72.656C54.378 72.656 53.857 76.738 49.281 76.738C44.23 76.738 45.25 72.656 40.556 72.656C36.067 72.656 35.759 76.738 31.83 76.738C27.27 76.738 27.27 72.656 23.106 72.656C18.106 72.656 18.309 76.738 14.381 76.738C10.145 76.738 10.35 72.656 5.655 72.656" stroke="#659DD5" stroke-width="2" stroke-miterlimit="10" stroke-linecap="square" stroke-linejoin="round"/>
<path d="M120.006 72.656C116.378 72.656 115.857 76.738 111.281 76.738C106.229 76.738 107.25 72.656 102.555 72.656C98.066 72.656 97.758 76.738 93.829 76.738C89.268 76.738 89.268 72.656 85.104 72.656C80.104 72.656 80.307 76.738 76.379 76.738C72.143 76.738 72.348 72.656 67.653 72.656" stroke="#659DD5" stroke-width="2" stroke-miterlimit="10" stroke-linecap="square" stroke-linejoin="round"/>
<path d="M58.006 79.056C54.378 79.056 53.857 83.138 49.281 83.138C44.23 83.138 45.25 79.056 40.556 79.056C36.067 79.056 35.759 83.138 31.83 83.138C27.27 83.138 27.27 79.056 23.106 79.056C18.106 79.056 18.309 83.138 14.381 83.138C10.145 83.138 10.35 79.056 5.655 79.056" stroke="#659DD5" stroke-width="2" stroke-miterlimit="10" stroke-linecap="square" stroke-linejoin="round"/>
<path d="M120.006 79.056C116.378 79.056 115.857 83.138 111.281 83.138C106.229 83.138 107.25 79.056 102.555 79.056C98.066 79.056 97.758 83.138 93.829 83.138C89.268 83.138 89.268 79.056 85.104 79.056C80.104 79.056 80.307 83.138 76.379 83.138C72.143 83.138 72.348 79.056 67.653 79.056" stroke="#659DD5" stroke-width="2" stroke-miterlimit="10" stroke-linecap="square" stroke-linejoin="round"/>
<path d="M98.042 101.393L95.554 88.613L84.353 96.342L89.034 98.06C83.959 107.654 76 113.214 67 114.404V59H91V50H68.921C72.208 48 74.405 44.832 74.405 40.688C74.405 34.326 69.249 29.412 62.888 29.412C56.526 29.412 51.37 34.205 51.37 40.566C51.37 44.711 53.567 48 56.854 50H34V59H58V114.207C49 112.732 42.604 107.496 37.721 98.946L42.055 97.342L30.682 88.353L28.356 102.394L33.097 100.644C41.864 131.303 83.894 131.554 93.601 99.755L98.042 101.393Z" fill="white"/>
<path d="M98.042 101.393L95.554 88.613L84.353 96.342L89.034 98.06C83.959 107.654 76 113.214 67 114.404V59H91V50H68.921C72.208 48 74.405 44.832 74.405 40.688C74.405 34.326 69.249 29.412 62.888 29.412C56.526 29.412 51.37 34.205 51.37 40.566C51.37 44.711 53.567 48 56.854 50H34V59H58V114.207C49 112.732 42.604 107.496 37.721 98.946L42.055 97.342L30.682 88.353L28.356 102.394L33.097 100.644C41.864 131.303 83.894 131.554 93.601 99.755L98.042 101.393Z" stroke="#659DD5" stroke-width="2" stroke-miterlimit="10"/>
<path d="M62.894 45.293C65.4052 45.293 67.441 43.2572 67.441 40.746C67.441 38.2347 65.4052 36.199 62.894 36.199C60.3827 36.199 58.347 38.2347 58.347 40.746C58.347 43.2572 60.3827 45.293 62.894 45.293Z" stroke="#659DD5" stroke-width="2" stroke-miterlimit="10"/>
<path d="M86.5 71.5H40.5V84.5H86.5V71.5Z" fill="white"/>
<path d="M86.5 71.5H40.5V84.5H86.5V71.5Z" stroke="#659DD5" stroke-miterlimit="10"/>
<path d="M43.898 73.887H44.999V76.625H47.837V73.887H48.936V80.883H47.837V77.664H44.999V80.883H43.898V73.887Z" fill="#659DD5"/>
<path d="M52.357 77.784H53.228V77.564C53.228 76.934 52.777 76.684 52.248 76.684C51.838 76.684 51.478 76.904 51.308 77.355L50.359 77.154C50.568 76.304 51.289 75.765 52.258 75.765C53.428 75.765 54.267 76.275 54.267 77.753V80.882H53.387L53.287 80.222C52.957 80.682 52.437 80.962 51.728 80.962C50.888 80.962 50.179 80.482 50.179 79.433C50.179 78.394 51.068 77.784 52.357 77.784ZM51.908 80.043C52.549 80.043 53.228 79.633 53.228 78.764V78.654H52.318C51.678 78.654 51.279 78.954 51.279 79.434C51.279 79.773 51.469 80.043 51.908 80.043Z" fill="#659DD5"/>
<path d="M56.6 75.846V76.705C57.008 76.075 57.508 75.766 58.118 75.766C58.797 75.766 59.358 76.175 59.508 76.805C59.858 76.145 60.428 75.766 61.077 75.766C61.996 75.766 62.516 76.395 62.516 77.275V80.883H61.477V77.504C61.477 76.955 61.176 76.685 60.737 76.685C60.118 76.685 59.557 77.475 59.557 78.864V80.884H58.518V77.505C58.518 76.956 58.219 76.686 57.778 76.686C57.149 76.686 56.6 77.476 56.6 78.974V80.884H55.559V75.847L56.6 75.846Z" fill="#659DD5"/>
<path d="M66.348 80.963C65.689 80.963 65.149 80.592 64.979 80.303V80.883H63.94V73.807H64.979V76.405C65.209 76.076 65.829 75.766 66.329 75.766C67.839 75.766 68.599 76.805 68.599 78.364C68.598 79.973 67.838 80.963 66.348 80.963ZM66.209 76.685C65.459 76.685 64.918 77.325 64.918 78.364C64.918 79.404 65.459 80.044 66.209 80.044C66.957 80.044 67.498 79.404 67.498 78.364C67.498 77.324 66.957 76.685 66.209 76.685Z" fill="#659DD5"/>
<path d="M72.848 80.883V80.024C72.489 80.624 71.889 80.963 71.219 80.963C70.34 80.963 69.74 80.433 69.74 79.453V75.846H70.779V79.123C70.779 79.803 71.088 80.043 71.558 80.043C72.208 80.043 72.847 79.273 72.847 77.884V75.846H73.886V80.883H72.848Z" fill="#659DD5"/>
<path d="M75.379 80.883V75.846H76.418V76.685C76.768 76.085 77.369 75.766 77.908 75.766C78.178 75.766 78.398 75.826 78.547 75.885L78.367 76.834C78.207 76.734 77.988 76.685 77.777 76.685C77.107 76.685 76.418 77.424 76.418 79.014V80.883H75.379Z" fill="#659DD5"/>
<path d="M80.938 75.766C81.278 75.766 81.588 75.846 81.858 75.985L82.788 75.486L83.208 76.235L82.528 76.616C82.669 76.855 82.749 77.136 82.749 77.455C82.749 78.515 81.958 79.143 80.938 79.143C80.639 79.143 80.36 79.084 80.129 78.994C79.949 79.095 79.859 79.244 79.859 79.434C79.859 79.704 80.029 79.823 80.379 79.823H81.488C82.476 79.823 83.156 80.313 83.156 81.262C83.156 82.512 82.078 83.001 80.949 83.001C79.679 83.001 78.73 82.441 78.73 81.342C78.73 80.912 78.9 80.563 79.16 80.322C78.978 80.142 78.869 79.883 78.869 79.533C78.869 79.084 79.109 78.723 79.478 78.513C79.259 78.243 79.138 77.883 79.138 77.453C79.139 76.404 79.918 75.766 80.938 75.766ZM80.459 80.703C80.279 80.703 80.109 80.692 79.949 80.672C79.799 80.832 79.728 81.023 79.728 81.282C79.728 81.781 80.179 82.101 80.949 82.101C81.668 82.101 82.097 81.831 82.097 81.341C82.097 80.862 81.757 80.702 81.267 80.702L80.459 80.703ZM80.938 78.273C81.409 78.273 81.739 77.954 81.739 77.454C81.739 76.955 81.409 76.635 80.938 76.635C80.479 76.635 80.149 76.955 80.149 77.454C80.148 77.954 80.479 78.273 80.938 78.273Z" fill="#659DD5"/>
</svg>
