<?xml version="1.0" encoding="UTF-8" standalone="no"?>
<!-- Generator: Adobe Illustrator 19.2.1, SVG Export Plug-In . SVG Version: 6.00 Build 0)  -->

<svg
   xmlns:dc="http://purl.org/dc/elements/1.1/"
   xmlns:cc="http://creativecommons.org/ns#"
   xmlns:rdf="http://www.w3.org/1999/02/22-rdf-syntax-ns#"
   xmlns:svg="http://www.w3.org/2000/svg"
   xmlns="http://www.w3.org/2000/svg"
   xmlns:sodipodi="http://sodipodi.sourceforge.net/DTD/sodipodi-0.dtd"
   xmlns:inkscape="http://www.inkscape.org/namespaces/inkscape"
   version="1.1"
   id="Ebene_1"
   x="0px"
   y="0px"
   viewBox="0 0 198.4252 198.42519"
   xml:space="preserve"
   sodipodi:docname="CodeForRuhrgebiet.svg"
   width="52.5mm"
   height="52.5mm"
   inkscape:version="0.92.4 (f8dce91, 2019-08-02)"><metadata
   id="metadata126"><rdf:RDF><cc:Work
       rdf:about=""><dc:format>image/svg+xml</dc:format><dc:type
         rdf:resource="http://purl.org/dc/dcmitype/StillImage" /><dc:title></dc:title></cc:Work></rdf:RDF></metadata><defs
   id="defs124" /><sodipodi:namedview
   pagecolor="#ffffff"
   bordercolor="#666666"
   borderopacity="1"
   objecttolerance="10"
   gridtolerance="10"
   guidetolerance="10"
   inkscape:pageopacity="0"
   inkscape:pageshadow="2"
   inkscape:window-width="1850"
   inkscape:window-height="1016"
   id="namedview122"
   showgrid="false"
   units="mm"
   inkscape:zoom="4.223254"
   inkscape:cx="99.212598"
   inkscape:cy="99.212598"
   inkscape:window-x="70"
   inkscape:window-y="27"
   inkscape:window-maximized="1"
   inkscape:current-layer="Ebene_1" />
<style
   type="text/css"
   id="style2">
	.st0{fill:#FFFFFF;}
	.st1{fill:#339999;}
</style>
<g
   id="g119"
   transform="matrix(0.15167474,0,0,0.15167474,36.707438,27.212599)">
	<polygon
   class="st0"
   points="410.7,20.5 807,248.2 807.9,705.2 412.6,934.6 16.4,706.9 15.4,249.9 "
   id="polygon4"
   style="fill:#ffffff" />
	<g
   id="g8">
		<path
   class="st1"
   d="M 412.1,949.4 0,712.1 V 237.3 L 412.1,0 824.2,237.3 V 712.1 Z M 31.7,693.8 412.1,912.9 792.5,693.8 V 255.7 L 412.1,36.6 31.7,255.7 Z"
   id="path6"
   inkscape:connector-curvature="0"
   style="fill:#339999" />
	</g>
	<g
   id="g50">
		<g
   id="g16">
			<path
   class="st1"
   d="m 396.8,227.6 c -1.3,-0.8 -2.3,-1.1 -3.4,-1.1 -2,0 -3.1,1.3 -3.1,4 v 1.4 h 8.2 v 3.2 h -8.2 v 18 h -3.5 v -18 h -6 v -3.2 h 6 v -1.3 c 0,-5.1 2.5,-7.3 6.5,-7.3 1.9,0 3.2,0.5 4.4,1.2 z"
   id="path10"
   inkscape:connector-curvature="0"
   style="fill:#339999" />
			<path
   class="st1"
   d="m 413.8,231.5 c 6.5,0 10.4,5.1 10.4,10.9 0,5.8 -3.9,10.9 -10.4,10.9 -6.5,0 -10.4,-5.1 -10.4,-10.9 0,-5.8 4,-10.9 10.4,-10.9 z m 0,18.6 c 4.3,0 6.8,-3.7 6.8,-7.7 0,-4.1 -2.5,-7.7 -6.8,-7.7 -4.3,0 -6.8,3.7 -6.8,7.7 0,4.1 2.5,7.7 6.8,7.7 z"
   id="path12"
   inkscape:connector-curvature="0"
   style="fill:#339999" />
			<path
   class="st1"
   d="m 444.7,238.5 c -0.3,-2.4 -1.6,-3.9 -4.1,-3.9 -3.7,0 -7.2,3.5 -7.2,10.7 v 7.6 h -3.5 v -21.2 h 3.5 v 3.9 c 1.6,-2.6 4.3,-4.2 7.8,-4.2 4.2,0 6.7,2.5 7,7.1 z"
   id="path14"
   inkscape:connector-curvature="0"
   style="fill:#339999" />
		</g>
		<g
   id="g48">
			<polygon
   class="st1"
   points="386.2,205.9 389.9,205.9 391,205.9 391.9,205.9 391.9,160.6 386.2,160.6 386.2,161.3 "
   id="polygon18"
   style="fill:#339999" />
			<g
   id="g22">
				<path
   class="st1"
   d="m 408.7,210.2 c 0.4,0 0.9,-0.4 0.9,-0.7 v -53.1 c 0,-0.4 -0.5,-0.7 -0.9,-0.7 H 391 c -0.4,0 -0.5,0.2 -0.5,0.4 v 1.1 3.5 c 0,0.4 0.1,0.7 0.5,0.7 h 12 c 0.4,0 0.9,0.3 0.9,0.7 v 41.8 c 0,0.4 -0.5,0.7 -0.9,0.7 h -12 c -0.4,0 -0.5,0.1 -0.5,0.3 v 1.1 3.5 c 0,0.4 0.1,0.7 0.5,0.7 z"
   id="path20"
   inkscape:connector-curvature="0"
   style="fill:#339999" />
			</g>
			<polygon
   class="st1"
   points="421.4,205.9 422.3,205.9 422.3,160.6 416.7,160.6 416.7,161.3 416.7,205.9 "
   id="polygon24"
   style="fill:#339999" />
			<g
   id="g46">
				<path
   class="st1"
   d="m 421.6,210.2 v -5.7 c 7.8,0 13.2,-9.7 13.2,-21.6 0,-11.9 -5.4,-21.6 -13.2,-21.6 v -5.7 c 10.6,0 18.9,12.2 18.9,27.2 0,15.1 -8.3,27.4 -18.9,27.4"
   id="path26"
   inkscape:connector-curvature="0"
   style="fill:#339999" />
				<path
   class="st1"
   d="m 362.8,192.7 v 7.8 2.5 c 0,4.2 2.7,7.1 7,7.1 h 1.2 3.5 4.1 c 0.2,0 0.5,-0.4 0.5,-0.7 v -4.2 c 0,-0.4 -0.5,-0.7 -0.9,-0.7 h -4.1 -2.1 -1.3 c -1.8,0 -2.3,-0.8 -2.3,-2.9 v -1.2 -6.8 -4.2 c 0,-4.3 -1.7,-5.8 -3.9,-6.6 2.1,-0.8 3.9,-2.3 3.9,-6.6 v -2.9 -7.5 -1.8 c 0,-2.1 0.4,-2.7 2.3,-2.7 h 1.6 2 4.2 c 0.2,0 0.5,-0.3 0.5,-0.7 v -4.2 c 0,-0.4 -0.5,-0.7 -0.9,-0.7 h -3.4 -3.2 -1.8 c -4.3,0 -7,2.8 -7,6.9 v 2.2 9.3 c 0,0 -0.2,2.1 -0.2,2.8 -0.3,1.9 -2.6,3.6 -4.1,3.5 h -2.2 c -0.4,0 -0.5,0.3 -0.5,0.7 v 4.2 c 0,0.4 0.2,0.7 0.5,0.7 h 2 c 1.9,0 4.2,1.5 4.4,3.9 0.2,0.8 0.2,2.8 0.2,2.8"
   id="path28"
   inkscape:connector-curvature="0"
   style="fill:#339999" />
				<path
   class="st1"
   d="m 391,155.7 h -2 -2.2 c -0.4,0 -0.5,0.3 -0.5,0.7 v 1.3 2.9 0.7 h 0.5 4.2 0.9 v -0.7 -4.2 -0.7 z"
   id="path30"
   inkscape:connector-curvature="0"
   style="fill:#339999" />
				<path
   class="st1"
   d="m 386.2,205.2 v 2 2.2 c 0,0.4 0.1,0.7 0.5,0.7 h 1.3 2.9 0.9 v -0.7 -4.2 -0.7 h -0.8 -4.2 -0.5 v 0.7 z"
   id="path32"
   inkscape:connector-curvature="0"
   style="fill:#339999" />
				<path
   class="st1"
   d="m 421.4,155.7 h -2 -2.2 c -0.4,0 -0.5,0.3 -0.5,0.7 v 1.3 2.9 0.7 h 0.5 4.2 0.9 v -0.7 -4.2 -0.7 z"
   id="path34"
   inkscape:connector-curvature="0"
   style="fill:#339999" />
				<path
   class="st1"
   d="m 416.7,205.2 v 2 2.2 c 0,0.4 0.1,0.7 0.5,0.7 h 1.3 2.9 0.9 v -0.7 -4.2 -0.7 h -0.9 -4.2 -0.5 z"
   id="path36"
   inkscape:connector-curvature="0"
   style="fill:#339999" />
				<path
   class="st1"
   d="m 452.1,192.7 v 7.8 2.5 c 0,4.2 2.7,7.1 6.9,7.1 h 1.2 3.5 4.1 c 0.2,0 0.6,-0.4 0.6,-0.7 v -4.2 c 0,-0.4 -0.5,-0.7 -0.9,-0.7 h -4.1 -2.1 -1.3 c -1.8,0 -2.3,-0.8 -2.3,-2.9 v -1.2 -6.8 -4.2 c 0,-1.4 -0.4,-2.6 -0.7,-3.3 h -9.5 c 2.6,0.7 3.7,1.6 4.3,3.9 0.2,1.2 0.3,2.7 0.3,2.7"
   id="path38"
   inkscape:connector-curvature="0"
   style="fill:#339999" />
				<path
   class="st1"
   d="m 451.7,176.9 c -0.5,1.9 -1.8,2.8 -4,3.5 h 8.9 c 0.5,-1.4 1.1,-2.4 1.1,-4.2 v -2.9 -7.5 -1.8 c 0,-2.1 0.4,-2.7 2.3,-2.7 h 1.6 2 4.2 c 0.2,0 0.6,-0.3 0.6,-0.7 v -4.2 c 0,-0.4 -0.5,-0.7 -0.9,-0.7 H 464 460.8 459 c -4.3,0 -6.9,2.8 -6.9,6.9 v 2.2 9.3 c 0,0 -0.2,1.9 -0.4,2.8"
   id="path40"
   inkscape:connector-curvature="0"
   style="fill:#339999" />
				<path
   class="st1"
   d="m 453,183.3 c 1.4,0.5 3,1.4 4,2.8 h 10.4 c 0.4,0 0.9,-0.3 0.9,-0.7 v -4.2 c 0,-0.4 -0.5,-0.7 -0.9,-0.7 h -10.8 c -0.7,1.4 -2.4,2.4 -3.6,2.8"
   id="path42"
   inkscape:connector-curvature="0"
   style="fill:#339999" />
				<path
   class="st1"
   d="m 445.5,180.4 c -0.4,0 -0.5,0.3 -0.5,0.7 v 4.2 c 0,0.4 0.1,0.7 0.5,0.7 h 2 9.5 c -0.6,-1.4 -2.2,-2.4 -3.3,-2.8 1.2,-0.4 2.3,-1.4 3,-2.8 h -8.9 z"
   id="path44"
   inkscape:connector-curvature="0"
   style="fill:#339999" />
			</g>
		</g>
	</g>
	<g
   id="g82">
		<path
   class="st1"
   d="M 524.3,597.1 599.7,761.6 644.8,735.5 510.4,452 c 5.8,-8.1 9.2,-17.9 9.2,-28.6 0,-16.6 -8.3,-31.3 -21,-40.2 l 1.1,-36.2 4.6,-8 65.3,-16.2 5.9,-29.4 H 249.8 l 5.9,29.4 65.3,16.2 4.6,8 1.1,36.2 c -12.7,8.9 -21,23.6 -21,40.2 0,10.7 3.4,20.5 9.2,28.6 l -135,284.9 45.1,26.1 76,-165.8 56.2,-0.7 v 125.1 h -13.6 v 57.8 h -93.2 l 160.7,91.2 v 0 L 574.7,779.4 H 480.8 V 721.6 H 467.5 V 596.4 Z m -77.9,-51.8 c 0,-1.3 0.1,-2.6 0.3,-3.8 l 23.9,4.2 z m 1.2,-8.6 c 0.8,-3.5 2,-6.8 3.6,-9.9 l 26.3,15.2 z m 6,-14.2 c 1.9,-3 4.2,-5.6 6.8,-8 l 19.5,23.2 z m 10.5,-11.2 c 2.8,-2.1 5.8,-3.9 9.1,-5.3 l 10.4,28.5 z m 45.8,-67.9 -4.9,-2.8 -4.4,-9.3 12.9,2.3 c -0.8,3.4 -2,6.7 -3.6,9.8 z m -11.5,-49.5 2.3,-2.8 c 2.6,2.4 4.9,5.1 6.8,8 l -9.4,5.5 z m -0.5,16.5 12.1,-7 c 1.6,3.1 2.8,6.4 3.6,9.9 l -15.8,2.8 z m -0.3,10.7 16.8,-3 c 0.2,1.7 0.3,3.5 0.3,5.3 0,1.8 -0.1,3.5 -0.3,5.3 l -16.4,-2.9 -0.6,-1.2 z m -4.5,108.1 0.7,1.6 -0.7,2 z m -4.9,-10.6 v 14.3 l -10.4,-28.5 c 1.1,-0.3 2.3,-0.6 3.5,-0.9 z M 354.3,339.2 H 471 v 35.1 c -0.2,0 -0.4,0 -0.6,0 -24.7,0 -45.2,18.4 -48.7,42.1 h -0.6 -17.1 -0.6 c -3.5,-23.8 -23.9,-42.1 -48.7,-42.1 -0.2,0 -0.4,0 -0.6,0 v -35.1 z m 79,60 c 1.9,-3 4.2,-5.6 6.8,-8 l 19.5,23.2 z m 20,17.2 h -8.9 l -17.1,-3 c 0.8,-3.5 2,-6.8 3.6,-9.9 z M 443.9,388 c 2.8,-2.1 5.8,-3.9 9.1,-5.3 l 10.4,28.5 z m 13.7,-7 c 3.3,-1 6.8,-1.6 10.4,-1.8 v 30.3 z m -85.3,1.7 c 3.3,1.4 6.3,3.2 9.1,5.3 l -19.5,23.2 z m -15,26.9 v -30.3 c 3.6,0.2 7.1,0.8 10.4,1.8 z m 27.9,-18.4 c 2.6,2.4 4.9,5.1 6.8,8 l -26.3,15.2 z m 9.2,12.3 c 1.6,3.1 2.8,6.4 3.6,9.9 l -17.1,3 H 372 Z m -36.2,69 c 1,-0.1 1.9,-0.1 2.9,-0.3 h 43 17.1 43 c 1,0.1 1.9,0.2 2.9,0.3 l 12.1,26.4 c -21.2,5.1 -37,23.8 -37.7,46.3 l -22.3,-0.4 v -0.2 l -6.6,0.1 -6.6,-0.1 v 0.2 l -22.3,0.4 C 383,522.7 367.2,504 346,498.9 Z m -33.6,-81.3 2.3,2.8 0.3,10.7 -9.4,-5.5 c 1.9,-2.9 4.2,-5.6 6.8,-8 z m -9.2,12.3 12.1,7 0.2,5.7 -15.8,-2.8 c 0.7,-3.5 1.9,-6.8 3.5,-9.9 z m 4.8,37.1 -4.9,2.8 c -1.6,-3.1 -2.8,-6.4 -3.6,-9.9 l 12.9,-2.3 z m 7,-14.8 -16.4,2.9 c -0.2,-1.7 -0.3,-3.5 -0.3,-5.3 0,-1.8 0.1,-3.5 0.3,-5.3 l 16.8,3 0.1,3.5 z m 5,107.1 -0.7,-2 0.7,-1.6 z m 4.9,-14.3 6.9,-15.1 c 1.2,0.3 2.3,0.5 3.5,0.9 l -10.4,28.5 z M 352,506 c 3.3,1.4 6.3,3.2 9.1,5.3 l -19.5,23.2 z m 12.9,8.5 c 2.6,2.4 4.9,5.1 6.8,8 l -26.3,15.2 z m 9.2,12.3 c 1.6,3.1 2.8,6.4 3.6,9.9 l -29.9,5.3 z m 4.5,14.7 c 0.2,1.3 0.2,2.5 0.3,3.8 l -24.2,0.4 z m 26.7,177.6 h -43.2 v -16.5 h 43.2 z m 0,-45.4 h -43.2 v -16.2 h 43.2 z m 0,-45 h -43.2 v -6.2 h 43.2 z m 57.3,90.4 h -43.2 v -16.5 h 43.2 z m 0,-45.4 h -43.2 v -16.2 h 43.2 z m 0,-45 h -43.2 v -6.2 h 43.2 z"
   id="path52"
   inkscape:connector-curvature="0"
   style="fill:#339999" />
		<g
   id="g66">
			<g
   id="g56">
				<path
   class="st1"
   d="m 103.6,581.4 c 16.5,0 23.3,-6.8 29.2,-12.7 5.4,-5.5 10.1,-10.2 22.5,-10.2 12.5,0 18.9,5.5 25.7,11.3 6.7,5.7 13.6,11.7 26,11.7 15,0 22.6,-6.7 29.2,-12.7 6.2,-5.5 11.6,-10.3 22.4,-10.3 14.5,0 20.6,5.7 27.2,11.7 6,5.5 12.3,11.3 24.4,11.3 13.4,0 20.2,-6 26.6,-11.9 6.3,-5.7 13.3,-11.1 25.3,-11.1 v -6.3 c -12,0 -23,6.8 -29.6,12.7 -6,5.5 -11.3,10.2 -22.2,10.2 -9.7,0 -14.6,-4.5 -20.2,-9.6 -6.8,-6.3 -14.6,-13.4 -31.5,-13.4 -13.2,0 -20,6 -26.6,11.9 -6.4,5.7 -12.4,11.1 -25,11.1 -10.1,0 -15.5,-4.7 -21.8,-10.1 -7,-6 -14.9,-12.8 -29.8,-12.8 -15,0 -21.3,6.4 -27,12.1 -5.5,5.6 -10.8,10.9 -24.7,10.9 -13.2,0 -19.9,-5.7 -27.1,-11.7 -3.6,-3 0.7,-1.1 -3.7,-3.3 l -2.8,5.7 c 3.7,1.8 -1,-0.4 2.4,2.4 7.3,6.1 15.6,13.1 31.1,13.1 z"
   id="path54"
   inkscape:connector-curvature="0"
   style="fill:#339999" />
			</g>
			<g
   id="g60">
				<path
   class="st1"
   d="m 103.6,626.4 c 16.5,0 23.3,-6.8 29.2,-12.7 5.4,-5.5 10.1,-10.2 22.5,-10.2 12.5,0 18.9,5.5 25.7,11.3 6.7,5.7 13.6,11.7 26,11.7 15,0 22.6,-6.7 29.2,-12.7 6.2,-5.5 11.6,-10.3 22.4,-10.3 14.5,0 20.6,5.7 27.2,11.7 6,5.5 12.3,11.3 24.4,11.3 13.4,0 20.2,-6 26.6,-11.9 6.3,-5.7 13.3,-11.1 25.3,-11.1 v -6.3 c -12,0 -23,6.8 -29.6,12.7 -6,5.5 -11.3,10.2 -22.2,10.2 -9.7,0 -14.6,-4.5 -20.2,-9.6 -6.8,-6.3 -14.6,-13.3 -31.5,-13.3 -13.2,0 -20,6 -26.6,11.9 -6.4,5.7 -12.4,11.1 -25,11.1 -10.1,0 -15.5,-4.7 -21.8,-10.1 -7,-6 -14.9,-12.8 -29.8,-12.8 -15,0 -21.3,6.4 -27,12.1 -5.5,5.6 -10.8,10.9 -24.7,10.9 -13.2,0 -19.9,-5.7 -27.1,-11.7 -3.6,-3 0.8,-1.1 -3.6,-3.3 l -2.8,5.7 c 3.7,1.8 -1.1,-0.5 2.3,2.4 7.3,6 15.6,13 31.1,13 z"
   id="path58"
   inkscape:connector-curvature="0"
   style="fill:#339999" />
			</g>
			<g
   id="g64">
				<path
   class="st1"
   d="m 103.6,671.4 c 16.5,0 23.3,-6.8 29.2,-12.7 5.4,-5.5 10.1,-10.2 22.5,-10.2 12.5,0 18.9,5.5 25.7,11.3 6.7,5.7 13.6,11.7 26,11.7 15,0 22.6,-6.7 29.2,-12.7 6.2,-5.5 11.6,-10.3 22.4,-10.3 14.5,0 20.6,5.7 27.2,11.7 6,5.5 12.3,11.3 24.4,11.3 13.4,0 20.2,-6 26.6,-11.9 6.3,-5.7 13.3,-11.1 25.3,-11.1 v -6.3 c -12,0 -23,6.8 -29.6,12.7 -6,5.5 -11.3,10.2 -22.2,10.2 -9.7,0 -14.6,-4.5 -20.2,-9.6 -6.8,-6.3 -14.6,-13.3 -31.5,-13.3 -13.2,0 -20,6 -26.6,11.9 -6.4,5.7 -12.4,11.1 -25,11.1 -10.1,0 -15.5,-4.7 -21.8,-10.1 -7,-6 -14.9,-12.8 -29.8,-12.8 -15,0 -21.3,6.4 -27,12.1 -5.5,5.6 -10.8,10.9 -24.7,10.9 -13.2,0 -19.9,-5.7 -27.1,-11.7 -3.5,-3 0.9,-1 -3.5,-3.2 l -2.8,5.7 c 3.6,1.8 -1.2,-0.5 2.2,2.4 7.3,5.9 15.6,12.9 31.1,12.9 z"
   id="path62"
   inkscape:connector-curvature="0"
   style="fill:#339999" />
			</g>
		</g>
		<g
   id="g80">
			<g
   id="g70">
				<path
   class="st1"
   d="m 720.5,581.4 c -16.5,0 -23.3,-6.8 -29.2,-12.7 -5.4,-5.5 -10.1,-10.2 -22.5,-10.2 -12.5,0 -18.9,5.5 -25.7,11.3 -6.7,5.7 -13.6,11.7 -26,11.7 -15,0 -22.6,-6.7 -29.2,-12.7 -6.2,-5.5 -11.6,-10.3 -22.4,-10.3 -14.5,0 -20.6,5.7 -27.2,11.7 -6,5.5 -12.3,11.3 -24.4,11.3 -13.4,0 -20.2,-6 -26.6,-11.9 C 481,563.9 474,558.5 462,558.5 v -6.3 c 12,0 23,6.8 29.6,12.7 6,5.5 11.3,10.2 22.3,10.2 9.7,0 14.6,-4.5 20.2,-9.6 6.8,-6.3 14.6,-13.4 31.5,-13.4 13.2,0 20,6 26.6,11.9 6.4,5.7 12.4,11.1 25,11.1 10.1,0 15.5,-4.7 21.8,-10.1 7,-6 14.9,-12.8 29.8,-12.8 15,0 21.3,6.4 27,12.1 5.5,5.6 10.8,10.9 24.7,10.9 13.2,0 19.9,-5.7 27.1,-11.7 3.6,-3 -0.7,-1.1 3.7,-3.3 l 2.8,5.7 c -3.7,1.8 1,-0.4 -2.4,2.4 -7.4,6.1 -15.7,13.1 -31.2,13.1 z"
   id="path68"
   inkscape:connector-curvature="0"
   style="fill:#339999" />
			</g>
			<g
   id="g74">
				<path
   class="st1"
   d="m 720.5,626.4 c -16.5,0 -23.3,-6.8 -29.2,-12.7 -5.4,-5.5 -10.1,-10.2 -22.5,-10.2 -12.5,0 -18.9,5.5 -25.7,11.3 -6.7,5.7 -13.6,11.7 -26,11.7 -15,0 -22.6,-6.7 -29.2,-12.7 -6.2,-5.5 -11.6,-10.3 -22.4,-10.3 -14.5,0 -20.6,5.7 -27.2,11.7 -6,5.5 -12.3,11.3 -24.4,11.3 -13.4,0 -20.2,-6 -26.6,-11.9 C 481,608.9 474,603.5 462,603.5 v -6.3 c 12,0 23,6.8 29.6,12.7 6,5.5 11.3,10.2 22.3,10.2 9.7,0 14.6,-4.5 20.2,-9.6 6.8,-6.3 14.6,-13.3 31.5,-13.3 13.2,0 20,6 26.6,11.9 6.4,5.7 12.4,11.1 25,11.1 10.1,0 15.5,-4.7 21.8,-10.1 7,-6 14.9,-12.8 29.8,-12.8 15,0 21.3,6.4 27,12.1 5.5,5.6 10.8,10.9 24.7,10.9 13.2,0 19.9,-5.7 27.1,-11.7 3.6,-3 -0.8,-1.1 3.6,-3.3 l 2.8,5.7 c -3.7,1.8 1.1,-0.5 -2.3,2.4 -7.4,6 -15.7,13 -31.2,13 z"
   id="path72"
   inkscape:connector-curvature="0"
   style="fill:#339999" />
			</g>
			<g
   id="g78">
				<path
   class="st1"
   d="m 720.5,671.4 c -16.5,0 -23.3,-6.8 -29.2,-12.7 -5.4,-5.5 -10.1,-10.2 -22.5,-10.2 -12.5,0 -18.9,5.5 -25.7,11.3 -6.7,5.7 -13.6,11.7 -26,11.7 -15,0 -22.6,-6.7 -29.2,-12.7 -6.2,-5.5 -11.6,-10.3 -22.4,-10.3 -14.5,0 -20.6,5.7 -27.2,11.7 -6,5.5 -12.3,11.3 -24.4,11.3 -13.4,0 -20.2,-6 -26.6,-11.9 C 481,653.9 474,648.5 462,648.5 v -6.3 c 12,0 23,6.8 29.6,12.7 6,5.5 11.3,10.2 22.3,10.2 9.7,0 14.6,-4.5 20.2,-9.6 6.8,-6.3 14.6,-13.3 31.5,-13.3 13.2,0 20,6 26.6,11.9 6.4,5.7 12.4,11.1 25,11.1 10.1,0 15.5,-4.7 21.8,-10.1 7,-6 14.9,-12.8 29.8,-12.8 15,0 21.3,6.4 27,12.1 5.5,5.6 10.8,10.9 24.7,10.9 13.2,0 19.9,-5.7 27.1,-11.7 3.5,-3 -0.9,-1 3.5,-3.2 l 2.8,5.7 c -3.6,1.8 1.2,-0.5 -2.2,2.4 -7.4,5.9 -15.7,12.9 -31.2,12.9 z"
   id="path76"
   inkscape:connector-curvature="0"
   style="fill:#339999" />
			</g>
		</g>
	</g>
	<g
   id="XMLID_9_">
		<path
   class="st1"
   d="M 412,874.3 67,674.5 V 274.9 L 412,75.2 757,275 V 674.6 Z M 73,670.8 412,867 751,670.9 V 278.6 L 412,82.5 73,278.6 Z"
   id="path84"
   inkscape:connector-curvature="0"
   style="fill:#339999" />
	</g>
	<g
   id="g117">
		<g
   id="g93">
			<g
   id="g91">
				<rect
   x="206"
   y="618.40002"
   class="st0"
   width="405"
   height="95"
   id="rect87"
   style="fill:#ffffff" />
				<path
   class="st1"
   d="M 618,713.4 H 206 v -103 h 412 z m -405,-7 h 398 v -88 H 213 Z"
   id="path89"
   inkscape:connector-curvature="0"
   style="fill:#339999" />
			</g>
		</g>
		<g
   id="g115">
			<path
   class="st1"
   d="m 276.1,654.3 c 0,7.1 -2.8,11.7 -8.4,13.8 l 11.2,15.8 h -12.2 l -9.8,-14.1 h -6.8 v 14.1 h -9.9 V 639.6 H 257 c 6.9,0 11.8,1.2 14.7,3.5 3,2.3 4.4,6.1 4.4,11.2 z m -11.9,5.3 c 1.2,-1.1 1.8,-2.8 1.8,-5.2 0,-2.4 -0.6,-4 -1.9,-4.9 -1.3,-0.9 -3.5,-1.3 -6.7,-1.3 H 250 v 13.1 h 7.2 c 3.5,-0.1 5.8,-0.6 7,-1.7 z"
   id="path95"
   inkscape:connector-curvature="0"
   style="fill:#339999" />
			<path
   class="st1"
   d="m 306.6,668.2 v -18.4 h 9.6 v 34.1 h -9.6 v -4.5 c -2.4,3.3 -5.4,5 -9.2,5 -3.7,0 -6.9,-1.2 -9.4,-3.5 -2.5,-2.3 -3.8,-5.8 -3.8,-10.4 v -20.7 h 9.6 v 18.6 c 0,5.2 1.9,7.9 5.8,7.9 1.9,0 3.5,-0.7 4.9,-2.1 1.4,-1.4 2.1,-3.4 2.1,-6 z"
   id="path97"
   inkscape:connector-curvature="0"
   style="fill:#339999" />
			<path
   class="st1"
   d="m 334.7,665.5 v 18.4 h -9.5 v -47 h 9.5 v 16.7 c 2.9,-2.9 6.1,-4.4 9.7,-4.4 3.6,0 6.6,1.3 9,3.8 2.5,2.5 3.7,5.9 3.7,10.1 v 20.7 h -9.5 v -18.6 c 0,-5.2 -1.9,-7.9 -5.8,-7.9 -1.9,0 -3.6,0.7 -5,2.1 -1.4,1.5 -2.1,3.5 -2.1,6.1 z"
   id="path99"
   inkscape:connector-curvature="0"
   style="fill:#339999" />
			<path
   class="st1"
   d="m 383.6,658.2 c -2.8,0 -4.9,1 -6.3,3 -1.4,2 -2.1,4.7 -2.1,8 V 684 h -9.5 v -34.1 h 9.5 v 4.5 c 1.2,-1.4 2.8,-2.6 4.6,-3.6 1.8,-1 3.7,-1.5 5.6,-1.5 l 0.1,8.9 z"
   id="path101"
   inkscape:connector-curvature="0"
   style="fill:#339999" />
			<path
   class="st1"
   d="m 417,678.2 c -3,3.3 -6.7,5 -11.2,5 -4.5,0 -8.2,-1.5 -11.3,-4.5 -3.1,-3 -4.6,-7.1 -4.6,-12.1 0,-5.1 1.6,-9.2 4.7,-12.4 3.1,-3.2 6.8,-4.8 10.8,-4.8 4.1,0 7.4,1.7 10.1,5 v -4.5 h 9.5 v 29.7 c 0,3 -0.5,5.8 -1.6,8.1 -1.1,2.4 -2.5,4.2 -4.2,5.6 -3.5,2.8 -7.7,4.2 -12.4,4.2 -2.5,0 -5.1,-0.4 -7.8,-1.2 -2.6,-0.8 -5,-2 -6.9,-3.5 l 3.7,-7.2 c 3.1,2.4 6.4,3.5 9.9,3.5 3.5,0 6.2,-0.9 8.3,-2.6 2,-1.8 3,-4.6 3,-8.3 z m -1.3,-12.1 c 0,-2.7 -0.8,-4.9 -2.3,-6.4 -1.5,-1.6 -3.4,-2.3 -5.6,-2.3 -2.2,0 -4.2,0.8 -5.8,2.3 -1.6,1.6 -2.4,3.7 -2.4,6.4 0,2.7 0.8,4.9 2.4,6.6 1.6,1.7 3.5,2.5 5.8,2.5 2.3,0 4.2,-0.8 5.7,-2.5 1.4,-1.6 2.2,-3.8 2.2,-6.6 z"
   id="path103"
   inkscape:connector-curvature="0"
   style="fill:#339999" />
			<path
   class="st1"
   d="m 463.6,679 c -3.8,3.6 -8.4,5.5 -13.5,5.5 -5.1,0 -9.5,-1.6 -12.8,-4.8 -3.4,-3.2 -5.1,-7.5 -5.1,-12.8 0,-5.3 1.7,-9.6 5.2,-12.8 3.4,-3.2 7.5,-4.8 12.2,-4.8 4.7,0 8.7,1.4 11.9,4.2 3.3,2.8 4.9,6.7 4.9,11.7 v 5.1 h -24.8 c 0.3,1.9 1.3,3.4 2.9,4.6 1.6,1.2 3.5,1.8 5.6,1.8 3.3,0 6.1,-1.1 8.2,-3.4 z m -9.1,-20.2 c -1.3,-1.1 -2.9,-1.7 -4.8,-1.7 -1.9,0 -3.6,0.6 -5.2,1.7 -1.6,1.1 -2.5,2.7 -2.7,4.6 h 15 c -0.3,-2 -1,-3.5 -2.3,-4.6 z"
   id="path105"
   inkscape:connector-curvature="0"
   style="fill:#339999" />
			<path
   class="st1"
   d="m 492.9,649.3 c 4.1,0 7.8,1.6 10.8,4.8 3,3.2 4.6,7.4 4.6,12.5 0,5.1 -1.6,9.3 -4.8,12.7 -3.2,3.4 -6.8,5.1 -10.8,5.1 -4,0 -7.4,-1.7 -10.1,-5 v 4.5 h -9.5 v -47 h 9.5 v 16.7 c 2.7,-2.9 6.1,-4.3 10.3,-4.3 z m -10.3,17.6 c 0,2.8 0.8,5 2.3,6.8 1.5,1.8 3.4,2.6 5.6,2.6 2.2,0 4.1,-0.9 5.8,-2.6 1.6,-1.8 2.5,-4 2.5,-6.7 0,-2.7 -0.8,-5.1 -2.4,-6.9 -1.6,-1.9 -3.5,-2.8 -5.8,-2.8 -2.2,0 -4.1,0.9 -5.7,2.8 -1.5,1.7 -2.3,4 -2.3,6.8 z"
   id="path107"
   inkscape:connector-curvature="0"
   style="fill:#339999" />
			<path
   class="st1"
   d="m 516.2,645.5 c -1.1,-1.1 -1.6,-2.4 -1.6,-4 0,-1.6 0.5,-2.9 1.6,-4 1.1,-1.1 2.4,-1.6 4,-1.6 1.6,0 2.9,0.5 4,1.6 1.1,1.1 1.6,2.4 1.6,4 0,1.6 -0.5,2.9 -1.6,4 -1.1,1.1 -2.4,1.6 -4,1.6 -1.6,0 -2.9,-0.5 -4,-1.6 z m 8.7,38.4 h -9.5 v -34.1 h 9.5 z"
   id="path109"
   inkscape:connector-curvature="0"
   style="fill:#339999" />
			<path
   class="st1"
   d="m 563.5,679 c -3.8,3.6 -8.4,5.5 -13.5,5.5 -5.2,0 -9.5,-1.6 -12.8,-4.8 -3.4,-3.2 -5.1,-7.5 -5.1,-12.8 0,-5.3 1.7,-9.6 5.2,-12.8 3.4,-3.2 7.5,-4.8 12.2,-4.8 4.7,0 8.7,1.4 11.9,4.2 3.3,2.8 4.9,6.7 4.9,11.7 v 5.1 h -24.8 c 0.3,1.9 1.3,3.4 2.9,4.6 1.6,1.2 3.5,1.8 5.6,1.8 3.3,0 6.1,-1.1 8.2,-3.4 z m -9.1,-20.2 c -1.3,-1.1 -2.9,-1.7 -4.8,-1.7 -1.9,0 -3.6,0.6 -5.2,1.7 -1.6,1.1 -2.5,2.7 -2.7,4.6 h 15 c -0.3,-2 -1,-3.5 -2.3,-4.6 z"
   id="path111"
   inkscape:connector-curvature="0"
   style="fill:#339999" />
			<path
   class="st1"
   d="M 584.1,656.7 V 672 c 0,1.3 0.3,2.3 1,3.1 0.7,0.7 1.5,1.1 2.4,1.1 1.8,0 3.3,-0.8 4.5,-2.4 l 3.6,6.7 c -3,2.7 -6.1,4.1 -9.3,4.1 -3.3,0 -6,-1.1 -8.3,-3.2 -2.3,-2.2 -3.4,-5.1 -3.4,-8.8 v -15.7 h -4 v -6.8 h 4 v -10.2 h 9.6 v 10.2 h 8.2 v 6.8 h -8.3 z"
   id="path113"
   inkscape:connector-curvature="0"
   style="fill:#339999" />
		</g>
	</g>
</g>
</svg>