<?xml version="1.0" encoding="UTF-8"?>
<!-- Created with Inkscape (http://www.inkscape.org/) -->
<svg width="52.5mm" height="52.5mm" version="1.1" viewBox="0 0 198.43 198.43" xml:space="preserve" xmlns="http://www.w3.org/2000/svg" xmlns:cc="http://creativecommons.org/ns#" xmlns:dc="http://purl.org/dc/elements/1.1/" xmlns:rdf="http://www.w3.org/1999/02/22-rdf-syntax-ns#"><metadata><rdf:RDF><cc:Work rdf:about=""><dc:format>image/svg+xml</dc:format><dc:type rdf:resource="http://purl.org/dc/dcmitype/StillImage"/><dc:title/></cc:Work></rdf:RDF></metadata><defs><clipPath id="clipPath20"><path d="m0 81h595v680h-595z"/></clipPath><clipPath id="clipPath38"><path d="m24.187 107.04h546.62v629.71h-546.62z"/></clipPath><clipPath id="clipPath86"><path d="m0 81h595v680h-595z"/></clipPath><clipPath id="clipPath96"><path d="m0 762.77h595v-681.77h-595z"/></clipPath><clipPath id="clipPath102"><path d="m0 81h595v680h-595z"/></clipPath><clipPath id="clipPath130"><path d="m24.187 107.04h546.62v629.71h-546.62z"/></clipPath><clipPath id="clipPath402"><path d="m0 81h595v680h-595z"/></clipPath></defs><g transform="matrix(1.3333 0 0 -1.3333 0 198.43)"><g transform="translate(25.824 -60.594)"><g transform="matrix(.15882 0 0 .15882 1.3364 68.138)"><g clip-path="url(#clipPath20)"><path d="m297.49 762.78-295.9-170.44v-340.89l295.91-170.45 295.9 170.45v340.89l-295.9 170.44z" fill="#59c477"/><g transform="matrix(4.373 0 0 4.373 553.31 273.94)"><path d="m0 0-58.5-33.834-58.5 33.834v67.666l58.5 33.834 58.5-33.834z" fill="none" stroke="#fff" stroke-miterlimit="10" stroke-width="2"/></g><g transform="matrix(4.373 0 0 4.373 0 81)"><path d="m34.893 47.104h65.849v-13.438h-65.849z" fill="none" stroke="#fff" stroke-miterlimit="10"/></g></g></g><g transform="matrix(.15882 0 0 .15882 1.3364 68.138)"><g clip-path="url(#clipPath38)"><g fill="#fff"><path d="m288 635.64c-0.8178 0.5292-1.4169 0.7085-2.1253 0.7085-1.255 0-1.9416-0.7872-1.9416-2.4883v-0.8658h5.1339v-1.9941h-5.1339v-11.221h-2.204v11.221h-3.7214v1.9941h3.7214v0.809c0 3.201 1.5481 4.5391 4.0669 4.5391 1.2026 0 2.0159-0.3104 2.7506-0.7609z"/><path d="m298.6 621.56c2.6981 0 4.2461 2.2827 4.2461 4.8277 0 2.5407-1.548 4.8234-4.2461 4.8234s-4.2462-2.2827-4.2462-4.8234c0-2.545 1.5481-4.8277 4.2462-4.8277m0 11.645c4.0406 0 6.4982-3.1748 6.4982-6.8175 0-3.6426-2.4576-6.8218-6.4982-6.8218-4.0407 0-6.507 3.1792-6.507 6.8218 0 3.6427 2.4663 6.8175 6.507 6.8175"/><path d="m317.88 628.8c-0.1793 1.5218-0.9708 2.4139-2.545 2.4139-2.3002 0-4.478-2.1778-4.478-6.6644v-4.7709h-2.1952v13.215h2.1952v-2.4358c1.0189 1.6005 2.6763 2.6501 4.8803 2.6501 2.6194 0 4.1936-1.5787 4.3467-4.408z"/><path d="m281.35 677.47v-28.315h3.5377v28.315z"/><path d="m295.38 646.5c0.2493 0 0.5642 0.223 0.5642 0.4591v33.165c0 0.2405-0.3149 0.4416-0.5642 0.4416h-11.05c-0.2405 0-0.3279-0.0962-0.3279-0.223v-2.873c0-0.2405 0.0874-0.4461 0.3279-0.4461h7.5128c0.2493 0 0.5641-0.1924 0.5641-0.4329v-26.094c0-0.2406-0.3148-0.4548-0.5641-0.4548h-7.5128c-0.2405 0-0.3279-0.0831-0.3279-0.2056v-2.8774c0-0.2361 0.0874-0.4591 0.3279-0.4591z"/><path d="m300.37 677.47v-28.315h3.5508v28.315z"/><path d="m303.46 646.52v3.5421c4.8672 0 8.265 6.0479 8.265 13.486 0 7.434-3.3935 13.486-8.265 13.486v3.5334c6.647 0 11.794-7.6352 11.794-17.02 0-9.3888-5.1469-17.028-11.794-17.028"/><path d="m266.75 657.4v-6.4501c0-2.6457 1.6924-4.4473 4.3642-4.4473h5.475c0.1268 0 0.3324 0.223 0.3324 0.4591v2.6588c0 0.2361-0.3062 0.4198-0.5554 0.4198h-4.6354c-1.1457 0-1.443 0.4898-1.443 1.7973v7.6308c0 2.6632-1.0845 3.6471-2.4096 4.1325 1.3251 0.4767 2.4096 1.4606 2.4096 4.1237v7.6265c0 1.2856 0.2536 1.6705 1.443 1.6705h4.8584c0.1268 0 0.3324 0.2055 0.3324 0.446v2.6544c0 0.2405-0.3062 0.4417-0.5554 0.4417h-5.252c-2.6718 0-4.3642-1.7361-4.3642-4.3249v-7.1717s-0.0918-1.3294-0.153-1.7798c-0.1706-1.1982-1.6312-2.2214-2.5451-2.2083h-1.3862c-0.2449 0-0.3411-0.1881-0.3411-0.433v-2.6544c0-0.2405 0.0962-0.4547 0.3411-0.4547h1.2637c1.1633 0.0175 2.6238-0.9533 2.7332-2.4139 0.0306-0.4198 0.0874-1.723 0.0874-1.723"/><path d="m284.33 680.57h-2.6456c-0.2493 0-0.3368-0.2011-0.3368-0.4416v-3.1005h3.5378v3.5421z"/><path d="m281.35 649.62v-2.6544c0-0.2406 0.0874-0.4636 0.3323-0.4636h3.2054v3.5421h-3.5377z"/><path d="m303.34 680.57h-2.6413c-0.2449 0-0.3236-0.2011-0.3236-0.4416v-3.1005h3.5465v3.5421z"/><path d="m300.37 649.62v-2.6544c0-0.2406 0.0831-0.4636 0.3192-0.4636h3.2316v3.5421h-3.5421v-0.4241h-9e-3z"/><path d="m322.49 657.4v-6.4501c0-2.6457 1.6705-4.4473 4.3336-4.4473h5.475c0.1224 0 0.3586 0.223 0.3586 0.4591v2.6588c0 0.2361-0.328 0.4198-0.5816 0.4198h-4.631c-1.1501 0-1.4169 0.4898-1.4169 1.7973v7.6308c0 0.8528-0.2536 1.6312-0.4504 2.0728h-5.9297c1.6311-0.4416 2.322-1.0232 2.6587-2.4401 0.1618-0.7084 0.1837-1.7011 0.1837-1.7011"/><path d="m322.24 667.29c-0.3367-1.1588-1.1107-1.7623-2.4663-2.2083h5.5711c0.3367 0.8833 0.6778 1.4737 0.6778 2.65v7.6265c0 1.2856 0.2362 1.6705 1.4169 1.6705h4.8671c0.1137 0 0.3586 0.2011 0.3586 0.4416v2.6588c0 0.2361-0.328 0.4373-0.586 0.4373h-5.2476c-2.6762 0-4.3336-1.7317-4.3336-4.3249v-7.1717s-0.0874-1.1981-0.258-1.7798"/><path d="m323.1 663.28c0.8921-0.3236 1.8717-0.8527 2.4708-1.7404h6.507c0.2405 0 0.5816 0.2099 0.5816 0.4504v2.6544c0 0.2449-0.3411 0.4373-0.5816 0.4373h-6.7388c-0.446-0.8877-1.5043-1.5306-2.239-1.8017"/><path d="m318.37 665.08c-0.2405 0-0.3017-0.1924-0.3017-0.4329v-2.6544c0-0.2405 0.0656-0.4548 0.3017-0.4548h7.2067c-0.3936 0.8921-1.3819 1.4956-2.0903 1.7711 0.739 0.2711 1.4037 0.8877 1.8585 1.771h-5.5843z"/></g><g transform="matrix(4.373 0 0 4.373 370.77 600.85)"><path d="m0 0s7.714 1.17 10.514-2.067c4.094 2.197 10.371-0.328 10.371-0.328" fill="none" stroke="#fff" stroke-miterlimit="10"/></g><g transform="matrix(4.373 0 0 4.373 429.27 570.76)"><path d="m0 0s6.169 0.937 8.409-1.652c3.277 1.756 8.293-0.262 8.293-0.262" fill="none" stroke="#fff" stroke-miterlimit="10"/></g></g></g><g transform="matrix(.15882 0 0 .15882 1.3364 68.138)"><g clip-path="url(#clipPath86)"><path d="m191.06 272.32h5.1601v-30.567h-5.5974l-17.317 22.298v-22.298h-5.1601v30.567h5.1601l17.754-22.831z" fill="#fff"/></g></g><g transform="matrix(.15882 0 0 .15882 1.3364 68.138)"><g clip-path="url(#clipPath96)"><g clip-path="url(#clipPath102)" fill="#fff"><path d="m209.17 241.75h-4.8977v23.264h4.8977zm-4.5916 27.9c-0.6122 0.6079-0.9183 1.3381-0.9183 2.1865 0 0.844 0.3061 1.5743 0.9183 2.1865 0.6122 0.6078 1.3381 0.9183 2.1865 0.9183 0.844 0 1.5742-0.3105 2.1865-0.9183 0.6122-0.6122 0.9183-1.3425 0.9183-2.1865 0-0.8484-0.3061-1.5786-0.9183-2.1865-0.6123-0.6122-1.3425-0.9183-2.1865-0.9183-0.8484 0-1.5743 0.3061-2.1865 0.9183"/><path d="m219.92 255.09h13.338c0 1.9503-0.6122 3.4546-1.8366 4.5041-1.2245 1.0539-2.7332 1.5787-4.5261 1.5787s-3.4021-0.5467-4.8321-1.6399c-1.4256-1.0932-2.1428-2.5757-2.1428-4.4429m18.235-3.8483h-18.235c0.1181-1.6923 0.8921-3.0523 2.3177-4.0843 1.43-1.0408 3.0611-1.5568 4.8977-1.5568 2.9168 0 5.1295 0.9183 6.647 2.755l2.7987-3.0611c-2.5057-2.5932-5.7724-3.892-9.7955-3.892-3.2666 0-6.0434 1.0845-8.3305 3.2579-2.2871 2.169-3.4328 5.0858-3.4328 8.746 0 3.6601 1.1632 6.5682 3.4984 8.724 2.3308 2.1603 5.0814 3.2404 8.243 3.2404 3.1661 0 5.8511-0.9577 8.0682-2.8687 2.2171-1.9066 3.3234-4.5391 3.3234-7.8888z"/><path d="m247.52 253.27c0-2.2302 0.7172-4.045 2.1428-5.4443 1.43-1.395 3.1048-2.099 5.0289-2.099s3.5596 0.7084 4.8978 2.1208c1.3425 1.4169 2.0115 3.2273 2.0115 5.4444s-0.669 4.0712-2.0115 5.5537c-1.3382 1.4868-2.9868 2.2302-4.9415 2.2302-1.9504 0-3.6296-0.7434-5.0289-2.2302-1.3994-1.4825-2.0991-3.3453-2.0991-5.5756m-1.618-8.5491c-2.1864 2.2171-3.2797 5.1338-3.2797 8.7459 0 3.6165 1.1239 6.5026 3.3672 8.6585 2.2477 2.1603 4.9196 3.2404 8.0244 3.2404s5.6062-1.3163 7.4997-3.9401v12.769h4.8977v-32.448h-4.8977v3.4984c-1.8061-2.5669-4.443-3.8482-7.9151-3.8482-2.943 0-5.51 1.1064-7.6965 3.3235"/><path d="m277.21 255.09h13.338c0 1.9503-0.6122 3.4546-1.8366 4.5041-1.2245 1.0539-2.7331 1.5787-4.5261 1.5787-1.7929 0-3.4021-0.5467-4.8321-1.6399-1.4256-1.0932-2.1428-2.5757-2.1428-4.4429m18.235-3.8483h-18.235c0.1181-1.6923 0.8921-3.0523 2.3177-4.0843 1.43-1.0408 3.0611-1.5568 4.8977-1.5568 2.9168 0 5.1295 0.9183 6.647 2.755l2.7987-3.0611c-2.5057-2.5932-5.7724-3.892-9.7955-3.892-3.2666 0-6.0434 1.0845-8.3305 3.2579-2.2871 2.169-3.4328 5.0858-3.4328 8.746 0 3.6601 1.1632 6.5682 3.4984 8.724 2.3308 2.1603 5.0814 3.2404 8.243 3.2404 3.1661 0 5.8511-0.9577 8.0682-2.8687 2.2171-1.9066 3.3234-4.5391 3.3234-7.8888z"/><path d="m313.55 260.42c-2.4183 0-4.2418-0.7872-5.4662-2.3571-1.2201-1.5742-1.8367-3.6907-1.8367-6.3408v-9.9747h-4.8977v23.269h4.8977v-4.6835c0.7915 1.4562 1.8629 2.6544 3.2142 3.5902 1.3556 0.9315 2.7943 1.4125 4.3117 1.4431l0.0438-4.9458z"/><path d="m330.91 260.42c-2.4183 0-4.2418-0.7872-5.4662-2.3571-1.2201-1.5742-1.8367-3.6907-1.8367-6.3408v-9.9747h-4.8977v23.269h4.8977v-4.6835c0.7915 1.4562 1.8629 2.6544 3.2142 3.5902 1.3556 0.9315 2.7943 1.4125 4.3117 1.4431l0.0438-4.9458z"/><path d="m340.96 254.34v-12.594h-4.8978v32.404h4.8978v-13.381c0.6996 1.43 1.7579 2.5538 3.1747 3.3672 1.4125 0.8178 2.9299 1.2288 4.5698 1.2288 2.6194 0 4.7403-0.8046 6.3627-2.4095 1.618-1.6005 2.4226-3.9225 2.4226-6.953v-14.256h-4.8977v12.769c0 4.2899-1.7754 6.4282-5.3351 6.4282-1.6879 0-3.1616-0.5597-4.4123-1.6836-1.255-1.1238-1.8847-2.7637-1.8847-4.9195"/><path d="m368.12 255.09h13.338c0 1.9503-0.6122 3.4546-1.8366 4.5041-1.2201 1.0539-2.7331 1.5787-4.526 1.5787-1.7886 0-3.4066-0.5467-4.8322-1.6399-1.4299-1.0932-2.1427-2.5757-2.1427-4.4429m18.235-3.8483h-18.235c0.1137-1.6923 0.8877-3.0523 2.3176-4.0843 1.4256-1.0408 3.0611-1.5568 4.8978-1.5568 2.9124 0 5.1295 0.9183 6.6469 2.755l2.8031-3.0611c-2.5145-2.5932-5.7767-3.892-9.7999-3.892-3.2666 0-6.0434 1.0845-8.3305 3.2579-2.287 2.169-3.4328 5.0858-3.4328 8.746 0 3.6601 1.1633 6.5682 3.4984 8.724 2.3352 2.1603 5.0814 3.2404 8.2431 3.2404 3.1616 0 5.851-0.9577 8.0681-2.8687 2.2171-1.9066 3.3235-4.5391 3.3235-7.8888z"/><path d="m397.03 241.75h-4.8977v23.264h4.8977zm-4.5916 27.9c-0.6079 0.6079-0.9183 1.3381-0.9183 2.1865 0 0.844 0.3104 1.5743 0.9183 2.1865 0.6122 0.6078 1.3425 0.9183 2.1865 0.9183 0.8483 0 1.5786-0.3105 2.1865-0.9183 0.6122-0.6122 0.9183-1.3425 0.9183-2.1865 0-0.8484-0.3061-1.5786-0.9183-2.1865-0.6079-0.6122-1.3382-0.9183-2.1865-0.9183-0.844 0-1.5743 0.3061-2.1865 0.9183"/><path d="m409.27 254.34v-12.594h-4.8978v23.264h4.8978v-4.2418c0.7915 1.43 1.876 2.5538 3.2578 3.3672 1.3863 0.8178 2.8774 1.2288 4.4867 1.2288 2.6194 0 4.7403-0.8046 6.3627-2.4095 1.618-1.6005 2.4226-3.9225 2.4226-6.953v-14.256h-4.8977v12.769c0 4.2899-1.7755 6.4282-5.3351 6.4282-1.6879 0-3.1616-0.5597-4.4123-1.6836-1.255-1.1238-1.8847-2.7637-1.8847-4.9195"/></g></g></g><g transform="matrix(.15882 0 0 .15882 1.3364 68.138)"><g clip-path="url(#clipPath130)"><g transform="matrix(4.373 0 0 4.373 217.7 307.13)"><path d="m0 0s7.682-0.484 10.846 3.407c3.163 3.894 0.973 3.479 1.217 9.562 0.243 6.084 0.973 7.927-3.164 10.844-4.137 2.922-4.885 8.524 1.684 8.279 6.571-0.241 10.331 1.471 14.579 0 4.247-1.469 3.256-4.871 1.527-7.303-1.73-2.433-2.725-1.216-2.713-6.084 8e-3 -4.866-0.284-10.917 1.444-14.081s9.273-2.191 9.273-2.191" fill="none" stroke="#fff" stroke-miterlimit="10" stroke-width="2"/></g><g transform="matrix(4.373 0 0 4.373 346.58 445.77)"><path d="m0 0s6.861 6.027 9.669 11.229 3.394 9.683 3.394 9.683" fill="none" stroke="#fff" stroke-miterlimit="10"/></g><g transform="matrix(4.373 0 0 4.373 329.04 460.85)"><path d="m0 0s5.311 7.429 6.858 13.134c1.551 5.704 1.105 10.202 1.105 10.202" fill="none" stroke="#fff" stroke-miterlimit="10"/></g><g fill="#fff"><path d="m232.96 564.91s1.1851-7.0755-1.465-11.169c-2.65-4.0931-9.2138-3.8613-9.2138-3.8613s-1.3644 5.1295 1.4955 9.5418c2.8512 4.4036 9.1833 5.4881 9.1833 5.4881"/><path d="m157.65 536.78s7.163-0.4373 10.552-3.9401c3.3891-3.5071 1.6923-9.8479 1.6923-9.8479s-5.3131-0.1749-8.9645 3.6033c-3.6471 3.7739-3.2798 10.185-3.2798 10.185"/><path d="m162.42 518.77s7.1629-0.4373 10.552-3.9444c3.3891-3.5071 1.6924-9.8479 1.6924-9.8479s-5.3088-0.1749-8.9602 3.6033c-3.6515 3.7739-3.2841 10.189-3.2841 10.189"/><path d="m169.92 500.65s7.1717 0.2361 10.871-2.9387c3.7039-3.1748 2.6063-9.6468 2.6063-9.6468s-5.2694-0.669-9.2576 2.755c-3.9881 3.4153-4.2199 9.8305-4.2199 9.8305"/><path d="m205.98 512.07s7.1717 0.2361 10.871-2.9387c3.7039-3.1747 2.6063-9.6467 2.6063-9.6467s-5.2738-0.6691-9.2576 2.7549c-3.9881 3.4153-4.2199 9.8305-4.2199 9.8305"/><path d="m245.21 519.28s7.1279-0.8134 10.329-4.4911c3.2054-3.6776 1.172-9.9179 1.172-9.9179s-5.3088 0.105-8.7591 4.0669c-3.4459 3.9575-2.7418 10.342-2.7418 10.342"/><path d="m247.28 504.23s7.1323-0.8134 10.333-4.4911c3.2053-3.6776 1.1719-9.9223 1.1719-9.9223s-5.3088 0.105-8.7591 4.0713c-3.4459 3.9575-2.7462 10.342-2.7462 10.342"/><path d="m198.06 562.98s6.9836-1.6618 9.7167-5.698c2.7375-4.0406-0.0262-9.9923-0.0262-9.9923s-5.2607 0.7391-8.2081 5.0946c-2.9474 4.3423-1.4824 10.596-1.4824 10.596"/><path d="m199.66 544.43s6.9793-1.6617 9.7124-5.698c2.7375-4.0406-0.0262-9.9922-0.0262-9.9922s-5.2607 0.739-8.2125 5.0901c-2.9386 4.3467-1.4737 10.6-1.4737 10.6"/><path d="m202.29 528s7.1061-1.0014 10.206-4.7622c3.1005-3.7651 0.9052-9.9529 0.9052-9.9529s-5.3044 0.2449-8.6453 4.3074c-3.341 4.045-2.4664 10.408-2.4664 10.408"/><path d="m176.73 484.8s6.9399 1.8105 11.252-0.4679c4.3117-2.2827 4.6659-8.8377 4.6659-8.8377s-4.9939-1.8105-9.6336 0.6428c-4.6441 2.4532-6.284 8.6628-6.284 8.6628"/><path d="m185.92 470.78s6.9355 1.8104 11.256-0.4679c4.303-2.2827 4.6616-8.8378 4.6616-8.8378s-4.9896-1.8147-9.6381 0.6472c-4.6397 2.4489-6.2795 8.6585-6.2795 8.6585"/><path d="m197.56 457.65s6.695 2.58 11.238 0.8046c4.5304-1.7886 5.628-8.2606 5.628-8.2606s-4.7577-2.3614-9.6511-0.4416c-4.8846 1.911-7.2154 7.8976-7.2154 7.8976"/><path d="m207.24 445.99s6.0959 3.7695 10.893 2.8643c4.7884-0.9052 7.0623-7.058 7.0623-7.058s-4.2418-3.2097-9.3975-2.2258c-5.1601 0.9708-8.5579 6.4195-8.5579 6.4195"/><path d="m169.4 556.63s6.367-3.306 8.0331-7.8932c1.6705-4.5829-2.4576-9.6862-2.4576-9.6862s-4.9239 2.0029-6.7212 6.9399c-1.7973 4.9328 1.1457 10.64 1.1457 10.64"/><path d="m211.98 584.01s5.9954-3.9357 7.1936-8.6672c1.1982-4.7272-3.4241-9.3801-3.4241-9.3801s-4.6922 2.4795-5.9866 7.574c-1.29 5.0902 2.2171 10.473 2.2171 10.473"/><path d="m263.15 591.42s5.2432-4.8977 5.6237-9.7605c0.3848-4.8627-4.9634-8.6672-4.9634-8.6672s-4.2111 3.2447-4.6178 8.4835c-0.4111 5.2345 3.9575 9.9442 3.9575 9.9442"/><path d="m309.73 590.84s6.4808-3.0786 8.3131-7.5915c1.8454-4.5217-2.0903-9.7649-2.0903-9.7649s-4.9983 1.8104-6.9793 6.6776c-1.9678 4.8627 0.7565 10.679 0.7565 10.679"/><path d="m365.31 584.08s4.0712-5.9035 3.4022-10.736c-0.6647-4.8322-6.6994-7.4035-6.6994-7.4035s-3.4153 4.0625-2.6938 9.2707c0.7259 5.2039 5.991 8.8684 5.991 8.8684"/><path d="m401.28 557.58s5.991-3.9488 7.1892-8.676c1.1894-4.7315-3.4415-9.3756-3.4415-9.3756s-4.6879 2.4838-5.9779 7.5827c-1.2813 5.0901 2.2302 10.469 2.2302 10.469"/><path d="m233.3 548.56s1.1851-7.0755-1.4606-11.169c-2.6544-4.0975-9.2138-3.8657-9.2138-3.8657s-1.3688 5.1339 1.4912 9.5418c2.8511 4.408 9.1832 5.4925 9.1832 5.4925"/><path d="m235.69 533.52s1.1851-7.0711-1.4649-11.164c-2.6544-4.0975-9.2139-3.8657-9.2139-3.8657s-1.3643 5.1295 1.4912 9.5418c2.8556 4.4036 9.1876 5.4881 9.1876 5.4881"/><path d="m192.82 546.53s2.5451-6.7038 0.7434-11.238c-1.7973-4.5348-8.278-5.5931-8.278-5.5931s-2.3439 4.7666-0.398 9.6556c1.9329 4.8758 7.9326 7.176 7.9326 7.176"/><path d="m196.35 530.55s2.5494-6.7037 0.7521-11.234c-1.8016-4.5392-8.278-5.6018-8.278-5.6018s-2.3483 4.7753-0.4023 9.6511c1.9328 4.8846 7.9282 7.1848 7.9282 7.1848"/><path d="m201.65 516.27s2.5451-6.6994 0.7478-11.239c-1.8017-4.5304-8.2737-5.5886-8.2737-5.5886s-2.3483 4.7622-0.4067 9.6468c1.9373 4.8846 7.9326 7.1804 7.9326 7.1804"/><path d="m237.93 520.75s3.0786-6.4808 1.6486-11.147c-1.4212-4.6659-7.797-6.2402-7.797-6.2402s-2.72 4.561-1.1807 9.5856c1.5349 5.0201 7.3291 7.8014 7.3291 7.8014"/><path d="m241.78 505.99s3.7652-6.1047 2.8556-10.898c-0.9183-4.7884-7.0842-7.0492-7.0842-7.0492s-3.1967 4.2462-2.2084 9.4063c0.9796 5.1557 6.437 8.5404 6.437 8.5404"/><path d="m247.28 493.39s4.784-5.3437 4.7271-10.22c-0.0481-4.8759-5.7242-8.1906-5.7242-8.1906s-3.8919 3.6077-3.8307 8.8597c0.0525 5.2563 4.8278 9.5505 4.8278 9.5505"/><path d="m257.14 483.83s3.7608-6.1046 2.8468-10.893c-0.9183-4.7972-7.0798-7.0493-7.0798-7.0493s-3.1967 4.2418-2.2128 9.4019c0.984 5.1558 6.4458 8.5404 6.4458 8.5404"/><path d="m208.8 501.6s3.1223-6.4632 1.7229-11.134c-1.4037-4.6747-7.762-6.2839-7.762-6.2839s-2.7506 4.5391-1.2419 9.5768c1.5087 5.0245 7.281 7.8407 7.281 7.8407"/><path d="m217.5 491.06s3.118-6.4633 1.723-11.134c-1.3994-4.6747-7.762-6.2883-7.762-6.2883s-2.7506 4.5435-1.242 9.5811c1.5087 5.0246 7.281 7.8408 7.281 7.8408"/><path d="m227.31 480.17s3.1223-6.4633 1.723-11.134c-1.3994-4.6747-7.7621-6.2884-7.7621-6.2884s-2.7506 4.5436-1.2419 9.5769c1.5087 5.0289 7.281 7.8451 7.281 7.8451"/><path d="m237.13 471.46s3.1223-6.4588 1.7229-11.129c-1.4037-4.6747-7.762-6.2927-7.762-6.2927s-2.7506 4.5479-1.2419 9.5812c1.5086 5.0245 7.281 7.8407 7.281 7.8407"/></g><g transform="matrix(4.373 0 0 4.373 309.77 463.19)"><path d="m0 0s1.768 8.619 1.657 14.53c-0.109 5.909-0.545 10.102-0.545 10.102" fill="none" stroke="#fff" stroke-miterlimit="10"/></g><g transform="matrix(4.373 0 0 4.373 232.21 445.33)"><path d="m0 0s-6.862 6.027-9.668 11.229c-2.807 5.202-3.395 9.683-3.395 9.683" fill="none" stroke="#fff" stroke-miterlimit="10"/></g><g transform="matrix(4.373 0 0 4.373 249.76 460.41)"><path d="m0 0s-5.311 7.43-6.859 13.134c-1.55 5.705-1.104 10.203-1.104 10.203" fill="none" stroke="#fff" stroke-miterlimit="10"/></g><g fill="#fff"><path d="m248.68 572.33s6.5901-2.838 8.5885-7.2897c1.9985-4.4474-1.7448-9.8349-1.7448-9.8349s-5.0552 1.6355-7.211 6.4327c-2.1559 4.7884 0.3673 10.692 0.3673 10.692"/><path d="m247.06 553.77s6.59-2.838 8.5885-7.2854c2.0028-4.4473-1.7448-9.8348-1.7448-9.8348s-5.0552 1.6311-7.2111 6.4239c-2.1515 4.7884 0.3674 10.696 0.3674 10.696"/><path d="m244.66 536.71s6.9268-1.8454 9.5593-5.956c2.6282-4.1106-0.3017-9.9879-0.3017-9.9879s-5.2388 0.8834-8.0638 5.3132c-2.8293 4.4211-1.1938 10.631-1.1938 10.631"/><path d="m280.75 570.29s-6.9443-1.8016-9.603-5.8991c-2.6544-4.0844 0.223-9.9791 0.223-9.9791s5.2519 0.8396 8.1118 5.2563c2.8556 4.4036 1.2682 10.622 1.2682 10.622"/><path d="m279.52 551.7s-6.9443-1.7973-9.5987-5.8948c-2.6544-4.0844 0.223-9.9791 0.223-9.9791s5.2432 0.8396 8.1119 5.2519c2.8512 4.3992 1.2638 10.622 1.2638 10.622"/><path d="m279.29 534.48s-7.1323-0.7696-10.355-4.4298c-3.2272-3.6646-1.2288-9.9179-1.2288-9.9179s5.3088 0.0743 8.7809 4.0231c3.4678 3.9357 2.8031 10.325 2.8031 10.325"/><path d="m332.05 572.8s-6.7868-2.3308-9.1264-6.612c-2.3264-4.2855 0.9971-9.9441 0.9971-9.9441s5.1645 1.2463 7.6789 5.8641c2.5145 4.6135 0.4504 10.692 0.4504 10.692"/><path d="m332.24 554.17s-6.7912-2.3221-9.122-6.6076 0.997-9.9398 0.997-9.9398 5.1514 1.242 7.679 5.8642c2.5057 4.6047 0.446 10.683 0.446 10.683"/><path d="m333.34 536.98s-7.0493-1.3163-9.9792-5.2126c-2.9342-3.9007-0.4635-9.9835-0.4635-9.9835s5.2826 0.481 8.4486 4.6878c3.1529 4.1893 1.9941 10.508 1.9941 10.508"/><path d="m382.51 562.4s-7.0973-1.0758-10.158-4.8715c-3.0567-3.8001-0.8134-9.9617-0.8134-9.9617s5.3132 0.3018 8.6104 4.3993c3.306 4.0843 2.3614 10.434 2.3614 10.434"/><path d="m379.37 544.04s-7.0886-1.0757-10.145-4.8715c-3.0698-3.7957-0.809-9.9572-0.809-9.9572s5.2957 0.2973 8.606 4.3948c3.2929 4.0844 2.3483 10.434 2.3483 10.434"/><path d="m377.37 526.93s-7.1805-0.0306-10.753-3.3453c-3.5858-3.3103-2.2521-9.7342-2.2521-9.7342s5.2913-0.4767 9.157 3.1004c3.8526 3.5596 3.8483 9.9791 3.8483 9.9791"/><path d="m420.88 536.2s-7.1673 0.2537-10.876-2.9124c-3.7126-3.166-2.6281-9.6424-2.6281-9.6424s5.2694-0.6822 9.2619 2.7331c3.9969 3.411 4.2418 9.8217 4.2418 9.8217"/><path d="m414.41 518.73s-7.1717 0.2536-10.876-2.9124c-3.7214-3.166-2.6413-9.638-2.6413-9.638s5.2782-0.6822 9.2751 2.7287c3.9794 3.4066 4.2418 9.8217 4.2418 9.8217"/><path d="m409.29 502.28s-7.058 1.2944-11.199-1.2988c-4.1281-2.5975-4.0013-9.157-4.0013-9.157s5.1164-1.4387 9.5725 1.3556c4.4429 2.7856 5.628 9.1002 5.628 9.1002"/><path d="m403.45 487.56s-6.8175 2.2608-11.265 0.2624c-4.4473-1.9985-5.2257-8.5186-5.2257-8.5186s4.8671-2.134 9.6599 0.0219c4.7884 2.1515 6.8306 8.2343 6.8306 8.2343"/><path d="m392.33 472.61s-6.8219 2.2521-11.256 0.258c-4.4648-1.994-5.2344-8.5141-5.2344-8.5141s4.8671-2.134 9.6599 0.0175c4.7796 2.1471 6.8306 8.2386 6.8306 8.2386"/><path d="m383.35 458.08s-6.2009 3.6164-10.968 2.58c-4.7665-1.032-6.8655-7.246-6.8655-7.246s4.3117-3.0873 9.4587-1.9766c5.1208 1.102 8.3743 6.6426 8.3743 6.6426"/><path d="m371.81 447.83s-6.2009 3.6121-10.976 2.5757c-4.7665-1.0364-6.8568-7.246-6.8568-7.246s4.303-3.0917 9.4413-1.9766c5.1382 1.102 8.3917 6.6469 8.3917 6.6469"/><path d="m374.49 509.84s-7.1017 1.0714-11.147-1.6486c-4.0581-2.7244-3.7127-9.2795-3.7127-9.2795s5.1514-1.2769 9.5112 1.6574c4.3555 2.9255 5.3482 9.2707 5.3482 9.2707"/><path d="m366.05 493.23s-7.0929 1.0714-11.151-1.6486c-4.045-2.7244-3.7039-9.2751-3.7039-9.2751s5.1514-1.2813 9.52 1.6486c4.3467 2.9299 5.335 9.2751 5.335 9.2751"/><path d="m354.72 473.92s-6.848 2.0946-11.256-9e-3c-4.3948-2.1078-5.0289-8.6366-5.0289-8.6366s4.9108-2.0203 9.6555 0.2536c4.7316 2.2565 6.6294 8.3918 6.6294 8.3918"/><path d="m334.05 517.27s-7.0842-1.1457-10.115-4.9764c-3.0217-3.822-0.7084-9.966-0.7084-9.966s5.3088 0.3542 8.5623 4.4866c3.2622 4.1194 2.2608 10.456 2.2608 10.456"/><path d="m331.09 498.88s-7.0755-1.1413-10.11-4.9677c-3.0261-3.8264-0.7041-9.966-0.7041-9.966s5.2957 0.3542 8.5579 4.4735c3.2535 4.1194 2.2565 10.46 2.2565 10.46"/><path d="m329.25 481.75s-7.1804-0.1005-10.718-3.4502c-3.5596-3.341-2.1515-9.7518-2.1515-9.7518s5.2957-0.4241 9.1264 3.1792c3.8176 3.5946 3.7433 10.023 3.7433 10.023"/><path d="m278.33 519.7s-6.8218-2.2346-9.2095-6.4939c-2.3876-4.2505 0.8659-9.9529 0.8659-9.9529s5.1819 1.1807 7.7489 5.768c2.5757 4.5785 0.5947 10.679 0.5947 10.679"/><path d="m279.43 501.64s-6.5201-2.9736-8.4268-7.469c-1.9022-4.4867 1.9591-9.7911 1.9591-9.7911s5.0158 1.736 7.0668 6.5813c2.0465 4.8278-0.5991 10.679-0.5991 10.679"/><path d="m282.2 484.64s-6.8874-1.9985-9.4281-6.1659c-2.5363-4.1631 0.5204-9.9791 0.5204-9.9791s5.2126 0.997 7.9413 5.4924c2.7331 4.478 0.9664 10.653 0.9664 10.653"/><path d="m300.06 569.81s6.8393-2.1647 9.2794-6.389c2.4445-4.2242-0.7477-9.9616-0.7477-9.9616s-5.1864 1.1151-7.8189 5.6761c-2.6238 4.5479-0.7128 10.674-0.7128 10.674"/><path d="m300.32 551.19s6.835-2.1603 9.2838-6.3846c2.4445-4.2243-0.7565-9.9616-0.7565-9.9616s-5.182 1.1151-7.8145 5.6717c-2.6238 4.5479-0.7128 10.674-0.7128 10.674"/><path d="m299.64 533.97s7.0842-1.137 10.11-4.9634c3.0348-3.8219 0.7128-9.9703 0.7128-9.9703s-5.2957 0.3542-8.5536 4.4735c-3.2622 4.115-2.2695 10.46-2.2695 10.46"/><path d="m350.09 564.01s6.4064-3.2316 8.125-7.797c1.7317-4.561-2.3396-9.7124-2.3396-9.7124s-4.9414 1.9328-6.7956 6.8568c-1.8585 4.9109 1.0102 10.653 1.0102 10.653"/><path d="m347.36 545.58s6.4064-3.2273 8.1293-7.7927c1.7274-4.561-2.3439-9.7123-2.3439-9.7123s-4.9458 1.9372-6.7956 6.8568c-1.8629 4.9065 1.0102 10.648 1.0102 10.648"/><path d="m343.93 529.38s6.8131-2.2652 9.1876-6.5245c2.3746-4.2593-0.9095-9.9529-0.9095-9.9529s-5.1689 1.2026-7.7271 5.7898c-2.5625 4.5829-0.551 10.688-0.551 10.688"/><path d="m391.44 542.4s5.4182-4.7009 5.9779-9.5506c0.5597-4.8452-4.6397-8.8465-4.6397-8.8465s-4.3293 3.083-4.924 8.313c-0.5991 5.2126 3.5858 10.084 3.5858 10.084"/><path d="m384.28 525.2s5.4269-4.6922 5.991-9.5462c0.5554-4.8409-4.6441-8.8422-4.6441-8.8422s-4.3249 3.083-4.924 8.3087c-0.5991 5.2126 3.5771 10.08 3.5771 10.08"/><path d="m376.84 509.67s6.0478-3.8613 7.2985-8.5666c1.2681-4.7185-3.3104-9.4369-3.3104-9.4369s-4.714 2.427-6.0828 7.504c-1.3468 5.0683 2.0947 10.5 2.0947 10.5"/><path d="m370.54 497.26s4.9327-5.217 5.0027-10.093c0.0743-4.8803-5.51-8.3437-5.51-8.3437s-3.9838 3.5072-4.0669 8.7591c-0.083 5.2476 4.5742 9.6774 4.5742 9.6774"/><path d="m363.35 484.12s3.6689-6.1746 2.6588-10.941c-0.9883-4.784-7.1892-6.9399-7.1892-6.9399s-3.1223 4.2987-2.0553 9.4413c1.067 5.1382 6.5857 8.4398 6.5857 8.4398"/><path d="m340.91 515.78s6.1047-3.7739 7.421-8.4661c1.3337-4.6922-3.1704-9.4762-3.1704-9.4762s-4.7535 2.3614-6.1834 7.4209c-1.4387 5.0508 1.9328 10.521 1.9328 10.521"/><path d="m335.67 502.33s5.5493-4.5523 6.2359-9.3801c0.6865-4.8321-4.4036-8.9689-4.4036-8.9689s-4.408 2.9736-5.1514 8.1774c-0.739 5.1951 3.3191 10.172 3.3191 10.172"/><path d="m300.06 518.35s6.7737-2.3702 9.0695-6.6732c2.3133-4.2986-1.0539-9.9354-1.0539-9.9354s-5.1557 1.2769-7.6483 5.9123c-2.4663 4.6266-0.3673 10.696-0.3673 10.696"/><path d="m298.65 500.27s6.4632-3.0961 8.2911-7.6221c1.8235-4.5173-2.1384-9.7517-2.1384-9.7517s-4.9764 1.8322-6.9443 6.7037c-1.9634 4.8671 0.7916 10.67 0.7916 10.67"/><path d="m295.57 483.33s6.8612-2.1209 9.3189-6.3277c2.4663-4.2112-0.6866-9.9747-0.6866-9.9747s-5.2038 1.0888-7.8539 5.628c-2.6544 4.526-0.7784 10.674-0.7784 10.674"/></g><g transform="matrix(4.373 0 0 4.373 269.03 462.75)"><path d="m0 0s-1.767 8.619-1.657 14.529 0.545 10.104 0.545 10.104" fill="none" stroke="#fff" stroke-miterlimit="10"/></g><g transform="matrix(4.373 0 0 4.373 56.714 279.68)"><path d="m0 0c7.77 2.757 33.605 11.921 44.755 13.095" fill="none" stroke="#fff" stroke-miterlimit="10"/></g><g transform="matrix(4.373 0 0 4.373 91.222 327)"><path d="m0 0c-1.169 9.794-4.059 17.248 1.486 17.543" fill="none" stroke="#fff" stroke-miterlimit="10"/></g><g transform="matrix(4.373 0 0 4.373 168.29 337.1)"><path d="m0 0c-1.394 9.764-0.522 17.711-5.957 16.567" fill="none" stroke="#fff" stroke-miterlimit="10"/></g><g transform="matrix(4.373 0 0 4.373 107.5 329.14)"><path d="m0 0c-0.469 3.896-2.135 5.238 4.326 6.038 6.462 0.801 5.373-1.059 5.855-4.704" fill="none" stroke="#fff" stroke-miterlimit="10"/></g><g transform="matrix(4.373 0 0 4.373 90.344 437.21)"><path d="m0 0c0.992 1.105 2.317 1.45 2.724-0.569 1.844-9.156-3.036-13.755 4.83-12.381 7.866 1.373 3.211 4.523-0.152 13.693" fill="none" stroke="#fff" stroke-miterlimit="10"/></g><g transform="matrix(4.373 0 0 4.373 124.3 447.13)"><path d="m0 0c3.042 0.19 3.711-2.014 1.616-2.521" fill="none" stroke="#fff" stroke-miterlimit="10"/></g><g transform="matrix(4.373 0 0 4.373 111.33 385.07)"><path d="m0 0c0.106 2.579 1.703 2.273 1.967 0.258" fill="none" stroke="#fff" stroke-miterlimit="10"/></g><g transform="matrix(4.373 0 0 4.373 125.25 387.71)"><path d="m0 0c0.106 2.579 1.703 2.273 1.967 0.258" fill="none" stroke="#fff" stroke-miterlimit="10"/></g><g transform="matrix(4.373 0 0 4.373 115.79 351.04)"><path d="m0 0c0.559-1.941 1.46-1.905 2.644-1.75 0.823 0.108 2.373 1.023 2.101 2.371" fill="none" stroke="#fff" stroke-miterlimit="10"/></g><g transform="matrix(4.373 0 0 4.373 99.692 449.26)"><path d="m0 0c-3.765 4.688-3.775 8.989 1.608 0.999" fill="none" stroke="#fff" stroke-miterlimit="10"/></g><g transform="matrix(4.373 0 0 4.373 112.51 456.63)"><path d="m0 0c1.52 5.816 4.968 8.388 1.76-0.697" fill="none" stroke="#fff" stroke-miterlimit="10"/></g><g transform="matrix(4.373 0 0 4.373 189.52 370.37)"><path d="m0 0-2.085-0.273s-1.511 2.004-4.094 2.671" fill="none" stroke="#fff" stroke-miterlimit="10"/></g><g transform="matrix(4.373 0 0 4.373 187.55 360.45)"><path d="m0 0-1.66 1.831-0.418-2.632" fill="none" stroke="#fff" stroke-miterlimit="10"/></g><g transform="matrix(4.373 0 0 4.373 539.9 283.79)"><path d="m0 0c-7.77 2.757-33.604 11.921-44.754 13.095" fill="none" stroke="#fff" stroke-miterlimit="10"/></g><g transform="matrix(4.373 0 0 4.373 439.33 332.3)"><path d="m0 0c2.703 18.043 9.617 18.299 12.416 0" fill="none" stroke="#fff" stroke-miterlimit="10"/></g><g transform="matrix(4.373 0 0 4.373 458.93 330.79)"><path d="m0 0c0.45 7.303 2.951 7.159 3.45 0" fill="none" stroke="#fff" stroke-miterlimit="10"/></g><g transform="matrix(4.373 0 0 4.373 479.54 421.46)"><path d="m0 0 9.368 9.361-1.764 1.765-9.368-9.36z" fill="none" stroke="#fff" stroke-miterlimit="10"/></g><path d="m470.01 419.63c1.9547-1.9503 1.9547-5.1164 9e-3 -7.0667-1.9547-1.9547-5.1251-1.9547-7.0711 0-1.9591 1.9503-1.9591 5.1207 0 7.0711 1.946 1.9503 5.1164 1.9503 7.0624-4e-3" fill="#fff"/><g transform="matrix(4.373 0 0 4.373 420.16 362.07)"><path d="m0 0 9.368 9.36-1.764 1.766-9.369-9.36z" fill="none" stroke="#fff" stroke-miterlimit="10"/></g><g transform="matrix(4.373 0 0 4.373 471.84 403.03)"><path d="m0 0 9.36-9.368 1.766 1.764-9.359 9.369z" fill="none" stroke="#fff" stroke-miterlimit="10"/></g><g transform="matrix(4.373 0 0 4.373 412.46 462.41)"><path d="m0 0 9.359-9.368 1.767 1.764-9.359 9.369z" fill="none" stroke="#fff" stroke-miterlimit="10"/></g></g></g><g transform="matrix(.15882 0 0 .15882 1.3364 68.138)"><g clip-path="url(#clipPath402)"><g transform="matrix(4.373 0 0 4.373 297.49 736.75)"><path d="m0 0-62.498-35.999v-72.001l62.5-36 62.499 36v72.001l-62.498 35.999z" fill="none" stroke="#ec008c" stroke-miterlimit="10" stroke-width=".25"/></g></g></g></g></g></svg>
