<?xml version="1.0" encoding="UTF-8"?>
<!-- Created with Inkscape (http://www.inkscape.org/) -->
<svg width="52.25mm" height="52.5mm" version="1.1" viewBox="0 0 197.48 198.43" xml:space="preserve" xmlns="http://www.w3.org/2000/svg" xmlns:cc="http://creativecommons.org/ns#" xmlns:dc="http://purl.org/dc/elements/1.1/" xmlns:rdf="http://www.w3.org/1999/02/22-rdf-syntax-ns#"><metadata><rdf:RDF><cc:Work rdf:about=""><dc:format>image/svg+xml</dc:format><dc:type rdf:resource="http://purl.org/dc/dcmitype/StillImage"/><dc:title/></cc:Work></rdf:RDF></metadata><defs><clipPath id="clipPath20"><path d="m0 0h198.42v198.42h-198.42z"/></clipPath><clipPath id="clipPath26"><path d="m31 20h136v158h-136z"/></clipPath><clipPath id="clipPath30"><path d="m0 0h199v199h-199z"/></clipPath><clipPath id="clipPath34"><path d="m45.259 129.98v-62.453l54-31.227 54 31.227v62.453l-54 31.225z"/></clipPath><clipPath id="clipPath38"><path d="m0 0h199v199h-199z"/></clipPath><clipPath id="clipPath42"><path d="m0 0h199v199h-199z"/></clipPath><clipPath id="clipPath46"><path d="M 0,198.425 H 198.425 V 0 H 0 Z"/></clipPath><clipPath id="clipPath50"><path d="m0 0h199v199h-199z"/></clipPath></defs><g transform="matrix(1.3333 0 0 -1.3333 0 198.43)"><g transform="matrix(.68752 0 0 .68752 5.9911 6.1992)"><g clip-path="url(#clipPath20)"><g clip-path="url(#clipPath26)"><g clip-path="url(#clipPath30)"><g><path d="m164.35 140.13-62.405 36-2.782 1.63-2.806-1.63-62.51-36-2.849-1.636v-78.555l2.862-1.636 62.51-36 2.835-1.63 2.832 1.63 62.312 36 2.649 1.636v78.555z" fill="#f2646e"/><path d="m39.213 64.657v69.11l60 34.561 60-34.561v-69.11l-60-34.561z" fill="#fff"/><path d="m99.213 171.21-62.5-36v-72.001l62.5-36 62.5 36v72.001zm0-5.771 57.5-33.119v-66.221l-57.5-33.119-57.5 33.119v66.221z" fill="#f2646e"/><path d="m153.21 67.986-54-31.227-54 31.227v62.453l54 31.225 54-31.225z" fill="#f2646e"/></g><g transform="translate(161.71 63.212)"><path d="m0 0-62.501-36-62.5 36v72.001l62.5 36 62.501-36z" fill="none" stroke="#9ad438" stroke-width=".25"/></g></g><g clip-path="url(#clipPath34)"><g clip-path="url(#clipPath38)"><g transform="translate(62.839 122.18)"><path d="m0 0s0.033 8.496 5.467 9.789c4.864 1.157 9.157-4.368 10.427-6.3 0.2-0.304 0.593-0.356 0.898-0.158 0.845 0.55 2.687 0.854 4.049 0.118 1.667-0.901 2.09-2.798 1.507-3.844l-3.678-6.595" fill="none" stroke="#fff" stroke-miterlimit="10" stroke-width="1.372"/></g><g transform="translate(85.313 122.52)"><path d="m0 0c0.845 0.55 2.687 0.854 4.05 0.117 1.666-0.9 2.09-2.797 1.506-3.843l-3.677-6.595" fill="none" stroke="#fff" stroke-miterlimit="10" stroke-width="1.372"/></g><g transform="translate(90.93 119.39)"><path d="m0 0c0.845 0.55 2.687 0.854 4.05 0.117 1.666-0.9 2.09-2.797 1.506-3.843l-3.677-6.595" fill="none" stroke="#fff" stroke-miterlimit="10" stroke-width="1.372"/></g><g transform="translate(96.762 116.15)"><path d="m0 0c0.845 0.55 2.687 0.854 4.05 0.117 1.666-0.9 2.09-2.797 1.506-3.843l-3.677-6.595" fill="none" stroke="#fff" stroke-miterlimit="10" stroke-width="1.372"/></g><g transform="translate(102.38 113.03)"><path d="m0 0c0.845 0.55 2.687 0.854 4.05 0.117 1.666-0.9 2.09-2.797 1.506-3.843l-3.677-6.595" fill="none" stroke="#fff" stroke-miterlimit="10" stroke-width="1.372"/></g><g transform="translate(108.1 109.85)"><path d="m0 0c0.845 0.55 2.687 0.854 4.05 0.117 1.666-0.9 2.09-2.797 1.506-3.843l-3.677-6.595" fill="none" stroke="#fff" stroke-miterlimit="10" stroke-width="1.372"/></g><g transform="translate(113.72 106.72)"><path d="m0 0c0.845 0.55 2.687 0.854 4.05 0.117 1.666-0.9 2.09-2.797 1.506-3.843l-3.677-6.595" fill="none" stroke="#fff" stroke-miterlimit="10" stroke-width="1.372"/></g><g transform="translate(119.55 103.48)"><path d="m0 0c0.845 0.55 2.687 0.854 4.05 0.117 1.666-0.9 2.09-2.797 1.506-3.843l-3.677-6.595" fill="none" stroke="#fff" stroke-miterlimit="10" stroke-width="1.372"/></g><g transform="translate(125.16 100.36)"><path d="m0 0c0.845 0.55 2.687 0.854 4.05 0.117 1.666-0.9 2.09-2.797 1.506-3.843l-3.677-6.595" fill="none" stroke="#fff" stroke-miterlimit="10" stroke-width="1.372"/></g><g transform="translate(130.79 97.233)"><path d="m0 0c0.845 0.55 2.687 0.854 4.05 0.117 1.666-0.9 2.09-2.797 1.506-3.843l-3.677-6.595" fill="none" stroke="#fff" stroke-miterlimit="10" stroke-width="1.372"/></g><g transform="translate(136.4 94.11)"><path d="m0 0c0.845 0.55 2.687 0.854 4.05 0.117 1.666-0.9 2.09-2.797 1.506-3.843l-3.677-6.595" fill="none" stroke="#fff" stroke-miterlimit="10" stroke-width="1.372"/></g><g transform="translate(142.23 90.867)"><path d="m0 0c0.845 0.55 2.687 0.854 4.05 0.117 1.666-0.9 2.09-2.797 1.506-3.843l-3.677-6.595" fill="none" stroke="#fff" stroke-miterlimit="10" stroke-width="1.372"/></g><g transform="translate(148.03 87.644)"><path d="m0 0c0.845 0.55 2.687 0.854 4.05 0.117 1.666-0.9 2.09-2.797 1.506-3.843" fill="none" stroke="#fff" stroke-miterlimit="10" stroke-width="1.372"/></g><g transform="translate(164.93 64.915)"><path d="m0 0c0.551-0.844 0.855-2.683 0.118-4.044-0.902-1.663-2.802-2.087-3.85-1.504l-6.605 3.672" fill="none" stroke="#fff" stroke-miterlimit="10" stroke-width="1.372"/></g><g transform="translate(161.8 59.307)"><path d="m0 0c0.551-0.844 0.855-2.683 0.118-4.044-0.902-1.663-2.802-2.087-3.85-1.504l-6.605 3.672" fill="none" stroke="#fff" stroke-miterlimit="10" stroke-width="1.372"/></g><g transform="translate(158.56 53.483)"><path d="m0 0c0.551-0.844 0.855-2.683 0.118-4.044-0.902-1.663-2.802-2.087-3.85-1.504l-6.605 3.672" fill="none" stroke="#fff" stroke-miterlimit="10" stroke-width="1.372"/></g><g transform="translate(155.7 48.054)"><path d="m0 0c0.551-0.844 0.855-2.683 0.118-4.044-0.902-1.663-2.802-2.087-3.85-1.504l-6.605 3.672" fill="none" stroke="#fff" stroke-miterlimit="10" stroke-width="1.372"/></g><g transform="translate(152.24 42.162)"><path d="m0 0c0.551-0.844 0.855-2.683 0.118-4.044-0.902-1.663-2.802-2.087-3.85-1.504l-6.605 3.672" fill="none" stroke="#fff" stroke-miterlimit="10" stroke-width="1.372"/></g><g transform="translate(149.11 36.554)"><path d="m0 0c0.551-0.844 0.855-2.683 0.118-4.044-0.902-1.663-2.802-2.087-3.85-1.504l-6.605 3.672" fill="none" stroke="#fff" stroke-miterlimit="10" stroke-width="1.372"/></g><g transform="translate(145.87 30.73)"><path d="m0 0c0.551-0.844 0.855-2.683 0.118-4.044-0.902-1.663-2.802-2.087-3.85-1.504l-6.605 3.672" fill="none" stroke="#fff" stroke-miterlimit="10" stroke-width="1.372"/></g><g transform="translate(79.275 125.36)"><path d="m0 0-1.915-3.433" fill="none" stroke="#fff" stroke-miterlimit="10" stroke-width="1.372"/></g><g transform="translate(165.21 65.102)"><path d="m0 0s7.609 4.44 5.847 9.733c-1.576 4.739-8.541 5.473-10.854 5.533-0.364 9e-3 -0.616 0.315-0.608 0.679 0.023 1.007-0.687 2.73-2.032 3.499-1.645 0.94-3.483 0.301-4.066-0.745l-3.678-6.595" fill="none" stroke="#fff" stroke-miterlimit="10" stroke-width="1.372"/></g><g transform="translate(159.91 80.53)"><path d="m0 0-1.915-3.433" fill="none" stroke="#fff" stroke-miterlimit="10" stroke-width="1.372"/></g><g transform="translate(88.352 20.194)"><path d="m0 0c-0.845-0.55-2.687-0.854-4.05-0.117-1.666 0.9-2.09 2.797-1.506 3.843l3.677 6.595" fill="none" stroke="#fff" stroke-miterlimit="10" stroke-width="1.372"/></g><g transform="translate(82.736 23.316)"><path d="m0 0c-0.845-0.55-2.687-0.854-4.05-0.117-1.666 0.9-2.09 2.797-1.506 3.843l3.677 6.595" fill="none" stroke="#fff" stroke-miterlimit="10" stroke-width="1.372"/></g><g transform="translate(76.903 26.559)"><path d="m0 0c-0.845-0.55-2.687-0.854-4.05-0.117-1.666 0.9-2.09 2.797-1.506 3.843l3.677 6.595" fill="none" stroke="#fff" stroke-miterlimit="10" stroke-width="1.372"/></g><g transform="translate(71.287 29.682)"><path d="m0 0c-0.845-0.55-2.687-0.854-4.05-0.117-1.666 0.9-2.09 2.797-1.506 3.843l3.677 6.595" fill="none" stroke="#fff" stroke-miterlimit="10" stroke-width="1.372"/></g><g transform="translate(65.666 32.808)"><path d="m0 0c-0.845-0.55-2.687-0.854-4.05-0.117-1.666 0.9-2.09 2.797-1.506 3.843l3.677 6.595" fill="none" stroke="#fff" stroke-miterlimit="10" stroke-width="1.372"/></g><g transform="translate(60.049 35.93)"><path d="m0 0c-0.845-0.55-2.687-0.854-4.05-0.117-1.666 0.9-2.09 2.797-1.506 3.843l3.677 6.595" fill="none" stroke="#fff" stroke-miterlimit="10" stroke-width="1.372"/></g><g transform="translate(54.217 39.173)"><path d="m0 0c-0.845-0.55-2.687-0.854-4.05-0.117-1.666 0.9-2.09 2.797-1.506 3.843l3.677 6.595" fill="none" stroke="#fff" stroke-miterlimit="10" stroke-width="1.372"/></g><g transform="translate(48.42 42.396)"><path d="m0 0c-0.845-0.55-2.687-0.854-4.05-0.117-1.666 0.9-2.09 2.797-1.506 3.843" fill="none" stroke="#fff" stroke-miterlimit="10" stroke-width="1.372"/></g><g transform="translate(31.242 64.939)"><path d="m0 0s-7.609-4.44-5.847-9.733c1.576-4.739 8.541-5.473 10.854-5.533 0.364-9e-3 0.616-0.315 0.608-0.679-0.023-1.007 0.687-2.73 2.032-3.499 1.645-0.94 3.483-0.301 4.066 0.745l3.678 6.595" fill="none" stroke="#fff" stroke-miterlimit="10" stroke-width="1.372"/></g><g transform="translate(36.542 49.51)"><path d="m0 0 1.915 3.433" fill="none" stroke="#fff" stroke-miterlimit="10" stroke-width="1.372"/></g><g transform="translate(62.658 121.78)"><path d="m0 0c-1.008 0.023-2.735-0.687-3.504-2.03-0.942-1.642-0.301-3.477 0.746-4.06l6.605-3.672" fill="none" stroke="#fff" stroke-miterlimit="10" stroke-width="1.372"/></g><g transform="translate(59.53 116.17)"><path d="m0 0c-1.008 0.023-2.735-0.687-3.504-2.03-0.942-1.642-0.301-3.477 0.746-4.06l6.605-3.672" fill="none" stroke="#fff" stroke-miterlimit="10" stroke-width="1.372"/></g><g transform="translate(56.283 110.35)"><path d="m0 0c-1.008 0.023-2.735-0.687-3.504-2.03-0.942-1.642-0.301-3.477 0.746-4.06l6.605-3.672" fill="none" stroke="#fff" stroke-miterlimit="10" stroke-width="1.372"/></g><g transform="translate(53.155 104.74)"><path d="m0 0c-1.008 0.023-2.735-0.687-3.504-2.03-0.942-1.642-0.301-3.477 0.746-4.06l6.605-3.672" fill="none" stroke="#fff" stroke-miterlimit="10" stroke-width="1.372"/></g><g transform="translate(49.97 99.027)"><path d="m0 0c-1.008 0.023-2.735-0.687-3.504-2.03-0.942-1.642-0.301-3.477 0.746-4.06l6.605-3.672" fill="none" stroke="#fff" stroke-miterlimit="10" stroke-width="1.372"/></g><g transform="translate(46.842 93.419)"><path d="m0 0c-1.008 0.023-2.735-0.687-3.504-2.03-0.942-1.642-0.301-3.477 0.746-4.06l6.605-3.672" fill="none" stroke="#fff" stroke-miterlimit="10" stroke-width="1.372"/></g><g transform="translate(43.595 87.595)"><path d="m0 0c-1.008 0.023-2.735-0.687-3.504-2.03-0.942-1.642-0.301-3.477 0.746-4.06l6.605-3.672" fill="none" stroke="#fff" stroke-miterlimit="10" stroke-width="1.372"/></g><g transform="translate(40.467 81.987)"><path d="m0 0c-1.008 0.023-2.735-0.687-3.504-2.03-0.942-1.642-0.301-3.477 0.746-4.06l6.605-3.672" fill="none" stroke="#fff" stroke-miterlimit="10" stroke-width="1.372"/></g><g transform="translate(37.337 76.374)"><path d="m0 0c-1.008 0.023-2.735-0.687-3.504-2.03-0.942-1.642-0.301-3.477 0.746-4.06l6.605-3.672" fill="none" stroke="#fff" stroke-miterlimit="10" stroke-width="1.372"/></g><g transform="translate(65.899 120.01)"><path d="m0 0-3.438 1.912" fill="none" stroke="#fff" stroke-miterlimit="10" stroke-width="1.372"/></g><g transform="translate(76.766 109.98)"><path d="m0 0c-0.392-0.703-1.28-0.955-1.984-0.564s-0.956 1.278-0.564 1.981c0.391 0.703 1.28 0.955 1.983 0.564 0.704-0.391 0.957-1.278 0.565-1.981z" fill="none" stroke="#fff" stroke-miterlimit="10" stroke-width="1.372"/></g><g fill="#fff"><path d="m102.62 97.419-4.672-8.378-1.51 0.84 3.497 6.272-2.14-0.065 0.908 1.628 3.258 0.07z"/><path d="m88.27 89.712-4.672-8.378-1.51 0.84 3.497 6.272-2.14-0.065 0.908 1.628 3.258 0.07z"/><path d="m89.197 83.709c-1.041-1.868-1.112-3.177-9e-3 -3.79s2.18 0.136 3.222 2.004c1.041 1.867 1.111 3.177 9e-3 3.79-1.103 0.613-2.181-0.136-3.222-2.004m4.699-2.613c-1.495-2.68-3.481-3.678-5.482-2.565-2.002 1.113-2.198 3.324-0.703 6.004 1.495 2.682 3.48 3.679 5.482 2.566 2.001-1.113 2.198-3.323 0.703-6.005"/><path d="m73.917 82.004-4.672-8.378-1.51 0.84 3.497 6.272-2.14-0.065 0.908 1.628 3.258 0.07z"/><path d="m74.844 76.001c-1.041-1.868-1.112-3.177-9e-3 -3.79s2.18 0.136 3.222 2.004c1.041 1.867 1.111 3.177 9e-3 3.79-1.103 0.613-2.181-0.136-3.222-2.004m4.699-2.613c-1.495-2.68-3.481-3.678-5.482-2.565-2.002 1.113-2.198 3.324-0.703 6.004 1.495 2.682 3.48 3.679 5.482 2.566 2.001-1.113 2.198-3.323 0.703-6.005"/><path d="m82.519 71.734c-1.041-1.868-1.112-3.177-9e-3 -3.79s2.18 0.136 3.222 2.004c1.041 1.867 1.111 3.177 9e-3 3.79-1.103 0.613-2.181-0.136-3.222-2.004m4.699-2.613c-1.495-2.68-3.481-3.678-5.482-2.565-2.002 1.113-2.198 3.324-0.703 6.004 1.495 2.682 3.48 3.679 5.482 2.566 2.001-1.113 2.198-3.323 0.703-6.005"/><path d="m59.564 74.296-4.672-8.378-1.51 0.84 3.497 6.272-2.14-0.065 0.908 1.628 3.258 0.07z"/><path d="m60.49 68.294c-1.041-1.868-1.112-3.177-9e-3 -3.79s2.18 0.136 3.222 2.004c1.041 1.867 1.111 3.177 9e-3 3.79-1.103 0.613-2.181-0.136-3.222-2.004m4.699-2.613c-1.495-2.68-3.481-3.678-5.482-2.565-2.002 1.113-2.198 3.324-0.703 6.004 1.495 2.682 3.48 3.679 5.482 2.566 2.001-1.113 2.198-3.323 0.703-6.005"/><path d="m68.166 64.026c-1.041-1.868-1.112-3.177-9e-3 -3.79s2.18 0.136 3.222 2.004c1.041 1.867 1.111 3.177 9e-3 3.79-1.103 0.613-2.181-0.136-3.222-2.004m4.699-2.613c-1.495-2.68-3.481-3.678-5.482-2.565-2.002 1.113-2.198 3.324-0.703 6.004 1.495 2.682 3.48 3.679 5.482 2.566 2.001-1.113 2.198-3.323 0.703-6.005"/><path d="m75.841 59.758c-1.041-1.868-1.112-3.177-9e-3 -3.79s2.18 0.136 3.222 2.004c1.041 1.867 1.111 3.177 9e-3 3.79-1.103 0.613-2.181-0.136-3.222-2.004m4.699-2.613c-1.495-2.68-3.481-3.678-5.482-2.565-2.002 1.113-2.198 3.324-0.703 6.004 1.495 2.682 3.48 3.679 5.482 2.566 2.001-1.113 2.198-3.323 0.703-6.005"/><path d="m46.137 60.586c-1.041-1.868-1.112-3.177-9e-3 -3.79s2.18 0.136 3.222 2.004c1.041 1.867 1.111 3.177 9e-3 3.79-1.103 0.613-2.181-0.136-3.222-2.004m4.699-2.613c-1.495-2.68-3.481-3.678-5.482-2.565-2.002 1.113-2.198 3.324-0.703 6.004 1.495 2.682 3.48 3.679 5.482 2.566 2.001-1.113 2.198-3.323 0.703-6.005"/><path d="m53.812 56.318c-1.041-1.868-1.112-3.177-9e-3 -3.79s2.18 0.136 3.222 2.004c1.041 1.867 1.111 3.177 9e-3 3.79-1.103 0.613-2.181-0.136-3.222-2.004m4.699-2.613c-1.495-2.68-3.481-3.678-5.482-2.565-2.002 1.113-2.198 3.324-0.703 6.004 1.495 2.682 3.48 3.679 5.482 2.566 2.001-1.113 2.198-3.323 0.703-6.005"/><path d="m61.488 52.051c-1.041-1.868-1.112-3.177-9e-3 -3.79s2.18 0.136 3.222 2.004c1.041 1.867 1.111 3.177 9e-3 3.79-1.103 0.613-2.181-0.136-3.222-2.004m4.699-2.613c-1.495-2.68-3.481-3.678-5.482-2.565-2.002 1.113-2.198 3.324-0.703 6.004 1.495 2.682 3.48 3.679 5.482 2.566 2.001-1.113 2.198-3.323 0.703-6.005"/><path d="m69.163 47.783c-1.041-1.868-1.112-3.177-9e-3 -3.79s2.18 0.136 3.222 2.004c1.041 1.867 1.111 3.177 9e-3 3.79-1.103 0.613-2.181-0.136-3.222-2.004m4.699-2.613c-1.495-2.68-3.481-3.678-5.482-2.565-2.002 1.113-2.198 3.324-0.703 6.004 1.495 2.682 3.48 3.679 5.482 2.566 2.001-1.113 2.198-3.323 0.703-6.005"/><path d="m123.6 85.849-4.672-8.378-1.51 0.84 3.497 6.272-2.14-0.065 0.908 1.628 3.258 0.07z"/><path d="m107.44 68.954 5.152 2.199c0.858 0.355 1.229 0.682 1.495 1.16 0.381 0.683 0.267 1.295-0.417 1.675-0.599 0.333-1.215 0.158-1.704-0.495l-1.244 1.036c0.791 1.223 2.356 1.607 3.759 0.827 1.594-0.886 1.938-2.41 1.15-3.823-0.374-0.67-0.957-1.208-1.828-1.587l-3.538-1.529 2.949-1.639-0.774-1.389-5.334 2.966z"/><path d="m105.19 57.592 1.782 3.195-3.556-2.208zm-0.775-1.389-3.608 2.006 0.428 0.766 6.913 4.09 1.582-0.879-3.03-5.434 0.935-0.519-0.775-1.39-0.935 0.52-0.867-1.555-1.51 0.839z"/><path d="m98.797 49.676c-0.354-0.635-0.199-1.285 0.413-1.625 0.611-0.34 1.247-0.13 1.601 0.505 0.347 0.622 0.184 1.261-0.427 1.601s-1.24 0.141-1.587-0.481m-2.259-3.543c-0.433-0.777-0.135-1.509 0.549-1.889 0.683-0.38 1.463-0.248 1.897 0.53 0.433 0.777 0.135 1.509-0.549 1.889-0.683 0.38-1.463 0.248-1.897-0.53m5.688 1.667c-0.38-0.682-1.002-1.12-1.726-1.236 0.47-0.762 0.522-1.684-6e-3 -2.63-0.908-1.628-2.719-1.891-4.181-1.078-1.463 0.813-2.193 2.489-1.285 4.117 0.528 0.946 1.328 1.395 2.224 1.397-0.283 0.675-0.225 1.427 0.156 2.109 0.694 1.246 2.257 1.74 3.684 0.947 1.426-0.793 1.828-2.38 1.134-3.626"/><path d="m89.935 41.816-4.672-8.378-1.51 0.84 3.497 6.272-2.14-0.065 0.908 1.628 3.258 0.07z"/><path d="m89.958 34.277c-0.454-0.814-0.161-1.668 0.546-2.061 0.72-0.4 1.589-0.192 2.043 0.622 0.48 0.86 0.172 1.659-0.547 2.06-0.72 0.399-1.562 0.24-2.042-0.621m2.912 1.955c1.534-0.853 2.094-2.607 1.187-4.234-0.868-1.557-2.721-2.063-4.327-1.17-1.582 0.879-2.157 2.72-1.282 4.289 0.28 0.501 0.754 0.959 1.228 1.244l4.881 3.01 1.678-0.933-3.557-2.099z"/></g><g transform="translate(111.77 94.605)"><path d="m0 0-32.722-58.679" fill="none" stroke="#fff" stroke-miterlimit="10" stroke-width="1.156"/></g><g transform="translate(113.92 93.41)"><path d="m0 0-32.722-58.679" fill="none" stroke="#fff" stroke-miterlimit="10" stroke-width="1.156"/></g></g></g><g clip-path="url(#clipPath42)"><path d="m123 121.86h-48.12v10.667h48.12z" fill="#fff" stroke="#f2646e" stroke-miterlimit="10" stroke-width=".934"/><g transform="matrix(1 0 0 -1 76.774 123.8)" fill="#f2646e" aria-label="Hannover"><path d="m0.91797-7.29h1.8799v2.7783h2.7734v-2.7783h1.8799v7.29h-1.8799v-3.0908h-2.7734v3.0908h-1.8799z" style=""/><path d="m10.431-2.4609q-0.54687 0-0.82519 0.18555-0.27344 0.18555-0.27344 0.54688 0 0.33203 0.21973 0.52246 0.22461 0.18555 0.62012 0.18555 0.49316 0 0.83008-0.35156 0.33691-0.35645 0.33691-0.88867v-0.2002zm2.6709-0.65918v3.1201h-1.7627v-0.81055q-0.35156 0.49805-0.79102 0.72754-0.43945 0.22461-1.0693 0.22461-0.84961 0-1.3818-0.49316-0.52734-0.49805-0.52734-1.2891 0-0.96191 0.65918-1.4111 0.66406-0.44922 2.0801-0.44922h1.0303v-0.13672q0-0.41504-0.32715-0.60547-0.32715-0.19531-1.0205-0.19531-0.56152 0-1.0449 0.1123t-0.89844 0.33691v-1.333q0.56152-0.13672 1.1279-0.20508 0.56641-0.073242 1.1328-0.073242 1.4795 0 2.1338 0.58594 0.65918 0.58105 0.65918 1.8945z" style=""/><path d="m18.448-3.3301v3.3301h-1.7578v-2.5488q0-0.70801-0.03418-0.97656-0.0293-0.26855-0.10742-0.39551-0.10254-0.1709-0.27832-0.26367-0.17578-0.097656-0.40039-0.097656-0.54688 0-0.85938 0.4248-0.3125 0.41992-0.3125 1.167v2.6904h-1.748v-5.4688h1.748v0.80078q0.39551-0.47852 0.83984-0.70312 0.44434-0.22949 0.98144-0.22949 0.94727 0 1.4355 0.58105 0.49316 0.58105 0.49316 1.6895z" style=""/><path d="m24.138-3.3301v3.3301h-1.7578v-2.5488q0-0.70801-0.03418-0.97656-0.0293-0.26855-0.10742-0.39551-0.10254-0.1709-0.27832-0.26367-0.17578-0.097656-0.40039-0.097656-0.54688 0-0.85938 0.4248-0.3125 0.41992-0.3125 1.167v2.6904h-1.748v-5.4688h1.748v0.80078q0.39551-0.47852 0.83984-0.70312 0.44434-0.22949 0.98144-0.22949 0.94727 0 1.4355 0.58105 0.49316 0.58105 0.49316 1.6895z" style=""/><path d="m27.072-4.3506q-0.58106 0-0.88867 0.41992-0.30273 0.41504-0.30273 1.2012t0.30273 1.2061q0.30762 0.41504 0.88867 0.41504 0.57129 0 0.87402-0.41504 0.30274-0.41992 0.30274-1.2061t-0.30274-1.2012q-0.30273-0.41992-0.87402-0.41992zm0-1.25q1.4111 0 2.2021 0.76172 0.7959 0.76172 0.7959 2.1094 0 1.3477-0.7959 2.1094-0.79102 0.76172-2.2021 0.76172-1.416 0-2.2168-0.76172-0.7959-0.76172-0.7959-2.1094 0-1.3477 0.7959-2.1094 0.80078-0.76172 2.2168-0.76172z" style=""/><path d="m29.671-5.4688h1.748l1.3623 3.7793 1.3574-3.7793h1.7529l-2.1533 5.4688h-1.9189z" style=""/><path d="m40.369-2.749v0.49805h-4.0869q0.06348 0.61523 0.44434 0.92285 0.38086 0.30762 1.0645 0.30762 0.55176 0 1.1279-0.16113 0.58105-0.16602 1.1914-0.49805v1.3477q-0.62012 0.23438-1.2402 0.35156-0.62012 0.12207-1.2402 0.12207-1.4844 0-2.3096-0.75195-0.82031-0.75684-0.82031-2.1191 0-1.3379 0.80566-2.1045 0.81055-0.7666 2.2266-0.7666 1.2891 0 2.0605 0.77637 0.77637 0.77637 0.77637 2.0752zm-1.7969-0.58105q0-0.49805-0.29297-0.80078-0.28809-0.30762-0.75684-0.30762-0.50781 0-0.8252 0.28809-0.31738 0.2832-0.39551 0.82031z" style=""/><path d="m44.492-3.9795q-0.22949-0.10742-0.45898-0.15625-0.22461-0.053711-0.4541-0.053711-0.67383 0-1.04 0.43457-0.36133 0.42969-0.36133 1.2354v2.5195h-1.748v-5.4688h1.748v0.89844q0.33691-0.53711 0.77148-0.78125 0.43945-0.24902 1.0498-0.24902 0.08789 0 0.19043 0.00977 0.10254 0.00488 0.29785 0.029297z" style=""/></g></g><g clip-path="url(#clipPath46)"><g clip-path="url(#clipPath50)" fill="#fff"><path d="m125.99 74.045 5.038 2.324c0.839 0.376 1.197 0.711 1.448 1.192 0.358 0.688 0.227 1.292-0.46 1.649-0.602 0.314-1.207 0.123-1.673-0.539l-1.261 0.993c0.749 1.234 2.288 1.659 3.698 0.925 1.603-0.834 1.986-2.335 1.246-3.758-0.351-0.675-0.914-1.225-1.765-1.624l-3.459-1.615 2.965-1.543-0.727-1.398-5.364 2.791z"/><path d="m135.99 75.356c-0.49-0.942-0.507-1.592 0.049-1.881 0.555-0.289 1.078 0.098 1.568 1.04 0.489 0.941 0.507 1.592-0.049 1.881-0.555 0.289-1.078-0.099-1.568-1.04m2.366-1.231c-0.704-1.352-1.674-1.875-2.682-1.351-1.008 0.525-1.136 1.62-0.433 2.972s1.673 1.874 2.681 1.349c1.008-0.524 1.137-1.618 0.434-2.97"/><path d="m119.71 61.986 5.038 2.324c0.839 0.376 1.197 0.711 1.448 1.192 0.358 0.688 0.227 1.292-0.46 1.649-0.602 0.314-1.207 0.123-1.673-0.539l-1.261 0.993c0.749 1.234 2.288 1.659 3.698 0.925 1.603-0.834 1.986-2.335 1.246-3.758-0.351-0.675-0.914-1.225-1.765-1.624l-3.459-1.615 2.965-1.543-0.727-1.398-5.364 2.791z"/><path d="m131.67 64.964-2.199-4.225-0.76 0.395 1.646 3.163-1.06-0.062 0.426 0.82 1.615 0.082z"/><path d="m113.44 49.927 5.038 2.324c0.839 0.376 1.197 0.711 1.448 1.192 0.358 0.688 0.227 1.292-0.46 1.649-0.602 0.314-1.207 0.123-1.673-0.539l-1.261 0.993c0.749 1.234 2.288 1.659 3.698 0.925 1.603-0.834 1.986-2.335 1.246-3.758-0.351-0.675-0.914-1.225-1.765-1.624l-3.459-1.615 2.965-1.543-0.727-1.398-5.364 2.791z"/><path d="m121.76 49.81 2.524 1.165c0.419 0.187 0.599 0.356 0.724 0.596 0.179 0.345 0.114 0.647-0.23 0.826-0.302 0.157-0.604 0.061-0.838-0.27l-0.631 0.497c0.375 0.617 1.145 0.83 1.851 0.463 0.803-0.418 0.995-1.169 0.624-1.881-0.176-0.338-0.457-0.614-0.883-0.814l-1.733-0.809 1.485-0.772-0.364-0.7-2.686 1.398z"/><path d="m95.04 139.84c-0.262 0.158-0.456 0.214-0.684 0.214-0.403 0-0.624-0.238-0.624-0.752v-0.26h1.654v-0.603h-1.656v-3.384h-0.707v3.384h-1.199v0.603h1.199v0.244c0 0.966 0.496 1.369 1.307 1.369 0.388 0 0.65-0.095 0.886-0.229 0 0-0.176-0.586-0.176-0.586"/><path d="m98.45 135.59c0.869 0 1.367 0.689 1.367 1.456s-0.498 1.455-1.367 1.455-1.366-0.688-1.366-1.455 0.497-1.456 1.366-1.456m0 3.513c1.299 0 2.092-0.958 2.092-2.057 0-1.1-0.793-2.057-2.092-2.057s-2.092 0.957-2.092 2.057c0 1.099 0.793 2.057 2.092 2.057"/><path d="m104.65 137.77c-0.059 0.459-0.312 0.728-0.819 0.728-0.741 0-1.442-0.657-1.442-2.01v-1.439h-0.709v3.986h0.709v-0.735c0.328 0.483 0.86 0.798 1.569 0.798 0.845 0 1.35-0.475 1.4-1.328z"/><path d="m94.039 143.91v8.541h-1.138v-8.541h0.959z"/><path d="m97.414 143.11c0.079 0 0.181 0.066 0.181 0.139v10.003c0 0.074-0.102 0.133-0.181 0.133h-3.555c-0.079 0-0.107-0.03-0.107-0.067v-0.865c0-0.074 0.028-0.136 0.107-0.136h2.417c0.079 0 0.181-0.058 0.181-0.132v-7.868c0-0.074-0.102-0.139-0.181-0.139h-2.417c-0.079 0-0.107-0.025-0.107-0.062v-0.867c0-0.073 0.028-0.139 0.107-0.139z"/><path d="m99.976 143.91h0.183v8.541h-1.14v-8.541z"/><path d="m100.02 143.12v1.067c1.566 0 2.659 1.824 2.659 4.068 0 2.242-1.092 4.068-2.659 4.068v1.067c2.137 0 3.796-2.303 3.796-5.135 0-2.831-1.659-5.135-3.796-5.135"/><path d="m88.204 146.4v-1.944c0-0.798 0.546-1.343 1.405-1.343h1.762c0.039 0 0.105 0.067 0.105 0.14v0.8c0 0.073-0.098 0.128-0.177 0.128h-1.493c-0.367 0-0.462 0.147-0.462 0.541v2.302c0 0.805-0.349 1.101-0.776 1.246 0.427 0.145 0.776 0.442 0.776 1.246v2.301c0 0.388 0.081 0.504 0.462 0.504h1.565c0.039 0 0.105 0.061 0.105 0.133v0.801c0 0.074-0.098 0.133-0.177 0.133h-1.69c-0.859 0-1.405-0.522-1.405-1.303v-2.164s-0.03-0.4-0.049-0.537c-0.054-0.36-0.525-0.67-0.818-0.666h-0.447c-0.079 0-0.11-0.057-0.11-0.131v-0.801c0-0.072 0.031-0.136 0.11-0.136h0.408c0.373 6e-3 0.844-0.288 0.879-0.728 0.01-0.128 0.027-0.522 0.027-0.522"/><path d="m93.859 153.39h-0.853c-0.08 0-0.108-0.061-0.108-0.133v-0.935h1.14v1.068z"/><path d="m92.901 144.05v-0.801c0-0.072 0.027-0.138 0.106-0.138h1.032v1.067h-1.138z"/><path d="m99.976 153.39h-0.853c-0.08 0-0.102-0.061-0.102-0.133v-0.935h1.138v1.068z"/><path d="m99.02 144.05v-0.801c0-0.072 0.024-0.138 0.103-0.138h1.037v1.067h-1.14z"/><path d="m106.14 146.4v-1.944c0-0.798 0.535-1.343 1.396-1.343h1.76c0.038 0 0.116 0.067 0.116 0.14v0.8c0 0.073-0.108 0.128-0.187 0.128h-1.494c-0.368 0-0.454 0.147-0.454 0.541v2.302c0 0.258-0.08 0.493-0.144 0.626h-1.91c0.524-0.133 0.748-0.31 0.857-0.737 0.054-0.212 0.06-0.513 0.06-0.513"/><path d="m106.06 149.39c-0.11-0.35-0.357-0.533-0.795-0.666h1.792c0.11 0.266 0.221 0.444 0.221 0.798v2.3c0 0.389 0.074 0.504 0.455 0.504h1.564c0.04 0 0.117 0.061 0.117 0.135v0.8c0 0.073-0.108 0.134-0.187 0.134h-1.69c-0.862 0-1.395-0.524-1.395-1.305v-2.163s-0.027-0.363-0.082-0.537"/><path d="m106.33 148.18c0.288-0.099 0.604-0.259 0.798-0.525h2.09c0.079 0 0.189 0.062 0.189 0.136v0.801c0 0.073-0.11 0.13-0.189 0.13h-2.169c-0.141-0.268-0.481-0.46-0.719-0.542"/><path d="m104.81 148.72c-0.079 0-0.098-0.057-0.098-0.131v-0.8c0-0.073 0.021-0.137 0.098-0.137h2.318c-0.129 0.267-0.445 0.451-0.673 0.534 0.237 0.082 0.453 0.268 0.596 0.534h-1.792z"/></g></g></g></g></g></g></svg>
