<svg xmlns:dc="http://purl.org/dc/elements/1.1/" xmlns:cc="http://creativecommons.org/ns#"
     xmlns:rdf="http://www.w3.org/1999/02/22-rdf-syntax-ns#" xmlns:svg="http://www.w3.org/2000/svg"
     xmlns="http://www.w3.org/2000/svg" xmlns:sodipodi="http://sodipodi.sourceforge.net/DTD/sodipodi-0.dtd"
     xmlns:inkscape="http://www.inkscape.org/namespaces/inkscape" version="1.1" x="0px" y="0px"
     style="enable-background:new 0 0 162 162;" xml:space="preserve" id="svg1491"
     sodipodi:docname="CodeFor-bielefeld.svg" inkscape:version="0.92.3 (2405546, 2018-03-11)"
     viewBox="18.2 7.9 125.2 144"><metadata id="metadata1497"><rdf:RDF><cc:Work rdf:about=""><dc:format>image/svg+xml</dc:format><dc:type
        rdf:resource="http://purl.org/dc/dcmitype/StillImage"></dc:type><dc:title></dc:title></cc:Work></rdf:RDF></metadata>
    <defs id="defs1495"></defs>
    <sodipodi:namedview pagecolor="#ffffff" bordercolor="#666666" borderopacity="1" objecttolerance="10"
                        gridtolerance="10" guidetolerance="10" inkscape:pageopacity="0" inkscape:pageshadow="2"
                        inkscape:window-width="3760" inkscape:window-height="2105" id="namedview1493" showgrid="false"
                        inkscape:zoom="11.382716" inkscape:cx="81" inkscape:cy="81" inkscape:window-x="80"
                        inkscape:window-y="0" inkscape:window-maximized="1"
                        inkscape:current-layer="svg1491"></sodipodi:namedview>
    <style type="text/css" id="style1274">	.st0{fill:#FF867F;}	.st1{fill:none;stroke:#FFFFFF;stroke-width:2;stroke-miterlimit:10;}	.st2{display:none;}	.st3{fill:#FFFFFF;}	.st4{fill:none;stroke:#FFFFFF;stroke-miterlimit:10;}	.st5{opacity:0;fill:none;stroke:#FFFFFF;stroke-width:2;stroke-miterlimit:10;}	.st6{fill:#FFFFFF;stroke:#FFFFFF;stroke-width:0.6;stroke-miterlimit:10;}</style>
    <g id="Ebene_7" style="display:inline"></g>
    <g id="Ebene_1" style="display:inline">	<g id="g1281">		<polygon class="st0"
                                                                              points="28.4,110.1 28.4,49.7 80.9,19.4 133.4,49.7 133.4,110.1 80.9,140.4 "
                                                                              id="polygon1277"
                                                                              style="display:inline;fill:#ff867f"></polygon>
        <path class="st0"
              d="m 80.9,31 42.5,24.5 v 48.9 L 80.9,128.9 38.4,104.4 V 55.5 L 80.9,31 m 0,-23.1 -62.5,36 v 72 l 62.5,36 62.5,-36 v -72 z"
              id="path1279" inkscape:connector-curvature="0" style="display:inline;fill:#ff867f"></path>	</g>
        <polygon class="st1" points="81.1,147.7 22.6,113.8 22.6,46.2 81.1,12.3 139.6,46.2 139.6,113.8 " id="polygon1283"
                 style="display:inline;fill:none;stroke:#ffffff;stroke-width:2;stroke-miterlimit:10"></polygon>
        <g id="g1289" style="display:inline">		<rect x="95.699997" y="107.8" class="st0" width="1.4" height="1.9"
                                                           id="rect1285" style="fill:#ff867f"></rect>
            <polygon class="st0" points="97.1,109.7 97.1,107.8 95.7,107.8 95.7,109.7 " id="polygon1287"
                     style="fill:#ff867f"></polygon>	</g>
        <g id="g1295" style="display:inline">		<rect x="97.400002" y="126.7" class="st0" width="1.1" height="1.1"
                                                           id="rect1291" style="fill:#ff867f"></rect>
            <polygon class="st0" points="98.4,127.7 98.4,126.7 97.4,126.7 97.4,127.7 " id="polygon1293"
                     style="fill:#ff867f"></polygon>	</g></g>
    <g id="Ebene_3" class="st2" style="display:inline"></g>
    <g id="Festes" style="display:inline"></g>
    <g id="Bielefeld_x5F_Pfade" style="display:inline">	<polyline class="st1"
                                                                     points="141.7,115.4 141.7,115.4 110.5,79.7 140.8,44.9 140.8,44.9  "
                                                                     id="polyline1300"
                                                                     style="fill:none;stroke:#ffffff;stroke-width:2;stroke-miterlimit:10"></polyline>
        <polyline class="st1" points="142.1,64.1 128.5,79.7 142.1,95.3  " id="polyline1302"
                  style="fill:none;stroke:#ffffff;stroke-width:2;stroke-miterlimit:10"></polyline>
        <g id="g1366">		<g id="g1340">			<g id="g1338">				<path class="st3"
                                                                                            d="m 77.5,43.4 c -0.3,-0.2 -0.5,-0.2 -0.7,-0.2 -0.4,0 -0.7,0.3 -0.7,0.8 v 0.3 h 1.8 V 45 h -1.8 v 3.8 H 75.4 V 45 h -1.3 v -0.7 h 1.3 V 44 c 0,-1.1 0.5,-1.5 1.4,-1.5 0.4,0 0.7,0.1 0.9,0.3 z"
                                                                                            id="path1304"
                                                                                            inkscape:connector-curvature="0"
                                                                                            style="fill:#ffffff"></path>
            <path class="st3"
                  d="m 81.1,44.2 c 1.4,0 2.2,1.1 2.2,2.3 0,1.2 -0.8,2.3 -2.2,2.3 -1.4,0 -2.2,-1.1 -2.2,-2.3 0,-1.2 0.9,-2.3 2.2,-2.3 m 0,4 c 0.9,0 1.4,-0.8 1.4,-1.6 0,-0.9 -0.5,-1.6 -1.4,-1.6 -0.9,0 -1.5,0.8 -1.5,1.6 0.1,0.8 0.6,1.6 1.5,1.6"
                  id="path1306" inkscape:connector-curvature="0" style="fill:#ffffff"></path>
            <path class="st3"
                  d="m 87.7,45.7 c -0.1,-0.5 -0.3,-0.8 -0.9,-0.8 -0.8,0 -1.5,0.7 -1.5,2.3 v 1.6 h -0.8 v -4.5 h 0.8 v 0.8 c 0.3,-0.5 0.9,-0.9 1.7,-0.9 0.9,0 1.4,0.5 1.5,1.5 z"
                  id="path1308" inkscape:connector-curvature="0" style="fill:#ffffff"></path>
            <g id="g1336">					<polygon class="st3"
                                                       points="76.1,38.7 76.3,38.7 76.5,38.7 76.5,29.1 75.3,29.1 75.3,29.2 75.3,38.7 "
                                                       id="polygon1310" style="fill:#ffffff"></polygon>
                <path class="st3"
                      d="m 80,39.6 c 0.1,0 0.2,-0.1 0.2,-0.2 V 28.2 C 80.2,28.1 80.1,28 80,28 h -3.8 c -0.1,0 -0.1,0 -0.1,0.1 v 0.2 0.8 c 0,0.1 0,0.2 0.1,0.2 h 2.6 c 0.1,0 0.2,0.1 0.2,0.1 v 8.9 c 0,0.1 -0.1,0.2 -0.2,0.2 h -2.6 c -0.1,0 -0.1,0 -0.1,0.1 v 0.2 0.8 c 0,0.1 0,0.2 0.1,0.2 H 80 Z"
                      id="path1312" inkscape:connector-curvature="0" style="fill:#ffffff"></path>
                <polygon class="st3" points="83,38.7 83,29.1 81.7,29.1 81.7,29.2 81.7,38.7 82.8,38.7 " id="polygon1314"
                         style="fill:#ffffff"></polygon>
                <path class="st3"
                      d="m 82.8,39.6 v -1.2 c 1.7,0 2.8,-2.1 2.8,-4.6 0,-2.5 -1.2,-4.6 -2.8,-4.6 V 28 c 2.3,0 4,2.6 4,5.8 0,3.2 -1.7,5.8 -4,5.8"
                      id="path1316" inkscape:connector-curvature="0" style="fill:#ffffff"></path>
                <path class="st3"
                      d="m 70.3,35.9 v 1.7 0.5 c 0,0.9 0.6,1.5 1.5,1.5 h 0.2 0.7 0.9 c 0,0 0.1,-0.1 0.1,-0.2 v -0.9 c 0,-0.1 -0.1,-0.1 -0.2,-0.1 H 72.6 72.2 72 c -0.4,0 -0.5,-0.2 -0.5,-0.6 V 37.5 36 35.1 c 0,-0.9 -0.4,-1.2 -0.8,-1.4 0.5,-0.2 0.8,-0.5 0.8,-1.4 v -0.6 -1.6 -0.4 c 0,-0.4 0.1,-0.6 0.5,-0.6 h 0.3 0.4 0.9 c 0,0 0.1,-0.1 0.1,-0.2 V 28 c 0,-0.1 -0.1,-0.2 -0.2,-0.2 h -0.7 -0.7 -0.4 c -0.9,0 -1.5,0.6 -1.5,1.5 v 0.7 2 c 0,0 0,0.5 -0.1,0.6 -0.1,0.4 -0.6,0.8 -0.9,0.8 h -0.5 c -0.1,0 -0.1,0.1 -0.1,0.1 v 0.9 c 0,0.1 0,0.2 0.1,0.2 h 0.4 c 0.4,0 0.9,0.3 0.9,0.8 0.3,0.1 0.3,0.5 0.3,0.5"
                      id="path1318" inkscape:connector-curvature="0" style="fill:#ffffff"></path>
                <path class="st3"
                      d="m 76.3,28 h -0.4 -0.5 c -0.1,0 -0.1,0.1 -0.1,0.2 v 0.3 0.6 0.2 h 0.1 0.9 0.2 V 29.1 28.2 28 Z"
                      id="path1320" inkscape:connector-curvature="0" style="fill:#ffffff"></path>
                <path class="st3"
                      d="m 75.3,38.6 v 0.4 0.5 c 0,0.1 0,0.2 0.1,0.2 h 0.3 0.6 0.2 v -0.2 -0.9 -0.1 h -0.2 -0.9 -0.1 c 0,-0.1 0,0.1 0,0.1 z"
                      id="path1322" inkscape:connector-curvature="0" style="fill:#ffffff"></path>
                <path class="st3"
                      d="m 82.8,28 h -0.4 -0.5 c -0.1,0 -0.1,0.1 -0.1,0.2 v 0.3 0.6 0.2 h 0.1 0.9 0.2 V 29.1 28.2 28 Z"
                      id="path1324" inkscape:connector-curvature="0" style="fill:#ffffff"></path>
                <path class="st3"
                      d="m 81.7,38.6 v 0.4 0.5 c 0,0.1 0,0.2 0.1,0.2 h 0.3 0.6 0.3 v -0.2 -0.9 -0.1 h -0.2 -0.9 -0.1 v 0.1 z"
                      id="path1326" inkscape:connector-curvature="0" style="fill:#ffffff"></path>
                <path class="st3"
                      d="m 89.3,35.9 v 1.7 0.5 c 0,0.9 0.6,1.5 1.5,1.5 h 0.2 0.7 0.9 c 0,0 0.1,-0.1 0.1,-0.2 v -0.9 c 0,-0.1 -0.1,-0.1 -0.2,-0.1 H 91.6 91.2 91 c -0.4,0 -0.5,-0.2 -0.5,-0.6 V 37.5 36 35.1 c 0,-0.3 -0.1,-0.6 -0.2,-0.7 h -2 c 0.6,0.2 0.8,0.3 0.9,0.8 0.1,0.4 0.1,0.7 0.1,0.7"
                      id="path1328" inkscape:connector-curvature="0" style="fill:#ffffff"></path>
                <path class="st3"
                      d="m 89.2,32.6 c -0.1,0.4 -0.4,0.6 -0.8,0.8 h 1.9 c 0.1,-0.3 0.2,-0.5 0.2,-0.9 v -0.6 -1.6 -0.4 c 0,-0.4 0.1,-0.6 0.5,-0.6 h 0.3 0.4 0.9 c 0,0 0.1,-0.1 0.1,-0.2 v -0.9 c 0,-0.1 -0.1,-0.1 -0.2,-0.1 h -0.7 -0.7 -0.4 c -0.9,0 -1.5,0.6 -1.5,1.5 v 0.4 2 c 0.1,-0.1 0.1,0.4 0,0.6"
                      id="path1330" inkscape:connector-curvature="0" style="fill:#ffffff"></path>
                <path class="st3"
                      d="m 89.5,33.9 c 0.3,0.1 0.6,0.3 0.8,0.6 h 2.2 c 0.1,0 0.2,-0.1 0.2,-0.2 v -0.9 c 0,-0.1 -0.1,-0.1 -0.2,-0.1 h -2.3 c -0.1,0.3 -0.4,0.5 -0.7,0.6"
                      id="path1332" inkscape:connector-curvature="0" style="fill:#ffffff"></path>
                <path class="st3"
                      d="m 87.9,33.3 c -0.1,0 -0.1,0.1 -0.1,0.1 v 0.9 c 0,0.1 0,0.2 0.1,0.2 h 0.4 2 c -0.1,-0.3 -0.5,-0.5 -0.7,-0.6 0.3,-0.1 0.5,-0.3 0.6,-0.6 h -1.9 z"
                      id="path1334" inkscape:connector-curvature="0" style="fill:#ffffff"></path>				</g>			</g>		</g>
            <g id="g1364">			<rect x="55.5" y="51.700001" class="st4" width="50.900002" height="13.7"
                                            id="rect1342" style="fill:none;stroke:#ffffff;stroke-miterlimit:10"></rect>
                <g id="g1362">				<path class="st3"
                                                    d="m 62.8,54.4 c 1.9,0 2.5,1.1 2.5,2.1 0,0.7 -0.4,1.3 -1.1,1.7 1,0.4 1.4,1.1 1.4,1.9 0,1.1 -0.7,2.3 -2.6,2.3 h -3.2 v -8 z m 1.3,2.2 c 0,-0.5 -0.2,-1.1 -1.3,-1.1 H 61 v 2.2 h 1.6 c 1,0 1.5,-0.5 1.5,-1.1 z m 0.3,3.5 c 0,-0.7 -0.3,-1.3 -1.7,-1.3 H 61 v 2.5 h 2.1 c 1,0 1.3,-0.7 1.3,-1.2 z"
                                                    id="path1344" inkscape:connector-curvature="0"
                                                    style="fill:#ffffff"></path>
                    <path class="st3"
                          d="m 66.9,54.9 c 0,-0.4 0.3,-0.7 0.7,-0.7 0.4,0 0.7,0.3 0.7,0.7 0,0.4 -0.3,0.7 -0.7,0.7 -0.4,0 -0.7,-0.3 -0.7,-0.7 z m 0.2,1.6 h 1.2 v 5.8 h -1.2 z"
                          id="path1346" inkscape:connector-curvature="0" style="fill:#ffffff"></path>
                    <path class="st3"
                          d="m 69.5,59.4 c 0,-1.9 1.1,-3.1 2.7,-3.1 1.4,0 2.5,0.9 2.5,2.7 0,0.3 0,0.6 0,0.8 h -3.9 c 0,1 0.7,1.6 1.5,1.6 0.5,0 0.9,-0.2 1.2,-0.6 l 0.8,0.8 c -0.4,0.5 -1.1,0.8 -2,0.8 -1.7,0.1 -2.8,-1 -2.8,-3 z m 4,-0.5 c 0,-1.1 -0.7,-1.5 -1.3,-1.5 -0.7,0 -1.4,0.4 -1.5,1.5 z"
                          id="path1348" inkscape:connector-curvature="0" style="fill:#ffffff"></path>
                    <path class="st3" d="m 76,54.7 1.2,-0.6 v 8.3 H 76 Z" id="path1350" inkscape:connector-curvature="0"
                          style="fill:#ffffff"></path>
                    <path class="st3"
                          d="m 78.5,59.4 c 0,-1.9 1.1,-3.1 2.7,-3.1 1.4,0 2.5,0.9 2.5,2.7 0,0.3 0,0.6 0,0.8 h -3.9 c 0,1 0.7,1.6 1.5,1.6 0.5,0 0.9,-0.2 1.2,-0.6 l 0.8,0.8 c -0.4,0.5 -1.1,0.8 -2,0.8 -1.8,0.1 -2.8,-1 -2.8,-3 z m 4,-0.5 c 0,-1.1 -0.7,-1.5 -1.3,-1.5 -0.7,0 -1.4,0.4 -1.5,1.5 z"
                          id="path1352" inkscape:connector-curvature="0" style="fill:#ffffff"></path>
                    <path class="st3"
                          d="m 86.5,62.4 h -1.2 v -4.8 h -0.9 v -1 h 0.9 v -0.9 c 0,-1.1 0.7,-1.4 1.3,-1.4 0.5,0 0.8,0.1 1.2,0.3 v 1 c -0.4,-0.1 -0.6,-0.2 -0.8,-0.2 -0.4,0 -0.5,0.2 -0.5,0.5 v 0.7 h 1.3 v 1 h -1.3 z"
                          id="path1354" inkscape:connector-curvature="0" style="fill:#ffffff"></path>
                    <path class="st3"
                          d="m 88.2,59.4 c 0,-1.9 1.1,-3.1 2.7,-3.1 1.4,0 2.5,0.9 2.5,2.7 0,0.3 0,0.6 0,0.8 h -3.9 c 0,1 0.7,1.6 1.5,1.6 0.5,0 0.9,-0.2 1.2,-0.6 l 0.8,0.8 c -0.4,0.5 -1.1,0.8 -2,0.8 -1.7,0.1 -2.8,-1 -2.8,-3 z m 4,-0.5 c 0,-1.1 -0.7,-1.5 -1.3,-1.5 -0.7,0 -1.4,0.4 -1.5,1.5 z"
                          id="path1356" inkscape:connector-curvature="0" style="fill:#ffffff"></path>
                    <path class="st3" d="m 94.7,54.7 1.2,-0.6 v 8.3 h -1.2 z" id="path1358"
                          inkscape:connector-curvature="0" style="fill:#ffffff"></path>
                    <path class="st3"
                          d="m 97.2,59.4 c 0,-1.9 1,-3.1 2.4,-3.1 0.6,0 1.1,0.2 1.4,0.5 v -2.3 l 1.2,-0.5 v 8.3 H 101 v -0.4 c -0.3,0.3 -0.7,0.5 -1.4,0.5 -1.5,0.1 -2.4,-1 -2.4,-3 z m 3.8,1.3 v -2.6 c -0.2,-0.3 -0.6,-0.6 -1.2,-0.6 -0.9,0 -1.4,0.7 -1.4,1.9 0,1.1 0.5,1.9 1.4,1.9 0.5,0.1 0.9,-0.2 1.2,-0.6 z"
                          id="path1360" inkscape:connector-curvature="0" style="fill:#ffffff"></path>			</g>		</g>	</g>
        <path class="st5" d="M 64.5,140.7 67.3,86 c 2.8,0 8.5,0 27.3,0 l 2.8,54.7 -16.3,7 z" id="path1368"
              inkscape:connector-curvature="0"
              style="opacity:0;fill:none;stroke:#ffffff;stroke-width:2;stroke-miterlimit:10"></path>
        <g id="g1374">		<polyline class="st1" points="20.4,115.4 51.7,79.6 20.5,43.8   " id="polyline1370"
                                        style="fill:none;stroke:#ffffff;stroke-width:2;stroke-miterlimit:10"></polyline>
            <polyline class="st1" points="19.7,95.7 33.7,79.6 19.2,62.9   " id="polyline1372"
                      style="fill:none;stroke:#ffffff;stroke-width:2;stroke-miterlimit:10"></polyline>	</g>
        <path class="st1" d="M 142.1,95.3" id="path1376" inkscape:connector-curvature="0"
              style="fill:none;stroke:#ffffff;stroke-width:2;stroke-miterlimit:10"></path>
        <path class="st1" d="M 142.1,64.1" id="path1378" inkscape:connector-curvature="0"
              style="fill:none;stroke:#ffffff;stroke-width:2;stroke-miterlimit:10"></path>
        <g id="g1388">		<line class="st1" x1="109.2" y1="102.3" x2="109.2" y2="133" id="line1380"
                                    style="fill:none;stroke:#ffffff;stroke-width:2;stroke-miterlimit:10"></line>
            <polyline class="st1" points="101.8,110.4 109.2,101.1 116.7,110.4   " id="polyline1382"
                      style="fill:none;stroke:#ffffff;stroke-width:2;stroke-miterlimit:10"></polyline>
            <polyline class="st1" points="101.8,116.8 109.2,107.4 116.7,116.8   " id="polyline1384"
                      style="fill:none;stroke:#ffffff;stroke-width:2;stroke-miterlimit:10"></polyline>
            <polyline class="st1" points="101.8,123.3 109.2,113.9 116.7,123.3   " id="polyline1386"
                      style="fill:none;stroke:#ffffff;stroke-width:2;stroke-miterlimit:10"></polyline>	</g>
        <g id="g1396">		<line class="st1" x1="52.299999" y1="113.9" x2="52.299999" y2="134" id="line1390"
                                    style="fill:none;stroke:#ffffff;stroke-width:2;stroke-miterlimit:10"></line>
            <polyline class="st1" points="44.9,122 52.3,112.6 59.9,122   " id="polyline1392"
                      style="fill:none;stroke:#ffffff;stroke-width:2;stroke-miterlimit:10"></polyline>
            <polyline class="st1" points="44.9,128.4 52.3,119 59.9,128.4   " id="polyline1394"
                      style="fill:none;stroke:#ffffff;stroke-width:2;stroke-miterlimit:10"></polyline>	</g></g>
    <g id="Ebene_5" style="display:inline">	<g id="g1401">		<path class="st0"
                                                                           d="m 80.9,11.5 59.4,34.2 v 68.4 L 80.9,148.3 21.5,114.1 V 45.7 L 80.9,11.5 m 0,-3.6 -62.5,36 v 72 l 62.5,36 62.5,-36 v -72 z"
                                                                           id="path1399"
                                                                           inkscape:connector-curvature="0"
                                                                           style="fill:#ff867f"></path>	</g></g>
    <g id="Ebene_6" style="display:inline">	<polygon class="st1"
                                                        points="139.6,113.8 81.1,147.7 22.6,113.8 22.6,46.2 81.1,12.3 139.6,46.2 "
                                                        id="polygon1404"
                                                        style="fill:none;stroke:#ffffff;stroke-width:2;stroke-miterlimit:10"></polygon>
        <g id="g1488">		<g id="g1408">			<path class="st6"
                                                              d="m 78.1,101.3 c 0,-1.8 0.6,-4.3 2.9,-4.3 2.3,0 2.9,2.3 2.9,4.3 0,1.8 -0.6,4.3 -2.9,4.3 -2.3,0 -2.9,-2.2 -2.9,-4.3 z m 4.7,0 c 0,-1.7 -0.4,-3.4 -1.8,-3.4 -1.5,0 -1.9,1.9 -1.9,3.4 0,1.7 0.4,3.4 1.9,3.4 1.5,-0.1 1.8,-1.9 1.8,-3.4 z"
                                                              id="path1406" inkscape:connector-curvature="0"
                                                              style="fill:#ffffff;stroke:#ffffff;stroke-width:0.60000002;stroke-miterlimit:10"></path>		</g>
            <g id="g1412">			<path class="st6"
                                            d="m 78,117.5 c 0,-1.9 0.6,-4.3 3,-4.3 2.3,0 3,2.3 3,4.3 0,1.9 -0.6,4.3 -3,4.3 -2.3,0.1 -3,-2.2 -3,-4.3 z m 4.7,0 c 0,-1.6 -0.4,-3.1 -1.7,-3.1 -1.4,0 -1.7,1.7 -1.7,3.1 0,1.6 0.4,3.1 1.7,3.1 1.4,0.1 1.7,-1.6 1.7,-3.1 z"
                                            id="path1410" inkscape:connector-curvature="0"
                                            style="fill:#ffffff;stroke:#ffffff;stroke-width:0.60000002;stroke-miterlimit:10"></path>		</g>
            <g id="g1416">			<path class="st6"
                                            d="m 78,134 c 0,-1.9 0.6,-4.3 3,-4.3 2.3,0 3,2.3 3,4.3 0,1.9 -0.6,4.3 -3,4.3 -2.3,0 -3,-2.3 -3,-4.3 z m 4.7,0 c 0,-1.6 -0.4,-3.1 -1.7,-3.1 -1.4,0 -1.7,1.7 -1.7,3.1 0,1.6 0.4,3.1 1.7,3.1 1.4,0 1.7,-1.7 1.7,-3.1 z"
                                            id="path1414" inkscape:connector-curvature="0"
                                            style="fill:#ffffff;stroke:#ffffff;stroke-width:0.60000002;stroke-miterlimit:10"></path>		</g>
            <g id="g1420">			<path class="st6"
                                            d="m 94.1,90.5 h -1.4 v -0.7 c 0.8,0 1.4,-0.2 1.7,-1 h 0.8 v 8.4 h -1 v -6.7 z"
                                            id="path1418" inkscape:connector-curvature="0"
                                            style="fill:#ffffff;stroke:#ffffff;stroke-width:0.60000002;stroke-miterlimit:10"></path>		</g>
            <g id="g1424">			<path class="st6"
                                            d="m 95.1,100.5 h -1.4 v -0.7 c 0.8,0 1.4,-0.2 1.7,-1 h 0.8 v 8.4 h -1 v -6.7 z"
                                            id="path1422" inkscape:connector-curvature="0"
                                            style="fill:#ffffff;stroke:#ffffff;stroke-width:0.60000002;stroke-miterlimit:10"></path>		</g>
            <g id="g1428">			<path class="st6"
                                            d="m 96.1,110.6 h -1.4 v -0.7 c 0.8,0 1.4,-0.2 1.7,-1 h 0.8 v 8.4 h -1 v -6.7 z"
                                            id="path1426" inkscape:connector-curvature="0"
                                            style="fill:#ffffff;stroke:#ffffff;stroke-width:0.60000002;stroke-miterlimit:10"></path>		</g>
            <g id="g1432">			<path class="st6"
                                            d="M 97.1,120.7 H 95.7 V 120 c 0.8,0 1.4,-0.2 1.7,-1 h 0.8 v 8.4 h -1 v -6.7 z"
                                            id="path1430" inkscape:connector-curvature="0"
                                            style="fill:#ffffff;stroke:#ffffff;stroke-width:0.60000002;stroke-miterlimit:10"></path>		</g>
            <g id="g1436">			<path class="st6"
                                            d="m 98.1,130.8 h -1.4 v -0.7 c 0.8,0 1.4,-0.2 1.7,-1 h 0.8 v 8.6 l -1,0.7 v -7.6 z"
                                            id="path1434" inkscape:connector-curvature="0"
                                            style="fill:#ffffff;stroke:#ffffff;stroke-width:0.60000002;stroke-miterlimit:10"></path>		</g>
            <g id="g1440">			<path class="st6"
                                            d="m 93.9,76.3 h -1.4 v -0.7 c 0.8,0 1.4,-0.2 1.7,-1 H 95 V 83 h -1 v -6.7 z"
                                            id="path1438" inkscape:connector-curvature="0"
                                            style="fill:#ffffff;stroke:#ffffff;stroke-width:0.60000002;stroke-miterlimit:10"></path>		</g>
            <path class="st6" d="m 89.4,83 h -1 v -8.4 h 0.8 c 0.3,0.8 0.9,1 1.7,1 v 0.7 H 89.5 V 83 Z" id="path1442"
                  inkscape:connector-curvature="0"
                  style="fill:#ffffff;stroke:#ffffff;stroke-width:0.60000002;stroke-miterlimit:10"></path>
            <g id="g1446">			<path class="st6"
                                            d="m 72.8,76.3 h -1.4 v -0.7 c 0.8,0 1.4,-0.2 1.7,-1 h 0.8 V 83 h -1 v -6.7 z"
                                            id="path1444" inkscape:connector-curvature="0"
                                            style="fill:#ffffff;stroke:#ffffff;stroke-width:0.60000002;stroke-miterlimit:10"></path>		</g>
            <g id="g1450">			<path class="st6"
                                            d="m 68.3,83 h -1 V 74.6 H 68 c 0.3,0.8 0.9,1 1.7,1 v 0.7 h -1.4 z"
                                            id="path1448" inkscape:connector-curvature="0"
                                            style="fill:#ffffff;stroke:#ffffff;stroke-width:0.60000002;stroke-miterlimit:10"></path>		</g>
            <g id="g1454">			<path class="st6"
                                            d="M 83.4,76.3 H 82 v -0.7 c 0.8,0 1.4,-0.2 1.7,-1 h 0.8 V 83 h -1 v -6.7 z"
                                            id="path1452" inkscape:connector-curvature="0"
                                            style="fill:#ffffff;stroke:#ffffff;stroke-width:0.60000002;stroke-miterlimit:10"></path>		</g>
            <g id="g1458">			<path class="st6"
                                            d="m 78.7,83 h -1 v -8.4 h 0.8 c 0.3,0.8 0.9,1 1.7,1 v 0.7 H 78.8 V 83 Z"
                                            id="path1456" inkscape:connector-curvature="0"
                                            style="fill:#ffffff;stroke:#ffffff;stroke-width:0.60000002;stroke-miterlimit:10"></path>		</g>
            <g id="g1462">			<path class="st6"
                                            d="m 67.9,85.7 v 1.4 h -0.7 c 0,-0.8 -0.2,-1.4 -1,-1.7 v -0.8 h 8.4 v 1 h -6.7 z"
                                            id="path1460" inkscape:connector-curvature="0"
                                            style="fill:#ffffff;stroke:#ffffff;stroke-width:0.60000002;stroke-miterlimit:10"></path>		</g>
            <g id="g1466">			<path class="st6"
                                            d="m 87.4,85.7 v -1 h 8.4 v 0.8 c -0.8,0.3 -1,0.9 -1,1.7 h -0.7 v -1.4 h -6.7 z"
                                            id="path1464" inkscape:connector-curvature="0"
                                            style="fill:#ffffff;stroke:#ffffff;stroke-width:0.60000002;stroke-miterlimit:10"></path>		</g>
            <g id="g1470">			<path class="st6"
                                            d="m 68,97.2 h -1 v -8.4 h 0.8 c 0.3,0.8 0.9,1 1.7,1 v 0.7 H 68 Z"
                                            id="path1468" inkscape:connector-curvature="0"
                                            style="fill:#ffffff;stroke:#ffffff;stroke-width:0.60000002;stroke-miterlimit:10"></path>		</g>
            <g id="g1474">			<path class="st6"
                                            d="m 67,107.3 h -1 v -8.4 h 0.8 c 0.3,0.8 0.9,1 1.7,1 v 0.7 H 67 Z"
                                            id="path1472" inkscape:connector-curvature="0"
                                            style="fill:#ffffff;stroke:#ffffff;stroke-width:0.60000002;stroke-miterlimit:10"></path>		</g>
            <g id="g1478">			<path class="st6"
                                            d="M 66,117.3 H 65 V 109 h 0.8 c 0.3,0.8 0.9,1 1.7,1 v 0.7 H 66 Z"
                                            id="path1476" inkscape:connector-curvature="0"
                                            style="fill:#ffffff;stroke:#ffffff;stroke-width:0.60000002;stroke-miterlimit:10"></path>		</g>
            <g id="g1482">			<path class="st6"
                                            d="M 65,127.4 H 64 V 119 h 0.8 c 0.3,0.8 0.9,1 1.7,1 v 0.7 H 65 Z"
                                            id="path1480" inkscape:connector-curvature="0"
                                            style="fill:#ffffff;stroke:#ffffff;stroke-width:0.60000002;stroke-miterlimit:10"></path>		</g>
            <g id="g1486">			<path class="st6"
                                            d="m 64,138.3 -1,-0.5 v -8.7 h 0.8 c 0.3,0.8 0.9,1 1.7,1 v 0.7 H 64 Z"
                                            id="path1484" inkscape:connector-curvature="0"
                                            style="fill:#ffffff;stroke:#ffffff;stroke-width:0.60000002;stroke-miterlimit:10"></path>		</g>	</g></g></svg>
