<?xml version="1.0" encoding="UTF-8"?>
<!-- Generator: Adobe Illustrator 16.0.4, SVG Export Plug-In . SVG Version: 6.00 Build 0)  -->
<svg width="52.5mm" height="52.5mm" enable-background="new 0 0 198.425 198.425" version="1.1" viewBox="0 0 198.42 198.42" xml:space="preserve" xmlns="http://www.w3.org/2000/svg" xmlns:cc="http://creativecommons.org/ns#" xmlns:dc="http://purl.org/dc/elements/1.1/" xmlns:rdf="http://www.w3.org/1999/02/22-rdf-syntax-ns#"><metadata><rdf:RDF><cc:Work rdf:about=""><dc:format>image/svg+xml</dc:format><dc:type rdf:resource="http://purl.org/dc/dcmitype/StillImage"/><dc:title/></cc:Work></rdf:RDF></metadata>





<g transform="matrix(.78151 0 0 .78151 19.709 22.509)">
<path transform="matrix(1.2752 0 0 1.2752 -24.928 -28.317)" d="m161.94 132.31v-69.206l-2.63-1.504-57.47-33.096-2.606-1.498-2.605 1.498-57.282 33.096-2.436 1.504v72.216l2.435 1.5 57.369 33.1 2.558 1.5 2.577-1.5 57.47-33.1 2.62-1.5z" fill="#659ed6"/><path transform="matrix(1.2752 0 0 1.2752 -24.928 -28.317)" d="m36.712 62.925 62.5-36 62.498 36v68.665l-62.498 36-62.5-36z" fill="#659ed6"/><path transform="matrix(1.2752 0 0 1.2752 -24.928 -28.317)" d="m40.712 65.379 58.5-33.833 58.498 33.833v67.671l-58.498 33.83-58.5-33.83z" fill="none" stroke="#fff" stroke-miterlimit="10" stroke-width="2"/><g fill="#fff"><g stroke-width="1.2752"><path d="m98.817 35.867c-0.23719-0.1543-0.41062-0.20658-0.6172-0.20658-0.36853 0-0.56874 0.22954-0.56874 0.72559v0.25249h1.4996v0.58149h-1.4996v3.2722h-0.64015v-3.2722h-1.0852v-0.58149h1.0852v-0.23591c0-0.93344 0.45142-1.3237 1.1834-1.3237 0.35323 0 0.59042 0.09054 0.80465 0.22188z"/><path d="m101.91 36.577c1.1757 0 1.8949 0.92579 1.8949 1.988 0 1.0622-0.71921 1.9893-1.8949 1.9893-1.1783 0-1.8975-0.92707-1.8975-1.9893 0-1.0622 0.71921-1.988 1.8975-1.988m0 3.3958c0.78679 0 1.2382-0.66565 1.2382-1.4078 0-0.74089-0.45142-1.4065-1.2382-1.4065-0.78935 0-1.2408 0.66565-1.2408 1.4065 0 0.74216 0.45142 1.4078 1.2408 1.4078"/><path d="m107.53 37.861c-0.0523-0.44377-0.28437-0.70391-0.74217-0.70391-0.67203 0-1.3071 0.63505-1.3071 1.9434v1.3912h-0.6427v-3.8536h0.6427v0.71028c0.2984-0.46672 0.77915-0.77277 1.4218-0.77277 0.76512 0 1.2255 0.46035 1.2701 1.2854z"/></g><path transform="matrix(1.2752 0 0 1.2752 -24.928 -28.317)" d="m96.054 47.241h0.276v-6.475h-0.809v6.475z" style=""/><path d="m100.97 32.699c0.0727 0 0.1645-0.06503 0.1645-0.13389v-9.6711c0-0.07013-0.0918-0.1288-0.1645-0.1288h-3.2224c-0.07013 0-0.09563 0.02806-0.09563 0.06503v0.8378c0 0.07013 0.0255 0.13007 0.09563 0.13007h2.1908c0.07269 0 0.1645 0.0561 0.1645 0.12625v7.6091c0 0.07013-0.0918 0.13262-0.1645 0.13262h-2.1908c-0.07013 0-0.09563 0.02423-0.09563 0.05994v0.83908c0 0.06886 0.0255 0.13389 0.09563 0.13389z" stroke-width="1.2752"/><path transform="matrix(1.2752 0 0 1.2752 -24.928 -28.317)" d="m100.68 40.766h-0.81v6.475h0.81z" style=""/><g stroke-width="1.2752"><path d="m103.33 32.694v-1.0329c1.4193 0 2.4088-1.7636 2.4088-3.9327 0-2.1678-0.98828-3.9327-2.4088-3.9327v-1.0304c1.9358 0 3.4392 2.2265 3.4392 4.9631 0 2.7378-1.5035 4.9656-3.4392 4.9656"/><path d="m92.624 29.52v1.8809c0 0.7715 0.4935 1.2969 1.2726 1.2969h1.5965c0.03698 0 0.09692-0.06503 0.09692-0.13389v-0.77532c0-0.06886-0.08927-0.12242-0.16195-0.12242h-1.3517c-0.3341 0-0.42082-0.14283-0.42082-0.5241v-2.2252c0-0.77659-0.31625-1.0635-0.70263-1.2051 0.38638-0.13899 0.70263-0.42592 0.70263-1.2025v-2.2239c0-0.37491 0.07397-0.48713 0.42082-0.48713h1.4167c0.03698 0 0.09692-0.05994 0.09692-0.13007v-0.77404c0-0.07013-0.08927-0.1288-0.16195-0.1288h-1.5315c-0.77915 0-1.2726 0.50625-1.2726 1.2612v2.0913s-0.02679 0.38766-0.04463 0.51901c-0.04974 0.3494-0.47565 0.6478-0.74216 0.64397h-0.40424c-0.07141 0-0.09947 0.05483-0.09947 0.12625v0.77404c0 0.07013 0.02806 0.13262 0.09947 0.13262h0.36853c0.3392-0.0051 0.76512 0.27799 0.797 0.70391 0.0089 0.12242 0.0255 0.50243 0.0255 0.50243"/><path d="m97.749 22.765h-0.7715c-0.07269 0-0.09819 0.05866-0.09819 0.1288v0.90412h1.0316v-1.0329z"/><path d="m96.88 31.79v0.77404c0 0.07013 0.0255 0.13518 0.09692 0.13518h0.93472v-1.0329h-1.0316z"/><path d="m103.29 22.765h-0.77149c-0.0727 0-0.0944 0.05866-0.0944 0.1288v0.90412h1.0329v-1.0329z"/><path d="m102.43 31.79v0.77404c0 0.07013 0.023 0.13518 0.0944 0.13518h0.93982v-1.0329h-1.0341z"/><path d="m108.88 29.52v1.8809c0 0.7715 0.48586 1.2969 1.265 1.2969h1.5966c0.0332 0 0.10457-0.06503 0.10457-0.13389v-0.77532c0-0.06886-0.0969-0.12242-0.16959-0.12242h-1.353c-0.3341 0-0.41316-0.14283-0.41316-0.5241v-2.2252c0-0.24866-0.0727-0.47565-0.13008-0.60444h-1.7304c0.47564 0.1288 0.67712 0.2984 0.77659 0.71156 0.0484 0.20658 0.0535 0.49605 0.0535 0.49605"/><path d="m108.8 26.637c-0.0995 0.33793-0.3239 0.5139-0.72177 0.64397h1.6259c0.0995-0.25759 0.19893-0.42974 0.19893-0.77277v-2.2239c0-0.37491 0.0675-0.48713 0.41316-0.48713h1.418c0.0345 0 0.10457-0.05866 0.10457-0.1288v-0.77532c0-0.06886-0.0969-0.12752-0.16959-0.12752h-1.5315c-0.77915 0-1.265 0.50498-1.265 1.2612v2.0913s-0.0229 0.3494-0.0726 0.51901"/><path d="m109.06 27.805c0.26141 0.09436 0.54578 0.24866 0.72175 0.50753h1.895c0.0727 0 0.16961-0.06121 0.16961-0.13134v-0.77404c0-0.0714-0.0969-0.12752-0.16961-0.12752h-1.9651c-0.1288 0.25886-0.43739 0.44632-0.65162 0.52538"/><path d="m107.68 27.281c-0.0701 0-0.0893 0.0561-0.0893 0.12625v0.77404c0 0.07013 0.0204 0.13262 0.0893 0.13262h2.1015c-0.11731-0.26014-0.40295-0.43612-0.61081-0.51645 0.21424-0.07905 0.41061-0.25887 0.54068-0.51646h-1.6259z"/></g></g><path d="m68.548 142.79h66.359v15.871h-66.359z" fill="none" stroke="#fff" stroke-miterlimit="10" stroke-width="1.2752"/><g fill="#fff" stroke-width="1.2752" aria-label="Osnabrück"><path d="m75.02 148.17q-0.8767 0-1.3599 0.64756t-0.48318 1.8231q0 1.1706 0.48318 1.8182 0.48318 0.64757 1.3599 0.64757 0.88168 0 1.3649-0.64757 0.48318-0.64756 0.48318-1.8182 0-1.1756-0.48318-1.8231t-1.3649-0.64756zm0-1.3898q1.7932 0 2.8094 1.0261 1.0162 1.0261 1.0162 2.8343 0 1.8032-1.0162 2.8294-1.0162 1.0261-2.8094 1.0261-1.7883 0-2.8094-1.0261-1.0162-1.0261-1.0162-2.8294 0-1.8082 1.0162-2.8343 1.0212-1.0261 2.8094-1.0261z"/><path d="m84.57 148.94v1.3549q-0.57284-0.2391-1.1058-0.35865t-1.0062-0.11955q-0.50809 0-0.75715 0.12952-0.24408 0.12453-0.24408 0.38853 0 0.2142 0.18431 0.32877 0.18929 0.11456 0.67247 0.16936l0.31382 0.0448q1.3698 0.17434 1.8431 0.57284 0.47322 0.3985 0.47322 1.2503 0 0.89164-0.65752 1.34-0.65752 0.44832-1.9626 0.44832-0.55292 0-1.1457-0.0897-0.58779-0.0847-1.2104-0.25902v-1.3549q0.53299 0.25902 1.0909 0.38854 0.56288 0.12951 1.1407 0.12951 0.52303 0 0.78704-0.14446 0.26401-0.14445 0.26401-0.42839 0-0.2391-0.18431-0.35366-0.17932-0.11955-0.72228-0.18431l-0.31382-0.0399q-1.1905-0.14944-1.6687-0.55292t-0.4782-1.2254q0-0.88666 0.60771-1.315 0.60771-0.42838 1.863-0.42838 0.49314 0 1.0361 0.0747t1.1806 0.23412z"/><path d="m91.897 150.95v3.3972h-1.7932v-2.6002q0-0.72228-0.03487-0.99625-0.02989-0.27397-0.10959-0.40348-0.10461-0.17435-0.28393-0.26899-0.17932-0.0996-0.40846-0.0996-0.5579 0-0.8767 0.43337-0.3188 0.42839-0.3188 1.1905v2.7447h-1.7833v-5.579h1.7833v0.81692q0.40348-0.48816 0.85678-0.7173 0.45329-0.23411 1.0012-0.23411 0.96636 0 1.4645 0.59276 0.50311 0.59277 0.50311 1.7235z"/><path d="m96.061 151.84q-0.5579 0-0.84183 0.18929-0.27895 0.18928-0.27895 0.5579 0 0.33872 0.22416 0.53299 0.22914 0.18929 0.63262 0.18929 0.50311 0 0.84681-0.35865 0.34371-0.36363 0.34371-0.90659v-0.20423zm2.7247-0.67247v3.183h-1.7982v-0.82689q-0.35865 0.50809-0.80696 0.74221-0.44831 0.22914-1.0909 0.22914-0.86674 0-1.4097-0.50311-0.53798-0.50809-0.53798-1.315 0-0.98131 0.67247-1.4396 0.67745-0.45828 2.122-0.45828h1.051v-0.13947q0-0.42341-0.33374-0.61768-0.33374-0.19925-1.0411-0.19925-0.57284 0-1.066 0.11457-0.49314 0.11457-0.91655 0.34371v-1.3599q0.57284-0.13948 1.1507-0.20922 0.57782-0.0747 1.1556-0.0747 1.5093 0 2.1768 0.59775 0.67247 0.59276 0.67247 1.9327z"/><path d="m103.42 153.2q0.57285 0 0.87172-0.41842 0.30386-0.41843 0.30386-1.2154t-0.30386-1.2154q-0.29887-0.41843-0.87172-0.41843-0.57284 0-0.88168 0.42341-0.30385 0.41842-0.30385 1.2104t0.30385 1.2154q0.30884 0.41842 0.88168 0.41842zm-1.1855-3.6114q0.36861-0.48816 0.81692-0.7173 0.44831-0.23411 1.0311-0.23411 1.0311 0 1.6936 0.8219 0.6625 0.81693 0.6625 2.1071t-0.6625 2.112q-0.66251 0.81693-1.6936 0.81693-0.58281 0-1.0311-0.22914-0.44831-0.23412-0.81692-0.72228v0.80696h-1.7833v-7.7508h1.7833z"/><path d="m111.91 150.29q-0.23412-0.10959-0.46823-0.1594-0.22914-0.0548-0.46326-0.0548-0.68741 0-1.061 0.44333-0.36861 0.43835-0.36861 1.2602v2.5703h-1.7833v-5.579h1.7833v0.91655q0.34371-0.54794 0.78704-0.797 0.44831-0.25404 1.071-0.25404 0.0897 0 0.19427 0.01 0.1046 5e-3 0.30385 0.0299z"/><path d="m112.75 152.18v-3.4072h1.7932v0.5579q0 0.45329-5e-3 1.1407-5e-3 0.68243-5e-3 0.91156 0 0.67247 0.0349 0.97135 0.0349 0.29389 0.11955 0.42839 0.10959 0.17434 0.28393 0.26898 0.17933 0.0947 0.40847 0.0947 0.5579 0 0.8767-0.42839t0.3188-1.1905v-2.7546h1.7833v5.579h-1.7833v-0.80696q-0.40349 0.48816-0.85678 0.72228-0.44831 0.22914-0.99127 0.22914-0.96636 0-1.4744-0.59277-0.5031-0.59277-0.5031-1.7235zm1.2403-5.7234h1.1706v1.2254h-1.1706zm1.9676 0h1.1706v1.2254h-1.1706z"/><path d="m124.59 148.94v1.4545q-0.36363-0.24906-0.73225-0.36861-0.36363-0.11955-0.75715-0.11955-0.74718 0-1.1656 0.43835-0.41344 0.43336-0.41344 1.2154t0.41344 1.2204q0.41843 0.43337 1.1656 0.43337 0.41843 0 0.79202-0.12454 0.37858-0.12453 0.69738-0.36861v1.4595q-0.41843 0.15442-0.8518 0.22914-0.42838 0.0797-0.86175 0.0797-1.5093 0-2.3611-0.7721-0.85179-0.77707-0.85179-2.1569t0.85179-2.1519q0.8518-0.77707 2.3611-0.77707 0.43835 0 0.86175 0.0797 0.42839 0.0747 0.8518 0.22913z"/><path d="m126.14 146.6h1.7833v4.2191l2.0523-2.0473h2.0722l-2.7247 2.5604 2.9389 3.0186h-2.1619l-2.1768-2.3262v2.3262h-1.7833z"/></g><path d="m152.37 88.601c1.3495 1.0287 2.6606 1.8871 4.1621 2.1906 1.3732 0.27748 2.73-0.53765 3.6712-0.96155-0.68011-1.2126-1.9636-1.9884-3.226-2.175-1.5749-0.23244-3.3284 0.60813-4.6072 0.94598z" color="#000000" color-rendering="auto" dominant-baseline="auto" enable-background="accumulate" fill="#fff" image-rendering="auto" shape-rendering="auto" solid-color="#000000" style="font-feature-settings:normal;font-variant-alternates:normal;font-variant-caps:normal;font-variant-ligatures:normal;font-variant-numeric:normal;font-variant-position:normal;isolation:auto;mix-blend-mode:normal;shape-padding:0;text-decoration-color:#000000;text-decoration-line:none;text-decoration-style:solid;text-indent:0;text-orientation:mixed;text-transform:none;white-space:normal"/><g fill="none" stroke="#fff" stroke-linejoin="round"><path d="m134.3 106.25-1.0521 2.604 6.5088 1.2549-5.4567-3.8588 1.0186 0.72042-0.0389 1.2597zm-36.709-45.251s3.4896-7.9185 7.1564-9.2141c1.8837-0.66556 6.7875-0.38246 5.8341 1.3733l-3.5869 6.6061s2.4182-7.5428 5.6634-8.8882c1.3474-0.55858 5.0387-0.29708 4.2727 0.94415l-6.4701 10.484s4.869-10.942 9.9536-11.942c1.7022-0.33499 4.128 0.7673 4.5985 2.4371 0.90847 3.2235-3.5173 5.7043-5.1143 8.648-1.8808 3.4667-4.9518 6.669-5.2541 10.601-0.53444 6.9524 5.2414 13.053 6.3153 19.943 0.33211 2.1307 1.0521 3.053 1.0521 3.053m-58.453 27.24c-2.1756-0.18122-7.6892-0.21764-7.9305-1.0571-0.59781-2.0794 1.8664-2.7436 5.1721-3.4082 0 0-5.8837-1.7133-6.3294-3.6845-0.40043-1.7713 5.1914-0.0357 5.1914-0.0357s-5.5846-4.8941-4.6694-6.3974c0.92228-1.5148 6.2259 3.3235 6.2259 3.3235s-1.548-5.0587-0.0778-6.4298c1.7504-1.6324 1.705 4.1718 4.0825 4.4474 8.1914 0.94939 12.394 7.3781 29.206-2.1767 1.5772-0.89637 0.81706 6.2837 1.1708 4.5044 2.5856-13.005-21.164-4.4282-24.996-12.237-1.1149-2.2718 0.24346-8.3399 2.4888-7.1725l3.895 2.0252s-9.1195-3.4472-10.295-7.534c-0.67564-2.3488 1.0885-8.6392 2.7118-6.8121l6.5715 7.3964s-8.1145-6.3012-8.3129-10.854c-0.12154-2.7901 4.4964-7.0694 4.4964-7.0694l6.1422 10.005s-7.8446-9.057-7.2058-14.38c0.31139-2.5949 2.9253-7.4715 5.0712-5.9797 1.79 1.2445 5.6273 11.669 5.6273 11.669s-3.3051-9.6279-4.0572-12.192c-0.90274-3.0782 7.0364-8.9814 7.6537-5.8336l2.6585 13.556s-2.6585-13.556-1.4056-16.525c0.93112-2.2061 3.4474-4.6821 5.8003-4.2379 2.2351 0.42194 2.8824 3.6209 3.6631 5.7574 2.7455 7.5137-0.32218 16.604 3.2068 23.783 2.8708 5.8403 10.624 8.1625 13.726 13.883 5.1404 9.4797-2.2752 9.678 0.0973 13.699 0.76262 1.2925 2.4349 9.7712 2.8242 8.3219 0.014-0.10078-1.7272-5.4685-1.7117-5.5679 2.4951-16.054 23.711-15.022 22.869 1.5795-0.30549 4.0548-3.0152 6.4143-4.8662 7.4117-3.0499 1.6433-5.787 0.23341-6.4994 1.3772-2.173 5.278-3.5139 9.1392-8.0392 12.618-13.548 10.414-21.883 8.9944-31.841 2.9939-15.212-9.1665-19.232-8.5106-22.314-8.7673z" stroke-width="2.4162"/><path d="m130.82 101c-0.35364 0.32932-0.36844 0.89896 0.0942 1.0382 0.42377 0.1275 1.0915-0.41742 1.0168-0.85359-0.0859-0.50132-0.73885-0.53119-1.1111-0.18458z" stroke-width="1.5907"/><path d="m134.65 121.33c7.0266-17.056 3.8316-23.437 17.728-32.732" stroke-linecap="round" stroke-width="1.407px"/></g><g fill="#fff" shape-rendering="auto"><path d="m143.97 82.316c0.17016 1.9442 0.45533 3.7239 1.36 5.2357 0.82739 1.3827 2.5712 1.9053 3.6604 2.3774 0.50452-1.5173 0.17052-3.2096-0.64838-4.4276-1.0218-1.5193-3.0944-2.3596-4.372-3.1855z" color="#000000" color-rendering="auto" dominant-baseline="auto" enable-background="accumulate" image-rendering="auto" solid-color="#000000" style="font-feature-settings:normal;font-variant-alternates:normal;font-variant-caps:normal;font-variant-ligatures:normal;font-variant-numeric:normal;font-variant-position:normal;isolation:auto;mix-blend-mode:normal;shape-padding:0;text-decoration-color:#000000;text-decoration-line:none;text-decoration-style:solid;text-indent:0;text-orientation:mixed;text-transform:none;white-space:normal"/><path d="m137.48 88.222c1.2084 1.7912 2.4398 3.3614 4.1274 4.3398 1.5434 0.89474 3.5124 0.46474 4.8206 0.3372-0.32597-1.74-1.5578-3.1994-3.0045-3.9393-1.805-0.92264-4.263-0.62374-5.9435-0.73771z" color="#000000" color-rendering="auto" dominant-baseline="auto" enable-background="accumulate" image-rendering="auto" solid-color="#000000" style="font-feature-settings:normal;font-variant-alternates:normal;font-variant-caps:normal;font-variant-ligatures:normal;font-variant-numeric:normal;font-variant-position:normal;isolation:auto;mix-blend-mode:normal;shape-padding:0;text-decoration-color:#000000;text-decoration-line:none;text-decoration-style:solid;text-indent:0;text-orientation:mixed;text-transform:none;white-space:normal"/><path d="m135.5 93.551c0.64814 1.6687 1.3554 3.1631 2.5396 4.2628 1.0831 1.0058 2.7528 1.0192 3.8332 1.1558 0.0555-1.4657-0.67232-2.8705-1.7057-3.7335-1.2893-1.0762-3.3302-1.2852-4.667-1.6852z" color="#000000" color-rendering="auto" dominant-baseline="auto" enable-background="accumulate" image-rendering="auto" solid-color="#000000" style="font-feature-settings:normal;font-variant-alternates:normal;font-variant-caps:normal;font-variant-ligatures:normal;font-variant-numeric:normal;font-variant-position:normal;isolation:auto;mix-blend-mode:normal;shape-padding:0;text-decoration-color:#000000;text-decoration-line:none;text-decoration-style:solid;text-indent:0;text-orientation:mixed;text-transform:none;white-space:normal"/><path d="m148.27 91.226c1.3153 1.7142 2.6402 3.2065 4.3842 4.0802 1.595 0.79902 3.5342 0.2498 4.8322 0.04279-0.43142-1.7169-1.7498-3.0985-3.239-3.7488-1.8579-0.81092-4.2931-0.36277-5.9774-0.37412z" color="#000000" color-rendering="auto" dominant-baseline="auto" enable-background="accumulate" image-rendering="auto" solid-color="#000000" style="font-feature-settings:normal;font-variant-alternates:normal;font-variant-caps:normal;font-variant-ligatures:normal;font-variant-numeric:normal;font-variant-position:normal;isolation:auto;mix-blend-mode:normal;shape-padding:0;text-decoration-color:#000000;text-decoration-line:none;text-decoration-style:solid;text-indent:0;text-orientation:mixed;text-transform:none;white-space:normal"/><path d="m144.58 94.807c0.57592 1.786 1.2244 3.3933 2.3962 4.6167 1.0717 1.1189 2.8183 1.2354 3.9405 1.4447 0.14795-1.5304-0.52757-3.0452-1.5561-4.0116-1.2833-1.2053-3.4061-1.5491-4.7807-2.0498z" color="#000000" color-rendering="auto" dominant-baseline="auto" enable-background="accumulate" image-rendering="auto" solid-color="#000000" style="font-feature-settings:normal;font-variant-alternates:normal;font-variant-caps:normal;font-variant-ligatures:normal;font-variant-numeric:normal;font-variant-position:normal;isolation:auto;mix-blend-mode:normal;shape-padding:0;text-decoration-color:#000000;text-decoration-line:none;text-decoration-style:solid;text-indent:0;text-orientation:mixed;text-transform:none;white-space:normal"/><path d="m153.92 78.623c-1.3063 1.7211-2.396 3.3928-2.7784 5.3056-0.34969 1.7494 0.69186 3.4748 1.2341 4.6721 1.5422-0.86923 2.5268-2.5056 2.761-4.1136 0.2918-2.006-0.78316-4.2366-1.2168-5.8642z" color="#000000" color-rendering="auto" dominant-baseline="auto" enable-background="accumulate" image-rendering="auto" solid-color="#000000" style="font-feature-settings:normal;font-variant-alternates:normal;font-variant-caps:normal;font-variant-ligatures:normal;font-variant-numeric:normal;font-variant-position:normal;isolation:auto;mix-blend-mode:normal;shape-padding:0;text-decoration-color:#000000;text-decoration-line:none;text-decoration-style:solid;text-indent:0;text-orientation:mixed;text-transform:none;white-space:normal"/></g><path d="m28.039 66.171 42.169-24.164" fill="#fff" stroke="#fff" stroke-linecap="round" stroke-width="2.4162"/><path d="m27.777 77.05 33.213-18.868" fill="none" stroke="#fff" stroke-linecap="round" stroke-width="2.4162"/><path d="m140.92 101.28c0.42503 1.726 0.93054 3.2879 1.9562 4.5221 0.938 1.1288 2.5805 1.3553 3.6269 1.6279 0.24189-1.4362-0.29533-2.9125-1.2027-3.8943-1.1321-1.2245-3.1151-1.691-4.3804-2.2557z" color="#000000" color-rendering="auto" dominant-baseline="auto" enable-background="accumulate" fill="#fff" image-rendering="auto" shape-rendering="auto" solid-color="#000000" style="font-feature-settings:normal;font-variant-alternates:normal;font-variant-caps:normal;font-variant-ligatures:normal;font-variant-numeric:normal;font-variant-position:normal;isolation:auto;mix-blend-mode:normal;shape-padding:0;text-decoration-color:#000000;text-decoration-line:none;text-decoration-style:solid;text-indent:0;text-orientation:mixed;text-transform:none;white-space:normal"/><path d="m150.99 129.78 24.029-13.585" fill="#fff" stroke="#fff" stroke-linecap="round" stroke-width="2.4162"/><path d="m145.9 143.93 29.968-17.724" fill="none" stroke="#fff" stroke-linecap="round" stroke-width="2.4162"/></g></svg>
