<?xml version="1.0" encoding="UTF-8"?>
<!-- Created with Inkscape (http://www.inkscape.org/) -->
<svg width="52.5mm" height="52.5mm" version="1.1" viewBox="0 0 198.43 198.43" xml:space="preserve" xmlns="http://www.w3.org/2000/svg" xmlns:cc="http://creativecommons.org/ns#" xmlns:dc="http://purl.org/dc/elements/1.1/" xmlns:rdf="http://www.w3.org/1999/02/22-rdf-syntax-ns#"><metadata><rdf:RDF><cc:Work rdf:about=""><dc:format>image/svg+xml</dc:format><dc:type rdf:resource="http://purl.org/dc/dcmitype/StillImage"/><dc:title/></cc:Work></rdf:RDF></metadata><defs><clipPath id="clipPath26"><path d="M 0,155.909 H 136.059 V 0 H 0 Z"/></clipPath><clipPath id="clipPath168"><path d="M 0,155.909 H 136.059 V 0 H 0 Z"/></clipPath></defs><g transform="matrix(1.3333 0 0 -1.3333 0 198.43)"><g transform="matrix(.69271 0 0 .69271 27.285 20.41)"><g transform="translate(66.476 155.91)"><path d="m0 0-66.476-38.522v-78.861l66.477-38.526h3.105l66.477 38.525v78.861l-66.477 38.523z" fill="#529fdc"/></g><g transform="translate(10.696 44.687)"><path d="M 0,0 57.333,-33.271 114.666,0 V 66.535 L 57.333,99.806 0,66.535 Z" fill="#fff"/></g><g clip-path="url(#clipPath26)"><g transform="translate(65.167 38.642)"><path d="m0 0c7e-3 0.131 0.033 0.248 0.055 0.368-1.915-0.104-3.118-1.307-4.177-2.247-1.177-1.045-2.194-2.118-4.216-2.118-2.122 0-2.858 0.781-3.789 1.768-0.957 1.015-2.149 2.278-4.861 2.278-2.681 0-4.139-1.318-5.31-2.378-1.027-0.931-1.838-1.663-3.339-1.663-1.92 0-2.823 0.85-3.867 1.829-1.113 1.041-2.373 2.232-4.781 2.232-0.179 0-0.344-0.012-0.509-0.022 3.05-1.92 6.241-3.632 9.239-5.622 0.167-0.111 0.312-0.244 0.464-0.369 1.925 0.171 3.092 1.209 4.124 2.142 1.106 1.002 2.063 1.868 3.979 1.868 1.857 0 2.512-0.695 3.419-1.656 1.003-1.064 2.253-2.389 5.231-2.389 2.775 0 4.304 1.527 5.532 2.618 0.906 0.803 1.643 1.586 2.743 1.735 0.025 0.542 0.036 1.084 0.063 1.626" fill="#529fdc"/></g><g transform="translate(102.66 36.598)"><path d="M 0,0 C 1.514,0.805 3.099,1.504 4.704,2.075 2.439,1.99 1.074,0.956 0,0" fill="#529fdc"/></g><g transform="translate(90.358 36.708)"><path d="m0 0c1.625 0 2.42-0.744 3.426-1.686 0.835-0.782 1.825-1.705 3.39-2.127 0.727 0.624 1.501 1.222 2.319 1.786-0.155-0.019-0.315-0.031-0.487-0.031-1.919 0-2.822 0.851-3.867 1.83-1.112 1.04-2.373 2.231-4.781 2.231-3.028 0-4.455-1.355-5.601-2.461-0.94-0.907-1.619-1.52-3.047-1.52-1.648 0-2.416 0.821-3.388 1.754-1.103 1.058-2.477 2.545-5.262 2.545h-0.924v-1.982h0.924c1.987 0 2.869-1.015 3.89-1.994 1.085-1.041 2.315-2.39 4.76-2.39 2.229 0 3.395 1.125 4.423 2.118 1.072 1.034 1.998 1.927 4.225 1.927" fill="#529fdc"/></g><g transform="translate(64.913 32.058)"><path d="m0 0c-1.738-0.162-2.866-1.046-3.868-1.936-1.177-1.045-2.194-1.821-4.216-1.821-2.122 0-2.858 0.78-3.789 1.768-0.957 1.015-2.149 2.277-4.86 2.277-2.118 0-3.468-0.824-4.521-1.693 0.668-0.261 1.316-0.596 1.914-1.013 7e-3 -5e-3 0.013-0.01 0.02-0.015 0.684 0.442 1.471 0.74 2.587 0.74 1.856 0 2.511-0.695 3.418-1.656 1.004-1.064 2.253-2.389 5.231-2.389 2.775 0 4.305 1.23 5.532 2.321 0.837 0.742 1.544 1.244 2.512 1.399 0.014 0.673 0.021 1.345 0.04 2.018" fill="#529fdc"/></g><g transform="translate(90.358 30.365)"><path d="m0 0c0.883 0 1.519-0.225 2.079-0.577 0.374 0.38 0.764 0.723 1.197 0.949 0.18 0.094 0.361 0.157 0.541 0.232-0.922 0.74-2.064 1.362-3.817 1.362-3.028 0-4.455-1.393-5.601-2.499-0.94-0.907-1.619-1.594-3.047-1.594-1.648 0-2.416 0.672-3.388 1.604-1.103 1.059-2.477 2.25-5.262 2.25h-0.924v-1.983h0.924c1.987 0 2.869-0.718 3.89-1.696 1.085-1.042 2.315-2.094 4.76-2.094 2.229 0 3.395 1.126 4.423 2.119 1.072 1.034 1.998 1.927 4.225 1.927" fill="#529fdc"/></g><g transform="translate(64.794 24.518)"><path d="m0 0c1e-3 0.527 0.019 1.053 0.023 1.579-1.685-0.22-2.788-1.247-3.772-2.12-0.707-0.628-1.36-1.226-2.205-1.607 0.284-0.136 0.571-0.267 0.84-0.43 0.372-0.225 0.73-0.481 1.081-0.747 0.613 0.418 1.13 0.884 1.601 1.302 0.829 0.737 1.519 1.386 2.474 1.593-0.022 0.138-0.042 0.277-0.042 0.43" fill="#529fdc"/></g><g transform="translate(77.631 21.63)"><path d="m0 0c0.611 0.429 1.282 0.732 1.947 0.99-0.439 0.295-0.83 0.669-1.256 1.078-1.104 1.058-2.477 2.447-5.262 2.447h-0.925v-1.982h0.925c1.987 0 2.869-0.916 3.889-1.895 0.218-0.208 0.445-0.424 0.682-0.638" fill="#529fdc"/></g><g transform="translate(81.363 76.006)"><path d="m0 0c0 1.662-2.989 2.482-6.21 2.883 2.972 0.41 5.374 1.203 5.374 2.694 0 1.497-2.404 2.292-5.39 2.701 2.489 0.456 3.746 1.222 3.746 2.289 0 1.562-2.681 2.478-7.971 2.726l-0.953 21.732c-0.024 0.53-0.46 0.948-0.991 0.948h-1.29c-0.534 0-0.971-0.422-0.99-0.955l-0.795-21.73c-5.233-0.254-7.884-1.169-7.884-2.721 0-1.067 1.258-1.833 3.753-2.29-2.988-0.409-5.399-1.203-5.399-2.7 0-1.486 2.385-2.279 5.34-2.689-3.376-0.415-6.174-1.251-6.174-2.888 0-0.288 0.089-0.706 0.492-1.114l8.97-13.908-1.643-41.384c0.769-0.15 1.417-0.464 1.948-0.89l1.689 42.509c8e-3 0.203-0.047 0.405-0.157 0.576l-9.111 14.125c0.902 0.454 3.706 1.178 8.892 1.333 0.525 0.016 0.947 0.439 0.961 0.964l0.034 1.263c0.015 0.545-0.414 1-0.96 1.017-4.233 0.133-6.742 0.678-7.816 1.086 1.083 0.413 3.628 0.963 7.927 1.091 0.526 0.016 0.947 0.439 0.962 0.965l0.03 1.145c0.013 0.544-0.414 0.998-0.958 1.017-3.08 0.105-5.044 0.459-6.076 0.77 1.051 0.314 3.064 0.678 6.169 0.779 0.521 0.017 0.94 0.434 0.958 0.954l0.514 14.056 0.617-14.06c0.022-0.518 0.442-0.931 0.959-0.947 3.141-0.097 5.176-0.463 6.239-0.78-1.051-0.311-3.049-0.673-6.126-0.774-0.546-0.018-0.975-0.475-0.959-1.021l0.035-1.142c0.017-0.525 0.439-0.946 0.963-0.961 4.332-0.123 6.894-0.677 7.981-1.091-1.076-0.409-3.594-0.956-7.847-1.088-0.262-8e-3 -0.511-0.121-0.691-0.312-0.18-0.192-0.277-0.447-0.268-0.71l0.039-1.261c0.017-0.524 0.438-0.944 0.962-0.959 5.203-0.152 8.015-0.878 8.918-1.334l-9.029-13.946c-0.11-0.172-0.165-0.372-0.158-0.576l1.613-43.021c0.389 0.214 0.822 0.379 1.306 0.476 0.206 0.166 0.419 0.317 0.643 0.445l-1.569 41.861 8.889 13.732c0.403 0.408 0.492 0.826 0.492 1.115" fill="#529fdc"/></g><g transform="translate(40.506 65.334)"><path d="m0 0c-1.348 0.449-2.478 1.038-3.392 1.765-0.914 0.728-1.642 1.557-2.184 2.486s-0.929 1.951-1.162 3.066c-0.232 1.115-0.348 2.276-0.348 3.484v4.785c0 0.836-0.074 1.595-0.221 2.276s-0.383 1.262-0.708 1.742c-0.326 0.48-0.74 0.852-1.243 1.115-0.504 0.263-1.112 0.395-1.824 0.395v3.368c1.409 0 2.428 0.496 3.055 1.487s0.941 2.33 0.941 4.018v4.809c0 1.223 0.116 2.388 0.348 3.495 0.233 1.108 0.62 2.13 1.162 3.067 0.542 0.936 1.27 1.765 2.184 2.485s2.044 1.305 3.392 1.754l0.836-2.671c-0.743-0.295-1.359-0.705-1.847-1.232-0.488-0.526-0.875-1.142-1.161-1.846-0.287-0.705-0.492-1.487-0.616-2.346-0.124-0.86-0.186-1.762-0.186-2.706v-4.809c0-1.564-0.271-2.973-0.813-4.227-0.542-1.255-1.409-2.246-2.602-2.973 1.193-0.728 2.06-1.723 2.602-2.985s0.813-2.668 0.813-4.216v-4.785c0-0.96 0.058-1.866 0.174-2.718 0.117-0.851 0.322-1.629 0.616-2.334s0.682-1.32 1.162-1.847c0.48-0.526 1.092-0.937 1.835-1.231z" fill="#539fdc"/></g><g transform="translate(94.573 68.005)"><path d="m0 0c0.743 0.294 1.359 0.705 1.847 1.231 0.488 0.527 0.879 1.142 1.173 1.847 0.295 0.704 0.504 1.483 0.628 2.334 0.123 0.851 0.185 1.757 0.185 2.717v4.785c0 1.626 0.291 3.063 0.872 4.309 0.58 1.247 1.521 2.211 2.822 2.892-1.285 0.666-2.222 1.63-2.811 2.892-0.588 1.262-0.883 2.699-0.883 4.309v4.808c0 0.945-0.062 1.847-0.185 2.706-0.124 0.86-0.333 1.642-0.628 2.346-0.294 0.705-0.685 1.321-1.173 1.847-0.488 0.527-1.104 0.937-1.847 1.231l0.836 2.672c1.363-0.45 2.498-1.034 3.404-1.754s1.63-1.549 2.172-2.486 0.93-1.959 1.162-3.066 0.348-2.272 0.348-3.496v-4.808c0-0.836 0.074-1.595 0.221-2.276 0.147-0.682 0.384-1.262 0.709-1.742s0.739-0.848 1.243-1.104c0.503-0.255 1.111-0.383 1.824-0.383v-3.368c-0.713 0-1.321-0.132-1.824-0.395-0.504-0.263-0.918-0.635-1.243-1.115s-0.562-1.061-0.709-1.742-0.221-1.44-0.221-2.277v-4.785c0-1.207-0.116-2.368-0.348-3.483s-0.62-2.137-1.162-3.066c-0.542-0.93-1.266-1.758-2.172-2.486s-2.041-1.316-3.404-1.765z" fill="#539fdc"/></g><g transform="translate(15.726 47.692)"><path d="m0 0 52.807-30.655 52.806 30.655v61.324l-52.806 30.656-52.807-30.656zm52.807-31.81-53.813 31.24v62.465l0.249 0.144 53.564 31.095 53.812-31.239v-62.465l-0.248-0.145z" fill="#529fdc"/></g><g transform="translate(66.152 118.06)"><path d="m0 0c-0.185 0.119-0.32 0.161-0.481 0.161-0.286 0-0.441-0.179-0.441-0.565v-0.196h1.165v-0.452h-1.165v-2.544h-0.498v2.544h-0.844v0.452h0.844v0.184c0 0.725 0.35 1.028 0.92 1.028 0.274 0 0.458-0.071 0.625-0.172z" fill="#529fdc"/></g><g transform="translate(68.556 114.87)"><path d="m0 0c0.612 0 0.962 0.517 0.962 1.094 0 0.576-0.35 1.093-0.962 1.093-0.613 0-0.963-0.517-0.963-1.093 0-0.577 0.35-1.094 0.963-1.094m0 2.639c0.915 0 1.473-0.719 1.473-1.545s-0.558-1.546-1.473-1.546c-0.916 0-1.475 0.72-1.475 1.546s0.559 1.545 1.475 1.545" fill="#529fdc"/></g><g transform="translate(72.926 116.51)"><path d="m0 0c-0.041 0.345-0.22 0.547-0.577 0.547-0.523 0-1.016-0.494-1.016-1.51v-1.081h-0.499v2.995h0.499v-0.553c0.232 0.363 0.607 0.6 1.106 0.6 0.594 0 0.952-0.356 0.987-0.998z" fill="#529fdc"/></g><g transform="translate(67.152 121.43)"><path d="m0 0c0-0.055-0.072-0.104-0.128-0.104h-1.578v6.116h1.578c0.056 0 0.128-0.045 0.128-0.099zm0.674 6.814h-3.106c-0.056 0-0.075-0.045-0.075-0.1v-7.516c0-0.054 0.019-0.104 0.075-0.104h3.106c0.056 0 0.128 0.05 0.128 0.104v7.516c0 0.055-0.072 0.1-0.128 0.1" fill="#529fdc"/></g><g transform="translate(69.76 121.34)"><path d="m0 0v6.081c1.048-0.083 1.771-1.409 1.771-3.04 0-1.632-0.723-2.958-1.771-3.041m0 6.884v0.015h-0.73c-0.056 0-0.074-0.046-0.074-0.101v-7.515c0-0.055 0.018-0.105 0.074-0.105h0.73v0.019c1.454 0.077 2.573 1.765 2.573 3.844 0 2.078-1.119 3.766-2.573 3.843" fill="#529fdc"/></g><g transform="translate(63.516 128.24)"><path d="m0 0h-1.191c-0.606 0-0.989-0.393-0.989-0.98v-1.625s-0.021-0.301-0.035-0.404c-0.039-0.271-0.37-0.503-0.577-0.5h-0.313c-0.057 0-0.078-0.043-0.078-0.099v-0.601c0-0.055 0.021-0.102 0.078-0.102h0.286c0.263 4e-3 0.595-0.218 0.62-0.548 7e-3 -0.096 0.019-0.392 0.019-0.392v-1.461c0-0.6 0.383-1.008 0.989-1.008h1.241c0.029 0 0.076 0.049 0.076 0.104v0.602c0 0.054-0.07 0.096-0.126 0.096h-1.051c-0.26 0-0.327 0.11-0.327 0.406v1.729c0 0.605-0.246 0.828-0.546 0.937 0.3 0.11 0.546 0.332 0.546 0.936v1.729c0 0.292 0.058 0.379 0.327 0.379h1.101c0.029 0 0.076 0.046 0.076 0.1v0.602c0 0.055-0.07 0.1-0.126 0.1" fill="#529fdc"/></g><g transform="translate(74.773 125.75)"><path d="m0 0v1.311c0 0.292 0.052 0.379 0.321 0.379h1.102c0.027 0 0.081 0.046 0.081 0.1v0.602c0 0.055-0.075 0.1-0.131 0.1h-1.191c-0.606 0-0.984-0.393-0.984-0.98v-1.625s-0.017-0.272-0.056-0.403c-0.077-0.263-0.251-0.401-0.561-0.501h-0.316c-0.054 0-0.069-0.043-0.069-0.098v-0.602c0-0.055 0.015-0.103 0.069-0.103h0.29c0.369-0.1 0.526-0.232 0.603-0.554 0.037-0.16 0.04-0.385 0.04-0.385v-1.461c0-0.599 0.378-1.008 0.984-1.008h1.241c0.027 0 0.081 0.05 0.081 0.104v0.602c0 0.054-0.075 0.096-0.131 0.096h-1.052c-0.259 0-0.321 0.11-0.321 0.406v1.729c0 0.195-0.056 0.371-0.101 0.472 0 1e-3 -1e-3 1e-3 -2e-3 2e-3 1e-3 -1e-3 2e-3 -1e-3 2e-3 -2e-3h1.474c0.056 0 0.131 0.047 0.131 0.102v0.602c0 0.055-0.075 0.098-0.131 0.098h-1.528c0.078 0.201 0.155 0.334 0.155 0.6z" fill="#529fdc"/></g><g transform="translate(36.882 49.089)"><path d="m0 0h-12.493l4.905 6.361-5.028 6.523h17.669l-5.346-5.628-0.747 0.65 3.917 3.987h-13.478l4.264-5.532-4.14-5.37h10.477z" fill="#529fdc"/></g><g transform="translate(41.44 61.973)"><path d="m0 0v-5.35" fill="#fff"/></g><path d="m41.935 56.623h-0.991v5.35h0.991z" fill="#529fdc"/><g transform="translate(111.53 49.089)"><path d="m0 0h-12.493v0.991h10.478l-4.141 5.37 4.264 5.532h-13.478l4.06-3.987-0.747-0.65-5.489 5.628h17.67l-5.029-6.523z" fill="#529fdc"/></g><g transform="translate(94.476 61.973)"><path d="m0 0v-4.955" fill="#fff"/></g><g><path d="m94.971 56.698h-0.991v5.275h0.991z" fill="#529fdc"/><path d="m99.21 41.068h-63.368v14.932h63.368z" fill="#fff"/><path d="m36.848 42.064h62.362v13.936h-62.362zm63.368-0.996h-64.374v15.927h64.374z" fill="#529fdc"/></g><g transform="translate(45.972 47.549)"><path d="m0 0c0.38 0.357 0.57 0.876 0.57 1.556 0 0.681-0.19 1.204-0.57 1.571-0.379 0.367-0.963 0.55-1.749 0.55h-0.863v-4.212h0.982c0.706 0 1.251 0.178 1.63 0.535m1.136 4.118c0.66-0.605 0.991-1.446 0.991-2.522 0-1.077-0.323-1.93-0.967-2.557-0.644-0.628-1.628-0.942-2.949-0.942h-2.369v6.928h2.448c1.236 0 2.184-0.303 2.846-0.907" fill="#539fdc"/></g><g transform="translate(52.129 51.974)"><path d="m0 0c-0.142 0.142-0.213 0.316-0.213 0.521 0 0.204 0.071 0.378 0.213 0.519 0.142 0.143 0.316 0.214 0.52 0.214 0.205 0 0.378-0.071 0.521-0.214 0.142-0.141 0.213-0.315 0.213-0.519 0-0.205-0.071-0.379-0.213-0.521-0.143-0.142-0.316-0.213-0.521-0.213-0.204 0-0.378 0.071-0.52 0.213m-1.914 0c-0.141 0.142-0.213 0.316-0.213 0.521 0 0.204 0.072 0.378 0.213 0.519 0.142 0.143 0.316 0.214 0.521 0.214s0.378-0.071 0.521-0.214c0.141-0.141 0.213-0.315 0.213-0.519 0-0.205-0.072-0.379-0.213-0.521-0.143-0.142-0.316-0.213-0.521-0.213s-0.379 0.071-0.521 0.213m2.513-3.869v2.873h1.498v-5.332h-1.498v0.704c-0.37-0.522-0.847-0.783-1.432-0.783s-1.075 0.184-1.472 0.55-0.594 0.91-0.594 1.63v3.231h1.496v-2.903c0-0.82 0.3-1.23 0.903-1.23 0.297 0 0.554 0.108 0.772 0.323 0.219 0.215 0.327 0.526 0.327 0.937" fill="#539fdc"/></g><g transform="translate(59.648 47.306)"><path d="m0 0c0-0.526-0.193-0.947-0.58-1.263-0.386-0.317-0.877-0.476-1.471-0.476-0.397 0-0.811 0.071-1.239 0.213-0.43 0.142-0.817 0.352-1.161 0.629l0.654 0.932c0.556-0.43 1.147-0.645 1.775-0.645 0.191 0 0.343 0.039 0.456 0.114 0.112 0.077 0.168 0.178 0.168 0.303s-0.077 0.241-0.232 0.347c-0.156 0.105-0.381 0.204-0.675 0.297-0.293 0.093-0.519 0.172-0.674 0.238s-0.332 0.162-0.53 0.288c-0.403 0.25-0.604 0.622-0.604 1.115 0 0.491 0.197 0.893 0.594 1.204 0.397 0.31 0.909 0.465 1.536 0.465 0.629 0 1.256-0.211 1.884-0.634l-0.555-0.991c-0.463 0.317-0.924 0.475-1.383 0.475-0.46 0-0.689-0.125-0.689-0.376 0-0.139 0.073-0.248 0.219-0.327 0.145-0.08 0.386-0.172 0.723-0.277 0.337-0.107 0.577-0.187 0.718-0.243 0.142-0.056 0.313-0.144 0.511-0.263 0.37-0.225 0.555-0.599 0.555-1.125" fill="#539fdc"/></g><g transform="translate(64.803 47.306)"><path d="m0 0c0-0.526-0.193-0.947-0.58-1.263-0.386-0.317-0.877-0.476-1.471-0.476-0.397 0-0.811 0.071-1.239 0.213-0.43 0.142-0.817 0.352-1.161 0.629l0.654 0.932c0.556-0.43 1.147-0.645 1.775-0.645 0.191 0 0.343 0.039 0.456 0.114 0.112 0.077 0.168 0.178 0.168 0.303s-0.077 0.241-0.232 0.347c-0.156 0.105-0.381 0.204-0.675 0.297-0.293 0.093-0.519 0.172-0.674 0.238s-0.332 0.162-0.53 0.288c-0.403 0.25-0.604 0.622-0.604 1.115 0 0.491 0.197 0.893 0.594 1.204 0.397 0.31 0.909 0.465 1.536 0.465 0.629 0 1.256-0.211 1.884-0.634l-0.555-0.991c-0.463 0.317-0.924 0.475-1.383 0.475-0.46 0-0.689-0.125-0.689-0.376 0-0.139 0.073-0.248 0.219-0.327 0.145-0.08 0.386-0.172 0.723-0.277 0.337-0.107 0.577-0.187 0.718-0.243 0.142-0.056 0.313-0.144 0.511-0.263 0.37-0.225 0.555-0.599 0.555-1.125" fill="#539fdc"/></g><g transform="translate(69.135 49.58)"><path d="m0 0c-0.204 0.172-0.454 0.258-0.748 0.258-0.295 0-0.564-0.09-0.808-0.268-0.245-0.178-0.387-0.42-0.427-0.723h2.34c-0.033 0.317-0.152 0.562-0.357 0.733m1.428-3.161c-0.601-0.568-1.307-0.853-2.116-0.853-0.811 0-1.479 0.25-2.008 0.748-0.529 0.5-0.793 1.169-0.793 2.008s0.269 1.506 0.808 2.001c0.539 0.496 1.175 0.744 1.909 0.744 0.732 0 1.356-0.222 1.868-0.664 0.512-0.443 0.767-1.05 0.767-1.824v-0.792h-3.885c0.046-0.292 0.198-0.529 0.456-0.714 0.258-0.186 0.549-0.278 0.873-0.278 0.522 0 0.951 0.176 1.288 0.526z" fill="#539fdc"/></g><path d="m73.555 45.646h-1.487v7.354h1.487z" fill="#539fdc"/><g transform="translate(76.163 48.302)"><path d="m0 0c0-0.43 0.129-0.781 0.386-1.055 0.259-0.275 0.559-0.411 0.902-0.411 0.344 0 0.636 0.136 0.878 0.411 0.242 0.274 0.362 0.627 0.362 1.06 0 0.432-0.12 0.793-0.362 1.081-0.242 0.287-0.537 0.431-0.887 0.431-0.351 0-0.651-0.146-0.902-0.437-0.251-0.29-0.377-0.65-0.377-1.08m0.937-2.735c-0.631 0-1.195 0.268-1.69 0.803-0.496 0.534-0.744 1.199-0.744 1.992s0.241 1.442 0.724 1.947c0.483 0.506 1.047 0.758 1.695 0.758 0.647 0 1.176-0.227 1.586-0.683v2.616h1.487v-7.354h-1.487v0.704c-0.416-0.522-0.94-0.783-1.571-0.783" fill="#539fdc"/></g><g transform="translate(82.755 48.312)"><path d="m0 0c0-0.436 0.124-0.792 0.372-1.066s0.565-0.411 0.951-0.411c0.387 0 0.704 0.137 0.952 0.411s0.372 0.63 0.372 1.066-0.124 0.793-0.372 1.069c-0.248 0.278-0.565 0.418-0.952 0.418-0.386 0-0.703-0.14-0.951-0.418-0.248-0.276-0.372-0.633-0.372-1.069m4.143 0c0-0.773-0.267-1.425-0.802-1.953-0.536-0.529-1.208-0.793-2.018-0.793-0.809 0-1.482 0.264-2.017 0.793-0.535 0.528-0.803 1.18-0.803 1.953 0 0.772 0.268 1.425 0.803 1.957 0.535 0.531 1.208 0.798 2.017 0.798 0.81 0 1.482-0.267 2.018-0.798 0.535-0.532 0.802-1.185 0.802-1.957" fill="#539fdc"/></g><g transform="translate(90.804 49.669)"><path d="m0 0c-0.442 0-0.773-0.157-0.991-0.47-0.218-0.314-0.327-0.729-0.327-1.244v-2.309h-1.487v5.332h1.487v-0.704c0.191 0.218 0.43 0.403 0.718 0.555 0.287 0.151 0.58 0.231 0.878 0.238l0.01-1.398z" fill="#539fdc"/></g><g transform="translate(93.848 51.286)"><path d="m0 0v-0.357h1.288v-1.071h-1.288v-4.212h-1.497v4.212h-0.624v1.071h0.624v0.327c0 0.581 0.177 1.042 0.531 1.382 0.353 0.341 0.793 0.511 1.318 0.511s1.002-0.198 1.432-0.595l-0.535-1.001c-0.218 0.251-0.459 0.377-0.723 0.377-0.152 0-0.278-0.055-0.377-0.164-0.1-0.108-0.149-0.269-0.149-0.48" fill="#539fdc"/></g></g><g clip-path="url(#clipPath168)"><g transform="translate(5.53 113.14)"><path d="m0 0v-70.362c0-0.507 0.271-0.976 0.71-1.229l61.083-35.183c0.437-0.252 0.977-0.252 1.414 0l61.082 35.183c0.439 0.253 0.71 0.722 0.71 1.229v70.362c0 0.507-0.271 0.975-0.71 1.228l-61.081 35.183c-0.437 0.252-0.977 0.252-1.414 0l-61.084-35.183c-0.439-0.253-0.71-0.721-0.71-1.228z" fill="none" stroke="#99d536" stroke-miterlimit="10" stroke-width=".25"/></g></g></g></g></svg>
