<svg width="127" height="146" viewBox="0 0 127 146" fill="none" xmlns="http://www.w3.org/2000/svg">
<mask id="mask0_3_147" style="mask-type:luminance" maskUnits="userSpaceOnUse" x="0" y="1" width="127" height="145">
<path d="M0.212097 145.215H126.203V1.22562H0.212097V145.215Z" fill="white"/>
</mask>
<g mask="url(#mask0_3_147)">
<path d="M63.2055 0.848695L0.548767 36.9393V109.123L63.2076 145.215L125.864 109.123V36.9393L63.2076 0.848695H63.2055Z" fill="#59C477"/>
<path d="M117.375 104.36L63.2053 135.69L9.03546 104.36V41.7029L63.2053 10.3733L117.375 41.7029V104.36Z" stroke="white" stroke-width="1.85196" stroke-miterlimit="10"/>
<path d="M32.5223 101.598H93.4973V114.041H32.5223V101.598Z" stroke="white" stroke-width="0.925981" stroke-miterlimit="10"/>
</g>
<mask id="mask1_3_147" style="mask-type:luminance" maskUnits="userSpaceOnUse" x="5" y="6" width="117" height="134">
<path d="M5.33368 139.701H121.08V6.36052H5.33368V139.701Z" fill="white"/>
</mask>
<g mask="url(#mask1_3_147)">
<path d="M61.196 27.7704C61.0229 27.6584 60.896 27.6204 60.746 27.6204C60.4802 27.6204 60.3348 27.7871 60.3348 28.1473V28.3307H61.422V28.7529H60.3348V31.129H59.8681V28.7529H59.0801V28.3307H59.8681V28.1594C59.8681 27.4815 60.1959 27.1982 60.7293 27.1982C60.984 27.1982 61.1562 27.2639 61.3118 27.3593L61.196 27.7704Z" fill="white"/>
<path d="M63.4406 30.7519C64.0119 30.7519 64.3397 30.2686 64.3397 29.7297C64.3397 29.1917 64.0119 28.7083 63.4406 28.7083C62.8692 28.7083 62.5414 29.1917 62.5414 29.7297C62.5414 30.2686 62.8692 30.7519 63.4406 30.7519ZM63.4406 28.2861C64.2962 28.2861 64.8166 28.9583 64.8166 29.7297C64.8166 30.501 64.2962 31.1743 63.4406 31.1743C62.5849 31.1743 62.0627 30.501 62.0627 29.7297C62.0627 28.9583 62.5849 28.2861 63.4406 28.2861Z" fill="white"/>
<path d="M67.5231 29.2188C67.4851 28.8966 67.3175 28.7077 66.9842 28.7077C66.4971 28.7077 66.0359 29.1688 66.0359 30.1189V31.1292H65.5711V28.3308H66.0359V28.8466C66.2517 28.5077 66.6027 28.2854 67.0694 28.2854C67.624 28.2854 67.9574 28.6197 67.9898 29.2188L67.5231 29.2188Z" fill="white"/>
<path d="M59.7878 18.9129V24.9087H60.537V18.9129H59.7878Z" fill="white"/>
<path d="M62.7587 25.4709C62.8115 25.4709 62.8782 25.4237 62.8782 25.3737V18.3509C62.8782 18.2999 62.8115 18.2573 62.7587 18.2573H60.4188C60.3679 18.2573 60.3494 18.2777 60.3494 18.3046V18.9129C60.3494 18.9639 60.3679 19.0074 60.4188 19.0074H62.0097C62.0625 19.0074 62.1292 19.0481 62.1292 19.0991V24.6246C62.1292 24.6755 62.0625 24.7209 62.0097 24.7209H60.4188C60.3679 24.7209 60.3494 24.7385 60.3494 24.7644V25.3737C60.3494 25.4237 60.3679 25.4709 60.4188 25.4709L62.7587 25.4709Z" fill="white"/>
<path d="M63.8153 18.9129V24.9087H64.5672V18.9129H63.8153Z" fill="white"/>
<path d="M64.4696 25.4667V24.7166C65.5003 24.7166 66.2198 23.436 66.2198 21.8609C66.2198 20.2867 65.5012 19.0052 64.4696 19.0052V18.257C65.8771 18.257 66.967 19.8738 66.967 21.861C66.967 23.8492 65.8772 25.4667 64.4696 25.4667Z" fill="white"/>
<path d="M56.6963 23.1628V24.5286C56.6963 25.0888 57.0547 25.4703 57.6205 25.4703H58.7798C58.8067 25.4703 58.8502 25.4231 58.8502 25.3731V24.8101C58.8502 24.7601 58.7854 24.7212 58.7326 24.7212H57.751C57.5084 24.7212 57.4455 24.6175 57.4455 24.3406V22.7248C57.4455 22.1608 57.2158 21.9525 56.9352 21.8497C57.2158 21.7488 57.4455 21.5404 57.4455 20.9765V19.3615C57.4455 19.0893 57.4992 19.0078 57.751 19.0078H58.7798C58.8067 19.0078 58.8502 18.9643 58.8502 18.9134V18.3513C58.8502 18.3003 58.7854 18.2577 58.7326 18.2577H57.6205C57.0547 18.2577 56.6963 18.6254 56.6963 19.1736V20.6922C56.6963 20.6922 56.6769 20.9737 56.6639 21.0691C56.6278 21.3228 56.3185 21.5395 56.125 21.5367H55.8315C55.7796 21.5367 55.7592 21.5765 55.7592 21.6284V22.1905C55.7592 22.2414 55.7796 22.2868 55.8315 22.2868H56.099C56.3454 22.283 56.6546 22.4886 56.6778 22.7979C56.6843 22.8868 56.6963 23.1628 56.6963 23.1628Z" fill="white"/>
<path d="M60.4189 18.2566H59.8586C59.8058 18.2566 59.7873 18.2992 59.7873 18.3501V19.0067H60.5365V18.2566H60.4189Z" fill="white"/>
<path d="M59.7878 24.8102V25.3723C59.7878 25.4232 59.8064 25.4705 59.8582 25.4705H60.537V24.7204H59.7878V24.8102Z" fill="white"/>
<path d="M64.4442 18.2566H63.8849C63.8331 18.2566 63.8164 18.2992 63.8164 18.3501V19.0067H64.5674V18.2566H64.4442Z" fill="white"/>
<path d="M63.8153 24.8102V25.3723C63.8153 25.4232 63.8329 25.4705 63.8829 25.4705H64.5672V24.7204H63.8172V24.8102H63.8153Z" fill="white"/>
<path d="M68.4992 23.1628V24.5286C68.4992 25.0888 68.853 25.4703 69.4169 25.4703H70.5762C70.6022 25.4703 70.6522 25.4231 70.6522 25.3731V24.8101C70.6522 24.7601 70.5827 24.7212 70.529 24.7212H69.5484C69.3049 24.7212 69.2484 24.6175 69.2484 24.3406V22.7248C69.2484 22.5442 69.1947 22.3794 69.153 22.2858H67.8973C68.2427 22.3794 68.389 22.5025 68.4603 22.8026C68.4946 22.9526 68.4992 23.1628 68.4992 23.1628Z" fill="white"/>
<path d="M68.4463 21.0686C68.375 21.314 68.2111 21.4418 67.924 21.5363H69.1037C69.175 21.3492 69.2473 21.2242 69.2473 20.9751V19.3602C69.2473 19.0879 69.2973 19.0064 69.5473 19.0064H70.5779C70.602 19.0064 70.6539 18.9638 70.6539 18.9129V18.3499C70.6539 18.2999 70.5844 18.2573 70.5298 18.2573H69.4186C68.8519 18.2573 68.5009 18.624 68.5009 19.1731V20.6918C68.5009 20.6918 68.4824 20.9455 68.4463 21.0686Z" fill="white"/>
<path d="M68.6284 21.9177C68.8173 21.9862 69.0247 22.0983 69.1516 22.2863H70.5295C70.5804 22.2863 70.6526 22.2418 70.6526 22.1909V21.6288C70.6526 21.5769 70.5804 21.5362 70.5295 21.5362H69.1025C69.0081 21.7242 68.784 21.8603 68.6284 21.9177Z" fill="white"/>
<path d="M67.6268 21.5366C67.5759 21.5366 67.5629 21.5773 67.5629 21.6282V22.1903C67.5629 22.2412 67.5768 22.2866 67.6268 22.2866H69.1529C69.0695 22.0977 68.8602 21.9699 68.7102 21.9116C68.8667 21.8542 69.0075 21.7236 69.1038 21.5366H67.9213H67.6268Z" fill="white"/>
<path d="M78.7225 35.1373C78.7225 35.1373 85.8657 34.0539 88.4585 37.0514C92.2495 35.0169 98.0621 37.3551 98.0621 37.3551" stroke="white" stroke-width="0.925981" stroke-miterlimit="10"/>
<path d="M91.1098 41.5088C91.1098 41.5088 96.8223 40.6412 98.8966 43.0386C101.931 41.4125 106.576 43.2812 106.576 43.2812" stroke="white" stroke-width="0.925981" stroke-miterlimit="10"/>
</g>
<mask id="mask2_3_147" style="mask-type:luminance" maskUnits="userSpaceOnUse" x="0" y="1" width="127" height="145">
<path d="M0.212097 145.215H126.203V1.22562H0.212097V145.215Z" fill="white"/>
</mask>
<g mask="url(#mask2_3_147)">
<path d="M40.6691 104.703H41.7618V111.176H40.5765L36.9095 106.454V111.176H35.8169V104.703H36.9095L40.669 109.538L40.6691 104.703Z" fill="white"/>
</g>
<mask id="mask3_3_147" style="mask-type:luminance" maskUnits="userSpaceOnUse" x="0" y="0" width="127" height="146">
<path d="M0.212097 0.850814H126.203V145.215H0.212097V0.850814Z" fill="white"/>
</mask>
<g mask="url(#mask3_3_147)">
<mask id="mask4_3_147" style="mask-type:luminance" maskUnits="userSpaceOnUse" x="0" y="1" width="127" height="145">
<path d="M0.212097 145.215H126.203V1.22562H0.212097V145.215Z" fill="white"/>
</mask>
<g mask="url(#mask4_3_147)">
<path d="M44.5038 111.177H43.4667V106.25H44.5038V111.177ZM43.5315 105.269C43.4019 105.14 43.337 104.985 43.337 104.806C43.337 104.627 43.4019 104.472 43.5315 104.343C43.6611 104.214 43.8148 104.148 43.9945 104.148C44.1732 104.148 44.3278 104.214 44.4575 104.343C44.5871 104.472 44.652 104.627 44.652 104.806C44.652 104.985 44.5871 105.14 44.4575 105.269C44.3278 105.398 44.1732 105.463 43.9945 105.463C43.8148 105.463 43.6611 105.398 43.5315 105.269Z" fill="white"/>
<path d="M46.7801 108.352H49.6045C49.6045 107.939 49.4748 107.62 49.2156 107.398C48.9563 107.175 48.6368 107.064 48.2571 107.064C47.8775 107.064 47.5367 107.179 47.2339 107.411C46.9321 107.642 46.7801 107.956 46.7801 108.352ZM50.6415 109.167H46.7802C46.8052 109.525 46.9691 109.813 47.271 110.032C47.5738 110.252 47.9192 110.361 48.3081 110.361C48.9257 110.361 49.3943 110.167 49.7156 109.778L50.3082 110.426C49.7777 110.975 49.0859 111.25 48.234 111.25C47.5423 111.25 46.9543 111.021 46.47 110.56C45.9857 110.101 45.7431 109.483 45.7431 108.708C45.7431 107.933 45.9894 107.317 46.4839 106.861C46.9774 106.403 47.5599 106.175 48.2294 106.175C48.8998 106.175 49.4684 106.378 49.9378 106.782C50.4073 107.186 50.6416 107.743 50.6416 108.453L50.6415 109.167Z" fill="white"/>
<path d="M52.6244 108.737C52.6244 109.209 52.7762 109.594 53.0781 109.89C53.3809 110.185 53.7356 110.335 54.143 110.335C54.5504 110.335 54.8968 110.185 55.1801 109.885C55.4644 109.585 55.6061 109.202 55.6061 108.733C55.6061 108.263 55.4644 107.87 55.1801 107.557C54.8968 107.242 54.5477 107.084 54.1337 107.084C53.7207 107.084 53.3652 107.242 53.0689 107.557C52.7725 107.87 52.6244 108.265 52.6244 108.737ZM52.2817 110.548C51.8188 110.078 51.5872 109.46 51.5872 108.696C51.5872 107.93 51.8252 107.319 52.3003 106.862C52.7762 106.405 53.342 106.176 53.9995 106.176C54.6569 106.176 55.1866 106.455 55.5876 107.01V104.306H56.6247V111.177H55.5876V110.437C55.2051 110.98 54.6467 111.251 53.9115 111.251C53.2883 111.251 52.7447 111.017 52.2817 110.548Z" fill="white"/>
<path d="M58.9112 108.352H61.7356C61.7356 107.939 61.606 107.62 61.3467 107.398C61.0874 107.175 60.7679 107.064 60.3883 107.064C60.0086 107.064 59.6679 107.179 59.365 107.411C59.0632 107.642 58.9112 107.956 58.9112 108.352ZM62.7726 109.167H58.9113C58.9363 109.525 59.1002 109.813 59.4021 110.032C59.7049 110.252 60.0503 110.361 60.4392 110.361C61.0568 110.361 61.5254 110.167 61.8467 109.778L62.4394 110.426C61.9088 110.975 61.217 111.25 60.3651 111.25C59.6734 111.25 59.0854 111.021 58.6011 110.56C58.1168 110.101 57.8742 109.483 57.8742 108.708C57.8742 107.933 58.1205 107.317 58.615 106.861C59.1085 106.403 59.691 106.175 60.3605 106.175C61.0309 106.175 61.5995 106.378 62.069 106.782C62.5384 107.186 62.7727 107.743 62.7727 108.453L62.7726 109.167Z" fill="white"/>
<path d="M66.6062 107.223C66.0942 107.223 65.708 107.39 65.4487 107.722C65.1904 108.056 65.0598 108.504 65.0598 109.065V111.177H64.0227V106.25H65.0598V107.242C65.2274 106.933 65.4543 106.68 65.7404 106.481C66.0275 106.284 66.3321 106.182 66.6535 106.176L66.6627 107.223L66.6062 107.223Z" fill="white"/>
<path d="M70.2822 107.223C69.7701 107.223 69.384 107.39 69.1247 107.722C68.8664 108.056 68.7358 108.504 68.7358 109.065V111.177H67.6987V106.25H68.7358V107.242C68.9034 106.933 69.1303 106.68 69.4164 106.481C69.7035 106.284 70.0081 106.182 70.3294 106.176L70.3387 107.223L70.2822 107.223Z" fill="white"/>
<path d="M72.4103 108.511V111.177H71.3731V104.316H72.4103V107.149C72.5584 106.846 72.7825 106.608 73.0825 106.436C73.3816 106.263 73.7029 106.176 74.0502 106.176C74.6049 106.176 75.054 106.346 75.3975 106.686C75.7402 107.025 75.9105 107.517 75.9105 108.159V111.177H74.8734V108.473C74.8734 107.565 74.4975 107.112 73.7437 107.112C73.3863 107.112 73.0742 107.231 72.8094 107.469C72.5436 107.707 72.4103 108.054 72.4103 108.511Z" fill="white"/>
<path d="M78.1614 108.352H80.9858C80.9858 107.939 80.8561 107.62 80.5969 107.398C80.3385 107.175 80.0181 107.064 79.6385 107.064C79.2597 107.064 78.9171 107.179 78.6152 107.411C78.3124 107.642 78.1614 107.956 78.1614 108.352ZM82.0228 109.167H78.1615C78.1856 109.525 78.3495 109.813 78.6523 110.032C78.9541 110.252 79.3005 110.361 79.6894 110.361C80.3061 110.361 80.7756 110.167 81.0969 109.778L81.6905 110.426C81.158 110.975 80.4672 111.25 79.6153 111.25C78.9236 111.25 78.3356 111.021 77.8513 110.56C77.367 110.101 77.1244 109.483 77.1244 108.708C77.1244 107.933 77.3707 107.317 77.8652 106.861C78.3597 106.403 78.9412 106.175 79.6107 106.175C80.2802 106.175 80.8497 106.378 81.3191 106.782C81.7886 107.186 82.0229 107.743 82.0229 108.453L82.0228 109.167Z" fill="white"/>
<path d="M84.2831 111.177H83.246V106.25H84.2831V111.177ZM83.3108 105.269C83.182 105.14 83.1163 104.985 83.1163 104.806C83.1163 104.627 83.182 104.472 83.3108 104.343C83.4404 104.214 83.5951 104.148 83.7738 104.148C83.9534 104.148 84.108 104.214 84.2368 104.343C84.3664 104.472 84.4312 104.627 84.4312 104.806C84.4312 104.985 84.3664 105.14 84.2368 105.269C84.108 105.398 83.9534 105.463 83.7738 105.463C83.5951 105.463 83.4404 105.398 83.3108 105.269Z" fill="white"/>
<path d="M86.8749 108.511V111.177H85.8377V106.251H86.8749V107.149C87.0425 106.847 87.2721 106.609 87.5647 106.436C87.8583 106.263 88.174 106.176 88.5148 106.176C89.0695 106.176 89.5186 106.347 89.8621 106.686C90.2048 107.025 90.3751 107.517 90.3751 108.159V111.178H89.338V108.474C89.338 107.565 88.9621 107.112 88.2083 107.112C87.8509 107.112 87.5388 107.231 87.274 107.469C87.0082 107.707 86.8749 108.054 86.8749 108.511Z" fill="white"/>
</g>
</g>
<mask id="mask5_3_147" style="mask-type:luminance" maskUnits="userSpaceOnUse" x="5" y="6" width="117" height="134">
<path d="M5.33368 139.701H121.08V6.36052H5.33368V139.701Z" fill="white"/>
</mask>
<g mask="url(#mask5_3_147)">
<path d="M46.31 97.3324C46.31 97.3324 53.4235 97.7806 56.3534 94.1775C59.2823 90.5716 57.2544 90.9559 57.4803 85.323C57.7054 79.6892 58.3813 77.9826 54.5505 75.2815C50.7196 72.5757 50.0269 67.3882 56.1099 67.6151C62.1946 67.8382 65.6764 66.2529 69.6101 67.6151C73.5428 68.9754 72.6251 72.1256 71.0241 74.3777C69.4221 76.6306 68.5007 75.5037 68.5118 80.0115C68.5192 84.5174 68.2488 90.1207 69.849 93.0505C71.4491 95.9804 78.4358 95.0794 78.4358 95.0794" stroke="white" stroke-width="1.85196" stroke-miterlimit="10"/>
<path d="M73.6003 67.9754C73.6003 67.9754 79.9536 62.3944 82.5538 57.5773C85.154 52.7602 85.6966 48.6108 85.6966 48.6108" stroke="white" stroke-width="0.925981" stroke-miterlimit="10"/>
<path d="M69.8862 64.7822C69.8862 64.7822 74.8042 57.9029 76.2367 52.6201C77.6729 47.3382 77.2599 43.173 77.2599 43.173" stroke="white" stroke-width="0.925981" stroke-miterlimit="10"/>
<path d="M49.5413 42.7475C49.5413 42.7475 49.7923 44.2458 49.2311 45.1126C48.6699 45.9794 47.28 45.9303 47.28 45.9303C47.28 45.9303 46.9911 44.8441 47.5967 43.9098C48.2005 42.9773 49.5413 42.7475 49.5413 42.7475Z" fill="white"/>
<path d="M33.5944 48.704C33.5944 48.704 35.1112 48.7966 35.8288 49.5384C36.5465 50.281 36.1872 51.6237 36.1872 51.6237C36.1872 51.6237 35.0621 51.6607 34.2889 50.8607C33.5166 50.0615 33.5944 48.704 33.5944 48.704Z" fill="white"/>
<path d="M34.6045 52.5176C34.6045 52.5176 36.1212 52.6102 36.8389 53.3529C37.5565 54.0955 37.1973 55.4382 37.1973 55.4382C37.1973 55.4382 36.0731 55.4752 35.2999 54.6752C34.5267 53.8761 34.6045 52.5176 34.6045 52.5176Z" fill="white"/>
<path d="M36.1926 56.3545C36.1926 56.3545 37.7112 56.3045 38.4946 56.9768C39.2789 57.6491 39.0465 59.0196 39.0465 59.0196C39.0465 59.0196 37.9306 59.1612 37.0861 58.4362C36.2416 57.713 36.1926 56.3545 36.1926 56.3545Z" fill="white"/>
<path d="M43.8283 53.9363C43.8283 53.9363 45.3469 53.8863 46.1302 54.5586C46.9146 55.2309 46.6821 56.6014 46.6821 56.6014C46.6821 56.6014 45.5654 56.743 44.7218 56.018C43.8773 55.2948 43.8283 53.9363 43.8283 53.9363Z" fill="white"/>
<path d="M52.1352 52.4096C52.1352 52.4096 53.6446 52.5819 54.3224 53.3607C55.0012 54.1394 54.5706 55.4608 54.5706 55.4608C54.5706 55.4608 53.4464 55.4386 52.7158 54.5996C51.9861 53.7616 52.1352 52.4096 52.1352 52.4096Z" fill="white"/>
<path d="M52.5735 55.5964C52.5735 55.5964 54.0838 55.7687 54.7616 56.5475C55.4403 57.3262 55.0097 58.6486 55.0097 58.6486C55.0097 58.6486 53.8856 58.6263 53.155 57.7864C52.4253 56.9484 52.5735 55.5964 52.5735 55.5964Z" fill="white"/>
<path d="M42.1512 43.1562C42.1512 43.1562 43.63 43.5081 44.2088 44.3628C44.7885 45.2184 44.2032 46.4787 44.2032 46.4787C44.2032 46.4787 43.0893 46.3222 42.4651 45.3999C41.841 44.4804 42.1512 43.1562 42.1512 43.1562Z" fill="white"/>
<path d="M42.49 47.0841C42.49 47.0841 43.9679 47.436 44.5467 48.2907C45.1263 49.1463 44.5411 50.4066 44.5411 50.4066C44.5411 50.4066 43.4271 50.2501 42.8021 49.3288C42.1798 48.4083 42.49 47.0841 42.49 47.0841Z" fill="white"/>
<path d="M43.0469 50.5632C43.0469 50.5632 44.5517 50.7753 45.2081 51.5716C45.8646 52.3689 45.3998 53.6792 45.3998 53.6792C45.3998 53.6792 44.2765 53.6273 43.5691 52.7671C42.8616 51.9105 43.0469 50.5632 43.0469 50.5632Z" fill="white"/>
<path d="M37.6346 59.7108C37.6346 59.7108 39.1041 59.3274 40.0172 59.8099C40.9303 60.2933 41.0053 61.6813 41.0053 61.6813C41.0053 61.6813 39.9478 62.0647 38.9653 61.5452C37.9819 61.0257 37.6346 59.7108 37.6346 59.7108Z" fill="white"/>
<path d="M39.5806 62.6795C39.5806 62.6795 41.0492 62.2962 41.9641 62.7786C42.8753 63.262 42.9512 64.6501 42.9512 64.6501C42.9512 64.6501 41.8946 65.0343 40.9103 64.513C39.9278 63.9945 39.5806 62.6795 39.5806 62.6795Z" fill="white"/>
<path d="M42.0453 65.4598C42.0453 65.4598 43.463 64.9135 44.425 65.2895C45.3844 65.6682 45.6168 67.0387 45.6168 67.0387C45.6168 67.0387 44.6093 67.5387 43.5731 67.1322C42.5388 66.7275 42.0453 65.4598 42.0453 65.4598Z" fill="white"/>
<path d="M44.0951 67.9288C44.0951 67.9288 45.3859 67.1306 46.4017 67.3223C47.4157 67.514 47.8972 68.8169 47.8972 68.8169C47.8972 68.8169 46.999 69.4965 45.9072 69.2882C44.8146 69.0826 44.0951 67.9288 44.0951 67.9288Z" fill="white"/>
<path d="M36.0825 44.5008C36.0825 44.5008 37.4307 45.2009 37.7835 46.1722C38.1373 47.1427 37.2631 48.2233 37.2631 48.2233C37.2631 48.2233 36.2205 47.7992 35.8399 46.7538C35.4593 45.7092 36.0825 44.5008 36.0825 44.5008Z" fill="white"/>
<path d="M45.0988 38.7031C45.0988 38.7031 46.3683 39.5365 46.6221 40.5384C46.8758 41.5394 45.897 42.5247 45.897 42.5247C45.897 42.5247 44.9034 41.9996 44.6293 40.9208C44.3561 39.843 45.0988 38.7031 45.0988 38.7031Z" fill="white"/>
<path d="M55.934 37.134C55.934 37.134 57.0443 38.1711 57.1249 39.2008C57.2064 40.2305 56.0738 41.0361 56.0738 41.0361C56.0738 41.0361 55.1821 40.349 55.096 39.2397C55.009 38.1313 55.934 37.134 55.934 37.134Z" fill="white"/>
<path d="M65.7973 37.2568C65.7973 37.2568 67.1696 37.9087 67.5576 38.8644C67.9484 39.8219 67.115 40.9321 67.115 40.9321C67.115 40.9321 66.0566 40.5488 65.6371 39.5181C65.2204 38.4884 65.7973 37.2568 65.7973 37.2568Z" fill="white"/>
<path d="M77.5664 38.6883C77.5664 38.6883 78.4284 39.9384 78.2868 40.9617C78.146 41.9849 76.8682 42.5294 76.8682 42.5294C76.8682 42.5294 76.145 41.6692 76.2977 40.5663C76.4514 39.4644 77.5664 38.6883 77.5664 38.6883Z" fill="white"/>
<path d="M85.183 44.2996C85.183 44.2996 86.4516 45.1358 86.7053 46.1368C86.9572 47.1387 85.9766 48.1221 85.9766 48.1221C85.9766 48.1221 84.9839 47.5962 84.7107 46.5165C84.4394 45.4386 85.183 44.2996 85.183 44.2996Z" fill="white"/>
<path d="M49.6133 46.2096C49.6133 46.2096 49.8643 47.7079 49.304 48.5747C48.7419 49.4424 47.353 49.3933 47.353 49.3933C47.353 49.3933 47.0631 48.3062 47.6687 47.3728C48.2725 46.4394 49.6133 46.2096 49.6133 46.2096Z" fill="white"/>
<path d="M50.1194 49.3943C50.1194 49.3943 50.3704 50.8917 49.8092 51.7584C49.2471 52.626 47.8581 52.5769 47.8581 52.5769C47.8581 52.5769 47.5692 51.4907 48.1739 50.5564C48.7786 49.6239 50.1194 49.3943 50.1194 49.3943Z" fill="white"/>
<path d="M41.0417 46.6395C41.0417 46.6395 41.5806 48.0591 41.1991 49.0192C40.8185 49.9795 39.4462 50.2036 39.4462 50.2036C39.4462 50.2036 38.9499 49.1942 39.3619 48.1589C39.7712 47.1265 41.0417 46.6395 41.0417 46.6395Z" fill="white"/>
<path d="M41.7892 50.0232C41.7892 50.0232 42.329 51.4427 41.9484 52.402C41.5669 53.3632 40.1955 53.5883 40.1955 53.5883C40.1955 53.5883 39.6983 52.5771 40.1103 51.5446C40.5196 50.5102 41.7892 50.0232 41.7892 50.0232Z" fill="white"/>
<path d="M42.9114 53.047C42.9114 53.047 43.4504 54.4657 43.0698 55.4269C42.6883 56.3863 41.3178 56.6104 41.3178 56.6104C41.3178 56.6104 40.8205 55.6019 41.2317 54.5676C41.6419 53.5333 42.9114 53.047 42.9114 53.047Z" fill="white"/>
<path d="M50.5937 52.0984C50.5937 52.0984 51.2456 53.4707 50.9428 54.4588C50.6419 55.4468 49.2918 55.7802 49.2918 55.7802C49.2918 55.7802 48.7158 54.8144 49.0417 53.7504C49.3668 52.6874 50.5937 52.0984 50.5937 52.0984Z" fill="white"/>
<path d="M51.409 55.2238C51.409 55.2238 52.2063 56.5165 52.0136 57.5315C51.8192 58.5454 50.5135 59.0242 50.5135 59.0242C50.5135 59.0242 49.8366 58.125 50.0459 57.0323C50.2533 55.9406 51.409 55.2238 51.409 55.2238Z" fill="white"/>
<path d="M52.5735 57.8918C52.5735 57.8918 53.5866 59.0234 53.5745 60.0559C53.5643 61.0884 52.3624 61.7903 52.3624 61.7903C52.3624 61.7903 51.5383 61.0264 51.5512 59.9143C51.5624 58.8012 52.5735 57.8918 52.5735 57.8918Z" fill="white"/>
<path d="M54.6614 59.9162C54.6614 59.9162 55.4578 61.2088 55.2642 62.2228C55.0698 63.2386 53.7651 63.7155 53.7651 63.7155C53.7651 63.7155 53.0881 62.8173 53.2965 61.7246C53.5049 60.6329 54.6614 59.9162 54.6614 59.9162Z" fill="white"/>
<path d="M44.4254 56.1534C44.4254 56.1534 45.0866 57.522 44.7903 58.511C44.493 59.5009 43.1466 59.8417 43.1466 59.8417C43.1466 59.8417 42.5642 58.8805 42.8836 57.8137C43.2031 56.7498 44.4254 56.1534 44.4254 56.1534Z" fill="white"/>
<path d="M46.2677 58.3852C46.2677 58.3852 46.9279 59.7538 46.6325 60.7429C46.3362 61.7328 44.9889 62.0745 44.9889 62.0745C44.9889 62.0745 44.4064 61.1124 44.7259 60.0456C45.0454 58.9816 46.2677 58.3852 46.2677 58.3852Z" fill="white"/>
<path d="M48.3449 60.6912C48.3449 60.6912 49.0061 62.0598 48.7098 63.0488C48.4134 64.0387 47.0661 64.3804 47.0661 64.3804C47.0661 64.3804 46.4837 63.4183 46.8031 62.3525C47.1226 61.2876 48.3449 60.6912 48.3449 60.6912Z" fill="white"/>
<path d="M50.4243 62.5355C50.4243 62.5355 51.0855 63.9032 50.7892 64.8921C50.4919 65.882 49.1455 66.2246 49.1455 66.2246C49.1455 66.2246 48.5631 65.2616 48.8825 64.1957C49.202 63.1318 50.4243 62.5355 50.4243 62.5355Z" fill="white"/>
<path d="M65.8058 64.2867C65.8058 64.2867 67.4429 56.3055 67.3401 50.8319C67.2392 45.3602 66.8355 41.4774 66.8355 41.4774" stroke="white" stroke-width="0.925981" stroke-miterlimit="10"/>
<path d="M49.3828 68.0686C49.3828 68.0686 43.0285 62.4876 40.4302 57.6705C37.8309 52.8534 37.2864 48.704 37.2864 48.704" stroke="white" stroke-width="0.925981" stroke-miterlimit="10"/>
<path d="M53.0987 64.8754C53.0987 64.8754 48.1807 57.9952 46.7472 52.7133C45.3119 47.4305 45.7249 43.2653 45.7249 43.2653" stroke="white" stroke-width="0.925981" stroke-miterlimit="10"/>
<path d="M52.87 41.1763C52.87 41.1763 54.2655 41.7772 54.6886 42.7199C55.1118 43.6617 54.3192 44.8025 54.3192 44.8025C54.3192 44.8025 53.2487 44.4562 52.7922 43.4403C52.3357 42.4264 52.87 41.1763 52.87 41.1763Z" fill="white"/>
<path d="M52.5269 45.1063C52.5269 45.1063 53.9224 45.7073 54.3456 46.6491C54.7697 47.5908 53.9761 48.7316 53.9761 48.7316C53.9761 48.7316 52.9056 48.3862 52.4491 47.3713C51.9935 46.3574 52.5269 45.1063 52.5269 45.1063Z" fill="white"/>
<path d="M52.0187 48.7188C52.0187 48.7188 53.4855 49.1095 54.043 49.98C54.5995 50.8504 53.9791 52.095 53.9791 52.095C53.9791 52.095 52.8697 51.9079 52.2715 50.9699C51.6724 50.0337 52.0187 48.7188 52.0187 48.7188Z" fill="white"/>
<path d="M59.6608 41.6083C59.6608 41.6083 58.1903 41.9898 57.6273 42.8575C57.0653 43.7223 57.6746 44.9706 57.6746 44.9706C57.6746 44.9706 58.7867 44.7928 59.3923 43.8575C59.997 42.9251 59.6608 41.6083 59.6608 41.6083Z" fill="white"/>
<path d="M59.4004 45.5447C59.4004 45.5447 57.9299 45.9253 57.3678 46.793C56.8057 47.6578 57.415 48.9061 57.415 48.9061C57.415 48.9061 58.5253 48.7283 59.1328 47.794C59.7365 46.8624 59.4004 45.5447 59.4004 45.5447Z" fill="white"/>
<path d="M59.3517 49.1911C59.3517 49.1911 57.8414 49.354 57.1589 50.1291C56.4756 50.9051 56.8987 52.2292 56.8987 52.2292C56.8987 52.2292 58.0229 52.2135 58.7581 51.3773C59.4925 50.5439 59.3517 49.1911 59.3517 49.1911Z" fill="white"/>
<path d="M70.5236 41.0768C70.5236 41.0768 69.0865 41.5703 68.591 42.4769C68.0984 43.3843 68.8022 44.5826 68.8022 44.5826C68.8022 44.5826 69.8958 44.3187 70.4282 43.3408C70.9607 42.3639 70.5236 41.0768 70.5236 41.0768Z" fill="white"/>
<path d="M70.5638 45.0217C70.5638 45.0217 69.1257 45.5134 68.6322 46.4208C68.1386 47.3283 68.8433 48.5256 68.8433 48.5256C68.8433 48.5256 69.9341 48.2626 70.4694 47.2839C71 46.3088 70.5638 45.0217 70.5638 45.0217Z" fill="white"/>
<path d="M70.7968 48.6617C70.7968 48.6617 69.304 48.9404 68.6836 49.7655C68.0623 50.5915 68.5855 51.8795 68.5855 51.8795C68.5855 51.8795 69.7041 51.7777 70.3745 50.8869C71.0421 49.9997 70.7968 48.6617 70.7968 48.6617Z" fill="white"/>
<path d="M81.2085 43.279C81.2085 43.279 79.7056 43.5068 79.0575 44.3105C78.4102 45.1152 78.8852 46.42 78.8852 46.42C78.8852 46.42 80.0103 46.3561 80.7085 45.4884C81.4086 44.6235 81.2085 43.279 81.2085 43.279Z" fill="white"/>
<path d="M80.5436 47.1667C80.5436 47.1667 79.0425 47.3945 78.3953 48.1983C77.7453 49.002 78.224 50.3068 78.224 50.3068C78.224 50.3068 79.3454 50.2438 80.0464 49.3761C80.7437 48.5113 80.5436 47.1667 80.5436 47.1667Z" fill="white"/>
<path d="M80.1201 50.7897C80.1201 50.7897 78.5996 50.7962 77.8431 51.4981C77.0838 52.1991 77.3662 53.5594 77.3662 53.5594C77.3662 53.5594 78.4867 53.6603 79.3052 52.9028C80.1211 52.1491 80.1201 50.7897 80.1201 50.7897Z" fill="white"/>
<path d="M89.3333 48.8268C89.3333 48.8268 87.8156 48.7731 87.0303 49.4435C86.2441 50.114 86.4737 51.4854 86.4737 51.4854C86.4737 51.4854 87.5896 51.6298 88.435 50.9066C89.2813 50.1843 89.3333 48.8268 89.3333 48.8268Z" fill="white"/>
<path d="M87.9633 52.5261C87.9633 52.5261 86.4446 52.4724 85.6602 53.1428C84.8722 53.8132 85.1009 55.1837 85.1009 55.1837C85.1009 55.1837 86.2186 55.3282 87.065 54.6059C87.9076 53.8845 87.9633 52.5261 87.9633 52.5261Z" fill="white"/>
<path d="M86.8792 56.0094C86.8792 56.0094 85.3846 55.7353 84.5077 56.2844C83.6336 56.8345 83.6604 58.2235 83.6604 58.2235C83.6604 58.2235 84.7438 58.5281 85.6874 57.9364C86.6282 57.3465 86.8792 56.0094 86.8792 56.0094Z" fill="white"/>
<path d="M85.6425 59.1263C85.6425 59.1263 84.1989 58.6476 83.2571 59.0708C82.3154 59.494 82.1505 60.8746 82.1505 60.8746C82.1505 60.8746 83.1812 61.3265 84.1961 60.87C85.21 60.4144 85.6425 59.1263 85.6425 59.1263Z" fill="white"/>
<path d="M83.2879 62.292C83.2879 62.292 81.8433 61.8151 80.9044 62.2373C79.9589 62.6596 79.796 64.0402 79.796 64.0402C79.796 64.0402 80.8266 64.4921 81.8415 64.0365C82.8536 63.5819 83.2879 62.292 83.2879 62.292Z" fill="white"/>
<path d="M81.3864 65.3687C81.3864 65.3687 80.0733 64.6029 79.0638 64.8224C78.0545 65.0409 77.61 66.3567 77.61 66.3567C77.61 66.3567 78.5231 67.0105 79.613 66.7753C80.6973 66.5419 81.3864 65.3687 81.3864 65.3687Z" fill="white"/>
<path d="M78.9428 67.5392C78.9428 67.5392 77.6297 66.7743 76.6186 66.9938C75.6092 67.2132 75.1666 68.5281 75.1666 68.5281C75.1666 68.5281 76.0778 69.1828 77.1658 68.9467C78.2539 68.7133 78.9428 67.5392 78.9428 67.5392Z" fill="white"/>
<path d="M79.5102 54.4086C79.5102 54.4086 78.0064 54.1817 77.1498 54.7577C76.2905 55.3346 76.3636 56.7226 76.3636 56.7226C76.3636 56.7226 77.4545 56.993 78.3777 56.3717C79.3 55.7522 79.5102 54.4086 79.5102 54.4086Z" fill="white"/>
<path d="M77.7231 57.9257C77.7231 57.9257 76.2211 57.6988 75.3618 58.2748C74.5053 58.8517 74.5775 60.2389 74.5775 60.2389C74.5775 60.2389 75.6683 60.5102 76.5934 59.8898C77.5138 59.2693 77.7231 57.9257 77.7231 57.9257Z" fill="white"/>
<path d="M75.324 62.0146C75.324 62.0146 73.8739 61.571 72.9405 62.0165C72.0098 62.4628 71.8756 63.8453 71.8756 63.8453C71.8756 63.8453 72.9155 64.2731 73.9202 63.7916C74.9221 63.3138 75.324 62.0146 75.324 62.0146Z" fill="white"/>
<path d="M70.9471 52.8352C70.9471 52.8352 69.447 53.0778 68.8052 53.889C68.1653 54.6983 68.6552 55.9993 68.6552 55.9993C68.6552 55.9993 69.7794 55.9243 70.4683 55.0493C71.1591 54.177 70.9471 52.8352 70.9471 52.8352Z" fill="white"/>
<path d="M70.3203 56.7293C70.3203 56.7293 68.822 56.971 68.1795 57.7813C67.5387 58.5915 68.0304 59.8916 68.0304 59.8916C68.0304 59.8916 69.1518 59.8166 69.8426 58.9443C70.5315 58.072 70.3203 56.7293 70.3203 56.7293Z" fill="white"/>
<path d="M69.9307 60.3566C69.9307 60.3566 68.4102 60.3779 67.6611 61.0872C66.9073 61.7947 67.2055 63.1522 67.2055 63.1522C67.2055 63.1522 68.3269 63.242 69.1381 62.479C69.9465 61.7178 69.9307 60.3566 69.9307 60.3566Z" fill="white"/>
<path d="M59.1484 52.3207C59.1484 52.3207 57.7038 52.7938 57.1982 53.6958C56.6927 54.5958 57.3816 55.8033 57.3816 55.8033C57.3816 55.8033 58.4789 55.5533 59.0225 54.5819C59.5679 53.6124 59.1484 52.3207 59.1484 52.3207Z" fill="white"/>
<path d="M59.3813 56.1449C59.3813 56.1449 58.0006 56.7746 57.5969 57.7265C57.1941 58.6766 58.0117 59.7998 58.0117 59.7998C58.0117 59.7998 59.0739 59.4322 59.5082 58.4062C59.9415 57.3839 59.3813 56.1449 59.3813 56.1449Z" fill="white"/>
<path d="M59.9679 59.7446C59.9679 59.7446 58.5094 60.1678 57.9714 61.0503C57.4343 61.9318 58.0816 63.1634 58.0816 63.1634C58.0816 63.1634 59.1854 62.9523 59.7632 62.0003C60.342 61.0521 59.9679 59.7446 59.9679 59.7446Z" fill="white"/>
<path d="M63.7497 41.7099C63.7497 41.7099 65.1979 42.1683 65.7146 43.0628C66.2323 43.9573 65.5563 45.1722 65.5563 45.1722C65.5563 45.1722 64.458 44.9361 63.9006 43.9703C63.345 43.0073 63.7497 41.7099 63.7497 41.7099Z" fill="white"/>
<path d="M63.8047 45.6527C63.8047 45.6527 65.2521 46.1101 65.7706 47.0047C66.2882 47.8992 65.6104 49.1141 65.6104 49.1141C65.6104 49.1141 64.5131 48.8779 63.9557 47.9131C63.4001 46.95 63.8047 45.6527 63.8047 45.6527Z" fill="white"/>
<path d="M63.6607 49.299C63.6607 49.299 65.1608 49.5398 65.8016 50.3501C66.4442 51.1594 65.9525 52.4613 65.9525 52.4613C65.9525 52.4613 64.8311 52.3863 64.1412 51.514C63.4505 50.6426 63.6607 49.299 63.6607 49.299Z" fill="white"/>
<path d="M74.3435 42.9381C74.3435 42.9381 75.7001 43.6224 76.064 44.5891C76.4307 45.5549 75.5686 46.6458 75.5686 46.6458C75.5686 46.6458 74.5222 46.2365 74.1296 45.1938C73.736 44.1539 74.3435 42.9381 74.3435 42.9381Z" fill="white"/>
<path d="M73.7654 46.8406C73.7654 46.8406 75.122 47.524 75.4868 48.4907C75.8526 49.4566 74.9905 50.5474 74.9905 50.5474C74.9905 50.5474 73.9432 50.1371 73.5515 49.0954C73.157 48.0564 73.7654 46.8406 73.7654 46.8406Z" fill="white"/>
<path d="M73.0391 50.271C73.0391 50.271 74.4818 50.7506 74.9846 51.6525C75.4875 52.5545 74.792 53.7601 74.792 53.7601C74.792 53.7601 73.6975 53.5055 73.1558 52.5341C72.6132 51.5637 73.0391 50.271 73.0391 50.271Z" fill="white"/>
<path d="M83.0993 47.5139C83.0993 47.5139 84.2467 48.5094 84.3652 49.5363C84.4837 50.5623 83.3827 51.4096 83.3827 51.4096C83.3827 51.4096 82.466 50.7568 82.34 49.6493C82.2132 48.5455 83.0993 47.5139 83.0993 47.5139Z" fill="white"/>
<path d="M81.5832 51.156C81.5832 51.156 82.7324 52.1496 82.8518 53.1775C82.9695 54.2026 81.8684 55.0499 81.8684 55.0499C81.8684 55.0499 80.9526 54.397 80.8258 53.2905C80.6989 52.1867 81.5832 51.156 81.5832 51.156Z" fill="white"/>
<path d="M80.0078 54.4445C80.0078 54.4445 81.2884 55.2622 81.5533 56.2585C81.8218 57.2577 80.8523 58.2568 80.8523 58.2568C80.8523 58.2568 79.8541 57.7429 79.5642 56.6678C79.279 55.5946 80.0078 54.4445 80.0078 54.4445Z" fill="white"/>
<path d="M78.6738 57.0723C78.6738 57.0723 79.7183 58.177 79.7331 59.2096C79.7489 60.243 78.5664 60.9764 78.5664 60.9764C78.5664 60.9764 77.7228 60.2337 77.7052 59.1216C77.6876 58.0104 78.6738 57.0723 78.6738 57.0723Z" fill="white"/>
<path d="M77.1513 59.8547C77.1513 59.8547 77.9282 61.1622 77.7143 62.1715C77.5051 63.1845 76.192 63.6411 76.192 63.6411C76.192 63.6411 75.5308 62.7308 75.7568 61.6418C75.9827 60.5538 77.1513 59.8547 77.1513 59.8547Z" fill="white"/>
<path d="M72.3996 53.1507C72.3996 53.1507 73.6923 53.9498 73.9711 54.9434C74.2535 55.937 73.2997 56.9501 73.2997 56.9501C73.2997 56.9501 72.2931 56.45 71.9903 55.3787C71.6857 54.3091 72.3996 53.1507 72.3996 53.1507Z" fill="white"/>
<path d="M71.2901 55.9987C71.2901 55.9987 72.4652 56.9627 72.6106 57.985C72.7559 59.0082 71.6781 59.8842 71.6781 59.8842C71.6781 59.8842 70.7447 59.2545 70.5872 58.1526C70.4307 57.0525 71.2901 55.9987 71.2901 55.9987Z" fill="white"/>
<path d="M63.7497 52.6065C63.7497 52.6065 65.184 53.1084 65.6702 54.0196C66.16 54.9299 65.447 56.1235 65.447 56.1235C65.447 56.1235 64.3553 55.8531 63.8274 54.8715C63.3052 53.8918 63.7497 52.6065 63.7497 52.6065Z" fill="white"/>
<path d="M63.4511 56.435C63.4511 56.435 64.8197 57.0906 65.2068 58.049C65.5929 59.0055 64.754 60.114 64.754 60.114C64.754 60.114 63.7002 59.726 63.2835 58.6944C62.8677 57.6638 63.4511 56.435 63.4511 56.435Z" fill="white"/>
<path d="M62.7989 60.022C62.7989 60.022 64.2518 60.4711 64.7722 61.3619C65.2945 62.2537 64.6268 63.4741 64.6268 63.4741C64.6268 63.4741 63.5249 63.2436 62.9637 62.2824C62.4016 61.324 62.7989 60.022 62.7989 60.022Z" fill="white"/>
<path d="M57.1791 64.3799C57.1791 64.3799 55.5428 56.3987 55.6447 50.926C55.7465 45.4533 56.1494 41.5696 56.1494 41.5696" stroke="white" stroke-width="0.925981" stroke-miterlimit="10"/>
<path d="M12.2213 103.145C19.4161 100.592 43.3388 92.1063 53.6635 91.0192" stroke="white" stroke-width="0.925981" stroke-miterlimit="10"/>
<path d="M19.5283 93.1249C18.4458 84.0557 15.7697 77.1532 20.9043 76.8801" stroke="white" stroke-width="0.925981" stroke-miterlimit="10"/>
<path d="M35.8474 90.9863C34.5566 81.9448 35.3641 74.5858 30.3312 75.6452" stroke="white" stroke-width="0.925981" stroke-miterlimit="10"/>
<path d="M22.9752 92.6718C22.5409 89.064 20.9981 87.8213 26.9811 87.0805C32.9649 86.3388 31.9565 88.0612 32.4028 91.4365" stroke="white" stroke-width="0.925981" stroke-miterlimit="10"/>
<path d="M19.3424 69.7877C20.261 68.7645 21.488 68.445 21.8648 70.3146C23.5724 78.7931 19.0535 83.0518 26.3374 81.7794C33.6214 80.508 29.3108 77.5911 26.1967 69.0997" stroke="white" stroke-width="0.925981" stroke-miterlimit="10"/>
<path d="M26.5326 67.6875C29.3495 67.5115 29.969 69.5524 28.029 70.0219" stroke="white" stroke-width="0.925981" stroke-miterlimit="10"/>
<path d="M23.7862 80.8286C23.8843 78.4405 25.3631 78.7238 25.6076 80.5897" stroke="white" stroke-width="0.925981" stroke-miterlimit="10"/>
<path d="M26.7337 80.2696C26.8319 77.8814 28.3107 78.1648 28.5552 80.0307" stroke="white" stroke-width="0.925981" stroke-miterlimit="10"/>
<path d="M24.7306 88.0345C25.2482 89.8318 26.0826 89.7985 27.1789 89.655C27.941 89.5549 29.3763 88.7077 29.1245 87.4594" stroke="white" stroke-width="0.925981" stroke-miterlimit="10"/>
<path d="M21.3218 67.2364C17.8354 62.8953 17.8262 58.9125 22.8108 66.3113" stroke="white" stroke-width="0.925981" stroke-miterlimit="10"/>
<path d="M24.036 65.6758C25.4436 60.2902 28.6364 57.9085 25.6658 66.3212" stroke="white" stroke-width="0.925981" stroke-miterlimit="10"/>
<path d="M40.3429 83.9413L38.4122 84.1941C38.4122 84.1941 37.013 82.3384 34.6211 81.7207" stroke="white" stroke-width="0.925981" stroke-miterlimit="10"/>
<path d="M39.9257 86.0419L38.3886 84.3464L38.0015 86.7836" stroke="white" stroke-width="0.925981" stroke-miterlimit="10"/>
<path d="M114.536 102.275C107.341 99.7217 83.419 91.236 73.0943 90.1489" stroke="white" stroke-width="0.925981" stroke-miterlimit="10"/>
<path d="M93.24 92.0026C95.743 75.2947 102.145 75.0577 104.737 92.0026" stroke="white" stroke-width="0.925981" stroke-miterlimit="10"/>
<path d="M97.3903 92.3224C97.807 85.5598 100.123 85.6931 100.585 92.3224" stroke="white" stroke-width="0.925981" stroke-miterlimit="10"/>
<path d="M101.754 73.123L110.429 64.4547L108.796 62.8203L100.121 71.4877L101.754 73.123Z" stroke="white" stroke-width="0.925981" stroke-miterlimit="10"/>
<path d="M99.7366 73.5105C100.15 73.9235 100.15 74.594 99.7385 75.0069C99.3246 75.4209 98.6532 75.4209 98.2411 75.0069C97.8263 74.594 97.8263 73.9226 98.2411 73.5096C98.6532 73.0966 99.3245 73.0967 99.7366 73.5105Z" fill="white"/>
<path d="M89.1808 85.6989L97.8556 77.0315L96.2221 75.3961L87.5464 84.0635L89.1808 85.6989Z" stroke="white" stroke-width="0.925981" stroke-miterlimit="10"/>
<path d="M100.124 77.0256L108.791 85.7004L110.427 84.0669L101.76 75.3912L100.124 77.0256Z" stroke="white" stroke-width="0.925981" stroke-miterlimit="10"/>
<path d="M87.5503 64.4519L96.2168 73.1267L97.853 71.4932L89.1866 62.8175L87.5503 64.4519Z" stroke="white" stroke-width="0.925981" stroke-miterlimit="10"/>
</g>
<mask id="mask6_3_147" style="mask-type:luminance" maskUnits="userSpaceOnUse" x="0" y="1" width="127" height="145">
<path d="M0.212097 145.215H126.203V1.22562H0.212097V145.215Z" fill="white"/>
</mask>
<g mask="url(#mask6_3_147)">
<path d="M63.2055 6.36052L5.33353 39.6949V106.366L63.2073 139.702L121.08 106.366V39.6949L63.2083 6.36052H63.2055Z" stroke="#EC008C" stroke-width="0.231495" stroke-miterlimit="10"/>
</g>
</svg>
