<?xml version="1.0" encoding="UTF-8" standalone="no"?>
<!-- Generator: Adobe Illustrator 16.0.4, SVG Export Plug-In . SVG Version: 6.00 Build 0)  -->

<svg
   xmlns:dc="http://purl.org/dc/elements/1.1/"
   xmlns:cc="http://creativecommons.org/ns#"
   xmlns:rdf="http://www.w3.org/1999/02/22-rdf-syntax-ns#"
   xmlns:svg="http://www.w3.org/2000/svg"
   xmlns="http://www.w3.org/2000/svg"
   xmlns:sodipodi="http://sodipodi.sourceforge.net/DTD/sodipodi-0.dtd"
   xmlns:inkscape="http://www.inkscape.org/namespaces/inkscape"
   version="1.1"
   id="Ebene_1"
   x="0px"
   y="0px"
   width="198.425px"
   height="198.425px"
   viewBox="0 0 198.425 198.425"
   enable-background="new 0 0 198.425 198.425"
   xml:space="preserve"
   sodipodi:docname="CodeFor-kaiserslautern.svg"
   inkscape:version="0.92.5 (2060ec1f9f, 2020-04-08)"
   inkscape:export-filename="/home/fnogatz/tmp/CodeFor-kaiserslautern/CodeFor-kaiserslautern.png"
   inkscape:export-xdpi="304.76001"
   inkscape:export-ydpi="304.76001"><metadata
   id="metadata117"><rdf:RDF><cc:Work
       rdf:about=""><dc:format>image/svg+xml</dc:format><dc:type
         rdf:resource="http://purl.org/dc/dcmitype/StillImage" /><dc:title /></cc:Work></rdf:RDF></metadata><defs
   id="defs115" /><sodipodi:namedview
   pagecolor="#ffffff"
   bordercolor="#666666"
   borderopacity="1"
   objecttolerance="10"
   gridtolerance="10"
   guidetolerance="10"
   inkscape:pageopacity="0"
   inkscape:pageshadow="2"
   inkscape:window-width="1920"
   inkscape:window-height="1043"
   id="namedview113"
   showgrid="false"
   inkscape:zoom="1.9374726"
   inkscape:cx="-125.20296"
   inkscape:cy="142.80983"
   inkscape:window-x="0"
   inkscape:window-y="406"
   inkscape:window-maximized="1"
   inkscape:current-layer="text5349" />
<polygon
   points="36.642,135.231 39.267,136.731 96.59,169.744 99.189,171.239 101.787,169.744 158.928,136.731 161.357,135.231 161.357,132.226 161.357,66.199 161.357,63.193 158.929,61.693 101.702,28.681 99.151,27.186 96.578,28.681 39.254,61.693 36.642,63.193 36.642,66.199 36.642,132.226 "
   id="polygon2"
   style="display:inline;fill:#57cfc8;fill-opacity:1" />
<polygon
   stroke-miterlimit="10"
   points="36.713,135.213 36.713,63.212 99.213,27.212 161.713,63.212 161.713,135.213 99.213,171.213 "
   id="polygon4"
   style="display:inline;fill:none;fill-opacity:1;stroke:#57cfc8;stroke-miterlimit:10;stroke-opacity:1" />
<polygon
   stroke-miterlimit="10"
   points="40.713,133.046 40.713,65.378 99.213,31.546 157.713,65.378 157.713,133.046 99.213,166.88 "
   id="polygon6"
   style="display:inline;fill:none;fill-opacity:1;stroke:#ffffff;stroke-width:2;stroke-miterlimit:10" />








<rect
   x="75.941002"
   y="57.924999"
   width="47.558998"
   height="12"
   id="rect24"
   style="display:inline;fill:#57cfc8;fill-opacity:1" />
<rect
   x="68.526711"
   y="57.979542"
   stroke-miterlimit="10"
   width="60.445229"
   height="11.890915"
   id="rect26"
   style="display:inline;fill:none;stroke:#ffffff;stroke-width:1.10908484;stroke-miterlimit:10" />

<g
   id="g110"
   style="display:inline">
	
	
	
	
	
	
	
	
	
	
	
	
	
	
	
	
	
	
	
	
	
	
	
	
	<path
   d="m 97.041,50.332 c -0.187,-0.121 -0.324,-0.162 -0.486,-0.162 -0.287,0 -0.444,0.18 -0.444,0.569 v 0.198 h 1.174 v 0.456 h -1.174 v 2.566 h -0.504 v -2.566 h -0.851 v -0.456 h 0.851 v -0.185 c 0,-0.732 0.354,-1.038 0.93,-1.038 0.275,0 0.461,0.071 0.629,0.174 z"
   id="path78"
   inkscape:connector-curvature="0"
   style="fill:#ffffff" />
	<path
   d="m 99.465,50.889 c 0.924,0 1.486,0.726 1.486,1.559 0,0.833 -0.562,1.56 -1.486,1.56 -0.924,0 -1.488,-0.727 -1.488,-1.56 0,-0.833 0.564,-1.559 1.488,-1.559 m 0,2.663 c 0.617,0 0.971,-0.522 0.971,-1.104 0,-0.581 -0.354,-1.103 -0.971,-1.103 -0.617,0 -0.971,0.522 -0.971,1.103 0,0.582 0.354,1.104 0.971,1.104"
   id="path80"
   inkscape:connector-curvature="0"
   style="fill:#ffffff" />
	<path
   d="m 103.873,51.896 c -0.041,-0.348 -0.221,-0.552 -0.582,-0.552 -0.527,0 -1.025,0.498 -1.025,1.524 v 1.091 h -0.502 v -3.022 h 0.502 v 0.557 c 0.234,-0.366 0.613,-0.606 1.117,-0.606 0.6,0 0.959,0.361 0.994,1.008 z"
   id="path82"
   inkscape:connector-curvature="0"
   style="fill:#ffffff" />
	<polygon
   points="95.52,40.766 95.52,40.867 95.52,47.241 96.053,47.241 96.202,47.241 96.329,47.241 96.329,40.766 "
   id="polygon84"
   style="fill:#ffffff" />
	<path
   d="m 98.729,47.848 c 0.057,0 0.129,-0.051 0.129,-0.105 v -7.584 c 0,-0.055 -0.072,-0.101 -0.129,-0.101 h -2.527 c -0.055,0 -0.075,0.022 -0.075,0.051 v 0.151 0.506 c 0,0.055 0.02,0.102 0.075,0.102 h 1.718 c 0.057,0 0.129,0.044 0.129,0.099 v 5.967 c 0,0.055 -0.072,0.104 -0.129,0.104 h -1.718 c -0.055,0 -0.075,0.019 -0.075,0.047 v 0.152 0.506 c 0,0.054 0.02,0.105 0.075,0.105 z"
   id="path86"
   inkscape:connector-curvature="0"
   style="fill:#ffffff" />
	<polygon
   points="99.869,40.766 99.869,40.867 99.869,47.241 100.549,47.241 100.68,47.241 100.68,40.766 "
   id="polygon88"
   style="fill:#ffffff" />
	<path
   d="m 100.578,47.844 v -0.81 c 1.113,0 1.889,-1.383 1.889,-3.084 0,-1.7 -0.775,-3.084 -1.889,-3.084 v -0.808 c 1.518,0 2.697,1.746 2.697,3.892 0,2.147 -1.179,3.894 -2.697,3.894"
   id="path90"
   inkscape:connector-curvature="0"
   style="fill:#ffffff" />
	<path
   d="m 92.182,45.355 v 1.115 0.36 c 0,0.605 0.387,1.017 0.998,1.017 h 0.172 0.496 0.584 c 0.029,0 0.076,-0.051 0.076,-0.105 v -0.608 c 0,-0.054 -0.07,-0.096 -0.127,-0.096 h -0.58 -0.297 -0.183 c -0.262,0 -0.33,-0.112 -0.33,-0.411 V 46.45 45.476 44.882 c 0,-0.609 -0.248,-0.834 -0.551,-0.945 0.303,-0.109 0.551,-0.334 0.551,-0.943 v -0.422 -1.07 -0.252 c 0,-0.294 0.058,-0.382 0.33,-0.382 h 0.228 0.289 0.594 c 0.029,0 0.076,-0.047 0.076,-0.102 v -0.607 c 0,-0.055 -0.07,-0.101 -0.127,-0.101 H 93.895 93.438 93.18 c -0.611,0 -0.998,0.397 -0.998,0.989 v 0.317 1.323 c 0,0 -0.021,0.304 -0.035,0.407 -0.039,0.274 -0.373,0.508 -0.582,0.505 h -0.317 c -0.056,0 -0.078,0.043 -0.078,0.099 v 0.607 c 0,0.055 0.022,0.104 0.078,0.104 h 0.289 c 0.266,-0.004 0.6,0.218 0.625,0.552 0.007,0.096 0.02,0.394 0.02,0.394"
   id="path92"
   inkscape:connector-curvature="0"
   style="fill:#ffffff" />
	<path
   d="m 96.201,40.058 h -0.287 -0.318 c -0.057,0 -0.077,0.046 -0.077,0.101 v 0.187 0.42 0.102 h 0.077 0.605 0.127 v -0.102 -0.607 -0.101 z"
   id="path94"
   inkscape:connector-curvature="0"
   style="fill:#ffffff" />
	<path
   d="m 95.52,47.135 v 0.287 0.32 c 0,0.055 0.02,0.106 0.076,0.106 h 0.186 0.42 0.127 V 47.742 47.135 47.038 H 96.202 95.596 95.52 Z"
   id="path96"
   inkscape:connector-curvature="0"
   style="fill:#ffffff" />
	<path
   d="m 100.549,40.058 h -0.285 -0.32 c -0.057,0 -0.074,0.046 -0.074,0.101 v 0.187 0.42 0.102 h 0.074 0.605 0.131 v -0.102 -0.607 -0.101 z"
   id="path98"
   inkscape:connector-curvature="0"
   style="fill:#ffffff" />
	<path
   d="m 99.869,47.135 v 0.287 0.32 c 0,0.055 0.018,0.106 0.074,0.106 h 0.186 0.42 0.131 v -0.106 -0.607 -0.097 h -0.131 -0.605 -0.074 v 0.097 z"
   id="path100"
   inkscape:connector-curvature="0"
   style="fill:#ffffff" />
	<path
   d="m 104.928,45.355 v 1.115 0.36 c 0,0.605 0.381,1.017 0.992,1.017 h 0.172 0.496 0.584 c 0.026,0 0.082,-0.051 0.082,-0.105 v -0.608 c 0,-0.054 -0.076,-0.096 -0.133,-0.096 h -0.58 -0.297 -0.184 c -0.262,0 -0.324,-0.112 -0.324,-0.411 V 46.45 45.476 44.882 c 0,-0.195 -0.057,-0.373 -0.102,-0.474 h -1.357 c 0.373,0.101 0.531,0.234 0.609,0.558 0.038,0.162 0.042,0.389 0.042,0.389"
   id="path102"
   inkscape:connector-curvature="0"
   style="fill:#ffffff" />
	<path
   d="m 104.871,43.094 c -0.078,0.265 -0.254,0.403 -0.566,0.505 h 1.275 c 0.078,-0.202 0.156,-0.337 0.156,-0.606 v -0.42 -1.07 -0.254 c 0,-0.294 0.053,-0.382 0.324,-0.382 h 0.229 0.289 0.594 c 0.027,0 0.082,-0.046 0.082,-0.101 v -0.608 c 0,-0.054 -0.076,-0.1 -0.133,-0.1 h -0.486 -0.457 -0.258 c -0.612,0 -0.992,0.396 -0.992,0.989 v 0.317 1.323 c 0,0 -0.018,0.274 -0.057,0.407"
   id="path104"
   inkscape:connector-curvature="0"
   style="fill:#ffffff" />
	<path
   d="m 105.068,44.01 c 0.205,0.074 0.428,0.195 0.566,0.398 h 1.486 c 0.057,0 0.134,-0.048 0.134,-0.103 v -0.607 c 0,-0.056 -0.077,-0.1 -0.134,-0.1 h -1.541 c -0.1,0.203 -0.343,0.35 -0.511,0.412"
   id="path106"
   inkscape:connector-curvature="0"
   style="fill:#ffffff" />
	<path
   d="m 103.986,43.599 c -0.055,0 -0.07,0.044 -0.07,0.099 v 0.607 c 0,0.055 0.016,0.104 0.07,0.104 h 0.291 1.357 c -0.092,-0.204 -0.316,-0.342 -0.479,-0.405 0.168,-0.062 0.322,-0.203 0.424,-0.405 h -1.275 z"
   id="path108"
   inkscape:connector-curvature="0"
   style="fill:#ffffff" />
<path
   style="fill:#ffffff;fill-opacity:0.94117647;stroke-width:0.03760899"
   inkscape:connector-curvature="0"
   d="m 93.571218,73.950521 c -0.03513,0.02663 -8.428769,5.164897 -8.477954,5.352158 -0.0013,0.0048 -0.116978,1.762115 -0.0069,1.699965 0.0097,-0.0055 0.106319,0.286302 0.138492,0.02745 0.06154,-0.495138 0.129363,-1.665741 0.129363,-1.665741 1.418204,-0.819665 8.030087,-4.952623 8.022518,-4.892151 -0.08317,0.664499 -0.06729,1.88259 -0.06729,3.221754 0,3.440931 -0.41148,5.444987 -1.08479,5.444987 -0.187041,0 -1.346649,-0.756244 -2.618481,-1.701553 -1.271822,-0.945309 -2.468833,-1.701561 -2.655866,-1.701561 -0.224447,0 -1.870334,1.020936 -3.70326,2.230931 l -3.291789,2.230936 -0.411469,4.688737 c -0.261852,2.571244 -0.78554,8.129673 -1.197017,12.402467 -0.411476,4.27281 -1.00998,10.47403 -1.30923,13.80154 -0.299257,3.32749 -1.234422,12.93184 -2.019963,21.36402 -0.822945,8.43216 -1.384046,15.38965 -1.309231,15.46527 0.336655,0.37812 0.598506,-0.37812 0.785535,-2.34438 l 0.224441,-2.07967 1.533676,-0.22687 c 0.822946,-0.11345 2.431433,-0.34034 3.553633,-0.45376 l 2.019963,-0.26469 -0.261852,1.96625 c -0.149625,1.21 -0.11222,1.92843 0.112221,1.92843 0.22444,0 0.486285,-0.83186 0.635917,-1.89063 0.149624,-1.02092 0.33666,-1.89062 0.486283,-1.89062 0.112221,0 2.394032,0.52938 5.049898,1.13438 2.693282,0.64281 6.191525,1.99994 6.845426,1.13437 h 1.982546 v -1.70155 c 0,-0.94566 0.187042,-1.70157 0.374074,-1.70157 0.224438,0 0.374066,0.79407 0.374066,1.77719 0,2.04188 0.635915,1.81499 0.822948,-0.2647 l 0.112213,-1.32342 6.172101,-0.83187 c 3.40401,-0.41594 8.45391,-1.09657 11.22199,-1.43689 2.7681,-0.3781 6.50877,-0.86966 8.30428,-1.09654 1.83293,-0.26469 3.36661,-0.37813 3.47884,-0.30251 0.11221,0.11344 0.18703,1.62594 0.18703,3.36532 0,1.85281 0.14963,3.13841 0.37407,3.13841 0.22443,0 0.37405,-1.32342 0.37405,-3.21404 0,-1.7772 0.0748,-3.21405 0.14964,-3.21405 0.11222,0 1.90774,0.68062 4.0025,1.51249 4.30178,1.70156 4.18957,1.66374 4.00253,1.09656 -0.0748,-0.22689 -2.01997,-1.13437 -4.33918,-2.04188 -4.22696,-1.62592 -4.22696,-1.62592 -7.03246,-1.21 -1.53367,0.18906 -2.88031,0.2647 -2.99253,0.15127 -0.18704,-0.18906 -0.71071,-13.27217 -1.38405,-34.56056 -0.14961,-4.53748 -0.14961,-4.6131 -1.23442,-5.5206 -0.5985,-0.49156 -4.26436,-3.440936 -8.19206,-6.541554 -5.0873,-4.045928 -7.3691,-5.596236 -8.11725,-5.634053 -0.67332,0 -2.39401,-1.058746 -5.349146,-3.365305 l -4.376573,-3.403114 0.22443,-8.046886 c 0.03926,-0.826741 15.505059,11.33982 17.329959,12.77341 0.0797,0.06258 -0.0436,7.371517 -0.0412,7.529868 0.0228,1.47916 0.31152,0.364003 0.34959,0.129735 0.20428,-1.256646 0.0891,-7.538453 0.087,-7.585598 C 111.53955,86.993202 94.031628,73.92434 93.982718,73.8749 c -0.07485,-0.113437 -0.299254,-0.07562 -0.411477,0.07563 z m -6.995045,8.016232 c 0,0.94531 -0.299254,1.247812 -2.693281,2.533432 -1.49627,0.831873 -2.842907,1.512497 -2.992536,1.588125 -0.18703,0.07563 -0.299249,-0.226875 -0.299249,-0.642815 0,-0.529369 0.822944,-1.361241 2.730687,-2.646863 1.458864,-1.058754 2.805497,-1.890625 2.992528,-1.890625 0.149629,-0.03778 0.261851,0.453749 0.261851,1.058746 z m 7.780588,3.97031 c 5.835439,4.272803 6.546159,5.104675 4.638422,5.142486 -0.299254,0 -3.02994,-1.739372 -6.097287,-3.894683 -5.236933,-3.629989 -5.536188,-3.932491 -5.573585,-5.104675 0,-1.512497 -0.673328,-1.890619 7.03245,3.856872 z m -0.149628,-2.079684 c 0.112223,0.189057 1.832928,1.550305 3.77807,3.062802 1.945155,1.512497 3.553637,2.873746 3.553637,3.100621 0,0.189064 -0.44887,0 -1.00998,-0.41594 -0.598502,-0.453749 -2.506251,-1.852808 -4.301776,-3.17624 -1.795514,-1.285622 -3.291773,-2.457805 -3.291773,-2.64687 0,-0.378123 1.047384,-0.340312 1.271822,0.07563 z m -8.005025,1.172185 c 0,1.058746 -0.26185,1.24781 -2.805504,2.533431 -1.533672,0.756246 -2.880313,1.285622 -3.029938,1.134375 -0.11222,-0.113438 -0.149631,-0.605004 -0.03738,-1.096565 0.149631,-0.604996 1.047394,-1.28562 2.955127,-2.268747 1.496271,-0.756244 2.768102,-1.399058 2.84291,-1.399058 0.03738,-0.03778 0.07485,0.491565 0.07485,1.096564 z m 10.399051,5.36936 c 1.720704,1.285621 2.35662,2.382184 1.758109,3.024996 -0.187024,0.189061 -7.743182,-4.613113 -10.548678,-6.692796 -0.822947,-0.567187 -1.159607,-2.041873 -0.635915,-2.571249 0.224437,-0.226875 4.451392,2.60906 9.426484,6.239049 z m -10.399051,-2.38218 c 0,0.415934 -0.224445,0.983122 -0.523701,1.247806 -0.561088,0.567187 -5.423961,2.760307 -5.610997,2.533433 -0.11222,-0.07561 -0.0748,-0.567187 0.03738,-1.096558 0.14963,-0.718434 0.785541,-1.209999 2.655879,-2.155309 2.955128,-1.39906 3.441415,-1.474687 3.441415,-0.529372 z m 6.920226,3.062805 c 4.226953,2.835934 5.04991,3.554367 5.04991,4.348433 0,0.529364 -0.112222,0.945306 -0.224446,0.945306 -0.149626,0 -10.885345,-6.617172 -11.259411,-6.957484 -0.03738,0 0.03738,-0.529377 0.149628,-1.096563 0.149628,-0.680624 0.374074,-0.983119 0.710733,-0.869682 0.261842,0.113436 2.768091,1.739371 5.573586,3.62999 z m -7.369108,0.567186 c -0.07485,0.340312 -1.421451,1.172182 -3.029943,1.890617 l -2.917718,1.285626 0.112221,-0.945314 c 0.07482,-0.794055 0.598505,-1.172177 2.917716,-2.230929 2.730692,-1.209994 3.179565,-1.209994 2.917724,0 z m 18.030024,-1.172183 c 0,0.831871 -0.78555,1.588123 -2.39404,2.344365 -1.945147,0.907504 -2.842901,0.756254 -2.169583,-0.453747 0.448881,-0.831873 4.563623,-2.533433 4.563623,-1.890618 z m -11.072386,3.667803 c 5.012497,3.176247 5.46138,3.55437 5.46138,4.575306 0,0.794052 -0.149635,1.020932 -0.448883,0.831863 -1.6833,-1.020924 -9.950184,-6.428106 -10.473868,-6.881849 -0.710724,-0.605 -0.935171,-1.96625 -0.33666,-1.96625 0.187033,0 2.805494,1.550308 5.798031,3.44093 z m 20.012566,2.835934 c 6.7332,5.331541 8.15465,6.617181 7.25689,6.579361 -0.29924,-0.0377 -13.95269,-10.13373 -15.14969,-11.23029 -0.82295,-0.718435 -0.89776,-1.777181 -0.14964,-1.512497 0.29927,0.113438 3.9277,2.911558 8.04244,6.163426 z m -9.20203,-3.100625 c -0.14963,0.680624 -0.67333,1.134376 -1.98256,1.701559 -2.319213,1.020945 -2.618466,0.983134 -2.618466,-0.113431 0,-0.718434 0.41147,-1.058747 2.132186,-1.852811 1.1596,-0.529372 2.24438,-0.907494 2.39402,-0.831873 0.11222,0.11344 0.14962,0.605003 0.0747,1.096556 z m 5.23692,2.230942 c 2.31922,1.739369 5.83544,4.386244 7.85542,5.860924 2.46883,1.85281 3.62843,2.94937 3.62843,3.47875 0,0.41592 -0.14962,0.75624 -0.29925,0.75624 -0.14963,0 -3.74066,-2.53344 -7.93022,-5.59624 -6.32172,-4.613117 -7.70578,-5.785302 -7.78058,-6.617177 -0.0747,-0.567183 0,-1.020935 0.11222,-1.020935 0.14964,0 2.13218,1.399067 4.41398,3.138438 z m -23.079913,-1.92844 c -0.112213,0.491562 -0.224437,0.983124 -0.224437,1.134375 0,0.226871 -5.423964,2.949367 -5.835439,2.949367 -0.07481,0 -0.149626,-0.529373 -0.149626,-1.134376 0,-1.058747 0.22444,-1.247807 2.730688,-2.419984 3.291791,-1.58813 3.77807,-1.66375 3.478814,-0.529382 z m 7.705778,3.667809 c 4.002516,2.646875 4.750646,3.289675 4.638424,3.970295 -0.112215,0.41594 -0.187025,0.90751 -0.187025,1.05875 -0.03738,0.26469 -10.286836,-6.201232 -11.184601,-7.033105 -0.299255,-0.302503 -0.41147,-0.869685 -0.261843,-1.47468 0.261843,-1.020935 0.261843,-1.020935 1.271823,-0.340312 0.523692,0.378122 3.104759,2.117493 5.723222,3.819052 z M 103.40917,96.86485 c 0,1.172187 -0.11223,1.285617 -1.98255,1.89062 -2.54365,0.794054 -2.506246,0.831876 -2.506246,-0.264691 0,-0.718433 0.41147,-1.058746 2.169596,-1.85281 1.15959,-0.567184 2.16957,-1.020936 2.24438,-1.020936 0.0373,0 0.0747,0.567193 0.0747,1.247817 z m 8.22947,4.42405 c 3.59104,2.64688 6.99505,5.10468 7.59355,5.4828 0.5611,0.34032 1.00998,0.98311 1.00998,1.36123 0,0.41595 -0.0747,0.71846 -0.14962,0.71846 -0.11223,0 -4.33918,-2.87375 -14.70082,-9.944666 -0.89775,-0.604996 -1.23443,-1.134378 -1.23443,-1.890623 0,-1.285627 -0.71072,-1.70156 7.48134,4.272799 z M 85.379161,98.150467 c -0.112224,0.83188 -0.523693,1.172186 -3.029944,2.268753 -1.645891,0.68062 -3.029936,1.24781 -3.104752,1.24781 -0.07482,0 -0.149625,-0.41593 -0.149625,-0.94531 0,-0.756256 0.448881,-1.172196 2.543653,-2.230941 3.142165,-1.663741 3.890296,-1.739369 3.740668,-0.340312 z m 6.321724,2.268753 c 6.059881,3.81905 6.209509,3.93249 6.022476,4.95343 -0.112221,0.71843 -0.67332,0.45375 -5.798031,-2.64687 -5.236943,-3.138434 -5.723222,-3.554374 -5.723222,-4.537493 0,-0.567184 0.07485,-1.058755 0.187032,-1.058755 0.07485,0 2.468836,1.474687 5.311745,3.289688 z m 11.708285,-0.34031 c 0,0.90749 -0.26184,1.13437 -2.28181,1.92843 -1.234405,0.49155 -2.319209,0.83188 -2.394019,0.75624 -0.07484,-0.0756 -0.03738,-0.60499 0.07485,-1.17218 0.149628,-0.79406 0.598502,-1.13437 2.094769,-1.739371 2.54366,-0.983117 2.50623,-0.983117 2.50623,0.226881 z m 9.015,4.68874 c 5.64842,3.85686 7.818,5.55841 7.818,6.08778 0,0.45375 -0.18702,0.64282 -0.52369,0.52938 -0.26185,-0.11343 -3.89029,-2.4578 -8.04244,-5.18029 -6.28431,-4.19718 -7.51874,-5.14249 -7.51874,-5.89874 0,-0.491563 0.0747,-0.907503 0.22445,-0.907503 0.11223,0 3.70326,2.419993 8.04242,5.369373 z m -27.419074,-3.06281 c -0.112223,1.05874 -0.374074,1.2478 -3.067347,2.45781 -1.645898,0.71843 -3.029944,1.28563 -3.104759,1.28563 -0.112221,0 -0.112221,-0.45375 -0.03738,-1.02095 0.07482,-0.64281 0.448879,-1.21 1.047385,-1.51248 3.142164,-1.58814 4.713242,-2.34439 4.975092,-2.34439 0.187034,-0.0377 0.261843,0.49157 0.187034,1.13438 z m 7.930215,3.06281 c 3.927698,2.38218 4.675829,2.98716 4.78805,3.81904 0.07485,0.56718 -0.03738,1.02094 -0.187032,1.02094 -0.187042,0 -1.907747,-0.94531 -3.852888,-2.07968 -1.945153,-1.13437 -4.526211,-2.60905 -5.685818,-3.28968 -1.982556,-1.13437 -3.303113,-2.53936 -2.169579,-2.49562 v -1.28562 l 1.234409,0.75625 c 0.635924,0.41593 3.291792,2.04187 5.872858,3.55437 z m 10.473859,-1.36125 c 0,0.79406 -0.33667,1.09655 -2.05736,1.89063 -2.618469,1.13436 -2.805501,1.13436 -2.805501,-0.18906 0,-0.94532 0.224438,-1.17219 1.982551,-1.85282 2.61847,-1.02094 2.88031,-0.98312 2.88031,0.15125 z m 9.31426,4.65092 c 5.31175,3.55436 7.51874,5.25592 7.51874,5.74748 0,0.41594 -0.11222,0.71845 -0.22443,0.71845 -0.11224,0 -2.01996,-1.1344 -4.18955,-2.49564 -2.207,-1.39905 -5.68582,-3.59216 -7.74318,-4.87778 -3.3666,-2.1175 -3.74067,-2.45781 -3.85289,-3.55436 -0.11222,-0.98313 0,-1.1722 0.41147,-0.90751 0.29926,0.15126 3.92769,2.57125 8.07984,5.36936 z m -28.092408,-2.57123 c -0.112214,1.02093 -0.374065,1.2478 -2.730685,2.26872 -3.254377,1.36125 -3.628447,1.39906 -3.478818,0.0756 0.112221,-0.83187 0.52369,-1.17218 2.917717,-2.23093 1.533678,-0.68062 2.955126,-1.24781 3.104762,-1.24781 0.187024,-0.0377 0.261842,0.49156 0.187024,1.13437 z m 7.256904,2.30655 c 5.162115,3.02499 5.87284,3.59217 5.685808,4.23497 -0.149627,0.45375 -0.26185,0.83189 -0.299256,0.8697 -0.03738,0.0377 -2.431438,-1.17219 -5.311752,-2.72249 -2.842899,-1.55031 -5.498775,-2.94937 -5.835435,-3.0628 -0.486289,-0.15125 -0.673321,-0.605 -0.673321,-1.51251 0,-0.71843 0.112224,-1.28561 0.261851,-1.28561 0.149628,0 2.917717,1.5503 6.172105,3.47874 z m 11.521244,-0.94532 c 0,0.94532 -0.26184,1.17219 -2.43143,2.07969 l -2.431431,1.02093 v -1.05875 c 0,-0.91368 0.261842,-1.17218 2.169581,-2.04187 2.73069,-1.20999 2.69328,-1.20999 2.69328,0 z m 9.83795,4.99124 c 5.38657,3.40312 7.36912,4.83999 7.36912,5.36936 0,0.37814 -0.18704,0.71844 -0.41148,0.71844 -0.22444,0 -3.92769,-2.15531 -8.22946,-4.80218 -7.33171,-4.49967 -7.818,-4.83997 -7.818,-5.89873 0,-1.05875 0.0373,-1.09656 0.86036,-0.56718 0.44887,0.3403 4.15213,2.64686 8.22946,5.18029 z m -28.803122,-2.4578 c -0.187041,0.86967 -0.97258,1.2856 -5.835449,3.1006 -0.598507,0.22688 -0.673321,0.0756 -0.561101,-0.79404 0.11222,-0.90751 0.486292,-1.17219 3.104758,-2.26874 1.645891,-0.64284 3.104751,-1.1722 3.216974,-1.09657 0.149628,0.0756 0.149628,0.52938 0.07485,1.05875 z m 9.725721,3.44093 c 2.69329,1.47468 3.254388,1.92843 3.254388,2.68467 0,0.49157 -0.224438,0.9075 -0.448884,0.9075 -0.261842,-0.0377 -2.992528,-1.36124 -6.097286,-2.94937 -5.53619,-2.87375 -6.172097,-3.44094 -5.648405,-4.83998 0.187033,-0.49158 0.710726,-0.3403 2.955123,0.9075 1.458865,0.83187 4.152145,2.30655 5.985064,3.28968 z m 9.239451,-2.68469 c 0,1.05875 -0.22444,1.24781 -2.88031,2.34436 -2.057368,0.86971 -2.356616,0.83188 -2.356616,-0.30249 0,-0.49155 0.673313,-1.02093 2.356616,-1.81499 2.88031,-1.32343 2.88031,-1.32343 2.88031,-0.22688 z m 12.15717,6.54155 c 2.95512,1.77718 4.90028,3.21405 4.97508,3.63 0.11223,0.45374 -0.0373,0.68061 -0.37406,0.56718 -0.29926,-0.0377 -4.00252,-2.15531 -8.26687,-4.65093 -7.10728,-4.15936 -7.91064,-4.62806 -7.74319,-5.55844 v -1.05873 l 3.29179,2.04186 c 1.79552,1.13438 5.42397,3.40313 8.11725,5.02906 z m -31.309383,-3.78124 c -0.112214,0.9453 -0.411469,1.17218 -3.104751,2.04186 -3.104758,1.05876 -3.665852,1.05876 -3.478823,0.0377 0.11222,-0.49157 5.31175,-3.02499 6.396541,-3.10062 0.187033,0 0.261851,0.45375 0.187033,1.02093 z m 7.182085,2.38217 c 4.713242,2.38219 5.985065,3.17625 5.985065,3.78126 0,0.41593 -0.224438,0.75623 -0.448884,0.75623 -0.261842,0 -3.067345,-1.20998 -6.172095,-2.72249 -5.386563,-2.53344 -5.723223,-2.76031 -5.723223,-3.78124 0,-0.56719 0.07485,-1.05874 0.187032,-1.05874 0.112224,0 2.880313,1.36124 6.172105,3.02498 z m 11.895308,-1.43687 c -0.11222,0.83188 -1.98254,2.00406 -4.339167,2.76031 -0.785534,0.22688 -0.860352,0.15126 -0.748128,-0.79404 0.07485,-0.86971 0.448874,-1.21002 2.169585,-1.89064 2.65586,-1.09655 3.06734,-1.13437 2.91771,-0.0756 z m 9.23945,4.23501 c 6.24692,3.66779 7.89282,4.80217 7.96762,5.52061 l 0.14963,0.86968 -1.27182,-0.75625 c -0.67333,-0.41594 -4.00252,-2.26875 -7.40653,-4.08375 -3.40401,-1.8528 -6.62097,-3.6678 -7.18207,-4.04592 -1.04738,-0.75625 -1.42146,-2.19314 -0.56111,-2.19314 0.22446,0.0378 4.00252,2.11751 8.30428,4.68877 z m -28.616098,-1.28563 c 0,0.60499 -0.03738,1.13437 -0.112214,1.13437 -0.03738,0 -1.458866,0.49157 -3.179573,1.09657 -1.683294,0.60498 -3.142156,0.98311 -3.216972,0.86967 -0.0748,-0.15124 -0.0748,-0.71843 0.03738,-1.24779 0.149623,-0.83188 0.598504,-1.09658 3.029935,-1.92844 1.608488,-0.52938 2.992534,-0.98314 3.179567,-0.98314 0.149628,-0.0377 0.261842,0.41595 0.261842,1.05876 z m 6.95764,2.07968 c 5.162123,2.45781 5.947667,2.94937 6.059881,3.78124 0.07485,0.52938 0.03738,0.94532 -0.03738,0.94532 -0.07485,0 -2.842909,-1.17218 -6.097286,-2.57126 -5.798033,-2.4956 -5.947659,-2.60904 -6.059873,-3.78123 -0.07485,-0.68063 -0.03738,-1.21001 0.03738,-1.21001 0.112213,0 2.842899,1.28563 6.097278,2.83594 z m 12.119768,-0.98311 c 0,0.98311 -0.14964,1.09656 -2.43143,1.73935 -1.346641,0.34032 -2.543658,0.605 -2.618477,0.49158 -0.07485,-0.0756 -0.07485,-0.52937 0.03738,-0.98313 0.149635,-0.52937 0.860359,-1.05874 2.169587,-1.5503 2.58107,-1.02095 2.84291,-0.98314 2.84291,0.3025 z m 10.77312,4.27279 c 5.16212,2.87375 6.80801,3.9703 6.80801,4.49968 0,0.605 -1.34664,0.0377 -8.30428,-3.51655 -7.66837,-3.93249 -8.34169,-4.34843 -8.45392,-5.33155 l -0.11222,-1.05875 1.6085,0.83188 c 0.89775,0.45374 4.67583,2.4956 8.45391,4.57529 z m -30.22459,-1.24782 c 0,1.02095 -0.149626,1.13439 -3.216974,2.0797 -1.758117,0.56718 -3.291789,0.94532 -3.404007,0.86967 -0.07482,-0.11342 -0.03738,-0.60499 0.07482,-1.09655 0.187028,-0.75624 0.74813,-1.09655 3.104753,-1.89062 3.628449,-1.24782 3.441413,-1.24782 3.441413,0.0377 z m 7.294297,1.89064 c 5.386562,2.34437 5.985072,2.68467 6.097286,3.59217 0.07485,0.52938 -0.07485,0.98312 -0.299256,0.98312 -0.224436,0 -3.104749,-1.13437 -6.359128,-2.57125 -5.648403,-2.38216 -5.985064,-2.60904 -5.985064,-3.59218 0,-0.56717 0.112223,-1.02093 0.299247,-1.02093 0.149636,0 2.955131,1.17219 6.246915,2.60907 z m 12.157173,-1.28563 c 0,0.94531 -0.63592,1.24781 -4.077331,1.92842 -1.122195,0.22689 -1.197013,0.18908 -1.08479,-0.60498 0.07485,-0.68063 0.561097,-1.02094 2.169601,-1.5125 2.76807,-0.90749 2.99252,-0.90749 2.99252,0.18906 z m 17.9552,8.46998 c 0,0.83188 0.11221,0.86969 -7.2943,-2.60906 -1.83294,-0.86968 -4.82546,-2.26874 -6.62099,-3.1006 -3.02994,-1.39907 -3.37735,-1.62968 -3.29177,-2.60906 v -1.09658 l 8.60352,4.34843 c 6.7706,3.44094 8.60354,4.49968 8.60354,5.06687 z m -37.780736,-4.91561 c 0,1.02093 -0.149631,1.09657 -2.88032,1.89062 -3.516221,1.02093 -3.665852,1.02093 -3.665852,-0.0377 0,-0.68063 0.486291,-0.98313 2.99254,-1.85281 1.645891,-0.5672 3.10475,-1.05874 3.29178,-1.05874 0.149632,-0.0377 0.261852,0.45373 0.261852,1.05874 z m 7.48133,1.81499 c 5.274339,2.26875 5.985063,2.68469 5.985063,3.44094 0,1.05875 0.561107,1.17218 -6.920224,-1.73937 -5.162126,-2.04187 -5.611,-2.26875 -5.723223,-3.21406 -0.07484,-0.5672 0.03738,-1.02094 0.261842,-1.02094 0.224446,0 3.10475,1.13437 6.396542,2.53343 z m 12.269386,-1.51249 c -0.11222,1.05874 -0.48628,1.24781 -4.114733,2.1553 -0.972568,0.22687 -1.047385,0.15127 -1.047385,-0.86968 0,-1.02093 0.149626,-1.17219 1.608477,-1.55031 0.860361,-0.22687 1.758131,-0.49157 1.945161,-0.56719 1.19701,-0.45374 1.72069,-0.15125 1.60848,0.83188 z m 5.91026,1.58812 c 10.39905,4.76437 12.11976,5.67186 12.11976,6.27686 0,0.3025 -0.0748,0.56719 -0.18704,0.56719 -0.11222,0 -1.83292,-0.68062 -3.81547,-1.5125 -2.01998,-0.86969 -5.79805,-2.42 -8.41652,-3.51655 -4.48879,-1.85281 -4.78803,-2.04186 -4.78803,-3.025 0,-0.56719 0.0748,-1.02093 0.14962,-1.02093 0.0747,0 2.2818,0.98312 4.93768,2.23093 z m -25.922828,2.49561 c -0.149625,0.71844 -0.52369,1.02095 -1.758111,1.36126 -0.822945,0.18906 -2.132183,0.52937 -2.842907,0.75624 -0.710726,0.18906 -1.533671,0.34032 -1.758111,0.34032 -0.635916,0 -0.635916,-1.36125 -0.03738,-1.73938 0.635916,-0.41593 6.05988,-1.92842 6.321732,-1.81499 0.149624,0.0756 0.149624,0.56719 0.0748,1.09655 z m 7.556149,1.43688 c 5.012489,2.00405 6.022478,2.49562 6.097288,3.21406 0.07485,0.49155 -0.07485,0.83188 -0.374075,0.79405 -0.261841,0 -3.179559,-0.9831 -6.471341,-2.19313 -5.53619,-2.04185 -5.985065,-2.26872 -6.097287,-3.17623 -0.07482,-0.64281 0.03738,-1.02094 0.374064,-1.02094 0.261842,0.0377 3.179569,1.09657 6.471351,2.38219 z m 12.456419,-1.55031 c -0.11222,0.83187 -0.18703,0.86969 -4.488798,1.92844 -0.935163,0.26468 -1.047385,0.18907 -1.047385,-0.64281 0,-0.79406 0.261842,-1.02094 1.608482,-1.36125 0.860366,-0.22688 1.758121,-0.49156 1.945151,-0.5672 0.22444,-0.0756 0.74813,-0.15124 1.23442,-0.15124 0.71072,-0.0378 0.86034,0.15124 0.74813,0.79406 z m 9.61351,3.02499 c 4.52621,1.89063 8.30428,3.51655 8.34168,3.55437 0.0747,0.0378 0.0747,0.34031 0,0.60501 -0.0747,0.41593 -2.24438,-0.30251 -8.52871,-2.7225 -7.06985,-2.76031 -8.4539,-3.44093 -8.52873,-4.12155 -0.0747,-0.41594 0,-0.79407 0.18704,-0.79407 0.14964,0 4.00253,1.55032 8.52872,3.47874 z m -9.53869,0.79407 c 0,0.79405 -0.26185,0.94531 -2.39403,1.32344 -3.104751,0.605 -3.216973,0.56718 -3.216973,-0.2647 0,-0.56719 0.486287,-0.83187 2.169586,-1.28561 3.067337,-0.83188 3.441417,-0.79408 3.441417,0.22687 z m -20.199608,0.60499 c 0,1.24782 -0.03738,1.24782 -3.553633,1.92844 -1.234421,0.22687 -2.543653,0.52937 -2.880311,0.605 -0.523697,0.15126 -0.673321,-0.0377 -0.673321,-0.75626 0,-1.17217 0.22444,-1.28561 3.329191,-2.1553 3.553634,-0.94531 3.778074,-0.9075 3.778074,0.37812 z m 7.668369,1.36125 c 5.162116,1.85281 5.610999,2.07969 5.723213,2.98719 0.149636,1.13436 0.187042,1.09655 -1.271822,0.6428 -0.598501,-0.22687 -3.3666,-1.05873 -6.134692,-1.92842 -2.768089,-0.86969 -5.162114,-1.70157 -5.311746,-1.85282 -0.11222,-0.11343 -0.149626,-0.71843 -0.03738,-1.28562 0.149623,-0.79407 0.374068,-0.98314 0.822942,-0.79407 0.33666,0.11344 3.142164,1.13438 6.209511,2.23094 z m 22.219559,0.83188 c 7.40652,2.91156 9.16464,3.85687 8.56612,4.46186 -0.14962,0.15124 -13.46639,-4.31061 -16.45892,-5.52062 -0.74814,-0.3025 -1.04738,-0.71843 -1.04738,-1.32342 0,-0.49158 0.11222,-0.9075 0.29924,-0.9075 0.14963,0 4.03991,1.47468 8.64094,3.28968 z m -10.0624,1.58812 c 0,1.02093 -0.11221,1.09658 -1.94514,1.32344 -3.216966,0.37811 -3.665849,0.3025 -3.665849,-0.49157 0,-0.41594 0.187033,-0.86967 0.448883,-1.02094 0.561098,-0.3403 2.730676,-0.79404 4.152136,-0.86969 0.86036,-0.0377 1.00997,0.11344 1.00997,1.05876 z m 9.23946,1.96624 c 6.2095,2.19313 7.78059,3.025 5.61099,2.94938 -0.44888,0 -3.77808,-0.8697 -7.36911,-1.96625 -5.94765,-1.7772 -6.54617,-2.04187 -6.65839,-2.87375 -0.18704,-1.13438 -0.26185,-1.17217 8.41651,1.89062 z m -29.439052,-1.21 c 0,1.02093 -0.336661,1.17219 -3.778073,1.73938 -2.581064,0.41593 -3.029937,0.37812 -3.216974,-0.0756 -0.33666,-0.83189 0.261846,-1.17218 2.880313,-1.77719 3.478824,-0.75625 4.114734,-0.75625 4.114734,0.11344 z m 7.556147,1.24782 c 5.162116,1.58811 6.284317,2.04186 6.284317,2.64687 0,0.37813 -0.224437,0.68061 -0.448882,0.68061 -0.261842,0 -3.179559,-0.75623 -6.471351,-1.62593 -5.760627,-1.5503 -5.985065,-1.66374 -6.097287,-2.64686 -0.07481,-0.56719 0,-1.02094 0.187036,-1.02094 0.149624,0 3.104755,0.86969 6.546167,1.96625 z m 12.643445,2.15531 c 0,0.52937 -0.37407,0.75625 -1.72069,0.94531 -3.067351,0.41594 -3.965117,0.3025 -3.815488,-0.45375 0.112222,-0.64283 1.571077,-1.02093 4.339168,-1.1722 0.93517,-0.0377 1.19701,0.11344 1.19701,0.68064 z m 4.97508,0.3403 c 4.71326,1.51249 3.2918,2.26875 -1.79551,0.98312 -1.90773,-0.49155 -2.43143,-0.75624 -2.43143,-1.32342 0,-0.94531 0.29926,-0.9075 4.22694,0.3403 z m -25.623553,0.71846 c -0.11222,0.9831 -0.29925,1.05873 -2.730688,1.51249 -3.965103,0.68061 -4.301762,0.64279 -4.301762,-0.41595 0,-0.83188 0.22444,-0.98313 1.795514,-1.20999 0.972578,-0.11344 2.431439,-0.37813 3.254385,-0.52937 0.822945,-0.15126 1.645891,-0.3025 1.795522,-0.34032 0.187029,-0.0377 0.261844,0.41594 0.187029,0.98314 z m 12.344204,2.23092 c 1.795523,0.49156 2.506248,1.28561 1.645886,1.81499 -0.299246,0.15124 -7.556141,-1.39905 -11.558649,-2.4578 -1.384055,-0.37812 -2.09556,-0.70898 -1.608496,-1.4747 v -1.02093 l 4.788056,1.28563 c 2.618463,0.71843 5.648412,1.55031 6.733203,1.85281 z"
   id="path5026"
   sodipodi:nodetypes="cssssssscscccscccccccccscscscsssccccccssssccccccccccccsssscccsccsccscccccccsccscccccccccccccccccccccccssccccccccccsccscsccsccccccccsccccccssccsccssscccccccccccscsccccsscscccsscccccsscccccccccsccsscccscccccccsccscccscscscsscccccccccccccccccsscsccscscsscsccccccccccscccccscscscccsscccccccccssscssscccccccccccccccscccccccccsccscccccccccsccccccccccccccscsscscccssccsccsccscccccsccscccsccccssccssccccscccccccccccccscccccccccscscscssccscsccccccccccccsscscsccsccccccccccccssccscscccsccscccscccccccsccc" /><g
   transform="matrix(0.06636548,0,0,0.08473984,46.030394,123.2517)"
   id="XMLID_1033_"
   style="fill:#ffffff;fill-opacity:1"><g
     id="XMLID_1034_"
     transform="translate(76.500622,-14.649055)"
     style="fill:#ffffff;fill-opacity:1"><rect
       id="XMLID_1035_"
       x="256.31799"
       y="217.674"
       style="fill:#ffffff;fill-opacity:1"
       width="23.690001"
       height="102.331" /></g><path
     inkscape:connector-curvature="0"
     id="XMLID_1036_"
     style="fill:#ffffff;fill-opacity:1"
     d="m 344.64562,38.688945 c -32.579,-0.004 -67.053,136.405995 -44.724,172.416995 10.987,17.719 30.328,22.85 44.724,22.852 15.015,-0.002 33.737,-5.133 44.724,-22.852 22.329,-36.011 -11.838,-172.420995 -44.724,-172.416995 z" /></g><g
   transform="matrix(0.0698845,0,0,0.09568872,43.06478,106.64532)"
   id="XMLID_1037_"
   style="fill:#ffffff;fill-opacity:1"><g
     id="XMLID_1038_"
     style="fill:#ffffff;fill-opacity:1"><rect
       id="XMLID_1039_"
       x="62.277"
       y="217.674"
       style="fill:#ffffff;fill-opacity:1"
       width="23.690001"
       height="102.331" /></g><path
     inkscape:connector-curvature="0"
     id="XMLID_1040_"
     style="fill:#ffffff;fill-opacity:1"
     d="M 74.105,53.338 C 41.525,53.334 7.052,189.744 29.381,225.755 c 10.987,17.719 30.328,22.85 44.724,22.852 15.015,-0.002 33.737,-5.133 44.724,-22.852 C 141.158,189.744 106.991,53.334 74.105,53.338 Z" /></g><g
   transform="matrix(0.06333315,0,0,0.09158319,47.735479,114.16348)"
   id="XMLID_1041_"
   style="fill:#ffffff;fill-opacity:1"><rect
     id="XMLID_1042_"
     x="155.75999"
     y="187.12399"
     style="fill:#ffffff;fill-opacity:1"
     width="30.763"
     height="132.881" /></g><path
   inkscape:connector-curvature="0"
   id="XMLID_1043_"
   style="fill:#ffffff;fill-opacity:1;stroke-width:0.07615937"
   d="m 58.573049,114.16348 c -2.679373,-4.6e-4 -5.514482,16.22195 -3.678137,20.50455 0.903574,2.10724 2.494186,2.71746 3.678137,2.71773 1.234869,-2.7e-4 2.774498,-0.6104 3.678135,-2.71773 1.836345,-4.2826 -0.97362,-20.50501 -3.678135,-20.50455 z" /><g
   transform="matrix(0.06636548,0,0,0.08473984,111.43283,120.70917)"
   id="XMLID_1033_-5"
   style="display:inline;fill:#ffffff;fill-opacity:1"><g
     id="XMLID_1034_-0"
     transform="translate(76.500622,-14.649055)"
     style="fill:#ffffff;fill-opacity:1"><rect
       id="XMLID_1035_-3"
       x="256.31799"
       y="217.674"
       style="fill:#ffffff;fill-opacity:1"
       width="23.690001"
       height="102.331" /></g><path
     inkscape:connector-curvature="0"
     id="XMLID_1036_-6"
     style="fill:#ffffff;fill-opacity:1"
     d="m 344.64562,38.688945 c -32.579,-0.004 -67.053,136.405995 -44.724,172.416995 10.987,17.719 30.328,22.85 44.724,22.852 15.015,-0.002 33.737,-5.133 44.724,-22.852 22.329,-36.011 -11.838,-172.420995 -44.724,-172.416995 z" /></g><g
   transform="matrix(0.06917335,0,0,0.08473984,127.76394,110.12523)"
   id="XMLID_1033_-1"
   style="display:inline;fill:#ffffff;fill-opacity:1"><g
     id="XMLID_1034_-06"
     transform="translate(76.500622,-14.649055)"
     style="fill:#ffffff;fill-opacity:1"><rect
       id="XMLID_1035_-32"
       x="256.31799"
       y="217.674"
       style="fill:#ffffff;fill-opacity:1"
       width="23.690001"
       height="102.331" /></g><path
     inkscape:connector-curvature="0"
     id="XMLID_1036_-0"
     style="fill:#ffffff;fill-opacity:1"
     d="m 344.64562,38.688945 c -32.579,-0.004 -67.053,136.405995 -44.724,172.416995 10.987,17.719 30.328,22.85 44.724,22.852 15.015,-0.002 33.737,-5.133 44.724,-22.852 22.329,-36.011 -11.838,-172.420995 -44.724,-172.416995 z" /></g><rect
   id="XMLID_1042_-6"
   x="141.6431"
   y="129.85851"
   style="display:inline;fill:#ffffff;fill-opacity:1;stroke-width:0.08015394"
   width="2.1150496"
   height="12.41712" /><path
   inkscape:connector-curvature="0"
   id="XMLID_1043_-1"
   style="display:inline;fill:#ffffff;fill-opacity:1;stroke-width:0.0752949"
   d="m 142.69915,114.4284 c -2.90866,-4.2e-4 -5.98639,14.60584 -3.9929,18.46179 0.9809,1.89731 2.70763,2.44673 3.9929,2.44698 1.34055,-2.5e-4 3.01194,-0.54959 3.9929,-2.44698 1.9935,-3.85595 -1.05694,-18.46221 -3.9929,-18.46179 z" /></g>
<g
   aria-label="Kaiserslautern"
   style="font-style:normal;font-weight:normal;font-size:8px;line-height:1.25;font-family:sans-serif;letter-spacing:0px;word-spacing:0px;fill:#ffffff;fill-opacity:1;stroke:none"
   id="text5349"><path
     d="m 70.981926,60.741951 h 0.789062 v 2.464844 l 2.617188,-2.464844 h 1.015625 l -2.894531,2.71875 3.101562,3.113281 H 74.57177 l -2.800782,-2.808594 v 2.808594 h -0.789062 z"
     style=""
     id="path52" /><path
     d="m 78.044426,64.374763 q -0.871094,0 -1.207031,0.199219 -0.335938,0.199219 -0.335938,0.679688 0,0.382812 0.25,0.609375 0.253906,0.222656 0.6875,0.222656 0.597656,0 0.957031,-0.421875 0.363282,-0.425781 0.363282,-1.128906 v -0.160157 z m 1.433594,-0.296875 v 2.496094 H 78.75927 V 65.90992 q -0.246094,0.398437 -0.613282,0.589843 -0.367187,0.1875 -0.898437,0.1875 -0.671875,0 -1.070313,-0.375 -0.394531,-0.378906 -0.394531,-1.011718 0,-0.738282 0.492188,-1.113282 0.496093,-0.375 1.476562,-0.375 h 1.007813 v -0.07031 q 0,-0.496094 -0.328125,-0.765625 -0.324219,-0.273438 -0.914063,-0.273438 -0.375,0 -0.730469,0.08984 -0.355468,0.08984 -0.683593,0.269531 v -0.664062 q 0.394531,-0.152344 0.765625,-0.226563 0.371093,-0.07813 0.722656,-0.07813 0.949219,0 1.417969,0.492188 0.46875,0.492187 0.46875,1.492187 z"
     style=""
     id="path54" /><path
     d="m 80.958488,62.198982 h 0.71875 v 4.375 h -0.71875 z m 0,-1.703125 h 0.71875 v 0.910156 h -0.71875 z"
     style=""
     id="path56" /><path
     d="m 85.970207,62.327888 v 0.679688 q -0.304687,-0.15625 -0.632812,-0.234375 -0.328125,-0.07813 -0.679688,-0.07813 -0.535156,0 -0.804687,0.164062 -0.265625,0.164063 -0.265625,0.492188 0,0.25 0.191406,0.394531 0.191406,0.140625 0.769531,0.269531 l 0.246094,0.05469 q 0.765625,0.164062 1.085937,0.464844 0.324219,0.296875 0.324219,0.832031 0,0.609375 -0.484375,0.964844 -0.480469,0.355468 -1.324219,0.355468 -0.351562,0 -0.734375,-0.07031 -0.378906,-0.06641 -0.800781,-0.203125 v -0.742188 q 0.398438,0.207032 0.785156,0.3125 0.386719,0.101563 0.765625,0.101563 0.507813,0 0.78125,-0.171875 0.273438,-0.175781 0.273438,-0.492188 0,-0.292968 -0.199219,-0.449218 -0.195312,-0.15625 -0.863281,-0.300782 l -0.25,-0.05859 q -0.667969,-0.140625 -0.964844,-0.429688 -0.296875,-0.292969 -0.296875,-0.800781 0,-0.617188 0.4375,-0.953125 0.4375,-0.335938 1.242188,-0.335938 0.398437,0 0.75,0.05859 0.351562,0.05859 0.648437,0.175781 z"
     style=""
     id="path58" /><path
     d="m 91.091301,64.206795 v 0.351562 h -3.304688 q 0.04687,0.742188 0.445313,1.132813 0.402344,0.386718 1.117187,0.386718 0.414063,0 0.800782,-0.101562 0.390625,-0.101563 0.773437,-0.304688 v 0.679688 q -0.386719,0.164062 -0.792969,0.25 -0.40625,0.08594 -0.824218,0.08594 -1.046875,0 -1.660157,-0.609375 -0.609375,-0.609375 -0.609375,-1.648437 0,-1.074219 0.578125,-1.703125 0.582032,-0.632813 1.566407,-0.632813 0.882812,0 1.394531,0.570313 0.515625,0.566406 0.515625,1.542969 z m -0.71875,-0.210938 q -0.0078,-0.589844 -0.332031,-0.941406 -0.320313,-0.351563 -0.851563,-0.351563 -0.601562,0 -0.964844,0.339844 -0.359375,0.339844 -0.414062,0.957031 z"
     style=""
     id="path60" /><path
     d="m 94.806145,62.870857 q -0.121094,-0.07031 -0.265625,-0.101562 -0.140625,-0.03516 -0.3125,-0.03516 -0.609375,0 -0.9375,0.398438 -0.324219,0.394531 -0.324219,1.136719 v 2.304687 h -0.722656 v -4.375 h 0.722656 v 0.679688 q 0.226562,-0.398438 0.589844,-0.589844 0.363281,-0.195313 0.882812,-0.195313 0.07422,0 0.164063,0.01172 0.08984,0.0078 0.199218,0.02734 z"
     style=""
     id="path62" /><path
     d="m 98.349113,62.327888 v 0.679688 q -0.304687,-0.15625 -0.632812,-0.234375 -0.328125,-0.07813 -0.679688,-0.07813 -0.535156,0 -0.804687,0.164062 -0.265625,0.164063 -0.265625,0.492188 0,0.25 0.191406,0.394531 0.191406,0.140625 0.769531,0.269531 l 0.246094,0.05469 q 0.765625,0.164062 1.085938,0.464844 0.324218,0.296875 0.324218,0.832031 0,0.609375 -0.484375,0.964844 -0.480468,0.355468 -1.324218,0.355468 -0.351563,0 -0.734375,-0.07031 -0.378907,-0.06641 -0.800782,-0.203125 v -0.742188 q 0.398438,0.207032 0.785157,0.3125 0.386718,0.101563 0.765625,0.101563 0.507812,0 0.78125,-0.171875 0.273437,-0.175781 0.273437,-0.492188 0,-0.292968 -0.199219,-0.449218 -0.195312,-0.15625 -0.863281,-0.300782 l -0.25,-0.05859 q -0.667969,-0.140625 -0.964844,-0.429688 -0.296875,-0.292969 -0.296875,-0.800781 0,-0.617188 0.4375,-0.953125 0.4375,-0.335938 1.242188,-0.335938 0.398437,0 0.75,0.05859 0.351562,0.05859 0.648437,0.175781 z"
     style=""
     id="path64" /><path
     d="m 99.72802,60.495857 h 0.71875 v 6.078125 h -0.71875 z"
     style=""
     id="path66" /><path
     d="m 103.93896,64.374763 q -0.8711,0 -1.20703,0.199219 -0.33594,0.199219 -0.33594,0.679688 0,0.382812 0.25,0.609375 0.2539,0.222656 0.6875,0.222656 0.59765,0 0.95703,-0.421875 0.36328,-0.425781 0.36328,-1.128906 v -0.160157 z m 1.43359,-0.296875 v 2.496094 H 104.6538 V 65.90992 q -0.24609,0.398437 -0.61328,0.589843 -0.36719,0.1875 -0.89844,0.1875 -0.67187,0 -1.07031,-0.375 -0.39453,-0.378906 -0.39453,-1.011718 0,-0.738282 0.49219,-1.113282 0.49609,-0.375 1.47656,-0.375 h 1.00781 v -0.07031 q 0,-0.496094 -0.32812,-0.765625 -0.32422,-0.273438 -0.91407,-0.273438 -0.375,0 -0.73047,0.08984 -0.35546,0.08984 -0.68359,0.269531 v -0.664062 q 0.39453,-0.152344 0.76563,-0.226563 0.37109,-0.07813 0.72265,-0.07813 0.94922,0 1.41797,0.492188 0.46875,0.492187 0.46875,1.492187 z"
     style=""
     id="path68" /><path
     d="m 106.7788,64.84742 v -2.648438 h 0.71875 v 2.621094 q 0,0.621094 0.24219,0.933594 0.24219,0.308593 0.72656,0.308593 0.58203,0 0.91797,-0.371093 0.33984,-0.371094 0.33984,-1.011719 v -2.480469 h 0.71875 v 4.375 h -0.71875 v -0.671875 q -0.26172,0.398438 -0.60937,0.59375 -0.34375,0.191406 -0.80078,0.191406 -0.75391,0 -1.14453,-0.46875 -0.39063,-0.46875 -0.39063,-1.371093 z m 1.80859,-2.753907 z"
     style=""
     id="path70" /><path
     d="m 112.63427,60.956795 v 1.242187 h 1.48047 v 0.558594 h -1.48047 v 2.375 q 0,0.535156 0.14453,0.6875 0.14844,0.152344 0.59766,0.152344 h 0.73828 v 0.601562 h -0.73828 q -0.83203,0 -1.14844,-0.308594 -0.31641,-0.3125 -0.31641,-1.132812 v -2.375 h -0.52734 v -0.558594 h 0.52734 v -1.242187 z"
     style=""
     id="path72" /><path
     d="m 118.80224,64.206795 v 0.351562 h -3.30469 q 0.0469,0.742188 0.44531,1.132813 0.40235,0.386718 1.11719,0.386718 0.41406,0 0.80078,-0.101562 0.39063,-0.101563 0.77344,-0.304688 v 0.679688 q -0.38672,0.164062 -0.79297,0.25 -0.40625,0.08594 -0.82422,0.08594 -1.04687,0 -1.66015,-0.609375 -0.60938,-0.609375 -0.60938,-1.648437 0,-1.074219 0.57813,-1.703125 0.58203,-0.632813 1.5664,-0.632813 0.88281,0 1.39453,0.570313 0.51563,0.566406 0.51563,1.542969 z m -0.71875,-0.210938 q -0.008,-0.589844 -0.33203,-0.941406 -0.32032,-0.351563 -0.85157,-0.351563 -0.60156,0 -0.96484,0.339844 -0.35937,0.339844 -0.41406,0.957031 z"
     style=""
     id="path74" /><path
     d="m 122.51708,62.870857 q -0.12109,-0.07031 -0.26562,-0.101562 -0.14063,-0.03516 -0.3125,-0.03516 -0.60938,0 -0.9375,0.398438 -0.32422,0.394531 -0.32422,1.136719 v 2.304687 h -0.72266 v -4.375 h 0.72266 v 0.679688 q 0.22656,-0.398438 0.58984,-0.589844 0.36328,-0.195313 0.88281,-0.195313 0.0742,0 0.16407,0.01172 0.0898,0.0078 0.19922,0.02734 z"
     style=""
     id="path76" /><path
     d="m 126.76708,63.933357 v 2.640625 h -0.71875 v -2.617187 q 0,-0.621094 -0.24219,-0.929688 -0.24218,-0.308594 -0.72656,-0.308594 -0.58203,0 -0.91797,0.371094 -0.33593,0.371094 -0.33593,1.011719 v 2.472656 h -0.72266 v -4.375 h 0.72266 v 0.679688 q 0.25781,-0.394532 0.60546,-0.589844 0.35157,-0.195313 0.8086,-0.195313 0.7539,0 1.14062,0.46875 0.38672,0.464844 0.38672,1.371094 z"
     style=""
     id="path79" /></g>

</svg>