<?xml version="1.0" encoding="utf-8"?>
<!-- Generator: Adobe Illustrator 24.1.2, SVG Export Plug-In . SVG Version: 6.00 Build 0)  -->
<svg version="1.1" id="Ebene_1" xmlns="http://www.w3.org/2000/svg" xmlns:xlink="http://www.w3.org/1999/xlink" x="0px" y="0px"
	 viewBox="0 0 40 40" style="enable-background:new 0 0 40 40;" xml:space="preserve">
<style type="text/css">
	.st0{fill:none;stroke:#FF645F;stroke-width:1.5;stroke-linejoin:round;}
</style>
<g id="Gruppe_1235" transform="translate(-352.018 -945.445)">
	<g id="Gruppe_1220" transform="translate(361.011 946)">
		<circle id="Ellipse_59" class="st0" cx="11" cy="7" r="3.5"/>
		<path id="Pfad_893" class="st0" d="M5.5,18.4v-4c0-0.9,0.7-1.6,1.6-1.6h7.8c0.9,0,1.6,0.7,1.6,1.6v4"/>
	</g>
	<g id="Gruppe_1222" transform="translate(352.768 963.028)">
		<circle id="Ellipse_59-2" class="st0" cx="11.2" cy="7" r="3.5"/>
		<path id="Pfad_893-2" class="st0" d="M5.5,18.4v-4c0-0.9,0.7-1.6,1.6-1.6h7.8c0.9,0,1.6,0.7,1.6,1.6v4"/>
	</g>
	<g id="Gruppe_1223" transform="translate(369.255 963.028)">
		<circle id="Ellipse_59-3" class="st0" cx="10.7" cy="7" r="3.5"/>
		<path id="Pfad_893-3" class="st0" d="M5.5,18.4v-4c0-0.9,0.7-1.6,1.6-1.6h7.8c0.9,0,1.6,0.7,1.6,1.6v4"/>
	</g>
</g>
</svg>
