<?xml version="1.0" encoding="utf-8"?>
<!-- Generator: Adobe Illustrator 24.1.2, SVG Export Plug-In . SVG Version: 6.00 Build 0)  -->
<svg version="1.1" id="Ebene_1" xmlns="http://www.w3.org/2000/svg" xmlns:xlink="http://www.w3.org/1999/xlink" x="0px" y="0px"
	 viewBox="0 0 42.9 42.9" style="enable-background:new 0 0 42.9 42.9;" xml:space="preserve">
<style type="text/css">
	.st0{fill:none;stroke:#FF645F;stroke-width:1.5;stroke-linecap:round;stroke-linejoin:round;}
</style>
<g id="Gruppe_1230" transform="translate(0.75 0.837)">
	<path id="Pfad_524" class="st0" d="M5.4,16.2c-0.6,0-0.7-0.3-0.3-0.7L19.8,3.6c0.5-0.4,1.2-0.4,1.8,0l14.6,11.9
		c0.5,0.4,0.4,0.7-0.3,0.7H5.4z"/>
	<line id="Linie_240" class="st0" x1="33" y1="16.4" x2="33" y2="30.1"/>
	<line id="Linie_241" class="st0" x1="28.8" y1="16.4" x2="28.8" y2="30.1"/>
	<line id="Linie_242" class="st0" x1="22.7" y1="16.4" x2="22.7" y2="30.1"/>
	<line id="Linie_243" class="st0" x1="18.6" y1="16.4" x2="18.6" y2="30.1"/>
	<line id="Linie_244" class="st0" x1="12.5" y1="16.4" x2="12.5" y2="30.1"/>
	<line id="Linie_245" class="st0" x1="4.3" y1="32.5" x2="37" y2="32.5"/>
	<line id="Linie_453" class="st0" x1="4.3" y1="35" x2="37" y2="35"/>
	<line id="Linie_249" class="st0" x1="8.3" y1="16.4" x2="8.3" y2="30.1"/>
</g>
</svg>
