<?xml version="1.0" encoding="UTF-8" standalone="no"?>
<!-- Created with Inkscape (http://www.inkscape.org/) -->

<svg
   xmlns:dc="http://purl.org/dc/elements/1.1/"
   xmlns:cc="http://creativecommons.org/ns#"
   xmlns:rdf="http://www.w3.org/1999/02/22-rdf-syntax-ns#"
   xmlns:svg="http://www.w3.org/2000/svg"
   xmlns="http://www.w3.org/2000/svg"
   xmlns:sodipodi="http://sodipodi.sourceforge.net/DTD/sodipodi-0.dtd"
   xmlns:inkscape="http://www.inkscape.org/namespaces/inkscape"
   width="77.787498mm"
   height="74.877083mm"
   viewBox="0 0 77.787498 74.877083"
   version="1.1"
   id="svg835"
   inkscape:version="0.92.4 5da689c313, 2019-01-14"
   sodipodi:docname="coding.svg"
   inkscape:export-filename="/home/findus/git/codefor-website/themes/hugo-cfg/static/images/illustrations/faces/1.png"
   inkscape:export-xdpi="300"
   inkscape:export-ydpi="300">
  <defs
     id="defs829" />
  <sodipodi:namedview
     id="base"
     pagecolor="#ffffff"
     bordercolor="#666666"
     borderopacity="1.0"
     inkscape:pageopacity="0.0"
     inkscape:pageshadow="2"
     inkscape:zoom="0.98994949"
     inkscape:cx="16.402235"
     inkscape:cy="145.05714"
     inkscape:document-units="mm"
     inkscape:current-layer="layer1"
     showgrid="false"
     fit-margin-top="0"
     fit-margin-left="0"
     fit-margin-right="0"
     fit-margin-bottom="0"
     inkscape:window-width="1364"
     inkscape:window-height="730"
     inkscape:window-x="0"
     inkscape:window-y="37"
     inkscape:window-maximized="0" />
  <metadata
     id="metadata832">
    <rdf:RDF>
      <cc:Work
         rdf:about="">
        <dc:format>image/svg+xml</dc:format>
        <dc:type
           rdf:resource="http://purl.org/dc/dcmitype/StillImage" />
        <dc:title></dc:title>
      </cc:Work>
    </rdf:RDF>
  </metadata>
  <g
     inkscape:label="Ebene 1"
     inkscape:groupmode="layer"
     id="layer1"
     transform="translate(7.1437492,-44.115028)">
    <path
       style="fill:#ff6460;fill-opacity:1;stroke-width:0.21525189"
       d="m 22.349308,112.08205 c -0.195932,-0.21649 -0.35624,-0.62882 -0.35624,-0.91629 0,-0.28744 0.581181,-2.62833 1.291512,-5.20194 0.710331,-2.5736 1.291511,-4.72436 1.291511,-4.77943 0,-0.0551 -4.286203,-0.12816 -9.524895,-0.16242 l -9.5248976,-0.0622 -1.1459037,-0.63476 C 3.1214712,99.627614 2.2006798,98.598954 1.5481766,97.161001 1.134981,96.250417 1.1229567,95.675847 1.118363,76.620824 1.1129975,54.711716 1.0334778,55.888773 2.6442182,54.058872 3.1197735,53.518612 4.0405924,52.823306 4.726758,52.486356 L 5.9568013,51.882327 H 31.356527 c 25.370913,0 25.400833,5.16e-4 26.379293,0.453247 2.149438,0.994544 3.463051,2.708645 3.859128,5.035674 0.164921,0.968962 0.218765,7.123802 0.175118,20.018427 l -0.06302,18.619295 -0.479785,1.039551 c -0.714959,1.549113 -1.614538,2.567373 -2.894601,3.276469 l -1.145903,0.63476 -9.536708,0.0623 c -8.881588,0.058 -9.529124,0.0876 -9.426306,0.43051 0.931582,3.10697 2.496243,9.1611 2.496243,9.6587 0,1.38264 0.125223,1.36447 -9.400857,1.36447 -8.071327,0 -8.636006,-0.0248 -8.969818,-0.39363 z m 14.926645,-2.64359 c 0,-0.13139 -0.50042,-2.07091 -1.112044,-4.30997 l -1.112048,-4.07101 -3.677307,0.0587 -3.677312,0.0587 -1.117626,3.98216 c -0.614691,2.19019 -1.123224,4.10324 -1.130071,4.25123 -0.0096,0.20904 1.308303,0.26906 5.906982,0.26906 4.194231,0 5.919426,-0.0697 5.919426,-0.23896 z M 56.798936,97.784974 c 1.277573,-0.69863 1.840331,-1.707921 1.955839,-3.507777 l 0.102977,-1.604688 H 31.353613 3.84947 l 0.1275479,1.521338 c 0.1867778,2.227888 1.0646065,3.456317 2.7596034,3.861787 0.3998204,0.0957 11.6725077,0.15857 25.0504127,0.13985 22.715871,-0.0318 24.368963,-0.0589 25.011906,-0.41051 z m 2.001006,-23.893185 c -7.37e-4,-9.683591 -0.08297,-16.061572 -0.213147,-16.530131 -0.24044,-0.865487 -1.320049,-2.005256 -2.22125,-2.345021 -0.414313,-0.156201 -8.330447,-0.228454 -25.029946,-0.228454 -20.141163,0 -24.5472129,0.05148 -25.1266955,0.293609 -0.895916,0.374337 -1.7872934,1.431438 -2.0722697,2.457537 -0.1435042,0.516707 -0.2227501,6.352255 -0.2235247,16.460085 l -0.00121,15.659573 H 31.356512 58.801128 l -0.0013,-15.767198 z m -39.551334,3.439867 c -3.301944,-3.32067 -3.928349,-4.051216 -3.928349,-4.581441 0,-0.531695 0.61993,-1.248352 3.945314,-4.560883 3.415392,-3.402193 4.034897,-3.930066 4.612292,-3.930066 0.745837,0 1.559233,0.821072 1.559233,1.573949 0,0.278534 -1.182096,1.63064 -3.225939,3.689891 l -3.225937,3.250259 2.888952,2.883006 c 3.359024,3.352109 3.763549,3.945426 3.321517,4.871673 -0.247104,0.517787 -0.451318,0.639569 -1.159338,0.691367 -0.852109,0.06234 -0.892724,0.02935 -4.787745,-3.887755 z m 7.599833,3.454109 c -0.184295,-0.263117 -0.335082,-0.663777 -0.335082,-0.890351 0,-0.446154 6.189054,-12.066134 7.038366,-13.214564 0.380243,-0.514161 0.685601,-0.69957 1.152159,-0.69957 0.752422,0 1.49581,0.667133 1.49581,1.34237 0,0.405476 -6.525078,12.865487 -7.159485,13.671451 -0.370113,0.470197 -1.81228,0.332457 -2.191768,-0.209336 z m 11.159304,0.313666 c -0.413255,-0.275939 -0.735174,-1.081336 -0.594704,-1.487875 0.07454,-0.215756 1.550155,-1.821018 3.279127,-3.56725 l 3.143584,-3.174966 -3.208148,-3.213505 c -2.734083,-2.738648 -3.208149,-3.310776 -3.208149,-3.871755 0,-0.873795 0.616508,-1.524814 1.443978,-1.524814 0.568603,0 1.203358,0.543608 4.594555,3.934803 3.299135,3.299137 3.934803,4.035948 3.934803,4.560884 0,0.524088 -0.638686,1.26816 -3.920715,4.567645 -3.377254,3.39522 -4.011281,3.94111 -4.574101,3.938271 -0.359363,-0.0017 -0.759966,-0.07447 -0.89023,-0.161438 z"
       id="path8458"
       inkscape:connector-curvature="0" />
  </g>
</svg>
