<?xml version="1.0" encoding="UTF-8" standalone="no"?>
<!-- Created with Inkscape (http://www.inkscape.org/) -->

<svg
   xmlns:dc="http://purl.org/dc/elements/1.1/"
   xmlns:cc="http://creativecommons.org/ns#"
   xmlns:rdf="http://www.w3.org/1999/02/22-rdf-syntax-ns#"
   xmlns:svg="http://www.w3.org/2000/svg"
   xmlns="http://www.w3.org/2000/svg"
   xmlns:sodipodi="http://sodipodi.sourceforge.net/DTD/sodipodi-0.dtd"
   xmlns:inkscape="http://www.inkscape.org/namespaces/inkscape"
   width="77.787498mm"
   height="74.877083mm"
   viewBox="0 0 77.787498 74.877083"
   version="1.1"
   id="svg835"
   inkscape:version="0.92.4 5da689c313, 2019-01-14"
   sodipodi:docname="folders.svg"
   inkscape:export-filename="/home/findus/git/codefor-website/themes/hugo-cfg/static/images/illustrations/faces/1.png"
   inkscape:export-xdpi="300"
   inkscape:export-ydpi="300">
  <defs
     id="defs829" />
  <sodipodi:namedview
     id="base"
     pagecolor="#ffffff"
     bordercolor="#666666"
     borderopacity="1.0"
     inkscape:pageopacity="0.0"
     inkscape:pageshadow="2"
     inkscape:zoom="0.98994949"
     inkscape:cx="16.402235"
     inkscape:cy="145.05714"
     inkscape:document-units="mm"
     inkscape:current-layer="layer1"
     showgrid="false"
     fit-margin-top="0"
     fit-margin-left="0"
     fit-margin-right="0"
     fit-margin-bottom="0"
     inkscape:window-width="1364"
     inkscape:window-height="730"
     inkscape:window-x="0"
     inkscape:window-y="37"
     inkscape:window-maximized="0" />
  <metadata
     id="metadata832">
    <rdf:RDF>
      <cc:Work
         rdf:about="">
        <dc:format>image/svg+xml</dc:format>
        <dc:type
           rdf:resource="http://purl.org/dc/dcmitype/StillImage" />
        <dc:title></dc:title>
      </cc:Work>
    </rdf:RDF>
  </metadata>
  <g
     inkscape:label="Ebene 1"
     inkscape:groupmode="layer"
     id="layer1"
     transform="translate(7.1437492,-44.115028)">
    <path
       style="fill:#01b255;stroke-width:0.21247417;fill-opacity:0.94117647"
       d="m 46.015265,105.64045 c -0.868921,-0.31202 -1.521929,-0.96145 -1.711887,-1.7025 -0.234319,-0.91411 -7.538827,-42.288379 -7.538079,-42.697279 0.0013,-0.661788 0.754939,-1.756458 1.460698,-2.121419 0.760736,-0.393393 8.629924,-1.819386 10.040081,-1.819386 1.188727,0 2.156148,0.681819 2.497037,1.759865 0.368489,1.165326 7.493823,41.638439 7.495297,42.574569 0.0017,1.03454 -0.488257,1.8793 -1.347506,2.32363 -0.337129,0.17434 -2.498133,0.64852 -4.802235,1.05374 -2.304101,0.40523 -4.428308,0.78048 -4.720459,0.83391 -0.292152,0.0534 -0.909978,-0.0389 -1.372947,-0.20513 z m 6.002656,-5.13776 c 0.267556,-0.16711 0.642932,-0.631955 0.83417,-1.032985 0.306528,-0.642796 0.316174,-0.937228 0.08144,-2.486171 -0.59807,-3.946536 -1.027124,-4.838873 -2.525563,-5.252611 -1.073732,-0.296472 -2.412479,0.344988 -2.910546,1.394583 -0.309014,0.651199 -0.322941,0.947203 -0.107036,2.274706 0.496833,3.05479 0.858602,4.330638 1.362083,4.803638 0.912287,0.85705 2.185197,0.97354 3.265451,0.29884 z m -1.9361,-13.527224 c 0.804877,-0.416218 1.317699,-1.011018 1.540017,-1.786194 0.137583,-0.479722 -0.238224,-3.036069 -1.49581,-10.174919 -0.923757,-5.243828 -1.820818,-9.845629 -1.993469,-10.226227 -0.381316,-0.840586 -1.459291,-1.537113 -2.380564,-1.538189 -2.242357,-0.0026 -3.946667,0.981186 -4.219537,2.435709 -0.152159,0.811082 2.882401,18.515009 3.431515,20.019798 0.495798,1.358683 1.334452,1.814693 3.098842,1.684961 0.780043,-0.05736 1.688596,-0.244078 2.019006,-0.414939 z M 44.254033,68.871785 c -1.259092,-0.529409 -1.491108,-1.87994 -0.494226,-2.876822 0.739931,-0.73993 1.626777,-0.813423 2.407265,-0.19949 0.707772,0.556732 0.875004,1.315704 0.491922,2.23255 -0.17131,0.409997 -0.340883,0.745449 -0.376834,0.745449 -0.03595,0 -0.359181,0.08427 -0.718296,0.187258 -0.444112,0.12737 -0.863021,0.09892 -1.309831,-0.08894 z M 5.0299066,105.31304 C 4.6959829,105.21297 4.2320305,104.95848 3.9989015,104.7475 2.9411501,103.79025 2.981114,104.69789 2.981114,81.631887 c 0,-23.433163 -0.047236,-22.487781 1.1715142,-23.44645 0.5651154,-0.44452 0.7706504,-0.460623 5.8793378,-0.460623 4.316242,0 5.408841,0.05951 5.917026,0.322308 1.336896,0.691335 1.26789,-0.596894 1.26789,23.669642 v 22.100786 l -0.718928,0.71893 c -0.463874,0.46387 -1.010375,0.76707 -1.540437,0.85464 -1.200282,0.19828 -9.2157551,0.13524 -9.9276104,-0.0781 z m 6.1336344,-4.33694 c 1.319023,-0.55113 1.589682,-1.316252 1.59059,-4.496445 7.22e-4,-2.548734 -0.04024,-2.844838 -0.48504,-3.505824 -0.947412,-1.407877 -2.9557474,-1.490931 -4.0687033,-0.168258 -0.5294,0.629157 -0.5448424,0.733905 -0.5448424,3.69578 0,2.99281 0.010316,3.060532 0.5669741,3.722087 0.8995159,1.06901 1.6960237,1.27285 2.9410216,0.75266 z m 1.153334,-13.893148 c 1.520349,-0.815371 1.500514,-0.658956 1.499626,-11.825703 -7.64e-4,-9.5269 -0.01997,-10.021051 -0.414804,-10.668598 C 12.83954,63.666687 12.153723,63.258501 10.92265,63.113168 9.5369544,62.94958 8.3022779,63.31314 7.5391883,64.109455 L 6.9118858,64.76407 6.8562396,75.108383 c -0.054206,10.076529 -0.044472,10.3625 0.3760145,11.046869 0.2374133,0.386408 0.7405208,0.83683 1.1180169,1.000936 1.0029302,0.436001 3.088888,0.39749 3.966604,-0.07324 z M 8.8144951,68.251944 C 8.0834616,67.52091 8.1215965,66.574939 8.914046,65.782489 c 1.178486,-1.178487 3.006351,-0.500328 3.052637,1.132563 0.04758,1.678402 -1.959462,2.529618 -3.1521879,1.336892 z M 21.390416,105.32159 c -0.333924,-0.10477 -0.797876,-0.36311 -1.031005,-0.57409 -1.057932,-0.95742 -1.017787,-0.0413 -1.017787,-23.225577 0,-23.642721 -0.06535,-22.363572 1.193016,-23.3534 0.537753,-0.422996 0.811203,-0.443709 5.857836,-0.443709 5.82267,0 6.24755,0.0785 6.862607,1.26789 0.47549,0.919493 0.489356,44.112126 0.01445,45.030486 -0.684805,1.32426 -1.009355,1.39774 -6.385085,1.44549 -2.687798,0.0239 -5.160115,-0.0423 -5.494039,-0.14709 z m 6.133634,-4.34549 c 1.299073,-0.54279 1.58968,-1.332475 1.59059,-4.322216 0.0011,-3.694514 -0.577154,-4.778674 -2.548895,-4.778674 -1.757822,0 -2.551683,1.035924 -2.707471,3.533025 -0.158663,2.54318 0.07017,4.037267 0.740317,4.833695 0.88348,1.04996 1.687034,1.25161 2.925459,0.73417 z m 1.153335,-13.893148 c 1.51877,-0.814524 1.500459,-0.671477 1.500091,-11.719466 -4.25e-4,-10.893691 0.01186,-10.7865 -1.343215,-11.780528 -0.821975,-0.602969 -3.340125,-0.625555 -4.31134,-0.03867 -1.39473,0.842805 -1.356846,0.514738 -1.355968,11.74243 8.5e-4,9.818077 0.01545,10.190022 0.429132,10.868535 0.235587,0.386408 0.7372,0.83683 1.114695,1.000936 1.002931,0.436001 3.088889,0.39749 3.966605,-0.07324 z M 25.175006,68.251944 c -0.731035,-0.731034 -0.6929,-1.677005 0.09955,-2.469455 1.222872,-1.222874 2.990982,-0.487195 2.990982,1.244494 0,1.624536 -1.927126,2.388369 -3.090532,1.224961 z"
       id="path8634"
       inkscape:connector-curvature="0" />
  </g>
</svg>
