<?xml version="1.0" encoding="UTF-8" standalone="no"?>
<!-- Created with Inkscape (http://www.inkscape.org/) -->

<svg
   xmlns:dc="http://purl.org/dc/elements/1.1/"
   xmlns:cc="http://creativecommons.org/ns#"
   xmlns:rdf="http://www.w3.org/1999/02/22-rdf-syntax-ns#"
   xmlns:svg="http://www.w3.org/2000/svg"
   xmlns="http://www.w3.org/2000/svg"
   xmlns:sodipodi="http://sodipodi.sourceforge.net/DTD/sodipodi-0.dtd"
   xmlns:inkscape="http://www.inkscape.org/namespaces/inkscape"
   width="77.787498mm"
   height="74.877083mm"
   viewBox="0 0 77.787498 74.877083"
   version="1.1"
   id="svg835"
   inkscape:version="0.92.4 5da689c313, 2019-01-14"
   sodipodi:docname="microphone.svg"
   inkscape:export-filename="/home/findus/git/codefor-website/themes/hugo-cfg/static/images/illustrations/faces/1.png"
   inkscape:export-xdpi="300"
   inkscape:export-ydpi="300">
  <defs
     id="defs829" />
  <sodipodi:namedview
     id="base"
     pagecolor="#ffffff"
     bordercolor="#666666"
     borderopacity="1.0"
     inkscape:pageopacity="0.0"
     inkscape:pageshadow="2"
     inkscape:zoom="0.98994949"
     inkscape:cx="16.402235"
     inkscape:cy="145.05714"
     inkscape:document-units="mm"
     inkscape:current-layer="layer1"
     showgrid="false"
     fit-margin-top="0"
     fit-margin-left="0"
     fit-margin-right="0"
     fit-margin-bottom="0"
     inkscape:window-width="1364"
     inkscape:window-height="730"
     inkscape:window-x="0"
     inkscape:window-y="37"
     inkscape:window-maximized="0" />
  <metadata
     id="metadata832">
    <rdf:RDF>
      <cc:Work
         rdf:about="">
        <dc:format>image/svg+xml</dc:format>
        <dc:type
           rdf:resource="http://purl.org/dc/dcmitype/StillImage" />
        <dc:title></dc:title>
      </cc:Work>
    </rdf:RDF>
  </metadata>
  <g
     inkscape:label="Ebene 1"
     inkscape:groupmode="layer"
     id="layer1"
     transform="translate(7.1437492,-44.115028)">
    <path
       style="fill:#01a8a8;stroke-width:0.2832922;fill-opacity:1"
       d="m 20.89381,106.11325 c 1.610361,-0.57548 2.243165,-1.13693 9.45773,-8.391333 3.739457,-3.760106 7.143256,-7.019306 7.563998,-7.242665 2.621867,-1.39188 5.872341,0.569505 6.101742,3.681878 0.09038,1.226219 -0.01829,1.619553 -0.743212,2.690159 -0.653659,0.965358 -0.785436,1.372851 -0.57258,1.770577 0.44441,0.830389 1.555639,0.636974 2.321553,-0.404074 2.367908,-3.21852 1.464471,-7.375266 -2.062639,-9.490289 -1.765506,-1.05868 -3.798107,-1.234032 -5.606479,-0.483665 -0.688052,0.285499 -3.607136,2.97577 -8.418844,7.758923 -4.051078,4.027039 -7.801023,7.541529 -8.33321,7.809979 -2.217594,1.1186 -5.485834,-0.18064 -6.752099,-2.68419 -0.790714,-1.563341 -0.811559,-3.087725 -0.06231,-4.556383 0.492773,-0.965913 0.652329,-1.085964 1.114546,-0.83859 0.296694,0.158785 0.990729,0.2887 1.542299,0.2887 1.046113,0 2.708778,-1.374352 18.933847,-15.65066 l 4.46003,-3.924344 2.480629,-0.0569 c 1.981894,-0.04546 2.763926,-0.196308 3.889702,-0.750289 1.887844,-0.928984 3.711693,-2.808588 4.633499,-4.775144 0.644156,-1.374226 0.756441,-1.992239 0.756441,-4.163404 0,-2.171164 -0.112285,-2.789177 -0.756441,-4.163403 -0.966295,-2.061468 -2.939524,-4.032937 -4.995382,-4.990927 -1.374436,-0.64046 -1.991908,-0.751237 -4.163404,-0.746935 -2.180454,0.0043 -2.775751,0.114849 -4.11129,0.763348 -1.921725,0.933133 -3.780345,2.729333 -4.765282,4.605242 -0.625028,1.190429 -0.748585,1.807143 -0.774285,3.864723 l -0.03058,2.448261 -9.852818,11.283257 -9.852817,11.283255 0.154425,1.496233 c 0.131068,1.269951 0.03969,1.69962 -0.604242,2.841075 -0.635717,1.126897 -0.758668,1.689178 -0.758668,3.469536 0,1.806389 0.116413,2.322719 0.777056,3.446539 1.950232,3.31755 5.829227,4.95502 9.029083,3.81151 z M 15.195408,93.189355 c -0.311622,-0.311621 -0.566585,-0.757869 -0.566585,-0.991664 0,-0.233793 2.262797,-3.011419 5.028437,-6.172507 2.76564,-3.161084 6.043061,-6.923939 7.283159,-8.361898 l 2.254723,-2.614472 2.057197,2.043467 c 1.131458,1.123907 1.987442,2.114103 1.902188,2.200435 -1.842077,1.865346 -16.544355,14.436594 -16.896774,14.44766 -0.272668,0.0086 -0.750724,-0.239399 -1.062345,-0.551021 z M 39.234227,73.541408 c -2.931017,-1.425197 -5.058242,-4.611521 -5.058242,-7.576633 0,-0.900782 0.108984,-1.705142 0.242186,-1.787466 0.133203,-0.08232 0.714722,0.536422 1.292266,1.374991 1.278905,1.856911 5.883335,6.359692 7.646988,7.478167 0.707099,0.448429 1.193339,0.908753 1.080534,1.022943 -0.37013,0.374673 -4.143825,0.0034 -5.203732,-0.512002 z m 5.706862,-2.20158 c -1.948745,-1.101361 -7.260707,-6.435887 -8.214548,-8.24944 -0.806914,-1.534199 -0.695561,-1.925217 0.847496,-2.975999 2.832809,-1.929072 7.090943,-1.435915 9.643751,1.116893 2.044842,2.044841 2.848084,5.624959 1.817289,8.099804 -0.644685,1.547833 -1.625669,2.890877 -2.110943,2.890052 -0.233716,-3.96e-4 -1.126086,-0.396987 -1.983045,-0.88131 z"
       id="path8602"
       inkscape:connector-curvature="0" />
  </g>
</svg>
