<svg width="168" height="170" xmlns="http://www.w3.org/2000/svg"><path d="M94.725 15.867v140.875h17.609V15.867z" fill="#ff8282"/><path d="M164.568 169.951c1.207 0 2.799-1.088 2.799-2.291V2.651c0-1.206-1.592-2.194-2.799-2.194h-55.002c-1.209 0-1.633.491-1.633 1.099v14.298c0 1.212.424 2.212 1.633 2.212h37.396c1.215 0 2.797.979 2.797 2.189v129.8c0 1.212-1.582 2.286-2.797 2.286h-37.396c-1.209 0-1.633.41-1.633 1.016V167.661c0 1.203.424 2.291 1.633 2.291h55.002z" fill="#ff645f"/><path d="M22.082 115.738V147.816c0 13.168 8.428 22.135 21.748 22.135H71.066c.609 0 1.646-1.088 1.646-2.291v-13.204c0-1.203-1.535-2.115-2.748-2.115H46.88c-5.701 0-7.184-2.693-7.184-9.202v-37.682c0-13.278-5.4-18.165-11.971-20.568 6.57-2.401 11.971-7.283 11.971-20.552V26.372c0-6.394 1.275-8.303 7.184-8.303h24.186c.609 0 1.646-1.003 1.646-2.215v-13.2c0-1.208-1.535-2.196-2.748-2.196H43.83c-13.32 0-21.748 8.624-21.748 21.507V57.66s-.436 6.607-.754 8.855c-.832 5.952-8.127 11.049-12.641 10.982H1.77c-1.209 0-1.697.95-1.697 2.16v13.195c0 1.214.488 2.256 1.697 2.256h6.318c5.762-.079 13.045 4.775 13.598 12.022.164 2.099.396 8.608.396 8.608" fill="#00abfa"/><path d="M109.566.457H96.365c-1.207 0-1.641.988-1.641 2.198v15.413H112.339V.457zM94.725 154.456v13.204c0 1.203.434 2.291 1.641 2.291H112.335v-17.61h-17.61z" fill="#bd3b38"/></svg>
