<?xml version="1.0" encoding="UTF-8" standalone="no"?>
<svg xmlns:dc="http://purl.org/dc/elements/1.1/" xmlns:cc="http://creativecommons.org/ns#" xmlns:rdf="http://www.w3.org/1999/02/22-rdf-syntax-ns#" xmlns:svg="http://www.w3.org/2000/svg" xmlns="http://www.w3.org/2000/svg" xmlns:xlink="http://www.w3.org/1999/xlink" xmlns:sodipodi="http://sodipodi.sourceforge.net/DTD/sodipodi-0.dtd" xmlns:inkscape="http://www.inkscape.org/namespaces/inkscape" width="414" height="736" id="svg2" version="1.1" inkscape:version="0.91 r13725" sodipodi:docname="background-snow.svg">
  <metadata id="metadata103">
    <rdf:RDF>
      <cc:Work rdf:about="">
        <dc:format>image/svg+xml</dc:format>
        <dc:type rdf:resource="http://purl.org/dc/dcmitype/StillImage"/>
        <dc:title/>
      </cc:Work>
    </rdf:RDF>
  </metadata>
  <sodipodi:namedview pagecolor="#ffffff" bordercolor="#666666" borderopacity="1" objecttolerance="10" gridtolerance="10" guidetolerance="10" inkscape:pageopacity="0" inkscape:pageshadow="2" inkscape:window-width="1920" inkscape:window-height="995" id="namedview101" showgrid="false" inkscape:zoom="0.90694131" inkscape:cx="-33.919669" inkscape:cy="345.2987" inkscape:window-x="0" inkscape:window-y="38" inkscape:window-maximized="1" inkscape:current-layer="g13"/>
  <defs id="defs4">
    <path id="mobile-00-a" d="M230.92.84L.67 385.842 78.3 461.93l78.08-77.558 75.307 78.833 75.088-77.34 77.653 75.494 78.586-75.57z"/>
    <path id="mobile-00-b" d="M153.386.225L.11 256.82l51.68 50.71 51.976-51.69 50.13 52.54 49.986-51.545 51.692 50.315 52.313-50.36z"/>
    <ellipse id="mobile-00-c" cx="273.877" cy="49.833" rx="25.877" ry="25.833"/>
    <ellipse id="mobile-00-d" cx="46.5" cy="46.42" rx="46.5" ry="46.42"/>
    <path id="mobile-00-e" d="M27.126 48.174c-1.293 3.006-2.07 6.27-1.952 9.54.118 3.27 1.17 6.547 3.227 9.092 2.35 2.905 5.91 4.715 9.6 5.276 3.65.556 7.47-.065 10.76-1.747.97.665 2.02 1.212 3.12 1.623 2.07.773 4.31 1.066 6.51.848l11.04-.67c-.01-.357-.13-.712-.35-.998-.29-.39-.74-.642-1.21-.774s-.96-.154-1.45-.156c-.63-.002-1.25.028-1.88.09 1.65-.828 3.06-2.13 4.02-3.71.43-.71.77-1.483.94-2.298.16-.814.14-1.675-.13-2.46-.364-1.038-1.18-1.907-2.195-2.338-.35-.892-.85-1.727-1.47-2.456-.57-.675-1.25-1.26-2-1.73.45-.497.92-.974 1.41-1.43.34-.316.69-.622 1.05-.916.173.358.5.64.883.755.335.102.704.08 1.03-.047.33-.126.62-.35.83-.63.44-.554.58-1.293.53-1.995-.04-.654-.25-1.325-.712-1.787-.38-.377-.917-.59-1.45-.576.035-1.158-.187-2.323-.646-3.387-.44-1.018-1.097-1.94-1.915-2.692.445-.07.88-.17 1.3-.31.43-.14.84-.31 1.24-.52l1.575-.26c.41-.19.78-.46 1.083-.79.545-.6.873-1.4.906-2.21-.28-.35-.58-.68-.9-.99-.276-.26-.56-.51-.86-.74-.04-.72-.208-1.44-.49-2.11-.32-.74-.788-1.42-1.368-1.99.43-.36.76-.84.96-1.36.2-.52.26-1.09.3-1.65.03-.4.05-.8.056-1.21-.57.13-1.13.31-1.67.54-.517.23-1.016.5-1.44.87-.41.36-.744.8-.98 1.28l-.94-.34-.93-.15c-.11-.85-.32-1.69-.614-2.49-.226-.61-.503-1.21-.83-1.78-.65.51-1.225 1.12-1.69 1.81-.268.39-.498.8-.64 1.25-.18.54-.23 1.12-.14 1.68-.96.42-1.81 1.09-2.43 1.93-.77 1.05-1.187 2.35-1.16 3.64.02 1.3.49 2.58 1.3 3.6-.37 0-.74.026-1.1.08-1.23.19-2.39.71-3.38 1.466-.985.755-1.785 1.737-2.36 2.83-.468.88-.79 1.84-.957 2.82.98-5.462.14-11.24-2.36-16.2-1.3-2.583-3.06-4.97-5.327-6.78-2.26-1.81-5.04-3.02-7.93-3.19-2.55-.15-5.15.53-7.27 1.956-2.12 1.42-3.74 3.59-4.456 6.04-.734 2.534-.48 5.34.695 7.7.45-1.16 1.3-2.154 2.37-2.79 1.07-.63 2.35-.895 3.58-.736.795.1 1.57.38 2.23.83.66.46 1.2 1.09 1.51 1.83.26.62.36 1.29.326 1.96-.03.668-.19 1.325-.42 1.95-.46 1.25-1.21 2.37-1.907 3.51-.92 1.5-1.76 3.04-2.45 4.655z"/>
    <ellipse id="mobile-00-f" cx="25.877" cy="291.833" rx="25.877" ry="25.833"/>
    <path id="mobile-00-g" d="M192 383h25v10h-25z"/>
  </defs>
  <g fill="none" fill-rule="evenodd" id="g13">
    <path d="M0 0h414v736H0z" id="path15" fill="#7AD8BA"/>
    <g stroke-linejoin="round" transform="translate(-53 323) translate(104.51)" id="g27"/>
    <use height="100%" width="100%" y="0" x="0" style="fill:#fdf6ae;fill-opacity:1" id="use39" xlink:href="#mobile-00-c" transform="translate(12.817569,191.97288)"/>
    <ellipse style="fill:#b2d6ff" id="ellipse59" ry="25.833" rx="25.877001" cy="435.66821" cx="288.71744"/>
    <ellipse cx="54.199142" cy="517.53192" rx="25.877001" ry="25.833" id="ellipse61" style="fill:#ffb4be"/>
    <ellipse cx="159.27905" cy="192.61771" rx="25.877001" ry="25.833" id="ellipse63" style="fill:#b2d6ff"/>
    <ellipse cx="315.86099" cy="668.76654" rx="25.877001" ry="25.833" style="mix-blend-mode:multiply;fill:#fcf49c" id="ellipse65"/>
    <circle cx="333.30615" cy="57.253998" r="6" id="circle73" style="fill:#ffffff"/>
    <circle cx="380.97394" cy="131.05382" r="7" id="circle87" style="fill:#ffffff"/>
    <circle cx="123.41212" cy="680.94867" r="7" id="circle89" style="fill:#ffffff"/>
    <circle cx="18" cy="33" r="7" fill="#FFF" id="circle91"/>
    <circle cx="18" cy="330" r="7" fill="#FFF" id="circle93"/>
    <circle cx="46.320858" cy="191.82211" r="8.5" id="circle97" style="fill:#ffffff"/>
    <circle cx="271" cy="355" r="4" fill="#FFF" id="circle99"/>
    <circle style="fill:#ffffff" cx="194.01721" cy="40.420006" id="circle81-7" r="5.8860188"/>
    <circle style="fill:#ffffff" cx="84.48613" cy="410.19281" id="circle87-5" r="11.772038"/>
    <circle cx="148.27267" cy="364.26077" r="13.11597" id="circle95-6" style="fill:#ffffff"/>
    <circle style="fill:#ffffff" cx="177.90718" cy="459.20273" id="circle85-3-9" r="9.0824518"/>
    <circle style="fill:#ffffff" cx="381.69464" cy="492.04037" id="circle87-5-1" r="18.164906"/>
    <circle style="fill:#ffffff" cx="130.2525" cy="276.07935" id="circle85-3-7" r="5.8860188"/>
    <circle style="fill:#ffffff" cx="81.999542" cy="90.311287" id="circle87-5-0" r="11.772038"/>
    <circle cx="194.30083" cy="591.2724" r="13.11597" id="circle95-6-9" style="fill:#ffffff"/>
    <circle style="fill:#ffffff" cx="216.35735" cy="269.39493" id="circle79-6-2-3" r="5.8860188"/>
    <circle style="fill:#ffffff" cx="340.85049" cy="323.49146" id="circle85-3-7-6" r="5.8860188"/>
    <circle style="fill:#ffffff" cx="333.39398" cy="174.10944" id="circle87-5-0-0" r="11.772038"/>
    <circle style="fill:#ffffff" cx="232.65012" cy="129.56604" id="circle87-5-1-1-8" r="18.164906"/>
    <circle cx="269.03616" cy="541.9411" r="6" id="circle73-3" style="fill:#ffffff"/>
    <circle cx="12.128686" cy="612.508" r="6" id="circle73-3-6" style="fill:#ffffff"/>
  </g>
</svg>