<?xml version="1.0" encoding="utf-8"?>
<!-- Generator: Adobe Illustrator 24.1.0, SVG Export Plug-In . SVG Version: 6.00 Build 0)  -->
<svg version="1.1" id="Ebene_1" xmlns="http://www.w3.org/2000/svg" xmlns:xlink="http://www.w3.org/1999/xlink" x="0px" y="0px"
	 viewBox="0 0 134 100" style="enable-background:new 0 0 134 100;" xml:space="preserve">
<style type="text/css">
	.st0{fill:none;}
	.st1{fill:currentColor;}
	.st2{fill:none;stroke:currentColor;stroke-width:3;stroke-linecap:round;stroke-linejoin:round;stroke-miterlimit:10.001;}
</style>
<g id="Gruppe_1214" transform="translate(-919 -3406)">
	<g id="Gruppe_1193" transform="translate(133 46)">
		<g id="Polygon_8" transform="translate(786 3360)">
			<path class="st0" d="M95.2,0l28.3,50l-28.2,50H38.7L10.5,50L38.7,0H95.2z"/>
			<path class="st1" d="M40.4,2.9L13.8,50l26.6,47.1h53.1L120.2,50L93.6,2.9H40.4 M38.7,0h56.5l28.3,50l-28.2,50H38.7L10.5,50
				L38.7,0z"/>
		</g>
		<path id="Pfad_734" class="st2" d="M843,3421.7v12.4c0,5.1,3.4,8.6,8.8,8.6h11c0.4-0.1,0.7-0.5,0.7-0.9v-5.1
			c0-0.5-0.6-0.8-1.1-0.8h-9.3c-2.3,0-2.9-1-2.9-3.6v-14.6c0-5.1-2.2-7-4.8-7.9c2.6-0.9,4.8-2.8,4.8-7.9v-14.7
			c0-2.5,0.5-3.2,2.9-3.2h9.8c0.4-0.1,0.7-0.5,0.7-0.9v-5.1c0-0.5-0.6-0.8-1.1-0.8H852c-5.4,0-8.8,3.3-8.8,8.3v13.8
			c0,0-0.2,2.6-0.3,3.4c-0.3,2.3-3.3,4.3-5.1,4.2H835c-0.5,0-0.7,0.4-0.7,0.8v5.1c0,0.5,0.2,0.9,0.7,0.9h2.5c2.3,0,5.3,1.8,5.5,4.6
			C842.9,3419.2,843,3421.7,843,3421.7"/>
	</g>
</g>
</svg>
