<?xml version="1.0" encoding="utf-8"?>
<!-- Generator: Adobe Illustrator 24.1.0, SVG Export Plug-In . SVG Version: 6.00 Build 0)  -->
<svg version="1.1" id="Ebene_1" xmlns="http://www.w3.org/2000/svg" xmlns:xlink="http://www.w3.org/1999/xlink" x="0px" y="0px"
	 viewBox="0 0 115 100" style="enable-background:new 0 0 115 100;" xml:space="preserve">
<style type="text/css">
	.st0{fill:none;stroke:currentColor;stroke-width:3;stroke-miterlimit:10;}
	.st1{fill:none;stroke:currentColor;stroke-width:3;stroke-linecap:square;stroke-linejoin:round;}
</style>
<g id="Gruppe_844" transform="translate(-1106.134 -253.544)">
	<path id="Pfad_513" class="st0" d="M1168.4,329.3c1.9,0,3.5,1.6,3.5,3.5s-1.6,3.5-3.5,3.5c-1.9,0-3.5-1.6-3.5-3.5
		C1164.9,330.8,1166.5,329.3,1168.4,329.3C1168.4,329.3,1168.4,329.3,1168.4,329.3z"/>
	<path id="Pfad_514" class="st1" d="M1129.1,344.9l-18.5,3.5l11.6-27.6l-0.2-1c-8.6-25.3,4.9-52.7,30.2-61.3
		c25.1-8.5,52.4,4.8,61.2,29.8c8.7,25.2-5.6,51.4-30.8,60.1c-12.1,4.2-25.9,2-34.9-3.4"/>
	<path id="Pfad_515" class="st1" d="M1172.8,318.5c-2.3,3-6.6,3.5-9.5,1.2c-3-2.3-3.5-6.6-1.2-9.5l0,0l15.3-15.3
		c2-2.3,3.1-5.2,3.1-8.3c0-7-5.7-12.7-12.7-12.7c-5.3,0-10,3.3-11.9,8.2"/>
</g>
</svg>
