<?xml version="1.0" encoding="utf-8"?>
<!-- Generator: Adobe Illustrator 24.1.2, SVG Export Plug-In . SVG Version: 6.00 Build 0)  -->
<svg version="1.1" id="Ebene_1" xmlns="http://www.w3.org/2000/svg" xmlns:xlink="http://www.w3.org/1999/xlink" x="0px" y="0px"
	 viewBox="0 0 120.7 113.9" style="enable-background:new 0 0 120.7 113.9;" xml:space="preserve">
<style type="text/css">
	.st0{fill:none;stroke:#FF645F;stroke-width:3;stroke-linecap:round;stroke-linejoin:round;}
</style>
<g id="Gruppe_1191" transform="translate(2.014 1.5)">
	<path id="Pfad_503" class="st0" d="M11.8,68.7c3.8-6.5,10.9-10.5,18.4-10.3c13.3,0,18.8,7.4,18.8,7.4s2.9-8,10.6-7.7
		s7.9,5,10.3,6.8c1.5,1.1,5.3,0.9,5.3,0.9s-5.5-17.7-4.2-31c1.3-13.3-9.3-15.5-9.3-15.5"/>
	<path id="Pfad_504" class="st0" d="M21.7,105.6c14.2,4.8,29.7,4.5,43.8-0.8C87,96.5,104.7,79,104.7,79s2.6-17.7-9.7-36.4
		S73,11.8,73,11.8S59.4,1.1,46.8,1.1l-9.4,13.9c1.7,4.6,6.1,7.6,11,7.4c0,0,9.3,1.2,10.2-7.5"/>
	<g id="Gruppe_170" transform="translate(26.28 85.625)">
		<path id="Pfad_505" class="st0" d="M16.5-7.3L7.4-0.1l9.1,7.8"/>
		<path id="Pfad_506" class="st0" d="M30.4,7.7l9.1-7.1l-9.1-7.8"/>
		<line id="Linie_221" class="st0" x1="20.1" y1="14" x2="27.3" y2="-13.3"/>
	</g>
</g>
</svg>
