<?xml version="1.0" encoding="UTF-8" standalone="no"?>
<!DOCTYPE svg PUBLIC "-//W3C//DTD SVG 1.1//EN" "http://www.w3.org/Graphics/SVG/1.1/DTD/svg11.dtd">
<svg width="100%" height="100%" viewBox="0 0 115 100" version="1.1" xmlns="http://www.w3.org/2000/svg" xmlns:xlink="http://www.w3.org/1999/xlink" xml:space="preserve" xmlns:serif="http://www.serif.com/" style="fill-rule:evenodd;clip-rule:evenodd;stroke-miterlimit:10;">
    <g transform="matrix(1,0,0,1,-1106.13,-253.544)">
        <g id="Gruppe_844">
            <path id="Pfad_513" d="M1168.4,329.3C1170.3,329.3 1171.9,330.9 1171.9,332.8C1171.9,334.7 1170.3,336.3 1168.4,336.3C1166.5,336.3 1164.9,334.7 1164.9,332.8C1164.9,330.8 1166.5,329.3 1168.4,329.3Z" style="fill:none;fill-rule:nonzero;stroke:currentColor;stroke-width:3px;"/>
            <path id="Pfad_514" d="M1129.1,344.9L1110.6,348.4L1122.2,320.8L1122,319.8C1113.4,294.5 1126.9,267.1 1152.2,258.5C1177.3,250 1204.6,263.3 1213.4,288.3C1222.1,313.5 1207.8,339.7 1182.6,348.4C1170.5,352.6 1156.7,350.4 1147.7,345" style="fill:none;fill-rule:nonzero;stroke:currentColor;stroke-width:3px;stroke-linecap:square;stroke-linejoin:round;stroke-miterlimit:4;"/>
            <path id="Pfad_515" d="M1167.95,323.855C1168.3,312.877 1168.04,271.686 1168.04,271.686" style="fill:none;fill-rule:nonzero;stroke:currentColor;stroke-width:3px;stroke-linecap:square;stroke-linejoin:round;stroke-miterlimit:4;"/>
        </g>
    </g>
</svg>
