<svg version="1.1" id="Ebene_1" xmlns="http://www.w3.org/2000/svg" xmlns:xlink="http://www.w3.org/1999/xlink" x="0px" y="0px"
	 viewBox="0 0 127 68" style="enable-background:new 0 0 127 68;" xml:space="preserve">
<style type="text/css">
	.st0{fill:none;stroke:currentColor;stroke-width:3;stroke-linecap:round;stroke-miterlimit:10;}
</style>
<g id="Gruppe_1190" transform="translate(-169.808 -691.274)">
	<path id="Pfad_631" class="st0" d="M223.4,730.4h38c2.9,0,4.6,2.6,4.6,5.5v0.3c0,2.9-1.7,5-4.6,5h-42.4"/>
	<path id="Pfad_632" class="st0" d="M206.1,741.2h19.7c2.9,0,4.6,2.6,4.6,5.5v0.3c0,2.9-1.7,5-4.6,5h-36.3
		c-6.7,0-17.2-4.5-17.2-14.4"/>
	<path id="Pfad_633" class="st0" d="M222.3,719.6h22.9c2.9,0,4.6,2.6,4.6,5.5v0.3c0,2.9-1.7,5-4.6,5h-22.9"/>
	<path id="Pfad_634" class="st0" d="M222.3,708.8h15.4c2.9,0,4.6,2.6,4.6,5.5v0.3c0,2.9-1.7,5-4.6,5h-15.4"/>
	<path id="Pfad_635" class="st0" d="M221.2,708.8h8.5c2.6,0.2,4.9-1.8,5-4.4c0-0.2,0-0.4,0-0.6v-0.3c0-2.9-1.9-5.5-5-5.5h-39.7
		c-5.1,0-10.3,4.9-10.3,9.6"/>
	<path id="Pfad_636" class="st0" d="M265.2,724.1c6.7-6.7,17.5-6.7,24.1,0c6.7,6.7,6.7,17.5,0,24.1c-6.7,6.7-17.5,6.7-24.1,0
		c-0.2-0.2-0.4-0.4-0.6-0.6"/>
	<path id="Pfad_637" class="st0" d="M269,728.3c4.4-4.4,11.5-4.4,15.9,0c4.4,4.4,4.4,11.5,0,15.9c-4.4,4.4-11.5,4.4-15.9,0
		c-0.1-0.1-0.3-0.3-0.4-0.4"/>
</g>
</svg>
