<?xml version="1.0" encoding="utf-8"?>
<!-- Generator: Adobe Illustrator 24.1.0, SVG Export Plug-In . SVG Version: 6.00 Build 0)  -->
<svg version="1.1" id="Ebene_1" xmlns="http://www.w3.org/2000/svg" xmlns:xlink="http://www.w3.org/1999/xlink" x="0px" y="0px"
	 viewBox="0 0 124.1 111" style="enable-background:new 0 0 124.1 111;" xml:space="preserve">
<style type="text/css">
	.st0{fill:none;stroke:currentColor;stroke-width:3;stroke-linecap:square;stroke-linejoin:round;}
	.st1{fill:none;stroke:currentColor;stroke-width:3;stroke-linejoin:round;}
</style>
<g id="Group_589" transform="translate(1.5 1.5)">
	<path id="Path_582" class="st0" d="M30.6,8.6V0.5h68.8V98h-8.1"/>
	<g id="Group_206" transform="translate(0 8.751)">
		<path id="Path_580" class="st0" d="M90.6,26.7V98H21.8V0.5h42.1L90.6,26.7z"/>
		<path id="Path_581" class="st0" d="M63.1,1.1V28H90"/>
	</g>
	<g id="Group_207" transform="translate(15.627 56.258)">
		<line id="Line_296" class="st0" x1="21.8" y1="0.5" x2="59.3" y2="0.5"/>
		<line id="Line_297" class="st0" x1="21.8" y1="11.7" x2="59.3" y2="11.7"/>
		<line id="Line_298" class="st0" x1="21.8" y1="21.7" x2="59.3" y2="21.7"/>
		<line id="Line_299" class="st0" x1="21.8" y1="33" x2="59.3" y2="33"/>
	</g>
	<g id="Group_208" transform="translate(13.065 20.042)">
		<path id="Path_583" class="st1" d="M29.1,0.5h-1.6c-1.2,0-1.6,0.1-2,0.4c-0.4,0.4-0.5,1-0.5,2.2v6.3c0,1.9-1.9,2.7-3.2,3.3
			c1.3,0.6,3.2,1.4,3.2,3.3v6.3c0,1.2,0.1,1.8,0.5,2.2c0.3,0.3,0.8,0.4,2,0.4h1.7"/>
	</g>
	<g id="Group_209" transform="translate(24.62 20.041)">
		<path id="Path_584" class="st1" d="M21.9,24.9h1.5c1.2,0,1.6-0.1,2-0.4c0.4-0.4,0.5-1,0.5-2.2V16c0-1.9,1.9-2.7,3.2-3.3
			c-1.3-0.6-3.2-1.4-3.2-3.3V3.1c0-1.2-0.1-1.8-0.5-2.2c-0.3-0.3-0.8-0.4-2-0.4h-1.5"/>
	</g>
</g>
</svg>
