<?xml version="1.0" encoding="utf-8"?>
<!-- Generator: Adobe Illustrator 24.1.2, SVG Export Plug-In . SVG Version: 6.00 Build 0)  -->
<svg version="1.1" id="Ebene_1" xmlns="http://www.w3.org/2000/svg" xmlns:xlink="http://www.w3.org/1999/xlink" x="0px" y="0px"
	 viewBox="0 0 134 100" style="enable-background:new 0 0 134 100;" xml:space="preserve">
<style type="text/css">
	.st0{fill:#FF6F4C;}
</style>
<g id="Gruppe_1099" transform="translate(-3.31 -1.89)">
	<path id="Pfad_869" class="st0" d="M103.2,15.3h-14V4.9c0-1.2-1-2.2-2.2-2.2s-2.2,1-2.2,2.2v10.4H53.6V4.9c0-1.2-1-2.2-2.2-2.2
		c-1.2,0-2.2,1-2.2,2.2v10.4H37.4c-7.3,0-13.2,5.9-13.2,13.2V88c0,7.3,5.9,13.2,13.2,13.2h65.8c7.3,0,13.2-5.9,13.2-13.2V28.5
		C116.4,21.2,110.5,15.3,103.2,15.3z M37.4,19.8h11.7v4.6c0,1.2,1,2.2,2.2,2.2c1.2,0,2.2-1,2.2-2.2v-4.6h31.2v4.6
		c0,1.2,1,2.2,2.2,2.2s2.2-1,2.2-2.2v-4.6h14c4.8,0,8.7,3.9,8.7,8.7V38H28.7v-9.5C28.7,23.7,32.6,19.8,37.4,19.8z M103.2,96.7H37.4
		c-4.8,0-8.7-3.9-8.7-8.7V42.5H112V88C111.9,92.8,108,96.7,103.2,96.7z"/>
	<path id="Pfad_870" class="st0" d="M97.3,59.4H43.4c-1.2,0-2.2,1-2.2,2.2s1,2.2,2.2,2.2l0,0h53.9c1.2,0,2.2-1,2.2-2.2
		S98.5,59.4,97.3,59.4z"/>
	<path id="Pfad_871" class="st0" d="M84.5,74.5H56.2c-1.2,0-2.2,1-2.2,2.2s1,2.2,2.2,2.2h28.3c1.2,0,2.2-1,2.2-2.2
		S85.7,74.5,84.5,74.5z"/>
</g>
</svg>
