<?xml version="1.0" encoding="utf-8"?>
<!-- Generator: Adobe Illustrator 24.1.0, SVG Export Plug-In . SVG Version: 6.00 Build 0)  -->
<svg version="1.1" id="Ebene_1" xmlns="http://www.w3.org/2000/svg" xmlns:xlink="http://www.w3.org/1999/xlink" x="0px" y="0px"
	 viewBox="0 0 50 50" style="enable-background:new 0 0 50 50;" xml:space="preserve">
<style type="text/css">
	.st0{fill-rule:evenodd;clip-rule:evenodd;fill:#221E1B;}
	.st1{fill:#221E1B;}
</style>
<g>
	<path class="st0" d="M25.1,1C11.8,1,1,11.8,1,25.1C1,35.7,7.9,44.8,17.5,48c1.2,0.2,1.6-0.5,1.6-1.2c0-0.6,0-2.5,0-4.5
		c-6.7,1.5-8.1-2.8-8.1-2.8c-1.1-2.8-2.7-3.5-2.7-3.5c-2.2-1.5,0.2-1.5,0.2-1.5c2.4,0.2,3.7,2.5,3.7,2.5c2.1,3.7,5.6,2.6,7,2
		c0.2-1.6,0.8-2.6,1.5-3.2c-5.4-0.6-11-2.7-11-11.9c0-2.6,0.9-4.8,2.5-6.5c-0.3-0.6-1.1-3.1,0.2-6.4c0,0,2-0.6,6.6,2.5
		c1.9-0.5,4-0.8,6-0.8c2,0,4.1,0.3,6,0.8c4.6-3.1,6.6-2.5,6.6-2.5c1.3,3.3,0.5,5.8,0.2,6.4c1.5,1.7,2.5,3.8,2.5,6.5
		c0,9.3-5.6,11.3-11,11.9c0.9,0.7,1.6,2.2,1.6,4.5c0,3.2,0,5.8,0,6.6c0,0.6,0.4,1.4,1.7,1.2c9.6-3.2,16.5-12.2,16.5-22.9
		C49.2,11.8,38.4,1,25.1,1z"/>
	<path class="st1" d="M10.1,35.6c-0.1,0.1-0.2,0.2-0.4,0.1c-0.2-0.1-0.3-0.2-0.2-0.4c0.1-0.1,0.2-0.2,0.4-0.1
		C10.1,35.3,10.2,35.5,10.1,35.6L10.1,35.6z M9.8,35.4"/>
	<path class="st1" d="M11.1,36.7c-0.1,0.1-0.3,0.1-0.5-0.1c-0.2-0.2-0.2-0.4-0.1-0.5c0.1-0.1,0.3-0.1,0.5,0.1
		C11.2,36.4,11.2,36.6,11.1,36.7L11.1,36.7z M10.9,36.4"/>
	<path class="st1" d="M12.1,38.1c-0.1,0.1-0.4,0-0.5-0.2c-0.1-0.2-0.1-0.5,0-0.6c0.1-0.1,0.4,0,0.5,0.2C12.2,37.7,12.2,38,12.1,38.1
		L12.1,38.1z M12.1,38.1"/>
	<path class="st1" d="M13.4,39.4c-0.1,0.1-0.4,0.1-0.6-0.1c-0.2-0.2-0.3-0.5-0.1-0.6c0.1-0.1,0.4-0.1,0.6,0.1
		C13.4,39,13.5,39.3,13.4,39.4L13.4,39.4z M13.4,39.4"/>
	<path class="st1" d="M15.1,40.2c-0.1,0.2-0.3,0.3-0.6,0.2c-0.3-0.1-0.5-0.3-0.4-0.5c0.1-0.2,0.3-0.3,0.6-0.2
		C15,39.8,15.2,40,15.1,40.2L15.1,40.2z M15.1,40.2"/>
	<path class="st1" d="M17.1,40.3c0,0.2-0.2,0.4-0.5,0.4c-0.3,0-0.5-0.2-0.5-0.3c0-0.2,0.2-0.4,0.5-0.4C16.9,40,17.1,40.1,17.1,40.3
		L17.1,40.3z M17.1,40.3"/>
	<path class="st1" d="M19,40c0,0.2-0.2,0.4-0.4,0.4c-0.3,0.1-0.5-0.1-0.6-0.3c0-0.2,0.2-0.4,0.4-0.4C18.7,39.7,18.9,39.8,19,40
		L19,40z M19,40"/>
</g>
</svg>
