<?xml version="1.0" encoding="utf-8"?>
<!-- Generator: Adobe Illustrator 24.1.2, SVG Export Plug-In . SVG Version: 6.00 Build 0)  -->
<svg version="1.1" id="Ebene_1" xmlns="http://www.w3.org/2000/svg" xmlns:xlink="http://www.w3.org/1999/xlink" x="0px" y="0px"
	 viewBox="0 0 192 132" style="enable-background:new 0 0 192 132;" xml:space="preserve">
<style type="text/css">
	.st0{fill:none;stroke:#FFFFFF;stroke-width:3;stroke-linecap:round;stroke-linejoin:round;}
	.st1{fill:none;stroke:#FFFFFF;stroke-width:3;stroke-linecap:round;}
	.st2{font-family:'Helvetica-Light';}
	.st3{font-size:72.1502px;}
	.st4{fill:none;}
</style>
<g id="Gruppe_906" transform="translate(-1288.5 -320.9)">
	<g id="Gruppe_817" transform="translate(1330.521 382.598)">
		<path id="Pfad_531" class="st0" d="M16.4,12.3l-9.1,7.1l9.1,7.8"/>
		<path id="Pfad_532" class="st0" d="M30.2,27.2l9.1-7l-9.1-7.8"/>
		<line id="Linie_254" class="st0" x1="20" y1="33.6" x2="27.1" y2="6.3"/>
	</g>
	<g id="Gruppe_802" transform="translate(1372.649 348.482)">
		<text transform="matrix(1 0 0 1 15.442 65.1169)" class="st1 st2 st3">c</text>
		<g id="Ellipse_48" transform="translate(-0.356 24.518)">
			<ellipse class="st4" cx="9.5" cy="13.1" rx="6.3" ry="5.9"/>
			<ellipse class="st1" cx="9.5" cy="13.1" rx="5" ry="4.5"/>
		</g>
	</g>
	<path id="Pfad_807" class="st1" d="M1430,364.9c-1.6,0-3.2,0.1-4.8,0.3c-2.3-19.1-19.8-32.6-38.9-30.3c-17.4,2.2-30.6,17-30.6,34.5
		c0,0.4,0,0.7,0,1.1c-3.2-1.7-6.9-2.6-10.6-2.6c-12.5,0-22.7,10.2-22.7,22.7c0,1.5,0.2,3.2,0.5,4.6c-0.6-0.1-1.4-0.1-2-0.1
		c-10.9,0-19.7,8.8-19.7,19.7s8.8,19.7,19.7,19.7H1430c20.8,0,37.9-15.6,37.9-34.8C1467.8,380.4,1450.9,364.9,1430,364.9z"/>
</g>
</svg>
