<?xml version="1.0" encoding="utf-8"?>
<!-- Generator: Adobe Illustrator 24.1.0, SVG Export Plug-In . SVG Version: 6.00 Build 0)  -->
<svg version="1.1" id="Ebene_1" xmlns="http://www.w3.org/2000/svg" xmlns:xlink="http://www.w3.org/1999/xlink" x="0px" y="0px"
	 viewBox="0 0 578 565" style="enable-background:new 0 0 578 565;" xml:space="preserve">
<style type="text/css">
	.st0{fill:none;stroke:#FFFFFF;stroke-width:3;stroke-linecap:round;stroke-linejoin:round;}
	.st1{fill:none;stroke:#FFFFFF;stroke-width:3;stroke-linecap:square;stroke-linejoin:round;}
	.st2{fill:none;}
	.st3{fill:#FFFFFF;}
	.st4{fill:none;stroke:#FFFFFF;stroke-width:3;stroke-linecap:round;stroke-linejoin:round;stroke-miterlimit:10.001;}
	.st5{fill:none;stroke:#FFFFFF;stroke-width:3;stroke-miterlimit:10.001;}
</style>
<g id="Gruppe_815" transform="translate(561.5 7816.453)">
	<path id="Pfad_503" class="st0" d="M-338.6-7529.6c4.8-8.3,13.8-13.3,23.4-13.1c16.9,0,23.9,9.4,23.9,9.4s3.6-10.2,13.5-9.8
		c9.9,0.4,10,6.4,13.1,8.7c1.9,1.5,6.7,1.1,6.7,1.1s-7-22.6-5.3-39.4c1.6-16.9-11.8-19.7-11.8-19.7"/>
	<path id="Pfad_504" class="st0" d="M-326-7482.7c18.1,6.1,37.8,5.7,55.6-1.1c27.3-10.6,49.8-32.8,49.8-32.8s3.3-22.4-12.3-46.3
		s-28-39.1-28-39.1s-17.3-13.6-33.3-13.6l-11.9,17.7c2.1,5.9,7.8,9.7,14,9.5c0,0,11.8,1.5,12.9-9.5"/>
	<g id="Gruppe_170" transform="translate(27.769 90.475)">
		<path id="Pfad_505" class="st1" d="M-327-7607.8l-11.6,9l11.6,10"/>
		<path id="Pfad_506" class="st1" d="M-309.4-7588.8l11.6-9l-11.6-10"/>
		<line id="Linie_221" class="st0" x1="-322.4" y1="-7580.8" x2="-313.3" y2="-7615.6"/>
	</g>
</g>
<g id="Polygon_6" transform="translate(486 7784)">
	<path class="st2" d="M-145.1-7615.6l64.5,113.5l-64.5,113.5h-129l-64.5-113.5l64.5-113.5H-145.1z"/>
	<path class="st3" d="M-272.3-7612.6l-62.8,110.5l62.8,110.5h125.5l62.8-110.5l-62.8-110.5H-272.3 M-274.1-7615.6h129l64.5,113.5
		l-64.5,113.5h-129l-64.5-113.5L-274.1-7615.6z"/>
</g>
<path id="Pfad_737" class="st4" d="M446.3,451.1V470c0,7.7,4.9,13,12.7,13h16c0.6-0.2,1-0.7,1.1-1.3v-7.8c0-0.7-1-1.2-1.7-1.2h-13.6
	c-3.3,0-4.1-1.4-4.1-5.2v-22.3c0-2.1-0.5-4.2-1.3-6.1H438c4.8,1.3,6.8,3,7.8,7.1C446.1,447.8,446.3,449.5,446.3,451.1"/>
<path id="Pfad_738" class="st4" d="M445.6,422.2c-1,3.4-3.2,5.2-7.2,6.5h16.3c1-2.6,2-4.3,2-7.7v-22.3c0-3.8,0.7-4.9,4.1-4.9H475
	c0.6-0.2,1-0.7,1.1-1.3v-7.7c0-0.7-1-1.3-1.7-1.3H459c-7.8,0-12.7,5.1-12.7,12.6v21C446.2,418.8,446,420.5,445.6,422.2"/>
<path id="Pfad_739" class="st4" d="M448.1,433.9c2.9,0.9,5.4,2.7,7.2,5.1h19c0.7,0,1.7-0.6,1.7-1.3v-7.7c0-0.7-1-1.3-1.7-1.3h-19.7
	C453.4,431.3,450.3,433.1,448.1,433.9"/>
<path id="Pfad_751" class="st4" d="M434.3,428.7c-0.7,0-0.9,0.6-0.9,1.3v7.7c0,0.7,0.2,1.3,0.9,1.3h21c-1.2-2.6-4.1-4.4-6.1-5.2
	c2.4-1,4.3-2.8,5.4-5.2H434.3z"/>
<path id="Pfad_737-2" class="st4" d="M81.3,165.1V184c0,7.7,4.9,13,12.7,13h16c0.6-0.2,1-0.7,1.1-1.3v-7.8c0-0.7-1-1.2-1.7-1.2H95.8
	c-3.3,0-4.1-1.4-4.1-5.2v-22.3c0-2.1-0.5-4.2-1.3-6.1H73c4.8,1.3,6.8,3,7.8,7.1C81.1,161.8,81.3,163.5,81.3,165.1"/>
<path id="Pfad_738-2" class="st4" d="M80.6,136.2c-1,3.4-3.2,5.2-7.2,6.5h16.3c1-2.6,2-4.3,2-7.7v-22.3c0-3.8,0.7-4.9,4.1-4.9H110
	c0.6-0.2,1-0.7,1.1-1.3v-7.7c0-0.7-1-1.3-1.7-1.3H94c-7.8,0-12.7,5.1-12.7,12.6v21C81.2,132.8,81,134.5,80.6,136.2"/>
<path id="Pfad_739-2" class="st4" d="M83.1,147.9c2.9,0.9,5.4,2.7,7.2,5.1h19c0.7,0,1.7-0.6,1.7-1.3v-7.7c0-0.7-1-1.3-1.7-1.3H89.6
	C88.4,145.3,85.3,147.1,83.1,147.9"/>
<path id="Pfad_751-2" class="st4" d="M69.3,142.7c-0.7,0-0.9,0.6-0.9,1.3v7.7c0,0.7,0.2,1.3,0.9,1.3h21c-1.2-2.6-4.1-4.4-6.1-5.2
	c2.4-1,4.3-2.8,5.4-5.2H69.3z"/>
<path id="Pfad_734" class="st4" d="M268.3,71.1V90c0,7.7,4.9,13,12.8,13h16c0.4,0,1-0.6,1-1.3v-7.8c0-0.7-0.9-1.2-1.6-1.2h-13.6
	c-3.3,0-4.2-1.6-4.2-5.4V65.1c0-7.8-3.2-10.7-7-12.1c3.9-1.4,7-4.3,7-12.1V18.7c0-3.8,0.7-4.9,4.2-4.9h14.2c0.6-0.2,1-0.7,1-1.3V4.7
	c0-0.7-0.9-1.3-1.6-1.3h-15.3c-7.8,0-12.8,5.1-12.8,12.6v21c0,0-0.3,3.9-0.4,5.2c-0.5,3.5-4.8,6.5-7.4,6.4h-4.1c-0.7,0-1,0.6-1,1.3
	v7.7c0,0.7,0.3,1.3,1,1.3h3.7c3.4,0,7.7,2.8,8,7.1C268.2,67.3,268.3,71.1,268.3,71.1"/>
<path id="Pfad_734-2" class="st4" d="M268.3,529.1V548c0,7.7,4.9,13,12.8,13h16c0.4,0,1-0.6,1-1.3v-7.8c0-0.7-0.9-1.2-1.6-1.2h-13.6
	c-3.3,0-4.2-1.6-4.2-5.4v-22.1c0-7.8-3.2-10.7-7-12.1c3.9-1.4,7-4.3,7-12.1v-22.3c0-3.8,0.7-4.9,4.2-4.9h14.2c0.6-0.2,1-0.7,1-1.3
	v-7.7c0-0.7-0.9-1.3-1.6-1.3h-15.3c-7.8,0-12.8,5.1-12.8,12.6v21c0,0-0.3,3.9-0.4,5.2c-0.5,3.5-4.8,6.5-7.4,6.4h-4.1
	c-0.7,0-1,0.6-1,1.3v7.7c0,0.7,0.3,1.3,1,1.3h3.7c3.4,0,7.7,2.8,8,7.1C268.2,525.3,268.3,529.1,268.3,529.1"/>
<g id="Gruppe_480">
	<path id="Pfad_731" class="st5" d="M482.4,196.9c0.7,0,1.6-0.6,1.6-1.3V98.7c0-0.7-0.9-1.3-1.6-1.3h-40c-0.7,0-1,0.3-1,0.6v8.4
		c0,0.7,0.2,1.3,1,1.3h29.7c0.7,0,1.6,0.6,1.6,1.3v76.2c0,0.7-0.9,1.3-1.6,1.3h-29.7c-0.7,0-1,0.2-1,0.6v8.4c0,0.7,0.2,1.3,1,1.3
		L482.4,196.9z"/>
</g>
<path id="Pfad_750" class="st5" d="M441.4,107.5v79.3h10.3v-79.3H441.4z"/>
<path id="Pfad_752" class="st5" d="M450.1,97.4h-7.7c-0.7,0-0.9,0.6-0.9,1.3v9h10.3V97.4H450.1z"/>
<path id="Pfad_753" class="st5" d="M441.4,187.8v7.8c0,0.7,0.2,1.3,0.9,1.3h9.4v-10.3h-10.3V187.8z"/>
<g id="Gruppe_480-2">
	<path id="Pfad_731-2" class="st5" d="M131.4,494.9c0.7,0,1.6-0.6,1.6-1.3v-96.9c0-0.7-0.9-1.3-1.6-1.3h-40c-0.7,0-1,0.3-1,0.6v8.4
		c0,0.7,0.2,1.3,1,1.3h29.7c0.7,0,1.6,0.6,1.6,1.3v76.2c0,0.7-0.9,1.3-1.6,1.3H91.4c-0.7,0-1,0.2-1,0.6v8.4c0,0.7,0.2,1.3,1,1.3
		L131.4,494.9z"/>
</g>
<path id="Pfad_750-2" class="st5" d="M90.4,405.5v79.3h10.3v-79.3H90.4z"/>
<path id="Pfad_752-2" class="st5" d="M99.1,395.4h-7.7c-0.7,0-0.9,0.6-0.9,1.3v9h10.3v-10.3H99.1z"/>
<path id="Pfad_753-2" class="st5" d="M90.4,485.8v7.8c0,0.7,0.2,1.3,0.9,1.3h9.4v-10.3H90.4V485.8z"/>
<path id="Pfad_732" class="st5" d="M530.4,243.3v78.5"/>
<path id="Pfad_732-2" class="st5" d="M540.8,321.8v-80.3"/>
<path id="Pfad_733" class="st5" d="M540.7,331.9v-10.3c14.2,0,22.9-17.7,22.9-39.4s-8.7-39.4-22.9-39.4v-10.3
	c19.4,0,33.2,22.3,33.2,49.7s-15.1,49.7-34.5,49.7"/>
<path id="Pfad_735" class="st5" d="M539.1,232.4h-7.7c-0.7,0-0.9,0.6-0.9,1.3v9h10.3v-10.3H539.1z"/>
<path id="Pfad_736" class="st5" d="M530.4,322.9v7.8c0,0.7,0.2,1.3,0.9,1.3h9.4v-10.3h-10.3V322.9z"/>
<path id="Pfad_732-3" class="st5" d="M3.4,243.3v78.5"/>
<path id="Pfad_732-4" class="st5" d="M13.8,321.8v-80.3"/>
<path id="Pfad_733-2" class="st5" d="M13.7,331.9v-10.3c14.2,0,22.9-17.7,22.9-39.4s-8.7-39.4-22.9-39.4v-10.3
	c19.4,0,33.2,22.3,33.2,49.7s-15.1,49.7-34.5,49.7"/>
<path id="Pfad_735-2" class="st5" d="M12.1,232.4H4.3c-0.7,0-0.9,0.6-0.9,1.3v9h10.3v-10.3H12.1z"/>
<path id="Pfad_736-2" class="st5" d="M3.4,322.9v7.8c0,0.7,0.2,1.3,0.9,1.3h9.4v-10.3H3.4V322.9z"/>
</svg>
