<?xml version="1.0" encoding="utf-8"?>
<!-- Generator: Adobe Illustrator 24.1.0, SVG Export Plug-In . SVG Version: 6.00 Build 0)  -->
<svg version="1.1" id="Ebene_1" xmlns="http://www.w3.org/2000/svg" xmlns:xlink="http://www.w3.org/1999/xlink" x="0px" y="0px"
	 viewBox="0 0 192 132" style="enable-background:new 0 0 192 132;" xml:space="preserve">
<style type="text/css">
	.st0{fill:none;stroke:#FFFFFF;stroke-width:3;stroke-linecap:square;stroke-linejoin:round;}
	.st1{fill:#FFFFFF;}
	.st2{font-family:'Helvetica';}
	.st3{font-size:30px;}
	.st4{letter-spacing:-1;}
</style>
<g id="Gruppe_1096" transform="translate(-74 -898.5)">
	<g id="Gruppe_908" transform="translate(84.82 900)">
		<path id="Pfad_866" class="st0" d="M138.4,69.8c0.1,8.5-6.7,15.5-15.2,15.6c-0.1,0-0.2,0-0.4,0c-8.7-0.1-15.8-7.2-15.7-15.9
			c0,0,0,0,0,0l0-2.3c0-8.8-7.1-15.9-15.8-15.9c0,0,0,0,0,0c-8.7,0-15.8,7.1-15.8,15.8c0,0,0,0,0,0l0.1,2.2
			c0,8.8-7.7,15.9-16.5,15.9s-16.5-7.1-16.5-15.9V27.3"/>
		<g id="Gruppe_904" transform="translate(0 0)">
			<path id="Pfad_867" class="st0" d="M55.5,27.2c-0.7,11.9-12.5,25-12.5,25s-13.3-13.7-13.9-25c-0.9-15.5,13.9-26,13.9-26
				C51.5,7.1,56.3,16.9,55.5,27.2z"/>
		</g>
		<path id="Pfad_868" class="st0" d="M143.5,63c0,3.1-2.5,5.6-5.6,5.6c0,0,0,0,0,0c-3.1,0-5.6-2.5-5.6-5.6c0,0,0,0,0,0
			c0-3.1,2.5-5.6,5.6-5.6c0,0,0,0,0,0C141,57.4,143.5,59.9,143.5,63C143.5,63,143.5,63,143.5,63z"/>
	</g>
	<text transform="matrix(1 0 0 1 150.7322 1028.239)" class="st1 st2 st3 st4">2020</text>
</g>
</svg>
