<?xml version="1.0" encoding="utf-8"?>
<!-- Generator: Adobe Illustrator 24.1.1, SVG Export Plug-In . SVG Version: 6.00 Build 0)  -->
<svg version="1.1" id="Ebene_1" xmlns="http://www.w3.org/2000/svg" xmlns:xlink="http://www.w3.org/1999/xlink" x="0px" y="0px"
	 width="21.5px" height="38.5px" viewBox="0 0 21.5 38.5" style="enable-background:new 0 0 21.5 38.5;" xml:space="preserve">
<style type="text/css">
	.st0{fill:#FFFFFF;stroke:#000000;stroke-linecap:round;stroke-miterlimit:10;}
	.st1{fill:#FF645F;stroke:#000000;stroke-linecap:round;stroke-miterlimit:10;}
</style>
<g id="Gruppe_1250" transform="translate(0.75 0.75)">
	<path id="Pfad_689" class="st0" d="M10,37C10,37,0,16,0,10.3C-0.1,4.8,4.2,0.2,9.8,0S19.9,4.2,20,9.8c0,0.2,0,0.4,0,0.5
		C20,13.9,13,30.4,10,37"/>
	<path id="Pfad_690" class="st1" d="M10,6.5c3.1,0,5.5,2.5,5.5,5.5s-2.5,5.5-5.5,5.5c-3.1,0-5.5-2.5-5.5-5.5v0
		c0-1.7,0.8-3.3,2.2-4.4C7.6,6.9,8.8,6.5,10,6.5z"/>
</g>
</svg>
