<?xml version="1.0" encoding="utf-8"?>
<!-- Generator: Adobe Illustrator 24.1.0, SVG Export Plug-In . SVG Version: 6.00 Build 0)  -->
<svg version="1.1" id="Ebene_1" xmlns="http://www.w3.org/2000/svg" xmlns:xlink="http://www.w3.org/1999/xlink" x="0px" y="0px"
	 viewBox="0 0 199.6 99.6" style="enable-background:new 0 0 199.6 99.6;" xml:space="preserve">
<style type="text/css">
	.st0{fill:#FF645F;}
	.st1{fill:#70DEA1;}
	.st2{fill:#00DA88;}
	.st3{fill:#00A9FA;}
	.st4{fill:#00B451;}
	.st5{fill:#57CFC8;}
	.st6{fill:#80DDD7;}
	.st7{opacity:0.7;fill:#FF8282;enable-background:new    ;}
	.st8{fill:#00A9A7;}
	.st9{fill:#BD3A39;}
</style>
<g id="Gruppe_760" transform="translate(-17 -8)">
	<g id="Gruppe_482" transform="translate(5 15)">
		<g id="Gruppe_480" transform="translate(65.215 5.003)">
			<path id="Pfad_731" class="st0" d="M41.2,87.6c0.7,0,1.6-0.6,1.6-1.3v-96.9c0-0.7-0.9-1.3-1.6-1.3h-40c-0.7,0-1,0.3-1,0.6v8.4
				c0,0.7,0.2,1.3,1,1.3h29.7c0.7,0,1.6,0.6,1.6,1.3v76.2c0,0.7-0.9,1.3-1.6,1.3H1.2c-0.7,0-1,0.2-1,0.6v8.4c0,0.7,0.2,1.3,1,1.3
				L41.2,87.6z"/>
		</g>
		<path id="Pfad_732" class="st1" d="M119.8,2.2v82.7h10.3V2.2H119.8z"/>
		<path id="Pfad_733" class="st2" d="M128.9,92.6V82.2c14.2,0,24.1-17.7,24.1-39.4s-9.9-39.4-24.1-39.4V-6.9
			c19.4,0,34.5,22.3,34.5,49.7S148.3,92.6,128.9,92.6"/>
		<path id="Pfad_734" class="st3" d="M25.2,60.8v18.8c0,7.7,4.9,13,12.8,13h16c0.4,0,1-0.6,1-1.3v-7.8c0-0.7-0.9-1.2-1.6-1.2H39.7
			c-3.3,0-4.2-1.6-4.2-5.4V54.8c0-7.8-3.2-10.7-7-12.1c3.9-1.4,7-4.3,7-12.1V8.3c0-3.8,0.7-4.9,4.2-4.9h14.2c0.6-0.2,1-0.7,1-1.3
			v-7.7c0-0.7-0.9-1.3-1.6-1.3H37.9c-7.8,0-12.8,5.1-12.8,12.6v21c0,0-0.3,3.9-0.4,5.2c-0.5,3.5-4.8,6.5-7.4,6.4h-4.1
			c-0.7,0-1,0.6-1,1.3v7.7c0,0.7,0.3,1.3,1,1.3H17c3.4,0,7.7,2.8,8,7.1C25,57,25.2,60.8,25.2,60.8"/>
		<path id="Pfad_735" class="st4" d="M128.5-6.9h-7.7c-0.7,0-0.9,0.6-0.9,1.3v9h10.3V-6.9H128.5z"/>
		<path id="Pfad_736" class="st4" d="M119.8,83.5v7.8c0,0.7,0.2,1.3,0.9,1.3h9.4V82.3h-10.3V83.5z"/>
		<path id="Pfad_737" class="st5" d="M181.5,60.8v18.8c0,7.7,4.9,13,12.7,13h16c0.6-0.2,1-0.7,1.1-1.3v-7.8c0-0.7-1-1.2-1.7-1.2H196
			c-3.3,0-4.1-1.4-4.1-5.2V54.8c0-2.1-0.5-4.2-1.3-6.1h-17.3c4.8,1.3,6.8,3,7.8,7.1C181.3,57.5,181.5,59.1,181.5,60.8"/>
		<path id="Pfad_738" class="st5" d="M180.8,31.9c-1,3.4-3.2,5.2-7.2,6.5h16.3c1-2.6,2-4.3,2-7.7V8.3c0-3.8,0.7-4.9,4.1-4.9h14.2
			c0.6-0.2,1-0.7,1.1-1.3v-7.7c0-0.7-1-1.3-1.7-1.3h-15.3c-7.8,0-12.7,5.1-12.7,12.6v21C181.4,28.5,181.2,30.2,180.8,31.9"/>
		<path id="Pfad_739" class="st6" d="M183.3,43.6c2.9,0.9,5.4,2.7,7.2,5.1h19c0.7,0,1.7-0.6,1.7-1.3v-7.7c0-0.7-1-1.3-1.7-1.3h-19.7
			C188.5,40.9,185.5,42.8,183.3,43.6"/>
		<path id="Pfad_750" class="st7" d="M65.5,3.2v79.3h10.3V3.2H65.5z"/>
		<path id="Pfad_751" class="st8" d="M169.5,38.4c-0.7,0-0.9,0.6-0.9,1.3v7.7c0,0.7,0.2,1.3,0.9,1.3h21c-1.2-2.6-4.1-4.4-6.1-5.2
			c2.4-1,4.3-2.8,5.4-5.2H169.5z"/>
		<path id="Pfad_752" class="st9" d="M74.1-6.9h-7.7c-0.7,0-0.9,0.6-0.9,1.3v9h10.3V-6.9H74.1z"/>
		<path id="Pfad_753" class="st9" d="M65.5,83.5v7.8c0,0.7,0.2,1.3,0.9,1.3h9.4V82.3H65.5V83.5z"/>
	</g>
</g>
</svg>
