<?xml version="1.0" encoding="UTF-8"?>
<svg id="Layer_1" data-name="Layer 1" xmlns="http://www.w3.org/2000/svg" viewBox="0 0 808 354">
  <defs>
    <style>
      .cls-1 {
        fill: #fff;
      }

      .cls-2 {
        fill: none;
        stroke: #000;
        stroke-miterlimit: 10;
        stroke-width: 9px;
      }
    </style>
  </defs>
  <path d="M416.52,115.06c-9.16,0-15.22-6.47-15.22-14.96s6.06-14.96,15.22-14.96,15.22,6.47,15.22,14.96-6.19,14.96-15.22,14.96ZM416.52,90.67c-5.25,0-8.21,3.5-8.21,9.3s3.1,9.3,8.21,9.3,8.22-3.5,8.22-9.3-3.1-9.3-8.22-9.3ZM450.46,104.95v9.84h-6.73v-29.24h10.37c8.21,0,11.72,4.18,11.72,9.57,0,5.79-3.64,9.97-11.72,9.97h-3.64v-.13ZM450.46,99.83h3.5c3.5,0,4.98-1.75,4.98-4.85,0-2.69-1.62-4.45-4.98-4.45h-3.5v9.3ZM478.2,85.42v29.24h18.85v-5.26h-11.99v-7.01h9.16v-4.99h-9.16v-6.87h11.99v-5.26h-18.85v.13ZM517.12,86.49c-.81-.94-1.08-1.08-2.29-1.08h-3.64v29.24h5.92v-15.63c0-.81-.14-1.89-.14-2.83l13.74,17.38c.67.81,1.35,1.08,2.42,1.08h3.5v-29.24h-5.93v15.5c0,.94,0,2.02.14,3.1l-13.74-17.52ZM409.66,139.72h-6.73v29.24h6.73v-12.4h1.62c1.21,0,1.89.27,2.42,1.08l6.6,10.24c.54.81,1.08,1.21,2.69,1.21h6.06l-8.89-13.61c-.67-1.08-1.48-1.75-2.56-2.16.67-.4,1.35-.94,2.02-1.75l8.62-11.86h-5.92c-1.35,0-2.15.27-2.96,1.35l-6.6,9.57c-.4.67-1.21.94-2.15.94h-1.08v-11.86h.14ZM447.77,140.8c-.81-.94-1.08-1.08-2.29-1.08h-3.64v29.24h5.93v-15.63c0-.81,0-1.89-.14-2.83l13.74,17.38c.67.81,1.35,1.08,2.42,1.08h3.5v-29.24h-5.92v15.5c0,.94,0,2.02.13,3.1l-13.74-17.52ZM495.57,169.37c-9.16,0-15.22-6.47-15.22-14.96s6.06-14.96,15.22-14.96,15.22,6.47,15.22,14.96-6.06,14.96-15.22,14.96ZM495.57,144.98c-5.25,0-8.21,3.5-8.21,9.3s3.1,9.3,8.21,9.3,8.21-3.5,8.21-9.3-3.1-9.3-8.21-9.3ZM527.22,168.96h6.2l5.52-18.19c.14-.54.4-1.21.54-2.02.13.81.4,1.48.54,2.02l5.52,18.19h6.19l9.02-29.24h-5.39c-1.08,0-2.02.67-2.15,1.48l-4.04,15.23c-.27.94-.4,2.02-.67,3.23-.27-1.21-.54-2.29-.94-3.23l-4.71-15.23c-.27-.94-1.08-1.48-2.29-1.48h-2.02c-1.08,0-2.02.67-2.15,1.48l-4.71,15.23c-.27.94-.67,2.16-.94,3.37-.13-1.21-.4-2.43-.67-3.37l-4.04-15.23c-.27-.94-1.08-1.48-2.29-1.48h-5.66l9.16,29.24ZM579.88,139.72h-6.73v29.24h17.64v-5.39h-10.91v-23.85ZM605.06,139.72v29.24h18.85v-5.26h-11.99v-7.01h9.16v-4.99h-9.16v-6.87h11.99v-5.26h-18.85v.13ZM649.5,168.96h-11.31v-29.24h11.31c9.16,0,15.22,6.2,15.22,14.69s-6.06,14.55-15.22,14.55ZM649.5,144.98h-4.58v18.86h4.58c5.12,0,8.21-3.64,8.21-9.43s-2.96-9.43-8.21-9.43ZM695.15,163.17c-1.35.54-2.69.94-4.58.94-4.85,0-8.48-3.5-8.48-9.7,0-5.66,3.23-9.3,8.21-9.3,2.69,0,4.17.54,6.33,1.89.4.27.81.4,1.21.4.67,0,1.08-.4,1.48-.94l2.02-2.96c-2.29-2.29-5.92-3.91-10.91-3.91-9.43,0-15.49,6.2-15.49,14.96s6.33,14.96,14.95,14.96c4.85,0,8.22-.94,11.18-3.1v-12.53h-10.37v3.77c0,.67.54,1.21,1.35,1.21h2.83v4.31h.27ZM714.95,139.72v29.24h18.85v-5.26h-11.99v-7.01h9.16v-4.99h-9.16v-6.87h11.99v-5.26h-18.85v.13ZM402.79,194.03v29.24h6.87v-11.32h9.96v-5.26h-9.96v-7.41h11.98v-5.26h-18.85ZM466.08,208.71c0,2.16-.4,4.04-1.08,5.93-.67,1.89-1.75,3.37-3.1,4.72-1.35,1.35-2.96,2.43-4.85,3.1-1.89.81-3.91,1.21-6.19,1.21s-4.31-.4-6.2-1.21c-1.89-.81-3.5-1.75-4.85-3.1-1.35-1.35-2.42-2.96-3.1-4.72-.67-1.89-1.08-3.77-1.08-5.93s.4-4.04,1.08-5.93c.67-1.89,1.75-3.37,3.1-4.72,1.35-1.35,2.96-2.43,4.85-3.1,1.89-.81,3.91-1.08,6.2-1.08s4.31.4,6.19,1.21c1.89.81,3.5,1.89,4.85,3.23,1.35,1.35,2.29,2.96,3.1,4.72.67,1.48,1.08,3.5,1.08,5.66ZM459.21,208.71c0-1.48-.13-2.69-.54-3.91-.4-1.21-.94-2.16-1.62-2.96-.67-.81-1.62-1.48-2.56-1.89-.94-.4-2.15-.67-3.5-.67s-2.42.27-3.5.67c-1.08.4-1.89,1.08-2.56,1.89-.67.81-1.21,1.75-1.62,2.96-.4,1.21-.54,2.43-.54,3.91s.14,2.83.54,3.91c.4,1.21.94,2.16,1.62,2.96.67.81,1.62,1.48,2.56,1.89,1.08.4,2.15.67,3.5.67s2.42-.27,3.5-.67c1.08-.4,1.89-1.08,2.56-1.89.67-.81,1.21-1.75,1.62-2.96.27-1.21.54-2.56.54-3.91ZM493.55,217.88c-.94,0-1.75-.13-2.42-.4-.67-.27-1.35-.67-1.89-1.35-.54-.54-.81-1.21-1.08-2.02-.27-.81-.4-1.75-.4-2.7v-17.38h-6.73v17.38c0,1.75.27,3.5.81,4.99.54,1.48,1.48,2.83,2.56,3.91s2.42,1.89,3.9,2.56c1.48.67,3.37.94,5.25.94s3.64-.27,5.25-.94c1.48-.54,2.83-1.48,3.91-2.56,1.08-1.08,1.89-2.43,2.56-3.91.54-1.48.94-3.1.94-4.99v-17.38h-6.73v17.38c0,1.08-.14,1.89-.4,2.7-.27.81-.67,1.48-1.08,2.02-.54.54-1.08.94-1.89,1.35-.81.27-1.62.4-2.56.4ZM526.95,194.03h-4.31v29.24h5.93v-16.98c0-.54,0-.94-.14-1.48l13.74,17.38c.27.4.67.67,1.08.94.4.13.81.27,1.35.27h3.5v-29.24h-5.92v16.98c0,.54,0,1.08.13,1.62l-13.87-17.52c-.14-.27-.4-.4-.54-.54-.13-.14-.27-.27-.4-.27-.13-.27-.4-.4-.54-.4ZM591.59,208.71c0,2.16-.4,4.04-1.08,5.79-.67,1.75-1.75,3.37-3.1,4.58-1.35,1.35-2.96,2.29-4.85,3.1-1.89.67-3.9,1.08-6.2,1.08h-11.31v-29.24h11.31c2.29,0,4.31.4,6.2,1.08,1.89.67,3.5,1.75,4.85,3.1,1.35,1.35,2.29,2.83,3.1,4.58.67,1.89,1.08,3.77,1.08,5.93ZM584.59,208.71c0-1.48-.14-2.69-.54-3.91-.4-1.21-.94-2.16-1.62-2.96-.67-.81-1.62-1.48-2.56-1.89-1.08-.4-2.16-.67-3.5-.67h-4.58v18.86h4.58c1.35,0,2.42-.27,3.5-.67.94-.4,1.89-1.08,2.56-1.89.67-.81,1.21-1.75,1.62-2.96.4-1.21.54-2.56.54-3.91ZM634.15,223.27h-5.25c-.54,0-1.08-.13-1.48-.4-.4-.27-.67-.67-.81-1.08l-1.75-5.12h-11.18l-1.75,5.12c-.13.4-.4.67-.81,1.08-.4.27-.81.4-1.48.4h-5.25l11.31-29.24h6.87l11.58,29.24ZM615.29,212.08h7.95l-2.69-8.09c-.14-.54-.4-1.08-.67-1.75-.27-.67-.4-1.48-.67-2.29-.27.81-.4,1.62-.67,2.29-.27.67-.4,1.35-.67,1.75l-2.56,8.09ZM646.53,194.03v5.39h8.21v23.85h6.73v-23.85h8.21v-5.39h-23.16ZM692.05,194.03h-6.87v29.24h6.87v-29.24ZM738.38,208.71c0,2.16-.4,4.04-1.08,5.93-.67,1.89-1.75,3.37-3.1,4.72-1.35,1.35-2.96,2.43-4.85,3.1-1.89.81-3.91,1.21-6.2,1.21s-4.31-.4-6.19-1.21c-1.89-.81-3.5-1.75-4.85-3.1-1.35-1.35-2.42-2.96-3.1-4.72-.81-1.89-1.08-3.77-1.08-5.93s.4-4.04,1.08-5.93c.67-1.89,1.75-3.37,3.1-4.72,1.35-1.35,2.96-2.43,4.85-3.1,1.89-.81,3.91-1.08,6.19-1.08s4.31.4,6.2,1.21c1.89.81,3.5,1.89,4.85,3.23,1.35,1.35,2.29,2.96,3.1,4.72.67,1.48,1.08,3.5,1.08,5.66ZM731.38,208.71c0-1.48-.14-2.69-.54-3.91-.4-1.21-.94-2.16-1.62-2.96-.67-.81-1.62-1.48-2.56-1.89-.94-.4-2.15-.67-3.5-.67s-2.42.27-3.5.67c-1.08.4-1.89,1.08-2.56,1.89-.67.81-1.21,1.75-1.62,2.96-.4,1.21-.54,2.43-.54,3.91s.14,2.83.54,3.91c.4,1.21.94,2.16,1.62,2.96.67.81,1.62,1.48,2.56,1.89,1.08.4,2.15.67,3.5.67s2.42-.27,3.5-.67c1.08-.4,1.89-1.08,2.56-1.89.67-.81,1.21-1.75,1.62-2.96.4-1.21.54-2.56.54-3.91ZM758.04,194.03h-4.44v29.24h5.93v-16.98c0-.54,0-.94-.14-1.48l13.74,17.38c.27.4.67.67,1.08.94.4.13.81.27,1.35.27h3.5v-29.24h-5.93v16.98c0,.54.14,1.08.14,1.62l-13.87-17.52c-.13-.27-.4-.4-.54-.54-.14-.14-.27-.27-.4-.27-.14-.27-.27-.4-.4-.4ZM320.37,16.44l-9.16-6.74-56.16,75.33,9.02,6.74,56.29-75.33ZM267.18,39.48l-10.1-5.12-20.2,40.56,10.1,5.12,20.2-40.56ZM247.92,3.1l-10.91-3.1-19.8,68.32,10.91,3.23L247.92,3.1ZM212.64,21.43l-11.31-1.21-4.58,45.14,11.31,1.21,4.58-45.14ZM187.32,65.22l-3.9-50.53-11.31.81,3.9,50.53,11.31-.81ZM166.72,67.65l-8.75-33.55-11.04,2.83,8.75,33.55,11.04-2.83ZM146.79,73.71l-9.83-21.02-10.23,4.72,9.83,21.16,10.24-4.85ZM128.47,83.14l-5.25-7.41-9.29,6.6,5.25,7.41,9.29-6.6ZM111.91,95.81l-26.53-26.14-7.95,8.09,26.66,26.14,7.81-8.09ZM98.04,111.17l-41.21-28.3-6.33,9.43,41.21,28.3,6.33-9.43ZM87.13,128.82l-25.99-11.45-4.58,10.38,25.99,11.45,4.58-10.38ZM0,140.55l76.76,18.6,2.69-11.05L2.69,129.5l-2.69,11.05ZM75.41,168.44l-57.23-3.37-.67,11.32,57.23,3.37.67-11.32ZM76.36,200.51l-1.35-11.32-55.48,6.74,1.35,11.32,55.48-6.74ZM81.74,220.59l-3.37-10.78-12.39,3.91,3.37,10.78,12.39-3.91ZM90.5,239.32l-5.25-10.11-41.75,21.7,5.25,10.11,41.75-21.7ZM102.48,256.3l-7-9.03-40.13,31.13,7,9.03,40.13-31.13ZM117.43,270.72l-8.48-7.55-32.99,36.79,8.48,7.55,32.99-36.79ZM134.67,282.31l-9.7-5.93-11.99,19.4,9.7,5.93,11.99-19.4ZM153.65,290.67l-10.5-4.18-16.16,41.37,10.5,4.18,16.16-41.37ZM173.72,295.52l-11.18-2.16-7.81,40.02,11.18,2.16,7.81-40.02ZM194.46,296.6l-11.31-.14-.4,28.43,11.31.14.4-28.43ZM224.22,348.21l-9.02-54.17-11.18,1.89,9.02,54.17,11.18-1.89ZM246.17,319.1l-11.18-31.26-10.64,3.91,11.18,31.26,10.64-3.91ZM243.34,283.79l41.21,70.21,9.83-5.66-41.21-70.21-9.83,5.66ZM275.66,271.53l-6.33-6.47-8.21,7.82,6.33,6.47,8.21-7.82ZM311.62,273.01l-28.28-23.18-7.14,8.76,28.28,23.18,7.14-8.76ZM323.07,248.22l-28.95-16.04-5.52,9.97,28.95,16.04,5.52-9.97ZM315.66,217.49l-14.01-4.72-3.64,10.78,14.01,4.72,3.64-10.78ZM349.19,198.9l-43.77-6.47-1.62,11.18,43.77,6.47,1.62-11.18ZM334.11,182.19l-.4-11.32-28.01.94.4,11.32,28.01-.94ZM339.36,154.83l-2.42-11.05-34.74,7.41,2.42,11.05,34.74-7.41ZM321.85,133l-4.31-10.51-22.36,9.16,4.31,10.51,22.35-9.16ZM350,85.3l-6.2-9.57-59.25,38,6.06,9.57,59.39-38ZM287.92,97.97l-7.68-8.35-8.89,8.35,7.68,8.35,8.89-8.35ZM427.03,263.36c0,2.16-.27,4.04-1.08,5.79-.67,1.75-1.62,3.23-2.83,4.58-1.21,1.21-2.69,2.16-4.44,2.96-1.75.67-3.64,1.08-5.79,1.08h-10.77v-28.7h10.77c2.15,0,4.04.4,5.79,1.08,1.75.67,3.23,1.62,4.44,2.96,1.21,1.21,2.15,2.83,2.83,4.58.67,1.62,1.08,3.5,1.08,5.66ZM422.99,263.36c0-1.75-.27-3.37-.67-4.72-.54-1.35-1.21-2.56-2.02-3.5-.94-.94-1.89-1.75-3.23-2.16-1.21-.54-2.69-.81-4.17-.81h-6.87v22.37h6.87c1.48,0,2.96-.27,4.17-.81,1.21-.54,2.29-1.21,3.23-2.16.94-.94,1.62-2.16,2.02-3.5.54-1.35.67-2.96.67-4.72ZM444.13,249.08v28.7h17.64v-3.1h-13.74v-9.84h11.18v-3.1h-11.18v-9.57h13.74v-3.1h-17.64ZM490.32,274.68c-1.21,0-2.29-.27-3.23-.67-.94-.4-1.75-.94-2.42-1.62-.67-.67-1.08-1.62-1.48-2.56-.27-.94-.54-2.16-.54-3.37v-17.38h-3.9v17.38c0,1.62.27,3.23.81,4.58.54,1.35,1.35,2.7,2.29,3.64.94,1.08,2.15,1.89,3.64,2.43,1.35.54,2.96.94,4.71.94s3.37-.27,4.71-.94c1.48-.54,2.56-1.35,3.64-2.43.94-1.08,1.75-2.29,2.29-3.64.54-1.48.81-2.96.81-4.58v-17.38h-3.9v17.38c0,1.21-.14,2.29-.54,3.23-.27.94-.81,1.89-1.48,2.56-.67.67-1.48,1.35-2.42,1.62-.81.54-1.75.81-2.96.81ZM517.26,249.08v3.24h9.29v25.33h3.91v-25.33h9.29v-3.24h-22.49ZM571.12,251.64c-.94-.94-2.15-1.75-3.5-2.16-1.35-.54-2.83-.81-4.31-.81s-2.69.27-3.77.67c-1.08.4-2.02,1.08-2.69,1.75-.81.67-1.35,1.62-1.75,2.56-.4.94-.54,1.89-.54,2.97,0,1.21.14,2.29.54,3.23.4.81.94,1.62,1.48,2.16.67.54,1.35,1.08,2.15,1.35.81.4,1.62.67,2.56.94.81.27,1.75.54,2.56.81.81.27,1.48.54,2.16.94.67.4,1.21.81,1.62,1.35s.54,1.21.54,2.16c0,.81-.14,1.48-.4,2.16-.27.67-.67,1.21-1.08,1.62-.54.4-1.08.81-1.89,1.08-.67.27-1.48.4-2.42.4-1.08,0-2.02-.14-2.83-.4-.81-.27-1.48-.67-2.02-.94-.54-.4-.94-.67-1.35-.94-.4-.27-.67-.41-.94-.41-.14,0-.4,0-.54.14s-.27.27-.4.4l-1.08,1.89c1.08,1.21,2.42,2.02,3.91,2.69,1.48.67,3.23.94,5.12.94,1.48,0,2.83-.27,4.04-.67,1.21-.4,2.15-1.08,2.96-1.89.81-.81,1.48-1.75,1.88-2.83.4-1.08.67-2.29.67-3.5s-.27-2.16-.54-2.96c-.4-.81-.94-1.48-1.48-2.02-.67-.54-1.35-1.08-2.16-1.35-.81-.4-1.62-.67-2.56-.94-.81-.27-1.75-.54-2.56-.81-.81-.27-1.48-.54-2.15-.94-.67-.4-1.21-.81-1.62-1.35s-.54-1.21-.54-2.02c0-.67.14-1.21.27-1.75.27-.54.54-.94.94-1.35.4-.4.94-.67,1.62-.94.67-.27,1.48-.4,2.29-.4.94,0,1.75.13,2.29.4.67.27,1.21.4,1.62.81.4.27.81.54,1.08.81.27.27.54.27.81.27s.4,0,.54-.14c.14-.13.27-.27.4-.4l1.08-2.56ZM608.69,271.85c-.27,0-.4.14-.67.27-.54.41-.94.81-1.48,1.21-.54.27-1.08.54-1.62.81-.54.27-1.21.4-1.89.4-.67.13-1.48.13-2.29.13-1.35,0-2.69-.27-3.9-.81-1.21-.54-2.29-1.21-3.1-2.16-.94-.94-1.62-2.16-2.15-3.5-.54-1.35-.81-2.96-.81-4.72s.27-3.37.81-4.72c.54-1.35,1.21-2.56,2.15-3.5.94-.94,2.02-1.75,3.23-2.29,1.21-.54,2.69-.81,4.17-.81.81,0,1.62,0,2.29.14.67.13,1.21.27,1.75.4.54.14.94.4,1.35.54.4.27.67.4.94.54.27.14.54.27.67.4.13.13.4.13.54.13.27,0,.4,0,.54-.13.14-.14.27-.14.27-.27l1.21-1.75c-1.21-1.08-2.56-2.02-4.04-2.69-1.48-.67-3.37-.94-5.39-.94-2.15,0-4.04.4-5.79,1.08-1.75.67-3.23,1.75-4.58,2.96-1.21,1.35-2.29,2.83-2.96,4.58-.67,1.75-1.08,3.77-1.08,5.93s.27,4.18.94,5.93c.67,1.75,1.62,3.37,2.69,4.58,1.21,1.35,2.56,2.29,4.31,2.96,1.62.67,3.5,1.08,5.66,1.08,2.29,0,4.31-.4,6.06-1.08,1.62-.81,3.1-1.89,4.31-3.23l-1.48-1.62c-.27.14-.4.14-.67.14ZM650.98,249.08h-3.91v12.8h-15.35v-12.8h-4.04v28.7h3.91v-13.07h15.35v13.07h3.9v-28.7h.14ZM673.6,249.08h-3.91v28.7h16.29v-3.23h-12.39v-25.47ZM725.72,277.65h-2.96c-.4,0-.67-.13-.81-.27-.27-.14-.4-.4-.54-.67l-2.69-6.87h-12.79l-2.69,6.87c-.13.27-.27.4-.54.67-.27.14-.54.27-.81.27h-2.96l11.45-28.7h3.9l11.45,28.7ZM707,267.14h10.64l-4.44-11.72c-.27-.67-.54-1.62-.81-2.7-.14.54-.27,1.08-.4,1.48-.13.4-.27.81-.4,1.21l-4.58,11.72ZM743.9,249.21c-.14-.13-.4-.13-.81-.13h-2.02v28.7h3.37v-22.23l16.56,21.56c.27.27.4.4.67.54.27.13.4.13.81.13h2.02v-28.7h-3.5v21.29c0,.27,0,.67.14.94l-16.56-21.56c-.27-.27-.54-.54-.67-.54ZM808,263.36c0,2.16-.4,4.04-1.08,5.79-.67,1.75-1.62,3.23-2.83,4.58-1.21,1.21-2.69,2.16-4.44,2.96-1.75.67-3.64,1.08-5.79,1.08h-10.77v-28.7h10.77c2.16,0,4.04.4,5.79,1.08,1.75.67,3.23,1.62,4.44,2.96,1.21,1.21,2.15,2.83,2.83,4.58.67,1.62,1.08,3.5,1.08,5.66ZM803.96,263.36c0-1.75-.27-3.37-.67-4.72-.54-1.35-1.21-2.56-2.02-3.5-.94-.94-1.89-1.75-3.23-2.16-1.21-.54-2.69-.81-4.17-.81h-6.87v22.37h6.87c1.48,0,2.96-.27,4.17-.81,1.21-.54,2.29-1.21,3.23-2.16.94-.94,1.48-2.16,2.02-3.5.54-1.35.67-2.96.67-4.72Z"/>
  <g>
    <line class="cls-2" x1="183.86" y1="95.37" x2="190.21" y2="181.17"/>
    <line class="cls-2" x1="168.63" y1="97.88" x2="190.21" y2="181.17"/>
    <line class="cls-2" x1="154.1" y1="103.07" x2="190.21" y2="181.17"/>
    <line class="cls-2" x1="140.73" y1="110.78" x2="190.21" y2="181.17"/>
    <line class="cls-2" x1="128.95" y1="120.75" x2="190.21" y2="181.17"/>
    <line class="cls-2" x1="119.15" y1="132.66" x2="190.21" y2="181.17"/>
    <line class="cls-2" x1="111.62" y1="146.14" x2="190.21" y2="181.17"/>
    <line class="cls-2" x1="106.63" y1="160.74" x2="190.21" y2="181.17"/>
    <line class="cls-2" x1="104.32" y1="175.99" x2="190.21" y2="181.17"/>
    <line class="cls-2" x1="104.78" y1="191.42" x2="190.21" y2="181.17"/>
    <line class="cls-2" x1="107.99" y1="206.51" x2="190.21" y2="181.17"/>
    <line class="cls-2" x1="113.84" y1="220.79" x2="190.21" y2="181.17"/>
    <line class="cls-2" x1="122.14" y1="233.8" x2="190.21" y2="181.17"/>
    <line class="cls-2" x1="132.64" y1="245.11" x2="190.21" y2="181.17"/>
    <line class="cls-2" x1="144.98" y1="254.36" x2="190.21" y2="181.17"/>
    <line class="cls-2" x1="158.79" y1="261.26" x2="190.21" y2="181.17"/>
    <line class="cls-2" x1="173.6" y1="265.59" x2="190.21" y2="181.17"/>
    <line class="cls-2" x1="188.95" y1="267.2" x2="190.21" y2="181.17"/>
    <line class="cls-2" x1="204.33" y1="266.04" x2="190.21" y2="181.17"/>
    <line class="cls-2" x1="219.27" y1="262.15" x2="190.21" y2="181.17"/>
    <line class="cls-2" x1="233.27" y1="255.66" x2="190.21" y2="181.17"/>
    <line class="cls-2" x1="245.88" y1="246.77" x2="190.21" y2="181.17"/>
    <line class="cls-2" x1="256.7" y1="235.77" x2="190.21" y2="181.17"/>
    <line class="cls-2" x1="265.38" y1="223.01" x2="190.21" y2="181.17"/>
    <line class="cls-2" x1="271.65" y1="208.91" x2="190.21" y2="181.17"/>
    <line class="cls-2" x1="275.29" y1="193.91" x2="190.21" y2="181.17"/>
    <line class="cls-2" x1="276.2" y1="178.51" x2="190.21" y2="181.17"/>
    <line class="cls-2" x1="274.34" y1="163.19" x2="190.21" y2="181.17"/>
    <line class="cls-2" x1="269.78" y1="148.45" x2="190.21" y2="181.17"/>
    <line class="cls-2" x1="262.65" y1="134.76" x2="190.21" y2="181.17"/>
    <line class="cls-2" x1="253.2" y1="122.57" x2="190.21" y2="181.17"/>
    <line class="cls-2" x1="241.72" y1="112.26" x2="190.21" y2="181.17"/>
    <line class="cls-2" x1="228.58" y1="104.16" x2="190.21" y2="181.17"/>
    <line class="cls-2" x1="214.21" y1="98.55" x2="190.21" y2="181.17"/>
    <line class="cls-2" x1="199.06" y1="95.59" x2="190.21" y2="181.17"/>
  </g>
  <g>
    <path class="cls-1" d="M178.28,181.27c0,2.4-.41,4.64-1.24,6.7-.83,2.07-2,3.86-3.5,5.39-1.5,1.53-3.32,2.72-5.44,3.59-2.12.87-4.47,1.3-7.06,1.3s-4.94-.43-7.07-1.3c-2.13-.87-3.95-2.06-5.46-3.59-1.51-1.53-2.68-3.32-3.51-5.39-.83-2.07-1.24-4.3-1.24-6.7s.41-4.64,1.24-6.7,2-3.86,3.51-5.38c1.51-1.52,3.33-2.71,5.46-3.58,2.13-.87,4.48-1.3,7.07-1.3s4.94.44,7.06,1.31c2.12.87,3.93,2.07,5.44,3.59,1.5,1.52,2.67,3.31,3.5,5.38.83,2.07,1.24,4.29,1.24,6.68ZM170.39,181.27c0-1.64-.21-3.12-.64-4.43-.43-1.31-1.04-2.43-1.84-3.34-.8-.91-1.78-1.61-2.93-2.1-1.16-.49-2.47-.73-3.94-.73s-2.82.24-3.98.73c-1.16.49-2.14,1.19-2.94,2.1-.8.91-1.41,2.03-1.84,3.34s-.64,2.79-.64,4.43.21,3.14.64,4.46c.43,1.31,1.04,2.43,1.84,3.34.8.91,1.78,1.61,2.94,2.09,1.16.48,2.49.72,3.98.72s2.79-.24,3.94-.72c1.15-.48,2.13-1.17,2.93-2.09.8-.91,1.41-2.03,1.84-3.34.42-1.31.64-2.8.64-4.46Z"/>
    <path class="cls-1" d="M189.68,178.12h1.23c1.14,0,1.96-.36,2.46-1.07l7.48-10.85c.41-.59.88-1,1.4-1.21s1.17-.32,1.93-.32h6.7l-9.85,13.43c-.35.49-.71.89-1.09,1.21s-.77.58-1.16.8c.58.21,1.1.51,1.58.88.48.37.92.87,1.31,1.49l10.03,15.41h-6.88c-.44,0-.82-.03-1.13-.09-.31-.06-.58-.15-.81-.27s-.43-.27-.59-.45c-.17-.17-.33-.38-.48-.6l-7.52-11.56c-.27-.43-.62-.73-1.04-.9-.42-.17-.98-.26-1.7-.26h-1.87v14.14h-7.71v-33.22h7.71v13.45Z"/>
    <path class="cls-1" d="M235.92,164.67v5.93h-13.63v8.41h11.35v5.95h-11.35v12.93h-7.75v-33.22h21.39Z"/>
  </g>
</svg>