<?xml version="1.0" encoding="utf-8"?>
<!-- Generator: Adobe Illustrator 24.1.0, SVG Export Plug-In . SVG Version: 6.00 Build 0)  -->
<svg version="1.1" id="Logo_FIXED" xmlns="http://www.w3.org/2000/svg" xmlns:xlink="http://www.w3.org/1999/xlink" x="0px" y="0px"
	 viewBox="0 0 254 209.2" style="enable-background:new 0 0 254 209.2;" xml:space="preserve">
<style type="text/css">
	.st0{fill:none;}
</style>
<rect x="-72.6" y="-95.4" class="st0" width="400" height="400"/>
<path d="M81,206.2c94.3,0,145.9-78.2,145.9-145.9c0-2.2,0-4.4-0.1-6.6c10-7.3,18.7-16.3,25.6-26.5c-9.4,4.1-19.3,6.9-29.5,8.1
	c10.7-6.4,18.7-16.5,22.5-28.4c-10.1,6-21.1,10.2-32.6,12.4C193.5-1.4,161-2.4,140.3,17c-13.3,12.5-19,31.2-14.8,49
	C84.2,63.9,45.8,44.4,19.8,12.4C6.2,35.8,13.1,65.8,35.7,80.9c-8.2-0.2-16.1-2.4-23.3-6.4c0,0.2,0,0.4,0,0.6
	c0,24.4,17.2,45.4,41.2,50.3c-7.6,2.1-15.5,2.4-23.2,0.9c6.7,20.9,26,35.2,47.9,35.6c-18.2,14.3-40.6,22-63.7,22
	c-4.1,0-8.2-0.3-12.2-0.7C25.8,198.2,53.1,206.2,81,206.2"/>
</svg>
